<svg xmlns="http://www.w3.org/2000/svg" width="36" height="36" viewBox="0 0 36 36">
  <g id="Grupo_1414" data-name="Grupo 1414" transform="translate(-1324 -626)">
    <rect id="Rectángulo_850" data-name="Rectángulo 850" width="36" height="36" rx="6" transform="translate(1324 626)" fill="#fff"/>
    <g id="Grupo_936" data-name="Grupo 936" transform="translate(1225.391 470.486)">
      <path id="Trazado_2129" data-name="Trazado 2129" d="M106.051,191.905a.53.53,0,0,1,.768-.148,1.741,1.741,0,0,1,.731.89c.451,1.135.95,2.25,1.438,3.369a1.108,1.108,0,0,0,.06.1,2.722,2.722,0,0,0,.409-.831c.6-1.633,1.067-3.309,1.541-4.982a2.465,2.465,0,0,1,.182-.492.53.53,0,0,1,.556-.291.537.537,0,0,1,.5.38,2.2,2.2,0,0,1,.044,1.07c-.247,1.577-.518,3.15-.78,4.725-.011.068-.015.138-.026.246l1.019-.594.038.03-.466.872c.1.038.182.047.232-.057a23.159,23.159,0,0,0,1.513-2.849c.242-.754.386-1.528.552-2.3a3.86,3.86,0,0,1,.2-.689.759.759,0,0,1,.642-.511.745.745,0,0,1,.705.415,1.8,1.8,0,0,1,.127,1.4c-.2,1.024-.455,2.037-.732,3.045a23.82,23.82,0,0,1-1.145,3.168,4.578,4.578,0,0,0-.29,2.276,2.426,2.426,0,0,0,.2.833.846.846,0,0,0,1.086.49,3.027,3.027,0,0,0,.839-.4,4.883,4.883,0,0,1,1.835-.792,1.342,1.342,0,0,1,1.277.374.387.387,0,0,1,.037.539,1.312,1.312,0,0,1-.379.362,16.045,16.045,0,0,0-2.437,2.052,10.705,10.705,0,0,1-2.027,1.469c-.538.329-1.074.665-1.626.97a2.5,2.5,0,0,1-1.144.221,5.891,5.891,0,0,1-2.5-.334,1.678,1.678,0,0,1-1.124-1.122,1.471,1.471,0,0,1-.034-.4c.031-1.768-.024-3.535-.153-5.3a12.823,12.823,0,0,0-.547-2.5q-.545-1.948-1.121-3.887a1.808,1.808,0,0,1-.01-.818" transform="translate(0 -23.565)" fill="#058f38"/>
      <path id="Trazado_2130" data-name="Trazado 2130" d="M311.07,164.66a2.348,2.348,0,0,1,.144.77c.091,1.644.172,3.288.26,4.931q.064,1.2.14,2.394a.42.42,0,0,1-.155.394,1.332,1.332,0,0,0-.446.748.774.774,0,0,0-.011.237.125.125,0,0,0,.153.115c.082-.009.065-.077.069-.13a1.823,1.823,0,0,1,1.6-1.5.536.536,0,0,1,.528.266.471.471,0,0,1-.1.55,4.462,4.462,0,0,0-.869,2.3,3.75,3.75,0,0,1-.321,1.486,1.848,1.848,0,0,1-.587.674c-.442.282-.813.666-1.284.906a2.84,2.84,0,0,1-3.626-.771,5.406,5.406,0,0,1-1.343-2.939,7.837,7.837,0,0,1-.086-1.409,2.791,2.791,0,0,0-.166-.892c-.077-.254.027-.3.234-.327.735-.107,1.468-.225,2.221-.341a.384.384,0,0,0-.44-.175c-.7.115-1.4.247-2.1.351a2.091,2.091,0,0,1-1.315-.117.635.635,0,0,1-.413-.567.525.525,0,0,1,.512-.6c1.043-.1,2.078-.249,3.117-.372.357-.042.712-.1,1.072-.113a.945.945,0,0,1,.667.2c.611.5.633.478.783-.277a19.829,19.829,0,0,0,.332-4.34,1.862,1.862,0,0,1,.513-1.492.815.815,0,0,1,.239-.2C310.442,164.41,310.948,164.355,311.07,164.66Z" transform="translate(-185.042)" fill="#058f38"/>
      <path id="Trazado_2131" data-name="Trazado 2131" d="M326.458,180.643a1.35,1.35,0,0,1,.07-.566.6.6,0,0,1,.534-.415.578.578,0,0,1,.58.34,2.724,2.724,0,0,1,.194.857,12.325,12.325,0,0,0,1.336,3.566c.113.21.061.238-.147.258-.421.04-.839.1-1.257.17-.18.028-.26-.007-.31-.209-.253-1.029-.639-2.02-.87-3.056A4.067,4.067,0,0,1,326.458,180.643Z" transform="translate(-206.917 -14.311)" fill="#058f38"/>
      <path id="Trazado_2132" data-name="Trazado 2132" d="M305.452,206.713a.875.875,0,0,1,.274-.733.312.312,0,0,1,.534.13c.439,1.06.874,2.123,1.318,3.181.069.166.064.233-.14.246-.27.017-.537.069-.806.107-.064.009-.133.029-.158-.057-.257-.856-.74-1.625-.962-2.494A3.372,3.372,0,0,1,305.452,206.713Z" transform="translate(-187.202 -38.919)" fill="#058f38"/>
      <path id="Trazado_2133" data-name="Trazado 2133" d="M253.921,276.072c.449-.006.555.061.629.329a.734.734,0,0,1-.32.872,2.36,2.36,0,0,1-.565.19c-.362.095-.729.171-1.09.269-.193.052-.205-.005-.149-.17.133-.392.26-.786.376-1.184a.243.243,0,0,1,.23-.2Z" transform="translate(-137.403 -104.804)" fill="#058f38"/>
    </g>
  </g>
</svg>
