<svg id="Capa_1" data-name="Capa 1" xmlns="http://www.w3.org/2000/svg" viewBox="0 0 35.51 35.51"><defs><style>.cls-1{fill:#fefcfa;}.cls-2{fill:#cd3934;}</style></defs><title>Sin título-1</title><circle class="cls-1" cx="17.75" cy="17.75" r="17.75"/><path class="cls-2" d="M25.66,12.85a6.56,6.56,0,0,1-1.87.51,3.23,3.23,0,0,0,1.43-1.79,6.41,6.41,0,0,1-2.06.78,3.25,3.25,0,0,0-5.61,2.22,3.57,3.57,0,0,0,.08.74A9.15,9.15,0,0,1,11,11.92a3.28,3.28,0,0,0-.45,1.64,3.24,3.24,0,0,0,1.44,2.69,3.16,3.16,0,0,1-1.46-.4v0a3.25,3.25,0,0,0,2.6,3.18,3,3,0,0,1-.85.11,2.56,2.56,0,0,1-.62-.06,3.26,3.26,0,0,0,3,2.26,6.46,6.46,0,0,1-4,1.39,4.9,4.9,0,0,1-.77-.05,9.06,9.06,0,0,0,5,1.46A9.16,9.16,0,0,0,24.05,15c0-.14,0-.28,0-.42A6.21,6.21,0,0,0,25.66,12.85Z"/></svg>