
<svg id="youtube" xmlns="http://www.w3.org/2000/svg" width="36.351" height="36.351" viewBox="0 0 36.351 36.351">
  <path id="Trazado_5849" data-name="Trazado 5849" d="M18.176,0A18.176,18.176,0,1,1,0,18.176,18.176,18.176,0,0,1,18.176,0Z" transform="translate(0 0)" fill="#fefcfa"/>
  <path id="Trazado_5848" data-name="Trazado 5848" d="M138.882,158.031a2.758,2.758,0,0,0-2.757-2.759H123.189a2.758,2.758,0,0,0-2.757,2.759v7.4a2.758,2.758,0,0,0,2.757,2.759h12.936a2.758,2.758,0,0,0,2.757-2.759v-7.4Zm-11.07,6.819V157.9l5.269,3.474Z" transform="translate(-111.195 -143.362)" fill="#cd3934"/>
</svg>
