<svg xmlns="http://www.w3.org/2000/svg" width="49.519" height="49.522" viewBox="0 0 49.519 49.522">
  <g id="Grupo_883" data-name="Grupo 883" transform="translate(0 0)">
    <path id="Rectángulo_825" data-name="Rectángulo 825" d="M3.1,0H43.229a3.1,3.1,0,0,1,3.1,3.1v29.75a3.1,3.1,0,0,1-3.1,3.1H3.1a3.1,3.1,0,0,1-3.1-3.1V3.1A3.1,3.1,0,0,1,3.1,0Z" transform="translate(1.597 1.598)" fill="#00b0eb"/>
    <path id="Trazado_2095" data-name="Trazado 2095" d="M751.813,785.478v16.573a1.6,1.6,0,0,1-1.6,1.6h-3a1.6,1.6,0,0,1-1.6-1.6V785.478a1.6,1.6,0,0,1,1.6-1.6h3a1.6,1.6,0,0,1,1.6,1.6" transform="translate(-712.677 -772.698)" fill="#108d06" fill-rule="evenodd"/>
    <path id="Trazado_2096" data-name="Trazado 2096" d="M758.416,777.589c-9.409-.006-36.761,0-36.99,0a3.2,3.2,0,0,0-3.2,3.2c0,.156,0,18.983,0,26.6a1.5,1.5,0,0,1-2.993.095c0-.107,0-29.792,0-29.693a3.193,3.193,0,0,1,3.194-3.194h39.935a1.5,1.5,0,1,1,.051,3" transform="translate(-713.639 -772.992)" fill="#00cbff" fill-rule="evenodd"/>
    <path id="Trazado_2097" data-name="Trazado 2097" d="M758.413,773.041H718.478a4.8,4.8,0,0,0-4.79,4.792v29.554a4.8,4.8,0,0,0,4.79,4.791h4.536l-3.225,8.2a1.6,1.6,0,1,0,2.97,1.17l1.291-3.28h28.792l1.29,3.28a1.6,1.6,0,0,0,2.975-1.17l-3.228-8.2h4.534a4.8,4.8,0,0,0,4.794-4.791V777.833a4.8,4.8,0,0,0-4.794-4.792m-6.828,42.031H725.308l1.14-2.895h24Zm8.427-7.686a1.6,1.6,0,0,1-1.6,1.6H718.478a1.6,1.6,0,0,1-1.6-1.6V777.833a1.6,1.6,0,0,1,1.6-1.6h39.935a1.6,1.6,0,0,1,1.6,1.6Zm-3.992-4.992h0a1.6,1.6,0,0,1,0,3.2H720.877a1.6,1.6,0,1,1,0-3.2h1.6v-7.986a1.6,1.6,0,0,1,1.6-1.6h6.19a1.6,1.6,0,0,1,1.6,1.6v7.986h1.9V789.317a1.6,1.6,0,0,1,1.6-1.6h6.192a1.6,1.6,0,0,1,1.6,1.6v13.077h1.9v-18.17a1.6,1.6,0,0,1,1.6-1.6h6.19a1.6,1.6,0,0,1,1.6,1.6v18.17ZM725.668,796h2.995v6.391h-2.995Zm11.282-5.092h3v11.483h-3Zm11.28-5.092h3v16.573h-3Z" transform="translate(-713.688 -773.041)" fill="#2d2d2d" fill-rule="evenodd"/>
  </g>
</svg>
