<svg xmlns="http://www.w3.org/2000/svg" xmlns:xlink="http://www.w3.org/1999/xlink" width="49.519" height="41.378" viewBox="0 0 49.519 41.378">
  <defs>
    <clipPath id="clip-path">
      <rect id="Rectángulo_742" data-name="Rectángulo 742" width="4.425" height="2.136" fill="none"/>
    </clipPath>
    <clipPath id="clip-path-2">
      <rect id="Rectángulo_744" data-name="Rectángulo 744" width="4.441" height="2.135" fill="none"/>
    </clipPath>
    <clipPath id="clip-path-3">
      <rect id="Rectángulo_746" data-name="Rectángulo 746" width="4.427" height="2.136" fill="none"/>
    </clipPath>
    <clipPath id="clip-path-4">
      <rect id="Rectángulo_748" data-name="Rectángulo 748" width="4.426" height="2.122" fill="none"/>
    </clipPath>
    <clipPath id="clip-path-5">
      <rect id="Rectángulo_750" data-name="Rectángulo 750" width="4.44" height="2.136" fill="none"/>
    </clipPath>
    <clipPath id="clip-path-6">
      <rect id="Rectángulo_752" data-name="Rectángulo 752" width="4.441" height="2.119" fill="none"/>
    </clipPath>
    <clipPath id="clip-path-7">
      <rect id="Rectángulo_754" data-name="Rectángulo 754" width="4.44" height="2.134" fill="none"/>
    </clipPath>
    <clipPath id="clip-path-8">
      <rect id="Rectángulo_756" data-name="Rectángulo 756" width="4.441" height="2.136" fill="none"/>
    </clipPath>
    <clipPath id="clip-path-9">
      <rect id="Rectángulo_758" data-name="Rectángulo 758" width="4.441" height="2.133" fill="none"/>
    </clipPath>
  </defs>
  <g id="Grupo_828" data-name="Grupo 828" transform="translate(0 0)">
    <path id="Trazado_1883" data-name="Trazado 1883" d="M146.543,774.86a1.442,1.442,0,0,1,1.582,1.72,9.973,9.973,0,0,1-19.647,0,1.443,1.443,0,0,1,1.583-1.72Z" transform="translate(-113.542 -774.087)" fill="#ffb719" fill-rule="evenodd"/>
    <rect id="Rectángulo_740" data-name="Rectángulo 740" width="42.091" height="27.601" transform="translate(3.714 12.301)" fill="#ffb719"/>
    <g id="Grupo_803" data-name="Grupo 803" transform="translate(3.718 24.474)" opacity="0.102">
      <g id="Grupo_802" data-name="Grupo 802">
        <g id="Grupo_801" data-name="Grupo 801" clip-path="url(#clip-path)">
          <rect id="Rectángulo_741" data-name="Rectángulo 741" width="4.434" height="2.134" transform="translate(-0.003 0.001)"/>
        </g>
      </g>
    </g>
    <g id="Grupo_806" data-name="Grupo 806" transform="translate(10.711 18.253)" opacity="0.102">
      <g id="Grupo_805" data-name="Grupo 805">
        <g id="Grupo_804" data-name="Grupo 804" clip-path="url(#clip-path-2)">
          <rect id="Rectángulo_743" data-name="Rectángulo 743" width="4.435" height="2.134" transform="translate(0.008 -0.006)"/>
        </g>
      </g>
    </g>
    <g id="Grupo_809" data-name="Grupo 809" transform="translate(24.391 17.572)" opacity="0.102">
      <g id="Grupo_808" data-name="Grupo 808">
        <g id="Grupo_807" data-name="Grupo 807" clip-path="url(#clip-path-3)">
          <rect id="Rectángulo_745" data-name="Rectángulo 745" width="4.437" height="2.136" transform="translate(-0.003 0.003)"/>
        </g>
      </g>
    </g>
    <g id="Grupo_812" data-name="Grupo 812" transform="translate(17.551 13.642)" opacity="0.102">
      <g id="Grupo_811" data-name="Grupo 811">
        <g id="Grupo_810" data-name="Grupo 810" clip-path="url(#clip-path-4)">
          <rect id="Rectángulo_747" data-name="Rectángulo 747" width="4.437" height="2.133" transform="translate(-0.003 -0.007)"/>
        </g>
      </g>
    </g>
    <g id="Grupo_815" data-name="Grupo 815" transform="translate(41.368 20.621)" opacity="0.102">
      <g id="Grupo_814" data-name="Grupo 814">
        <g id="Grupo_813" data-name="Grupo 813" clip-path="url(#clip-path-5)">
          <rect id="Rectángulo_749" data-name="Rectángulo 749" width="4.435" height="2.137" transform="translate(0.003 -0.004)"/>
        </g>
      </g>
    </g>
    <g id="Grupo_818" data-name="Grupo 818" transform="translate(40.639 33.745)" opacity="0.102">
      <g id="Grupo_817" data-name="Grupo 817">
        <g id="Grupo_816" data-name="Grupo 816" clip-path="url(#clip-path-6)">
          <rect id="Rectángulo_751" data-name="Rectángulo 751" width="4.435" height="2.138" transform="translate(0 -0.009)"/>
        </g>
      </g>
    </g>
    <g id="Grupo_821" data-name="Grupo 821" transform="translate(31.309 35.741)" opacity="0.102">
      <g id="Grupo_820" data-name="Grupo 820">
        <g id="Grupo_819" data-name="Grupo 819" clip-path="url(#clip-path-7)">
          <rect id="Rectángulo_753" data-name="Rectángulo 753" width="4.435" height="2.133" transform="translate(0.003 -0.006)"/>
        </g>
      </g>
    </g>
    <g id="Grupo_824" data-name="Grupo 824" transform="translate(23.432 29.705)" opacity="0.102">
      <g id="Grupo_823" data-name="Grupo 823">
        <g id="Grupo_822" data-name="Grupo 822" clip-path="url(#clip-path-8)">
          <rect id="Rectángulo_755" data-name="Rectángulo 755" width="4.435" height="2.133" transform="translate(0.006)"/>
        </g>
      </g>
    </g>
    <g id="Grupo_827" data-name="Grupo 827" transform="translate(5.543 35.523)" opacity="0.102">
      <g id="Grupo_826" data-name="Grupo 826">
        <g id="Grupo_825" data-name="Grupo 825" clip-path="url(#clip-path-9)">
          <rect id="Rectángulo_757" data-name="Rectángulo 757" width="4.435" height="2.136" transform="translate(0.002 0.004)"/>
        </g>
      </g>
    </g>
    <path id="Trazado_1884" data-name="Trazado 1884" d="M116.664,787.076v1.364a3.144,3.144,0,1,0,6.288,0v-1.364Z" transform="translate(-113.916 -773.701)" fill="#00b2e2" fill-rule="evenodd"/>
    <path id="Trazado_1885" data-name="Trazado 1885" d="M122.762,787.076v1.364a3.143,3.143,0,1,0,6.286,0v-1.364Z" transform="translate(-113.723 -773.701)" fill="#fff" fill-rule="evenodd"/>
    <path id="Trazado_1886" data-name="Trazado 1886" d="M128.856,787.076v1.364a3.143,3.143,0,1,0,6.287,0v-1.364Z" transform="translate(-113.53 -773.701)" fill="#00b2e2" fill-rule="evenodd"/>
    <path id="Trazado_1887" data-name="Trazado 1887" d="M134.951,787.076v1.364a3.144,3.144,0,1,0,6.288,0v-1.364Z" transform="translate(-113.337 -773.701)" fill="#fff" fill-rule="evenodd"/>
    <path id="Trazado_1888" data-name="Trazado 1888" d="M141.049,787.076v1.364a3.144,3.144,0,1,0,6.288,0v-1.364Z" transform="translate(-113.144 -773.701)" fill="#00b2e2" fill-rule="evenodd"/>
    <path id="Trazado_1889" data-name="Trazado 1889" d="M147.144,787.076v1.364a3.143,3.143,0,1,0,6.286,0v-1.364Z" transform="translate(-112.951 -773.701)" fill="#fff" fill-rule="evenodd"/>
    <path id="Trazado_1890" data-name="Trazado 1890" d="M153.238,787.076v1.364a3.144,3.144,0,1,0,6.289,0v-1.364Z" transform="translate(-112.758 -773.701)" fill="#00b2e2" fill-rule="evenodd"/>
    <path id="Rectángulo_759" data-name="Rectángulo 759" d="M.995,0H44.639a.993.993,0,0,1,.993.993V3.464a.993.993,0,0,1-.993.993H.993A.993.993,0,0,1,0,3.464V.995A.995.995,0,0,1,.995,0Z" transform="translate(1.943 10.246)" fill="#333e48"/>
    <rect id="Rectángulo_760" data-name="Rectángulo 760" width="13.844" height="18.213" transform="translate(26.78 21.687)" fill="#fff"/>
    <rect id="Rectángulo_761" data-name="Rectángulo 761" width="8.961" height="6.434" transform="translate(29.221 24.305)" fill="#00b2e2"/>
    <rect id="Rectángulo_762" data-name="Rectángulo 762" width="4.252" height="1.535" transform="translate(31.576 26.343)" fill="#fff"/>
    <path id="Rectángulo_763" data-name="Rectángulo 763" d="M.4,0H47.584a.4.4,0,0,1,.4.4V1.906a.4.4,0,0,1-.4.4H.4a.4.4,0,0,1-.4-.4V.4A.4.4,0,0,1,.4,0Z" transform="translate(0.768 38.301)" fill="#333e48"/>
    <rect id="Rectángulo_764" data-name="Rectángulo 764" width="17.727" height="2.305" transform="translate(24.838 38.305)" fill="#a3a8ac"/>
    <rect id="Rectángulo_765" data-name="Rectángulo 765" width="16.339" height="11.29" transform="translate(7.076 21.687)" fill="#333e48"/>
    <path id="Trazado_1891" data-name="Trazado 1891" d="M131.014,797.794h-4.28l-.94,3.258h6.158Z" transform="translate(-113.627 -773.362)" fill="#00b2e2" fill-rule="evenodd"/>
    <rect id="Rectángulo_766" data-name="Rectángulo 766" width="1.535" height="2.746" transform="translate(14.479 21.687)" fill="#fff"/>
    <path id="Trazado_1892" data-name="Trazado 1892" d="M123.066,806.168v-2.24a.768.768,0,1,1,1.536,0v2.24Z" transform="translate(-113.713 -773.192)" fill="#00b2e2" fill-rule="evenodd"/>
    <path id="Trazado_1893" data-name="Trazado 1893" d="M133,806.168v-2.24a.768.768,0,1,1,1.535,0v2.24Z" transform="translate(-113.399 -773.192)" fill="#00b2e2" fill-rule="evenodd"/>
    <path id="Trazado_1894" data-name="Trazado 1894" d="M143.986,808.621a.766.766,0,1,0-.764-.764.766.766,0,0,0,.764.764m-6.571-13.588H121.076a.766.766,0,0,0-.768.766v11.289a.766.766,0,0,0,.768.768h16.339a.766.766,0,0,0,.768-.768V795.8a.766.766,0,0,0-.768-.766m-.768,11.289h-14.8v-9.756h14.8Zm25.69,5.321a1.184,1.184,0,0,1,1.181,1.184v1.48a1.183,1.183,0,0,1-1.181,1.181H115.182a1.182,1.182,0,0,1-1.182-1.18v-1.48a1.184,1.184,0,0,1,1.182-1.184h1.763V791.416a3.89,3.89,0,0,1-.937-2.116,1.789,1.789,0,0,1-.833-1.512v-2.406a1.793,1.793,0,0,1,1.792-1.791h15.5a10.73,10.73,0,0,1-4.285-6.854,2.212,2.212,0,0,1,2.34-2.626l16.483,0a2.21,2.21,0,0,1,2.341,2.624c-.012.065-.026.129-.037.195a2.767,2.767,0,0,1-.338,5.513h-2.572a10.662,10.662,0,0,1-1.338,1.146h15.5a1.793,1.793,0,0,1,1.792,1.791v2.406a1.789,1.789,0,0,1-.833,1.512,3.9,3.9,0,0,1-.937,2.116v20.228Zm-13.443-33.2a10.588,10.588,0,0,1-1.239,2.464h1.31a1.232,1.232,0,0,0,0-2.464Zm-19.2-1.971a9.185,9.185,0,0,0,6.083,7.117h5.973a9.179,9.179,0,0,0,6.081-7.117.789.789,0,0,0-.142-.6.847.847,0,0,0-.684-.23H130.518a.846.846,0,0,0-.683.23.8.8,0,0,0-.144.6m-12.979,11.314a.258.258,0,0,0,.257.256h43.583a.259.259,0,0,0,.257-.256v-2.406a.261.261,0,0,0-.257-.257H116.968a.26.26,0,0,0-.257.257Zm37.912,7.245H140.782a.767.767,0,0,0-.769.766v15.845H118.48V792.5a3.892,3.892,0,0,0,4.559-1.323,3.9,3.9,0,0,0,6.287,0,3.9,3.9,0,0,0,6.288,0,3.9,3.9,0,0,0,6.288,0,3.905,3.905,0,0,0,6.291,0,3.9,3.9,0,0,0,6.287,0,3.891,3.891,0,0,0,4.558,1.323v19.147h-3.647V795.8a.766.766,0,0,0-.768-.766m-.768,16.611H141.549V796.566h12.307Zm-36.223-22.063a2.375,2.375,0,0,0,4.522,0Zm6.289,0a2.375,2.375,0,0,0,4.522,0Zm6.288,0a2.375,2.375,0,0,0,4.522,0Zm6.29,0a2.374,2.374,0,0,0,4.521,0Zm6.288,0a2.376,2.376,0,0,0,4.523,0Zm6.288,0a2.376,2.376,0,0,0,4.523,0Zm8.55,1.648a2.381,2.381,0,0,0,2.261-1.648h-4.524a2.382,2.382,0,0,0,2.262,1.648M138.07,813.181H115.535v.77H138.07Zm17.725,0h-16.19v.77H155.8Zm6.188,0h-4.651v.77h4.651Z" transform="translate(-114 -774.111)" fill="#1e252b" fill-rule="evenodd"/>
  </g>
</svg>
