<svg xmlns="http://www.w3.org/2000/svg" width="49.455" height="41.562" viewBox="0 0 49.455 41.562">
  <g id="Grupo_1412" data-name="Grupo 1412" transform="translate(-1827.497 -1824.385)">
    <path id="Trazado_2030" data-name="Trazado 2030" d="M728.471,949.346h-3.653c-.8,0-1.453-3.312-1.453-4.547v-2.863c0-1.238.65-2.24,1.453-2.24h3.653c.8,0,1.453,1,1.453,2.24V944.8C729.923,946.035,729.273,949.346,728.471,949.346Z" transform="translate(1113.793 906.553)" fill="#ffc5b2"/>
    <path id="Trazado_2031" data-name="Trazado 2031" d="M728.363,939.7h-1.4c.8,0,1.446,1,1.446,2.229v2.886c0,1.23-.648,4.535-1.446,4.535h1.4c.8,0,1.446-3.305,1.446-4.535v-2.886C729.809,940.693,729.162,939.7,728.363,939.7Z" transform="translate(1113.907 906.553)" fill="#ffae92"/>
    <path id="Trazado_2032" data-name="Trazado 2032" d="M751.517,949.346h-3.652c-.8,0-1.453-3.312-1.453-4.547v-2.863c0-1.238.65-2.24,1.453-2.24h3.652c.8,0,1.456,1,1.456,2.24V944.8C752.972,946.035,752.32,949.346,751.517,949.346Z" transform="translate(1114.522 906.553)" fill="#bc663b"/>
    <path id="Trazado_2033" data-name="Trazado 2033" d="M751.41,939.7h-1.4c.8,0,1.447,1,1.447,2.229v2.886c0,1.23-.649,4.535-1.447,4.535h1.4c.8,0,1.448-3.305,1.448-4.535v-2.886C752.858,940.693,752.208,939.7,751.41,939.7Z" transform="translate(1114.636 906.553)" fill="#ad5731"/>
    <path id="Trazado_2034" data-name="Trazado 2034" d="M730.1,922.874a3.7,3.7,0,1,1-3.7-3.7A3.7,3.7,0,0,1,730.1,922.874Z" transform="translate(1113.772 905.903)" fill="#d2d2dd"/>
    <path id="Trazado_2035" data-name="Trazado 2035" d="M726.325,919.173a3.711,3.711,0,0,0-1.234.213,3.7,3.7,0,0,1,0,6.977,3.7,3.7,0,1,0,1.234-7.19Z" transform="translate(1113.848 905.903)" fill="#aeaeb4"/>
    <path id="Trazado_2036" data-name="Trazado 2036" d="M717.086,937.391v-5.373a9.127,9.127,0,0,1,9.128-9.13h.729a9.128,9.128,0,0,1,9.129,9.13v5.373Z" transform="translate(1113.594 906.021)" fill="#aeaeb4"/>
    <path id="Trazado_2037" data-name="Trazado 2037" d="M726.706,922.888h-.729a9.007,9.007,0,0,0-1.4.107,9.129,9.129,0,0,1,7.727,9.023v5.373h3.534v-5.373A9.128,9.128,0,0,0,726.706,922.888Z" transform="translate(1113.831 906.021)" fill="#919191"/>
    <path id="Trazado_2038" data-name="Trazado 2038" d="M736.038,934.725h-1.143V933.6a6.4,6.4,0,0,0-6.4-6.4h-3.729a6.4,6.4,0,0,0-6.4,6.4v1.127h-1.143a1.68,1.68,0,0,0-1.681,1.681v.837a2.143,2.143,0,0,0,2.14,2.144,2.331,2.331,0,0,0,.692-.036,6.4,6.4,0,0,0,6.394,6.068h3.729a6.4,6.4,0,0,0,6.393-6.068,2.345,2.345,0,0,0,.694.036,2.142,2.142,0,0,0,2.138-2.144v-.837A1.679,1.679,0,0,0,736.038,934.725Z" transform="translate(1113.545 906.157)" fill="#ffc5b2"/>
    <path id="Trazado_2039" data-name="Trazado 2039" d="M740.387,936.41V931.4a7.381,7.381,0,0,1,7.38-7.381H752a7.381,7.381,0,0,1,7.38,7.381v5.013Z" transform="translate(1114.332 906.057)" fill="#aeaeb4"/>
    <path id="Trazado_2040" data-name="Trazado 2040" d="M751.747,924.016h-3.532a7.382,7.382,0,0,1,7.378,7.381v5.013h3.535V931.4A7.381,7.381,0,0,0,751.747,924.016Z" transform="translate(1114.579 906.057)" fill="#919191"/>
    <path id="Trazado_2041" data-name="Trazado 2041" d="M726.355,942.187a2.264,2.264,0,0,1-2.191-1.459.694.694,0,1,1,1.321-.424,1.008,1.008,0,0,0,1.738,0,.694.694,0,1,1,1.323.424A2.261,2.261,0,0,1,726.355,942.187Z" transform="translate(1113.817 906.557)" fill="#ff75ac"/>
    <path id="Trazado_2042" data-name="Trazado 2042" d="M759.342,934.725H758.2V933.6a6.4,6.4,0,0,0-6.4-6.4h-3.729a6.4,6.4,0,0,0-6.4,6.4v1.127h-1.143a1.678,1.678,0,0,0-1.679,1.681v.837a2.142,2.142,0,0,0,2.137,2.144,2.344,2.344,0,0,0,.694-.036,6.4,6.4,0,0,0,6.393,6.068H751.8a6.4,6.4,0,0,0,6.393-6.068,2.346,2.346,0,0,0,.694.036,2.141,2.141,0,0,0,2.138-2.144v-.837A1.679,1.679,0,0,0,759.342,934.725Z" transform="translate(1114.283 906.157)" fill="#bc663b"/>
    <path id="Trazado_2043" data-name="Trazado 2043" d="M754.624,935.9a1.183,1.183,0,1,1-1.185-1.182A1.184,1.184,0,0,1,754.624,935.9Z" transform="translate(1114.707 906.395)" fill="#603813"/>
    <path id="Trazado_2044" data-name="Trazado 2044" d="M747,935.9a1.184,1.184,0,1,1-1.183-1.182A1.184,1.184,0,0,1,747,935.9Z" transform="translate(1114.466 906.395)" fill="#603813"/>
    <path id="Trazado_2045" data-name="Trazado 2045" d="M746.336,934.2h-1.561a1.1,1.1,0,0,1,0-2.2h1.561a1.1,1.1,0,0,1,0,2.2Z" transform="translate(1114.436 906.31)" fill="#e8e8ed"/>
    <path id="Trazado_2046" data-name="Trazado 2046" d="M746.292,932h-1.219a1.1,1.1,0,1,1,0,2.2h1.219a1.1,1.1,0,0,0,0-2.2Z" transform="translate(1114.48 906.31)" fill="#d2d2dd"/>
    <path id="Trazado_2047" data-name="Trazado 2047" d="M735.721,934.725h-1.143v-1.153A6.373,6.373,0,0,0,728.2,927.2h-2.671a6.376,6.376,0,0,1,6.375,6.375v5.474a6.375,6.375,0,0,1-6.375,6.373H728.2a6.372,6.372,0,0,0,6.365-6.068,2.338,2.338,0,0,0,.693.036,2.142,2.142,0,0,0,2.138-2.144v-.837A1.679,1.679,0,0,0,735.721,934.725Z" transform="translate(1113.862 906.157)" fill="#ffae92"/>
    <path id="Trazado_2048" data-name="Trazado 2048" d="M730.445,932.781a3.372,3.372,0,0,0-3.292,2.669h-1.283a3.362,3.362,0,1,0,0,1.389h1.283a3.363,3.363,0,1,0,3.292-4.057Zm-7.865,5.337a1.974,1.974,0,1,1,1.973-1.971A1.976,1.976,0,0,1,722.579,938.118Zm7.865,0a1.974,1.974,0,1,1,1.973-1.971A1.976,1.976,0,0,1,730.445,938.118Z" transform="translate(1113.661 906.334)" fill="#5c5c5c"/>
    <path id="Trazado_2049" data-name="Trazado 2049" d="M731.038,936.071a.91.91,0,1,1-.91-.913A.91.91,0,0,1,731.038,936.071Z" transform="translate(1113.978 906.41)" fill="#257edf"/>
    <path id="Trazado_2050" data-name="Trazado 2050" d="M723.413,936.071a.91.91,0,1,1-.909-.913A.911.911,0,0,1,723.413,936.071Z" transform="translate(1113.737 906.41)" fill="#257edf"/>
    <path id="Trazado_2051" data-name="Trazado 2051" d="M759.026,934.725h-1.143v-1.153a6.374,6.374,0,0,0-6.375-6.375h-2.672a6.372,6.372,0,0,1,6.372,6.375v5.474a6.372,6.372,0,0,1-6.372,6.373h2.672a6.375,6.375,0,0,0,6.366-6.068,2.321,2.321,0,0,0,.69.036,2.142,2.142,0,0,0,2.14-2.144v-.837A1.679,1.679,0,0,0,759.026,934.725Z" transform="translate(1114.599 906.157)" fill="#ad5731"/>
    <path id="Trazado_2052" data-name="Trazado 2052" d="M751.5,939.218c.476,0,.728.691.393,1.094a2.914,2.914,0,0,1-4.464,0c-.335-.4-.083-1.094.4-1.094Z" transform="translate(1114.55 906.538)" fill="#dd5298"/>
    <path id="Trazado_2053" data-name="Trazado 2053" d="M751.447,939.218h-2.424v.034a2.685,2.685,0,0,0,.947,2.064l.015.012a2.9,2.9,0,0,0,1.856-1.017C752.176,939.909,751.923,939.218,751.447,939.218Z" transform="translate(1114.605 906.538)" fill="#c93f84"/>
    <path id="Trazado_2054" data-name="Trazado 2054" d="M752.026,937.919H747.5a3.244,3.244,0,0,0-3.246,3.245.549.549,0,0,0,.55.546h2.065a3.034,3.034,0,0,1,5.789,0h2.068a.55.55,0,0,0,.549-.546A3.246,3.246,0,0,0,752.026,937.919Z" transform="translate(1114.454 906.497)" fill="#e8e8ed"/>
    <path id="Trazado_2055" data-name="Trazado 2055" d="M751.85,937.919H749.8a3.243,3.243,0,0,1,3.242,3.245.547.547,0,0,1-.547.546h2.047a.547.547,0,0,0,.546-.546A3.242,3.242,0,0,0,751.85,937.919Z" transform="translate(1114.63 906.497)" fill="#d2d2dd"/>
    <path id="Trazado_2056" data-name="Trazado 2056" d="M754.745,934.2h-1.557a1.1,1.1,0,1,1,0-2.2h1.557a1.1,1.1,0,1,1,0,2.2Z" transform="translate(1114.702 906.31)" fill="#e8e8ed"/>
    <path id="Trazado_2057" data-name="Trazado 2057" d="M754.7,932h-1.216a1.1,1.1,0,1,1,0,2.2H754.7a1.1,1.1,0,1,0,0-2.2Z" transform="translate(1114.746 906.31)" fill="#d2d2dd"/>
    <path id="Trazado_2058" data-name="Trazado 2058" d="M723.413,936.071a.91.91,0,1,1-.909-.913A.911.911,0,0,1,723.413,936.071Z" transform="translate(1113.737 906.41)"/>
    <path id="Trazado_2059" data-name="Trazado 2059" d="M747.968,926.581h3.786a7.076,7.076,0,0,1,6.9,5.567v-.771a6.693,6.693,0,0,0-6.685-6.687h-4.228a6.692,6.692,0,0,0-6.683,6.687v.771A7.075,7.075,0,0,1,747.968,926.581Z" transform="translate(1114.353 906.078)" fill="none"/>
    <path id="Trazado_2060" data-name="Trazado 2060" d="M752.015,945.516a5.044,5.044,0,0,0,.583-.074,7.1,7.1,0,0,1-1.074.093h-3.182A31.857,31.857,0,0,0,752.015,945.516Z" transform="translate(1114.583 906.735)" fill="none"/>
    <path id="Trazado_2061" data-name="Trazado 2061" d="M739.513,936.146V937a1.44,1.44,0,0,0,1.435,1.436v-3.27h-.457A.979.979,0,0,0,739.513,936.146Z" transform="translate(1114.304 906.41)" fill="none"/>
    <path id="Trazado_2062" data-name="Trazado 2062" d="M759.24,935.4h-.457v.624a.693.693,0,1,1-1.386,0V933.55a5.686,5.686,0,0,0-5.68-5.68H747.93a5.686,5.686,0,0,0-5.68,5.68v5.474a5.686,5.686,0,0,0,5.68,5.676h3.786a5.686,5.686,0,0,0,5.68-5.676v-.246a.693.693,0,0,1,1.378-.108h.008a1.436,1.436,0,0,0,1.434-1.436v-.856A.978.978,0,0,0,759.24,935.4Z" transform="translate(1114.391 906.179)" fill="none"/>
    <path id="Trazado_2063" data-name="Trazado 2063" d="M747.025,944.835c0,.009.006.016.008.025h.032C747.054,944.851,747.039,944.844,747.025,944.835Z" transform="translate(1114.542 906.716)"/>
    <path id="Trazado_2064" data-name="Trazado 2064" d="M751.888,944.835c-.015.009-.029.016-.042.025h.033C751.881,944.851,751.886,944.844,751.888,944.835Z" transform="translate(1114.694 906.716)"/>
    <path id="Trazado_2065" data-name="Trazado 2065" d="M755.49,948.706l-2.664-1.1a3.457,3.457,0,0,1-3.019,2.347A3.664,3.664,0,0,1,746.571,947l-4.229,1.295a4.932,4.932,0,0,0-3.035,4.031l-.92,5.3h2.83l.5-3.967,1.144.253-.467,3.714h14.833l-.468-3.714,1.146-.253.5,3.967h1.141l-.492-3.579A6.575,6.575,0,0,0,755.49,948.706Z" transform="translate(1114.268 906.784)" fill="#39c2fb"/>
    <path id="Trazado_2066" data-name="Trazado 2066" d="M759.865,952.328a4.927,4.927,0,0,0-3.036-4.031L752.6,947a5.479,5.479,0,0,1-.216.6l2.664,1.1a6.575,6.575,0,0,1,3.556,5.343l.492,3.579h1.69Z" transform="translate(1114.711 906.784)" fill="#148bdf"/>
    <path id="Trazado_2067" data-name="Trazado 2067" d="M751.464,949.934H750c-.064,0-.124.016-.188.016s-.109-.013-.166-.016h-1.49c-.539,0-1.2-1.448-1.64-2.912l-4.169,1.276a4.932,4.932,0,0,0-3.035,4.031l-.92,5.3h2.83l.5-3.967,1.144.253-.467,3.714h14.833l-.468-3.714,1.146-.253.5,3.967h2.831l-.92-5.3a4.927,4.927,0,0,0-3.036-4.031L753.042,947a5.467,5.467,0,0,1-.216.6c-.045.1-.1.2-.15.3C752.33,949.016,751.892,949.934,751.464,949.934Z" transform="translate(1114.268 906.784)" fill="none"/>
    <path id="Trazado_2068" data-name="Trazado 2068" d="M749.65,949.844H749.3c.057,0,.109.016.166.016S749.586,949.847,749.65,949.844Z" transform="translate(1114.614 906.874)"/>
    <g id="Grupo_876" data-name="Grupo 876" transform="translate(1851.201 1829.38)">
      <path id="Trazado_2069" data-name="Trazado 2069" d="M749.78,942.109a3.566,3.566,0,0,0,1.066-.159,3.741,3.741,0,0,0,1.829.474h2.068a1.244,1.244,0,0,0,1.243-1.24,3.944,3.944,0,0,0-3.939-3.939h-4.53a3.944,3.944,0,0,0-3.94,3.939,1.243,1.243,0,0,0,1.244,1.24h2.065a3.741,3.741,0,0,0,1.828-.474A3.565,3.565,0,0,0,749.78,942.109Zm-2.894-1.071H744.97a2.552,2.552,0,0,1,2.547-2.4h4.53a2.552,2.552,0,0,1,2.545,2.4h-1.917a2.557,2.557,0,0,1-1.383-.45,2.356,2.356,0,0,1-.849-1.187.692.692,0,0,0-1.323,0,2.345,2.345,0,0,1-.85,1.187A2.542,2.542,0,0,1,746.887,941.038Z" transform="translate(-736.768 -922.904)"/>
      <path id="Trazado_2070" data-name="Trazado 2070" d="M745.4,934.919a1.185,1.185,0,1,0,.935,0h.025a1.8,1.8,0,0,0,0-3.59H744.8a1.8,1.8,0,0,0,0,3.59Zm-1-1.8a.407.407,0,0,1,.406-.407h1.558a.406.406,0,0,1,0,.812H744.8A.4.4,0,0,1,744.393,933.124Z" transform="translate(-736.786 -923.091)"/>
      <path id="Trazado_2071" data-name="Trazado 2071" d="M753.024,934.91a1.182,1.182,0,1,0,.91.009h.832a1.8,1.8,0,0,0,0-3.59h-1.557a1.8,1.8,0,0,0-.185,3.581Zm.185-2.193h1.557a.406.406,0,1,1,0,.812h-1.557a.406.406,0,0,1,0-.812Z" transform="translate(-736.52 -923.091)"/>
      <path id="Trazado_2072" data-name="Trazado 2072" d="M742.127,947.549c-1.926.591-3.458,2.625-3.9,5.182l-1.247,7.181h25.751l-1.246-7.181c-.448-2.557-1.978-4.591-3.906-5.182a24.577,24.577,0,0,0-2.716-.831c-.328-.051-1.089-.16-1.617-.236.026-.145.046-.282.066-.415a7.849,7.849,0,0,0,3.65-2.01,7.038,7.038,0,0,0,1.916-3.859h.075a2.826,2.826,0,0,0,2.824-2.823v-.856a2.373,2.373,0,0,0-1.6-2.239v-2.863a8.083,8.083,0,0,0-8.074-8.075h-4.23a8.083,8.083,0,0,0-8.074,8.075v2.863a2.372,2.372,0,0,0-1.6,2.239v.856a2.826,2.826,0,0,0,2.823,2.823h.078a7.079,7.079,0,0,0,3.137,4.887,3.639,3.639,0,0,0,1.876.808c.024.169.056.347.095.537-.469.107-1.072.24-1.368.287A24.541,24.541,0,0,0,742.127,947.549Zm-1.1-8.736a1.44,1.44,0,0,1-1.435-1.436v-.856a.979.979,0,0,1,.978-.978h.457Zm.164-7.394a6.692,6.692,0,0,1,6.683-6.687H752.1a6.692,6.692,0,0,1,6.685,6.687v.772a7.076,7.076,0,0,0-6.9-5.567H748.1a7.075,7.075,0,0,0-6.9,5.567Zm1.225,7.749v-5.474a5.686,5.686,0,0,1,5.68-5.68h3.786a5.686,5.686,0,0,1,5.68,5.68v2.473a.693.693,0,1,0,1.386,0v-.624h.457a.978.978,0,0,1,.977.978v.856a1.436,1.436,0,0,1-1.434,1.436h-.008a.693.693,0,0,0-1.378.108v.246a5.686,5.686,0,0,1-5.68,5.676H748.1A5.686,5.686,0,0,1,742.417,939.167Zm9.838,7.048c-.032.249-.069.534-.11.836a5.394,5.394,0,0,1-.419.823,2.2,2.2,0,0,1-1.873,1.287,2.631,2.631,0,0,1-2.232-1.672c-.072-.5-.135-.984-.186-1.367.379.047.8.085,1.267.112h3.182C752.009,946.234,752.132,946.225,752.255,946.216Zm-5.7,1.555.06-.019a3.721,3.721,0,0,0,3.07,2.931h.354a3.4,3.4,0,0,0,2.681-2.029c.051-.1.1-.2.15-.3a5.475,5.475,0,0,0,.216-.6l4.23,1.295a4.928,4.928,0,0,1,3.036,4.031l.92,5.3h-2.831l-.5-3.967-1.146.253.468,3.714H742.436l.467-3.714-1.144-.253-.5,3.967h-2.83l.92-5.3a4.933,4.933,0,0,1,3.035-4.031Z" transform="translate(-736.977 -923.344)"/>
    </g>
    <path id="Trazado_2073" data-name="Trazado 2073" d="M732.514,948.677l-2.663-1.107a3.458,3.458,0,0,1-3.019,2.349,3.66,3.66,0,0,1-3.235-2.947l-4.231,1.3a4.929,4.929,0,0,0-3.035,4.029l-.922,5.3h2.833l.5-3.966,1.141.252-.465,3.714h14.832l-.466-3.714,1.142-.252.5,3.966h1.139l-.489-3.578A6.574,6.574,0,0,0,732.514,948.677Z" transform="translate(1113.541 906.783)" fill="#f9f953"/>
    <path id="Trazado_2074" data-name="Trazado 2074" d="M736.889,952.3a4.924,4.924,0,0,0-3.035-4.029l-4.23-1.3a5.132,5.132,0,0,1-.216.6l2.663,1.107a6.574,6.574,0,0,1,3.558,5.343l.489,3.578h1.693Z" transform="translate(1113.984 906.783)" fill="#ddce17"/>
    <path id="Trazado_2075" data-name="Trazado 2075" d="M728.414,949.935H725.1c-.541,0-1.2-1.455-1.642-2.922l-4.094,1.255a4.929,4.929,0,0,0-3.035,4.029l-.922,5.3h2.833l.5-3.966,1.141.252-.465,3.714h14.832l-.466-3.714,1.142-.252.5,3.966h2.832l-.922-5.3a4.924,4.924,0,0,0-3.035-4.029l-4.23-1.3a5.143,5.143,0,0,1-.216.6,4.734,4.734,0,0,1-.312.6C729.208,949.159,728.807,949.935,728.414,949.935Z" transform="translate(1113.541 906.783)" fill="none"/>
    <path id="Trazado_2076" data-name="Trazado 2076" d="M724.664,926.734h3.787a7.078,7.078,0,0,1,6.9,5.567v-.187a8.483,8.483,0,0,0-8.23-8.434.694.694,0,0,1,.018-1.387h.014a10.075,10.075,0,0,1,2.4.352,3,3,0,0,0-5.994,0c.073-.017.145-.041.22-.057a.693.693,0,1,1,.342,1.344,8.423,8.423,0,0,0-6.363,8.18v.187A7.079,7.079,0,0,1,724.664,926.734Z" transform="translate(1113.615 905.925)" fill="none"/>
    <path id="Trazado_2077" data-name="Trazado 2077" d="M735.938,935.4h-.456v.624a.694.694,0,1,1-1.389,0V933.55a5.686,5.686,0,0,0-5.68-5.68h-3.787a5.685,5.685,0,0,0-5.68,5.68v5.474a5.685,5.685,0,0,0,5.68,5.676h3.787a5.686,5.686,0,0,0,5.68-5.676v-.246a.693.693,0,0,1,1.378-.108h.009a1.439,1.439,0,0,0,1.435-1.436v-.856A.979.979,0,0,0,735.938,935.4Z" transform="translate(1113.653 906.179)" fill="none"/>
    <path id="Trazado_2078" data-name="Trazado 2078" d="M716.21,936.146V937a1.438,1.438,0,0,0,1.435,1.436v-3.27h-.457A.979.979,0,0,0,716.21,936.146Z" transform="translate(1113.566 906.41)" fill="none"/>
    <g id="Grupo_877" data-name="Grupo 877" transform="translate(1827.497 1824.385)">
      <path id="Trazado_2079" data-name="Trazado 2079" d="M721.87,946.838a24.865,24.865,0,0,0-2.721.833c-1.925.591-3.457,2.626-3.9,5.182L714,960.034h25.752l-1.248-7.18c-.446-2.556-1.977-4.591-3.9-5.182a24.944,24.944,0,0,0-2.721-.833c-.342-.048-1.155-.168-1.682-.242.027-.161.052-.314.071-.461a7.286,7.286,0,0,0,3.392-1.923,7.061,7.061,0,0,0,1.9-3.859h.076a2.826,2.826,0,0,0,2.823-2.823v-.856a2.37,2.37,0,0,0-1.6-2.239v-2.278a9.82,9.82,0,0,0-5.8-8.967c.006-.1.01-.2.01-.3a4.394,4.394,0,0,0-8.788,0c0,.1.005.2.011.3a9.807,9.807,0,0,0-5.805,8.967v2.278a2.373,2.373,0,0,0-1.6,2.239v.856a2.826,2.826,0,0,0,2.825,2.823h.074a7.057,7.057,0,0,0,2.3,4.232,16.419,16.419,0,0,0,2.957,1.243c.026.224.065.471.12.743C722.705,946.674,722.15,946.8,721.87,946.838Zm-4.156-7.872a1.438,1.438,0,0,1-1.435-1.436v-.856a.979.979,0,0,1,.978-.978h.457Zm16.626,10.2a4.924,4.924,0,0,1,3.035,4.029l.922,5.3h-2.832l-.5-3.966-1.142.252.466,3.714H719.461l.465-3.714-1.141-.252-.5,3.966h-2.833l.922-5.3a4.93,4.93,0,0,1,3.035-4.029l4.094-1.255.137-.041a3.66,3.66,0,0,0,3.235,2.948,3.237,3.237,0,0,0,2.707-1.747,4.735,4.735,0,0,0,.312-.6,5.123,5.123,0,0,0,.216-.6Zm-16.464-17.013a8.423,8.423,0,0,1,6.363-8.18.694.694,0,1,0-.342-1.344c-.074.016-.146.039-.22.057a3,3,0,0,1,5.994,0,10.075,10.075,0,0,0-2.4-.352h-.014a.694.694,0,0,0-.018,1.388,8.482,8.482,0,0,1,8.23,8.434v.187a7.078,7.078,0,0,0-6.9-5.567h-3.787a7.079,7.079,0,0,0-6.906,5.567Zm1.226,7.164v-5.474a5.685,5.685,0,0,1,5.68-5.68h3.787a5.686,5.686,0,0,1,5.68,5.68v2.473a.694.694,0,0,0,1.389,0V935.7h.456a.979.979,0,0,1,.978.978v.856a1.439,1.439,0,0,1-1.435,1.436h-.009a.693.693,0,0,0-1.378.108v.247A5.686,5.686,0,0,1,728.57,945h-3.787A5.685,5.685,0,0,1,719.1,939.321Zm7.9,7.042c.674-.058,1.408-.005,2.215-.068a11.386,11.386,0,0,1-.464,1.7,2.2,2.2,0,0,1-1.875,1.287,2.694,2.694,0,0,1-2.353-1.974c-.059-.429-.109-.826-.152-1.139A9.475,9.475,0,0,0,727,946.363Z" transform="translate(-714 -918.503)"/>
      <path id="Trazado_2080" data-name="Trazado 2080" d="M726.355,942.187a2.261,2.261,0,0,0,2.191-1.459.694.694,0,1,0-1.323-.424,1.008,1.008,0,0,1-1.738,0,.694.694,0,1,0-1.321.424A2.264,2.264,0,0,0,726.355,942.187Z" transform="translate(-713.679 -917.828)"/>
      <path id="Trazado_2081" data-name="Trazado 2081" d="M725.869,936.839h1.283a3.363,3.363,0,1,0,0-1.389h-1.283a3.362,3.362,0,1,0,0,1.389Zm4.575-2.669a1.974,1.974,0,1,1-1.975,1.977A1.978,1.978,0,0,1,730.445,934.17Zm-7.865,3.948a1.974,1.974,0,1,1,1.973-1.971A1.976,1.976,0,0,1,722.579,938.118Z" transform="translate(-713.835 -918.051)"/>
      <path id="Trazado_2082" data-name="Trazado 2082" d="M730.128,936.982a.912.912,0,1,0-.911-.911A.91.91,0,0,0,730.128,936.982Z" transform="translate(-713.518 -917.976)"/>
    </g>
  </g>
</svg>
