<svg xmlns="http://www.w3.org/2000/svg" width="49.519" height="49.425" viewBox="0 0 49.519 49.425">
  <g id="Grupo_831" data-name="Grupo 831" transform="translate(0 0)">
    <path id="Trazado_1896" data-name="Trazado 1896" d="M423.887,774.522v2.7c-3.58,0-3-.767-3,5.114V800.1a2.662,2.662,0,0,0-2.223,1.449c-1.622,0-2.61.41-3.158,1.771a3.8,3.8,0,0,0-.132,1.511,2.589,2.589,0,0,0-1.355,2.106v.494a2.759,2.759,0,0,0,1.451,2.227,2.685,2.685,0,0,0,.846,2.535c.406.361,1.608,1,2.348.649.268,1.013.386-.774.386,3.089h-4.257a.81.81,0,0,0-.774.586v.354c.094.323.466.607,1.258.607h27.564a10.222,10.222,0,0,0-.06,1.115,5,5,0,0,0,1.152,2.814,5.094,5.094,0,0,0,3.652,1.765h.476a4.679,4.679,0,0,0,3.653-1.956c.594-.828,6.2-14.217,6.85-15.848,1.264-3.171,2.976-6.811,4.23-9.97a9.409,9.409,0,0,0,.745-2.247v-.611a3.186,3.186,0,0,0-.757-1.629,3.229,3.229,0,0,0-1.663-.946,21.121,21.121,0,0,0,1.068-2.705,2.186,2.186,0,0,0-.756-1.565c-1.349-1.01-3.763-.659-5.218.814-.285.289-.453.668-.7.847,0-2.873.616-6.362-1.311-7.666a3.489,3.489,0,0,0-1.049-.5,3.149,3.149,0,0,0-1.314-.038c0-1.192.187-2.683-.456-3.406-1-1.129-2.809-.623-3.843.083a4.52,4.52,0,0,0-.755.693,2.292,2.292,0,0,0-.317.356c-.411.534-.445.345-2.271.345,0-1.159.287-3.476-.58-3.476H424.469c-.316,0-.582.418-.582.772" transform="translate(-414.021 -773.75)" fill="#2d2d2d" fill-rule="evenodd"/>
    <path id="Trazado_1897" data-name="Trazado 1897" d="M422.245,800.262l1,1.082a3.121,3.121,0,0,1,1.805.363c.636.362.658.628,1.124,1.042,3.881.142,3.159-.515,3.172,3.65a30.38,30.38,0,0,1-.025,3.387c-.2.953-1.943.552-2.812.619a2.792,2.792,0,0,1-3.307,2.254c-.275.687-.439.185-.43,1.279.006.617,0,1.231,0,1.845l19.715.023-.006-37.24-20.215-.005Z" transform="translate(-413.761 -773.598)" fill="#90e1fb" fill-rule="evenodd"/>
    <path id="Trazado_1898" data-name="Trazado 1898" d="M422.25,800.3l.027-21.656,20.018.005.009,37.159c1.161,0,.817.191,1.585-1.62l1.47-3.459c.2-.609.074-19.977.074-22.265,0-3.16.163-6.77-.008-9.877l-23.282-.043c-.139,2.218,0,8.218-.012,10.888l0,10.61c.054.277-.034.109.116.258" transform="translate(-413.766 -773.598)" fill="#69d6fa" fill-rule="evenodd"/>
    <path id="Trazado_1899" data-name="Trazado 1899" d="M445.336,812.6a5.054,5.054,0,0,1,1.743-.16c.563.062,1,.359,1.542.279.246-.119,7.255-16.881,8.343-19.458.433-1.032,2.715-6.013,2.684-6.708a2.8,2.8,0,0,0-3.564.814,27.48,27.48,0,0,0-1.577,3.539c-.728,1.687-8.926,20.791-9.171,21.695" transform="translate(-413.03 -773.356)" fill="#faeee4" fill-rule="evenodd"/>
    <path id="Trazado_1900" data-name="Trazado 1900" d="M446.15,807.1c.019-.19,2.168-5.076,2.474-5.8a5.835,5.835,0,0,0,.684-3.593c0-2.9.122-20.505-.081-21.183a2.67,2.67,0,0,0-2.71,1.345c-.588,1-.391,2.559-.392,3.812,0,2.09-.088,24.478.025,25.423" transform="translate(-413.006 -773.664)" fill="#fbe0cb" fill-rule="evenodd"/>
    <path id="Trazado_1901" data-name="Trazado 1901" d="M419.383,810.478c.555.476.453,1.359,1.491,1.471a1.247,1.247,0,0,0,1.038-.342c.438-.4.266-.6.554-.987.543-.726,1.3.365,2.278-.334.883-.628.271-1.307.366-2.285.474-.406.949-.453,1.231-.849a1.433,1.433,0,0,0-.1-1.708c-.356-.385-1.173-.367-1.241-.986s.483-.991-.06-1.77a1.376,1.376,0,0,0-1.538-.485c-.954.208-.919-.2-1.274-.855a1.311,1.311,0,0,0-1.623-.5c-.743.282-.567.8-.956,1.27-.5.609-2.572-.713-2.763,1.2-.067.7.522,1.27-.164,1.662-.551.316-1,.337-1.16,1.072a1.311,1.311,0,0,0,.615,1.431c.664.373,1.153.208.87,1.286-.606,2.314,2.094,1.64,2.433,1.711" transform="translate(-413.976 -772.896)" fill="#5ff4a4" fill-rule="evenodd"/>
    <path id="Trazado_1902" data-name="Trazado 1902" d="M447.927,815.54a3.107,3.107,0,0,1,2.823,1.206c.2-.185.105-.073.241-.355.07-.15.118-.283.171-.411l2.441-5.764c.941-2.26,1.868-4.425,2.819-6.65l4.2-9.9a2.249,2.249,0,0,0,.273-1.8,1.542,1.542,0,0,0-1.427-1.011c-.49.645-8.18,19.591-9.455,22.151a1.78,1.78,0,0,1-1.214,1.009c-.459.156-.332.146-.531.629a4.923,4.923,0,0,0-.341.9" transform="translate(-412.948 -773.209)" fill="#fbe0cb" fill-rule="evenodd"/>
    <path id="Trazado_1903" data-name="Trazado 1903" d="M425.013,777.179l17.357.009.006-2.01c-1.287-.111-15.091-.024-17.369-.024Z" transform="translate(-413.673 -773.707)" fill="#6a77e0" fill-rule="evenodd"/>
    <path id="Trazado_1904" data-name="Trazado 1904" d="M425.357,792.619c-.654.343-.414,1.757-.412,2.547,0,1,0,1.993,0,2.994,0,1.071-.249,1.941.918,1.982,4.11.15,3.334.509,3.334-5.555,0-1.056.293-2.011-.908-2.056a14.5,14.5,0,0,0-2.933.089" transform="translate(-413.677 -773.157)" fill="#1e252b" fill-rule="evenodd"/>
    <path id="Trazado_1905" data-name="Trazado 1905" d="M424.939,785.139c0,1.192-.081,3.982.017,4.793.12.985,1.481.694,3.229.694.915,0,1.018-.257,1.018-1.144v-5.51c-.036-1.169-.665-.962-2.18-.962-2.255,0-2.084-.113-2.084,2.128" transform="translate(-413.676 -773.457)" fill="#1e252b" fill-rule="evenodd"/>
    <path id="Trazado_1906" data-name="Trazado 1906" d="M431.721,802.1c-.774.308-.56.909-.56,2.414,0,1,.006,1.993.006,2.994,0,1.129-.3,2.085.877,2.145A19.774,19.774,0,0,0,435,809.59c.666-.271.418-1.7.418-2.466v-2.992c0-.985.289-2.034-.854-2.092a17.553,17.553,0,0,0-2.842.063" transform="translate(-413.479 -772.855)" fill="#1e252b" fill-rule="evenodd"/>
    <path id="Trazado_1907" data-name="Trazado 1907" d="M431.651,783.072c-.738.269-.484,1.627-.484,2.452,0,1-.008,2-.006,2.993.005,1.066-.278,2.056.886,2.1a17.411,17.411,0,0,0,2.916-.068c.7-.294.454-1.637.454-2.424,0-1,0-2,0-2.99,0-1.036.29-2.061-.847-2.126a19.9,19.9,0,0,0-2.919.059" transform="translate(-413.48 -773.458)" fill="#1e252b" fill-rule="evenodd"/>
    <path id="Trazado_1908" data-name="Trazado 1908" d="M437.974,802.083c-.814.208-.588.882-.588,2.339,0,1-.008,2-.007,2.993,0,.978-.26,2.139.753,2.231a27.2,27.2,0,0,0,2.984-.031c.753-.188.524-1.495.524-2.395q0-1.495,0-2.993c0-1.012.288-2.1-.8-2.178a26.408,26.408,0,0,0-2.867.033" transform="translate(-413.283 -772.855)" fill="#1e252b" fill-rule="evenodd"/>
    <path id="Trazado_1909" data-name="Trazado 1909" d="M437.864,783.088c-.712.322-.478,1.531-.478,2.435v2.995c0,.965-.287,2.053.848,2.1a24.975,24.975,0,0,0,2.929-.058c.724-.248.476-1.649.476-2.435,0-1,.01-1.994,0-2.993,0-1.088.281-2.079-.884-2.125a15,15,0,0,0-2.895.076" transform="translate(-413.283 -773.458)" fill="#1e252b" fill-rule="evenodd"/>
    <path id="Trazado_1910" data-name="Trazado 1910" d="M431.161,795.745v3.287c.005,1.421.747,1.108,3.21,1.108.831,0,1.045-.18,1.045-1.015v-5.6c0-.843-.261-.992-1.045-.992-3.713,0-3.212-.5-3.212,3.215" transform="translate(-413.479 -773.156)" fill="#1e252b" fill-rule="evenodd"/>
    <path id="Trazado_1911" data-name="Trazado 1911" d="M437.379,798.063c0,2.4-.293,2.078,3.274,2.078,1.274,0,.986-.976.986-2.078l.005-4.44c0-1.4-.646-1.086-3.31-1.086-1.27,0-.949,1.095-.949,2.244,0,1.094-.007,2.189-.007,3.283" transform="translate(-413.283 -773.156)" fill="#1e252b" fill-rule="evenodd"/>
    <path id="Trazado_1912" data-name="Trazado 1912" d="M450.611,780.684l0,15.342a37.19,37.19,0,0,0,2.226-5.495l-.007-7.916a2.335,2.335,0,0,0-.5-1.847c-.307-.272-1.725-.724-1.725-.085" transform="translate(-412.863 -773.541)" fill="#f3cfb3" fill-rule="evenodd"/>
    <path id="Trazado_1913" data-name="Trazado 1913" d="M447.189,813.1c-2.585-.76-4.029,2.942-3.8,4.467a3.568,3.568,0,0,0,5.148,2.489c.62-.357,1.813-1.451,1.477-2.623a1.666,1.666,0,0,0-2.731-.654c-.292.344-.471,1.136-1.249.77-.576-.269-.318-.979-.085-1.524.411-.96.81-2.01,1.237-2.925" transform="translate(-413.092 -772.508)" fill="#f3cfb3" fill-rule="evenodd"/>
    <path id="Trazado_1914" data-name="Trazado 1914" d="M438.789,796.472l.012,2.167,1.292.009c.124-.65.056-3.774.054-4.717l-1.36.008Z" transform="translate(-413.237 -773.111)" fill="#f8f8f8" fill-rule="evenodd"/>
    <path id="Trazado_1915" data-name="Trazado 1915" d="M438.793,789.111l1.33.022.029-.373-.005-.094-.007-.678v-1.16l.006-.673v-1.74l-1.36.008Z" transform="translate(-413.237 -773.413)" fill="#f8f8f8" fill-rule="evenodd"/>
    <path id="Trazado_1916" data-name="Trazado 1916" d="M426.346,785.383v3.378l.024.369h1.311l.029-4.714-1.355.008Z" transform="translate(-413.631 -773.413)" fill="#f8f8f8" fill-rule="evenodd"/>
    <path id="Trazado_1917" data-name="Trazado 1917" d="M426.352,798.625l1.33.022.024-4.652a2.824,2.824,0,0,0-1.357,0Z" transform="translate(-413.631 -773.112)" fill="#f8f8f8" fill-rule="evenodd"/>
    <path id="Trazado_1918" data-name="Trazado 1918" d="M432.566,785.093l.018,4.036,1.325-.005.01-4.69-1.353-.019Z" transform="translate(-413.434 -773.413)" fill="#f8f8f8" fill-rule="evenodd"/>
    <path id="Trazado_1919" data-name="Trazado 1919" d="M432.572,795.411l-.006.673v2.224l.04.346,1.281-.006.038-4.686-.373-.023-.981,0Z" transform="translate(-413.434 -773.111)" fill="#f8f8f8" fill-rule="evenodd"/>
    <path id="Trazado_1920" data-name="Trazado 1920" d="M438.787,808.144l1.36.025-.012-4.717h-1.316Z" transform="translate(-413.237 -772.81)" fill="#f8f8f8" fill-rule="evenodd"/>
    <path id="Trazado_1921" data-name="Trazado 1921" d="M432.563,808.164l1.363-.007,0-4.7-1.306,0Z" transform="translate(-413.434 -772.81)" fill="#f8f8f8" fill-rule="evenodd"/>
    <path id="Trazado_1922" data-name="Trazado 1922" d="M420.341,814.664l1.038.053V812.98l-1.023.032Z" transform="translate(-413.821 -772.508)" fill="#c27850" fill-rule="evenodd"/>
    <path id="Trazado_1923" data-name="Trazado 1923" d="M427.7,805.491l.012-2.044h-1.36c.024.765.294.514.671.984Z" transform="translate(-413.631 -772.81)" fill="#f8f8f8" fill-rule="evenodd"/>
  </g>
</svg>
