<svg xmlns="http://www.w3.org/2000/svg" width="49.519" height="49.519" viewBox="0 0 49.519 49.519">
  <g id="Grupo_879" data-name="Grupo 879" transform="translate(0 0)">
    <rect id="Rectángulo_803" data-name="Rectángulo 803" width="3.193" height="4.793" transform="translate(5.594 17.572)" fill="#b5c0cd"/>
    <rect id="Rectángulo_804" data-name="Rectángulo 804" width="3.194" height="4.793" transform="translate(40.736 17.572)" fill="#b5c0cd"/>
    <rect id="Rectángulo_805" data-name="Rectángulo 805" width="3.193" height="2.396" transform="translate(5.594 17.571)" fill="#8b94a3"/>
    <rect id="Rectángulo_806" data-name="Rectángulo 806" width="3.194" height="2.396" transform="translate(40.736 17.571)" fill="#8b94a3"/>
    <rect id="Rectángulo_807" data-name="Rectángulo 807" width="44.726" height="25.559" transform="translate(2.397 23.162)" fill="#ebebeb"/>
    <rect id="Rectángulo_808" data-name="Rectángulo 808" width="44.726" height="2.395" transform="translate(2.397 46.326)" fill="#b5c0cd"/>
    <path id="Trazado_2084" data-name="Trazado 2084" d="M1058.092,935.011h-38.336a3.2,3.2,0,0,1-3.2-3.2V920.632a3.193,3.193,0,0,1,3.2-3.192h38.336a3.193,3.193,0,0,1,3.193,3.192v11.182a3.2,3.2,0,0,1-3.193,3.2" transform="translate(-1014.163 -916.641)" fill="#ffc629" fill-rule="evenodd"/>
    <rect id="Rectángulo_809" data-name="Rectángulo 809" width="38.336" height="11.181" transform="translate(5.594 3.992)" fill="#ebebeb"/>
    <rect id="Rectángulo_810" data-name="Rectángulo 810" width="47.924" height="3.193" transform="translate(0.799 21.566)" fill="#d29f6c"/>
    <rect id="Rectángulo_811" data-name="Rectángulo 811" width="6.389" height="17.569" transform="translate(5.594 27.956)" fill="#39c2fb"/>
    <rect id="Rectángulo_812" data-name="Rectángulo 812" width="6.389" height="17.569" transform="translate(37.541 27.956)" fill="#39c2fb"/>
    <rect id="Rectángulo_813" data-name="Rectángulo 813" width="19.169" height="3.193" transform="translate(15.176 31.15)" fill="#b17946"/>
    <rect id="Rectángulo_814" data-name="Rectángulo 814" width="15.977" height="14.378" transform="translate(16.772 34.343)" fill="#e9bc8b"/>
    <rect id="Rectángulo_815" data-name="Rectángulo 815" width="15.977" height="2.395" transform="translate(16.772 46.326)" fill="#d29f6c"/>
    <rect id="Rectángulo_816" data-name="Rectángulo 816" width="15.977" height="2.395" transform="translate(16.772 34.345)" fill="#d29f6c"/>
    <rect id="Rectángulo_817" data-name="Rectángulo 817" width="44.726" height="1.598" transform="translate(2.397 24.759)" fill="#b5c0cd"/>
    <path id="Trazado_2085" data-name="Trazado 2085" d="M1063.755,937.43h-4.79v-1.677a4,4,0,0,0,3.193-3.915V920.656a4,4,0,0,0-3.992-3.991H1019.83a4,4,0,0,0-3.994,3.991v11.182a4,4,0,0,0,3.194,3.915v1.677h-4.794v4.794h1.6v23.96h46.322v-23.96h1.6Zm-7.988-1.6h1.6v1.6h-1.6Zm-1.6,1.6h-30.35v-1.6h30.35Zm-36.74-5.592V920.656a2.4,2.4,0,0,1,2.4-2.393h38.336a2.4,2.4,0,0,1,2.4,2.393v11.182a2.4,2.4,0,0,1-2.4,2.4H1019.83a2.4,2.4,0,0,1-2.4-2.4m3.194,4h1.6v1.6h-1.6Zm25.56,28.752h-6.39V951.809h6.39Zm-15.972-15.972h17.569v1.595h-17.569Zm7.987,15.972h-6.39V951.809h6.39Zm22.361,0h-12.779V951.807h1.6v-4.791h-20.765v4.791h1.6v12.779h-12.782V942.224h43.13Zm1.6-23.96h-46.323v-1.6h46.323Z" transform="translate(-1014.236 -916.665)" fill-rule="evenodd"/>
    <path id="Trazado_2086" data-name="Trazado 2086" d="M1026.87,942.986h-7.987v19.169h7.987Zm-6.392,13.582h4.794v3.992h-4.794Zm0-5.594h4.794v3.992h-4.794Zm4.794-1.6h-4.794v-4.793h4.794Z" transform="translate(-1014.089 -915.832)" fill-rule="evenodd"/>
    <path id="Trazado_2087" data-name="Trazado 2087" d="M1057.838,942.986h-7.986v19.169h7.986Zm-1.6,6.39h-4.794v-4.793h4.794Zm0,5.59h-4.794v-3.992h4.794Zm-4.794,1.6h4.794v3.992h-4.794Z" transform="translate(-1013.109 -915.832)" fill-rule="evenodd"/>
    <rect id="Rectángulo_818" data-name="Rectángulo 818" width="20.765" height="1.598" transform="translate(14.378 27.154)"/>
    <path id="Trazado_2088" data-name="Trazado 2088" d="M1020.478,921.359h2.4v-1.6h-3.992v3.99h1.593Z" transform="translate(-1014.089 -916.567)" fill-rule="evenodd"/>
    <path id="Trazado_2089" data-name="Trazado 2089" d="M1056.115,923.756h1.6v-3.993h-3.994v1.6h2.395Z" transform="translate(-1012.986 -916.567)" fill-rule="evenodd"/>
    <path id="Trazado_2090" data-name="Trazado 2090" d="M1057.714,928.278h-1.6v2.395h-2.4v1.6h3.994Z" transform="translate(-1012.986 -916.297)" fill-rule="evenodd"/>
    <path id="Trazado_2091" data-name="Trazado 2091" d="M1022.875,930.672h-2.4v-2.395h-1.595v4h3.993Z" transform="translate(-1014.089 -916.297)" fill-rule="evenodd"/>
    <rect id="Rectángulo_819" data-name="Rectángulo 819" width="14.376" height="1.595" transform="translate(17.574 7.189)"/>
    <rect id="Rectángulo_820" data-name="Rectángulo 820" width="1.597" height="1.598" transform="translate(17.574 10.382)"/>
    <rect id="Rectángulo_821" data-name="Rectángulo 821" width="1.596" height="1.598" transform="translate(20.767 10.382)"/>
    <rect id="Rectángulo_822" data-name="Rectángulo 822" width="1.595" height="1.598" transform="translate(23.964 10.382)"/>
    <rect id="Rectángulo_823" data-name="Rectángulo 823" width="1.597" height="1.598" transform="translate(27.157 10.382)"/>
    <rect id="Rectángulo_824" data-name="Rectángulo 824" width="1.596" height="1.598" transform="translate(30.353 10.382)"/>
  </g>
</svg>
