<svg xmlns="http://www.w3.org/2000/svg" width="49.519" height="49.574" viewBox="0 0 49.519 49.574">
  <g id="Grupo_1411" data-name="Grupo 1411" transform="translate(-1024.991 -390.055)">
    <path id="Trazado_1925" data-name="Trazado 1925" d="M1056.082,789.1h2.6a3.2,3.2,0,0,1,3.194,3.194v8.785h-9.784a3.2,3.2,0,0,0-3.194,3.2v2a3.2,3.2,0,0,0,3.194,3.193h9.784v8.784a3.2,3.2,0,0,1-3.194,3.2h-39.934a3.2,3.2,0,0,1-3.2-3.2V788.3a5.589,5.589,0,0,1,5.592-5.588h31.745a3.192,3.192,0,0,1,3.2,3.193Z" transform="translate(11.04 -383.415)" fill="#c69982" fill-rule="evenodd"/>
    <path id="Trazado_1926" data-name="Trazado 1926" d="M1056.082,785.907h-31.547a5.588,5.588,0,0,0-5.59,5.587v26.8a1.7,1.7,0,0,1-3.389.118c-.006-.122-.006-30.21-.006-30.108a5.594,5.594,0,0,1,5.592-5.592h31.745a3.194,3.194,0,0,1,3.2,3.2" transform="translate(11.04 -383.415)" fill="#dfb6a2" fill-rule="evenodd"/>
    <path id="Trazado_1927" data-name="Trazado 1927" d="M1055.892,785.809V789h-32.746a1.6,1.6,0,0,1,0-3.194Z" transform="translate(11.23 -383.317)" fill="#9f7765" fill-rule="evenodd"/>
    <path id="Trazado_1928" data-name="Trazado 1928" d="M1047.924,778.167c-.005,5.787-.005,3.28-.006,11.169H1024.35V778.167a2.866,2.866,0,0,1,2.863-2.866h17.845a2.866,2.866,0,0,1,2.866,2.866" transform="translate(11.319 -383.65)" fill="#ccfca9" fill-rule="evenodd"/>
    <path id="Trazado_1929" data-name="Trazado 1929" d="M1046.284,776.911a18.678,18.678,0,0,1-10.065,12.424h-11.87V778.167a2.865,2.865,0,0,1,2.864-2.864h17.846a1.275,1.275,0,0,1,1.226,1.608" transform="translate(11.319 -383.65)" fill="#dcfcc4" fill-rule="evenodd"/>
    <path id="Trazado_1930" data-name="Trazado 1930" d="M1060.849,800.516V808.9h-9.782a3.2,3.2,0,0,1-3.2-3.2v-2a3.2,3.2,0,0,1,3.2-3.2Z" transform="translate(12.064 -382.852)" fill="#9f7765" fill-rule="evenodd"/>
    <path id="Trazado_1931" data-name="Trazado 1931" d="M1047.43,778.167l-.005,4.581a7.449,7.449,0,0,1-7.442-7.446h4.582a2.866,2.866,0,0,1,2.866,2.866" transform="translate(11.814 -383.65)" fill="#b4f16d" fill-rule="evenodd"/>
    <path id="Trazado_1932" data-name="Trazado 1932" d="M1045.789,776.911a20.248,20.248,0,0,1-1.981,4.894,7.438,7.438,0,0,1-3.826-6.5c.048,0,4.621,0,4.669,0a1.281,1.281,0,0,1,1.138,1.607" transform="translate(11.814 -383.65)" fill="#c3f687" fill-rule="evenodd"/>
    <path id="Trazado_1933" data-name="Trazado 1933" d="M1058.727,787.786h-1v-1.6a4.8,4.8,0,0,0-4.793-4.8,1.6,1.6,0,0,0,0,3.2,1.6,1.6,0,0,1,1.6,1.6v1.6h-4.69c0-2.445,0-8.009.005-9.574a4.467,4.467,0,0,0-4.462-4.459H1027.54a4.467,4.467,0,0,0-4.46,4.459v3.182h-1.891a7.2,7.2,0,0,0-7.19,7.191v29.949a4.8,4.8,0,0,0,4.793,4.794h39.934a4.8,4.8,0,0,0,4.792-4.794V792.578a4.8,4.8,0,0,0-4.792-4.792m1.6,20.365h-8.186a1.6,1.6,0,0,1-1.6-1.6v-2a1.6,1.6,0,0,1,1.6-1.595h8.186Zm-34.049-20.365V784.25a9.068,9.068,0,0,0,7.3-7.3h5.771a9.065,9.065,0,0,0,7.3,7.3l0,3.536Zm20.379-9.575,0,2.763a5.879,5.879,0,0,1-4.023-4.027h2.76a1.27,1.27,0,0,1,1.268,1.265m-19.114-1.265h2.76a5.863,5.863,0,0,1-4.026,4.027v-2.762a1.27,1.27,0,0,1,1.266-1.266m31.187,43.186h-39.934a1.6,1.6,0,0,1-1.6-1.6V788.585a4,4,0,0,1,3.995-3.993h1.891v3.226a1.6,1.6,0,0,0,.3,3.162h35.342a1.6,1.6,0,0,1,1.6,1.6v7.188h-8.186a4.8,4.8,0,0,0-4.79,4.791v2a4.8,4.8,0,0,0,4.79,4.793h8.186v7.186a1.6,1.6,0,0,1-1.6,1.6m-31.349-24.758a1.6,1.6,0,0,1-1.6,1.595h-2.4a1.6,1.6,0,0,1,0-3.2h2.4a1.6,1.6,0,0,1,1.6,1.6m9.984,0a1.6,1.6,0,0,1-1.6,1.595h-2.4a1.6,1.6,0,0,1,0-3.2h2.4a1.6,1.6,0,0,1,1.6,1.6m-9.984,20.365a1.6,1.6,0,0,1-1.6,1.6h-2.4a1.6,1.6,0,1,1,0-3.193h2.4a1.6,1.6,0,0,1,1.6,1.6m9.984,0a1.6,1.6,0,0,1-1.6,1.6h-2.4a1.6,1.6,0,1,1,0-3.193h2.4a1.6,1.6,0,0,1,1.6,1.6m.7-31.946v.618a1.6,1.6,0,1,1-3.193,0v-.618a1.6,1.6,0,1,1,3.193,0" transform="translate(10.991 -383.699)" fill="#2d2d2d" fill-rule="evenodd"/>
  </g>
</svg>
