<svg xmlns="http://www.w3.org/2000/svg" width="49.517" height="49.519" viewBox="0 0 49.517 49.519">
  <g id="Grupo_873" data-name="Grupo 873" transform="translate(0 0)">
    <path id="Trazado_2012" data-name="Trazado 2012" d="M153.494,959.013a6.378,6.378,0,0,0-4.787-4.788l-6.493-1.5v-1.6h-7.986v1.6l-6.491,1.5a6.385,6.385,0,0,0-4.789,4.788l-1.5,6.493h33.545Z" transform="translate(-113.464 -916.784)" fill="#39c2fb" fill-rule="evenodd"/>
    <path id="Trazado_2013" data-name="Trazado 2013" d="M153,959.013a6.378,6.378,0,0,0-4.787-4.788l-6.493-1.5v-1.6h-4.792v1.6l8.645,2.7a7.168,7.168,0,0,1,4.911,5.556l.822,4.522H154.5Z" transform="translate(-112.974 -916.784)" fill="#148bdf" fill-rule="evenodd"/>
    <path id="Trazado_2014" data-name="Trazado 2014" d="M133.836,951.976a3.993,3.993,0,1,0,7.986,0v-2.395h-7.986Z" transform="translate(-113.072 -916.833)" fill="#f8dfa5" fill-rule="evenodd"/>
    <path id="Trazado_2015" data-name="Trazado 2015" d="M147.587,943.051h-19.17V938.26a9.585,9.585,0,0,1,19.17,0Z" transform="translate(-113.243 -917.495)" fill="#d29f6c" fill-rule="evenodd"/>
    <path id="Trazado_2016" data-name="Trazado 2016" d="M137.746,928.676a9.389,9.389,0,0,0-1.2.085,9.58,9.58,0,0,1,8.39,9.5v4.793h2.393v-4.793a9.585,9.585,0,0,0-9.583-9.586" transform="translate(-112.986 -917.495)" fill="#b17946" fill-rule="evenodd"/>
    <path id="Trazado_2017" data-name="Trazado 2017" d="M144.7,940.29a2.4,2.4,0,1,1,0,4.792h-.8V940.29Z" transform="translate(-112.753 -917.127)" fill="#f8dfa5" fill-rule="evenodd"/>
    <path id="Trazado_2018" data-name="Trazado 2018" d="M130.811,940.29a2.4,2.4,0,0,0,0,4.792h.8V940.29Z" transform="translate(-113.243 -917.127)" fill="#f8dfa5" fill-rule="evenodd"/>
    <path id="Trazado_2019" data-name="Trazado 2019" d="M139.354,928.725a1.6,1.6,0,1,0-1.6,1.6,1.6,1.6,0,0,0,1.6-1.6" transform="translate(-112.998 -917.544)" fill="#fda72f" fill-rule="evenodd"/>
    <path id="Trazado_2020" data-name="Trazado 2020" d="M150.169,935.694v7.985l-2.4,6.39,7.187-3.194h4.793a1.594,1.594,0,0,0,1.6-1.6v-9.583a1.594,1.594,0,0,0-1.6-1.6h-7.987a1.6,1.6,0,0,0-1.6,1.6" transform="translate(-112.631 -917.323)" fill="#ebebeb" fill-rule="evenodd"/>
    <path id="Trazado_2021" data-name="Trazado 2021" d="M125.665,935.694v7.985l2.394,6.39-7.19-3.194h-4.793a1.6,1.6,0,0,1-1.6-1.6v-9.583a1.6,1.6,0,0,1,1.6-1.6h7.988a1.6,1.6,0,0,1,1.6,1.6" transform="translate(-113.685 -917.323)" fill="#ebebeb" fill-rule="evenodd"/>
    <path id="Trazado_2022" data-name="Trazado 2022" d="M137.93,952.343h0a7.189,7.189,0,0,1-7.192-7.188v-4.642a2.546,2.546,0,0,1,2.549-2.544h9.282a2.547,2.547,0,0,1,2.55,2.544v4.642a7.189,7.189,0,0,1-7.19,7.188" transform="translate(-113.17 -917.201)" fill="#f8dfa5" fill-rule="evenodd"/>
    <path id="Trazado_2023" data-name="Trazado 2023" d="M142.376,937.966h-1.6a2.545,2.545,0,0,1,2.545,2.547v4.641a7.186,7.186,0,0,1-6.389,7.143,7.562,7.562,0,0,0,.8.045,7.189,7.189,0,0,0,7.19-7.188v-4.641a2.548,2.548,0,0,0-2.547-2.547" transform="translate(-112.974 -917.201)" fill="#e9bc8b" fill-rule="evenodd"/>
    <path id="Trazado_2024" data-name="Trazado 2024" d="M148.919,954.231l-5.873-1.357v-.96h-.022a7.955,7.955,0,0,0,3.178-5.695,3.193,3.193,0,0,0,2.434-3.095v-4.789a10.337,10.337,0,0,0-8.048-10.11,2.392,2.392,0,0,0-4.67,0,10.336,10.336,0,0,0-8.048,10.11v4.789a3.194,3.194,0,0,0,2.431,3.095,7.975,7.975,0,0,0,3.181,5.695h-.02v.96l-5.875,1.357a7.227,7.227,0,0,0-5.387,5.387l-1.722,7.469h35.552l-1.723-7.469a7.229,7.229,0,0,0-5.387-5.387m-2.679-9.728v-2.75a1.58,1.58,0,0,1,0,2.75m-7.985-16.552a.8.8,0,1,1-.8.8.8.8,0,0,1,.8-.8m-8.789,15.173a1.587,1.587,0,0,1,.8-1.372v2.75a1.594,1.594,0,0,1-.8-1.378m.931-3.119a3.21,3.21,0,0,0-.931.37v-2.041a8.751,8.751,0,0,1,6.651-8.523,2.377,2.377,0,0,0,4.27,0,8.753,8.753,0,0,1,6.654,8.523v2.041a3.211,3.211,0,0,0-.933-.37,3.339,3.339,0,0,0-3.212-2.469h-9.285a3.343,3.343,0,0,0-3.216,2.469m1.469,5.517v-4.642a1.747,1.747,0,0,1,1.747-1.747h9.282a1.75,1.75,0,0,1,1.75,1.747v4.642a6.389,6.389,0,1,1-12.778,0m9.569,7.322a3.184,3.184,0,0,1-6.363,0,7.95,7.95,0,0,0,6.363,0m8.677,12.646-.686-4.126-1.577.263.644,3.862H128.014l.643-3.862-1.576-.263-.686,4.126h-3.909l1.27-5.513a5.631,5.631,0,0,1,4.193-4.191l5.838-1.347a4.786,4.786,0,0,0,8.932,0l5.839,1.347a5.623,5.623,0,0,1,4.191,4.191l1.273,5.513Z" transform="translate(-113.495 -917.569)" fill="#2d2d2d" fill-rule="evenodd"/>
    <path id="Trazado_2025" data-name="Trazado 2025" d="M132.781,923.814l1.129,1.13a5.592,5.592,0,0,1,7.909,0l1.128-1.13a7.189,7.189,0,0,0-10.165,0" transform="translate(-113.105 -917.716)" fill="#2d2d2d" fill-rule="evenodd"/>
    <path id="Trazado_2026" data-name="Trazado 2026" d="M137.952,919.434a9.524,9.524,0,0,1,6.775,2.808l1.13-1.13a11.18,11.18,0,0,0-15.811,0l1.127,1.13a9.536,9.536,0,0,1,6.78-2.808" transform="translate(-113.192 -917.838)" fill="#2d2d2d" fill-rule="evenodd"/>
    <path id="Trazado_2027" data-name="Trazado 2027" d="M159.8,933.322h-7.987a2.4,2.4,0,0,0-2.4,2.4v7.842L146.4,951.6l8.774-3.9H159.8a2.4,2.4,0,0,0,2.4-2.4v-9.583a2.4,2.4,0,0,0-2.4-2.4m.8,11.979a.8.8,0,0,1-.8.8h-4.962l-5.6,2.489,1.779-4.741v-8.131a.8.8,0,0,1,.8-.8H159.8a.8.8,0,0,1,.8.8Z" transform="translate(-112.674 -917.348)" fill="#2d2d2d" fill-rule="evenodd"/>
    <rect id="Rectángulo_795" data-name="Rectángulo 795" width="6.391" height="1.595" transform="translate(39.933 19.169)" fill="#2d2d2d"/>
    <rect id="Rectángulo_796" data-name="Rectángulo 796" width="6.391" height="1.597" transform="translate(39.933 22.365)" fill="#2d2d2d"/>
    <rect id="Rectángulo_797" data-name="Rectángulo 797" width="3.194" height="1.599" transform="translate(39.933 25.556)" fill="#2d2d2d"/>
    <path id="Trazado_2028" data-name="Trazado 2028" d="M129.5,951.6l-3.013-8.039v-7.842a2.4,2.4,0,0,0-2.4-2.4H116.1a2.4,2.4,0,0,0-2.392,2.4V945.3a2.4,2.4,0,0,0,2.392,2.4h4.625Zm-14.2-6.3v-9.583a.8.8,0,0,1,.8-.8h7.988a.8.8,0,0,1,.8.8v8.131l1.78,4.741-5.6-2.489H116.1a.8.8,0,0,1-.8-.8" transform="translate(-113.709 -917.348)" fill="#2d2d2d" fill-rule="evenodd"/>
    <rect id="Rectángulo_798" data-name="Rectángulo 798" width="6.39" height="1.595" transform="translate(3.194 19.169)" fill="#2d2d2d"/>
    <rect id="Rectángulo_799" data-name="Rectángulo 799" width="6.39" height="1.597" transform="translate(3.194 22.365)" fill="#2d2d2d"/>
    <rect id="Rectángulo_800" data-name="Rectángulo 800" width="3.194" height="1.599" transform="translate(3.194 25.556)" fill="#2d2d2d"/>
    <rect id="Rectángulo_801" data-name="Rectángulo 801" width="1.598" height="1.599" transform="translate(44.727 25.556)" fill="#2d2d2d"/>
    <rect id="Rectángulo_802" data-name="Rectángulo 802" width="1.597" height="1.599" transform="translate(7.987 25.556)" fill="#2d2d2d"/>
  </g>
</svg>
