<svg xmlns="http://www.w3.org/2000/svg" width="28" height="20.971" viewBox="0 0 28 20.971">
  <g id="lista" transform="translate(0 -64.267)">
    <path id="Trazado_3965" data-name="Trazado 3965" d="M25.423,64.267H2.577a2.578,2.578,0,0,0,0,5.155H25.423a2.578,2.578,0,0,0,0-5.155Z" fill="#cd3934"/>
    <path id="Trazado_3966" data-name="Trazado 3966" d="M25.423,208.867H2.577a2.578,2.578,0,0,0,0,5.155H25.423a2.578,2.578,0,0,0,0-5.155Z" transform="translate(0 -136.692)" fill="#cd3934"/>
    <path id="Trazado_3967" data-name="Trazado 3967" d="M25.423,353.467H2.577a2.578,2.578,0,0,0,0,5.155H25.423a2.578,2.578,0,0,0,0-5.155Z" transform="translate(0 -273.384)" fill="#cd3934"/>
  </g>
</svg>