<svg id="Grupo_563" data-name="Grupo 563" xmlns="http://www.w3.org/2000/svg" width="49.549" height="48.742" viewBox="0 0 49.549 48.742">
  <path id="Trazado_1412" data-name="Trazado 1412" d="M755.409,3583.435v-13.863l8.565,6.363Z" transform="translate(-715.151 -3556.95)" fill="#e19974"/>
  <path id="Trazado_1413" data-name="Trazado 1413" d="M717.112,3575.946l8.565,7.491V3569.2Z" transform="translate(-716.386 -3556.962)" fill="#e19974"/>
  <path id="Trazado_1414" data-name="Trazado 1414" d="M748.409,3590.823H733.441l-8.032-7.026v-23.168a2.58,2.58,0,0,1,2.581-2.581H753.8a2.58,2.58,0,0,1,2.581,2.581v23.178Z" transform="translate(-716.119 -3557.322)" fill="#f5f8f9"/>
  <path id="Trazado_1415" data-name="Trazado 1415" d="M733.863,3585.266l-.687-.6a2.9,2.9,0,0,1-.992-2.185v-21.851a2.581,2.581,0,0,1,2.581-2.582H727.99a2.581,2.581,0,0,0-2.581,2.582V3583.8l8.032,7.024h14.968l5.5-4.838H735.774A2.9,2.9,0,0,1,733.863,3585.266Z" transform="translate(-716.119 -3557.323)" fill="#e8edf2"/>
  <path id="Trazado_1416" data-name="Trazado 1416" d="M764.276,3603.516a2.892,2.892,0,0,1-2,.8H719.987a2.9,2.9,0,0,1-2-.8l15.692-13.717s11.291.032,14.968,0Z" transform="translate(-716.358 -3556.299)" fill="#fedba6"/>
  <path id="Trazado_1417" data-name="Trazado 1417" d="M737.469,3575.549h-5.09a3.636,3.636,0,0,1,0-7.271h5.09Z" transform="translate(-716.011 -3556.993)" fill="#cd3934"/>
  <path id="Trazado_1418" data-name="Trazado 1418" d="M745.694,3580.8a1.454,1.454,0,0,1-1.453-1.455V3564.8a1.455,1.455,0,1,1,2.91,0v14.542A1.456,1.456,0,0,1,745.694,3580.8Z" transform="translate(-715.511 -3557.152)" fill="#cd3934"/>
  <path id="Trazado_1419" data-name="Trazado 1419" d="M733.709,3590.252l-15.692,13.717a2.891,2.891,0,0,1-.905-2.1v-26.129Z" transform="translate(-716.386 -3556.752)" fill="#fedba6"/>
  <path id="Trazado_1420" data-name="Trazado 1420" d="M724.854,3582.507v15.486l-6.837,5.977a2.891,2.891,0,0,1-.905-2.1v-26.129Z" transform="translate(-716.386 -3556.752)" fill="#fcc24c"/>
  <path id="Trazado_1421" data-name="Trazado 1421" d="M761.879,3601.169H727.73a2.9,2.9,0,0,1-2.9-2.9v-.968l-4.43,3.872h0c-.008.006-.013.013-.022.02l-2.386,2.084a2.891,2.891,0,0,0,2,.8h42.291a2.888,2.888,0,0,0,2-.8Z" transform="translate(-716.358 -3556.056)" fill="#fcc24c"/>
  <path id="Trazado_1422" data-name="Trazado 1422" d="M764.223,3575.735v26.129a2.891,2.891,0,0,1-.905,2.1l-15.628-13.717Z" transform="translate(-715.4 -3556.752)" fill="#fedba6"/>
  <g id="Grupo_562" data-name="Grupo 562">
    <g id="Grupo_561" data-name="Grupo 561">
      <path id="Trazado_1423" data-name="Trazado 1423" d="M765.232,3588.311a.725.725,0,0,0,.726-.726v-11.256a.725.725,0,0,0-.292-.583l-8.273-6.145v-8.95a3.31,3.31,0,0,0-3.306-3.307H742.24a.726.726,0,1,0,0,1.451h11.846a1.858,1.858,0,0,1,1.855,1.855v22.869l-7.516,6.6c-2.995.018-12.675,0-14.42,0l-7.581-6.628v-22.84a1.858,1.858,0,0,1,1.855-1.855h10.8a.726.726,0,1,0,0-1.451h-10.8a3.31,3.31,0,0,0-3.306,3.307v8.583l-8.288,6.523a.732.732,0,0,0-.277.57v26.13a3.631,3.631,0,0,0,3.629,3.628h42.291a3.632,3.632,0,0,0,3.629-3.628v-11.71a.726.726,0,0,0-1.452,0v11.71a2.162,2.162,0,0,1-.272,1.057L749.8,3590.846l14.706-12.914v9.653a.726.726,0,0,0,.726.726Zm-7.839-16.9,6.686,4.967-6.686,5.871Zm-32.419,10.812-6.7-5.862,6.7-5.276Zm-4.935,22.415a2.169,2.169,0,0,1-.8-.153l8.414-7.356a.726.726,0,0,0-.956-1.092l-8.558,7.483a2.147,2.147,0,0,1-.275-1.058v-24.53l7.361,6.438h0l7.408,6.479-2.773,2.422a.727.727,0,1,0,.97,1.082l3.177-2.779c1.754,0,11.418.021,14.426,0l14.706,12.908a2.165,2.165,0,0,1-.806.154Z" transform="translate(-716.409 -3557.345)" fill="#2d2d2d"/>
      <path id="Trazado_1424" data-name="Trazado 1424" d="M734.05,3584.213a2.472,2.472,0,0,0,2.47-2.471v-5.286h.8l6.771,3.386a2.179,2.179,0,0,0,4.307-.475v-14.543a2.179,2.179,0,0,0-4.307-.475l-6.771,3.385H732.4a4.361,4.361,0,0,0-.823,8.645v5.365A2.474,2.474,0,0,0,734.05,3584.213Zm1.019-2.471a1.019,1.019,0,1,1-2.039,0v-5.286h2.039Zm11.149-17.648a.729.729,0,0,1,.729.729v14.543a.728.728,0,1,1-1.457,0v-14.543A.729.729,0,0,1,746.217,3564.094Zm-2.179,14.1-5.821-2.91v-6.374l5.821-2.911Zm-14.547-6.1a2.912,2.912,0,0,1,2.91-2.91h4.364V3575H732.4A2.912,2.912,0,0,1,729.491,3572.095Z" transform="translate(-716.034 -3557.174)" fill="#2d2d2d"/>
      <path id="Trazado_1425" data-name="Trazado 1425" d="M752.7,3564.647a.726.726,0,0,0-1.026,0l-2.716,2.715a.726.726,0,1,0,1.028,1.026l2.714-2.714a.727.727,0,0,0,0-1.026Z" transform="translate(-715.366 -3557.116)" fill="#2d2d2d"/>
      <path id="Trazado_1426" data-name="Trazado 1426" d="M748.955,3576.427l2.716,2.715a.725.725,0,0,0,1.026-1.026l-2.714-2.715a.726.726,0,0,0-1.028,1.026Z" transform="translate(-715.366 -3556.769)" fill="#2d2d2d"/>
      <path id="Trazado_1427" data-name="Trazado 1427" d="M752.182,3571.1h-2.714a.726.726,0,0,0,0,1.452h2.714a.726.726,0,0,0,0-1.452Z" transform="translate(-715.365 -3556.902)" fill="#2d2d2d"/>
    </g>
  </g>
</svg>
