<svg xmlns="http://www.w3.org/2000/svg" width="49.55" height="44.27" viewBox="0 0 49.55 44.27">
  <g id="Grupo_1487" data-name="Grupo 1487" transform="translate(-4419.859 -2114.66)">
    <path id="Trazado_1452" data-name="Trazado 1452" d="M430.954,3768.865l12.024,5.4v-21.52l-10.357-5.4Z" transform="translate(4001.657 -1616.061)" fill="#44c868"/>
    <path id="Trazado_1453" data-name="Trazado 1453" d="M431.846,3757.033l11.132,16.918-12.024-5.4Z" transform="translate(4001.657 -1615.749)" fill="#7ee5f2"/>
    <path id="Trazado_1454" data-name="Trazado 1454" d="M431.33,3768.865l-12.024,5.4L423.2,3752.8l9.8-5.453Z" transform="translate(4001.281 -1616.061)" fill="#090"/>
    <path id="Trazado_1455" data-name="Trazado 1455" d="M421.33,3762.79l10.892-5.757-.892,11.519-12.024,5.4Z" transform="translate(4001.281 -1615.749)" fill="#a8eefc"/>
    <path id="Trazado_1456" data-name="Trazado 1456" d="M454.3,3768.865l12.023,5.4-3.892-21.464-9.8-5.453Z" transform="translate(4002.357 -1616.061)" fill="#44c868"/>
    <path id="Trazado_1457" data-name="Trazado 1457" d="M453.113,3753.574l12,13.936-2.695-14.855-1.485-.826Z" transform="translate(4002.372 -1615.916)" fill="#7ee5f2"/>
    <path id="Trazado_1458" data-name="Trazado 1458" d="M454.626,3768.865l-12.023,5.4v-21.52l10.357-5.4Z" transform="translate(4002.033 -1616.061)" fill="#090"/>
    <path id="Trazado_1459" data-name="Trazado 1459" d="M421.267,3762.917l10.892-5.757.318-4.092-10.418,5.49Z" transform="translate(4001.344 -1615.875)" fill="#ffdb56"/>
    <g id="Grupo_577" data-name="Grupo 577" transform="translate(4433.503 2133.3)">
      <path id="Trazado_1460" data-name="Trazado 1460" d="M442.953,3754.616l-10.817-1.548-.318,4.092,11.132,16.918v-6.15l-6.643-10.469,6.645.795Z" transform="translate(-431.818 -3749.174)" fill="#ffbb24"/>
      <path id="Trazado_1461" data-name="Trazado 1461" d="M453.122,3753.655l7.82-1.745-4.693-2.613-3.4.8Z" transform="translate(-431.14 -3749.297)" fill="#ffbb24"/>
    </g>
    <path id="Trazado_1462" data-name="Trazado 1462" d="M453.848,3758.731l-.422-5.447h0l-.248-3.216-10.573,4.645v3.639l6.905-3.006Z" transform="translate(4002.033 -1615.972)" fill="#ffdb56"/>
    <path id="Trazado_1463" data-name="Trazado 1463" d="M453.508,3758.62l12.8,15.445-1.2-6.609-12-13.937Z" transform="translate(4002.372 -1615.862)" fill="#ffbb24"/>
    <path id="Trazado_1464" data-name="Trazado 1464" d="M442.942,3731.945a9.445,9.445,0,0,0-9.445,9.445c0,7.944,9.445,15.254,9.445,15.254s9.446-7.31,9.446-15.254A9.446,9.446,0,0,0,442.942,3731.945Zm0,13.213a3.768,3.768,0,1,1,3.768-3.768A3.768,3.768,0,0,1,442.942,3745.159Z" transform="translate(4001.739 -1616.558)" fill="#cc3a60"/>
    <path id="Trazado_1465" data-name="Trazado 1465" d="M442.688,3731.945a9.572,9.572,0,0,0-1.309.09,9.448,9.448,0,0,1,8.137,9.355c0,6.085-5.543,11.8-8.137,14.139.792.716,1.309,1.115,1.309,1.115s9.446-7.31,9.446-15.254A9.446,9.446,0,0,0,442.688,3731.945Z" transform="translate(4001.993 -1616.558)" fill="#e7343f"/>
    <path id="Trazado_1466" data-name="Trazado 1466" d="M442.6,3767.463l4.143,4.292-4.143,1.86Z" transform="translate(4002.033 -1615.412)" fill="#ffdb56"/>
    <path id="Trazado_1467" data-name="Trazado 1467" d="M468,3775.228l.01-.012a.945.945,0,0,0,.059-.093l.011-.028a.555.555,0,0,0,.031-.07c0-.014.007-.027.011-.04s.012-.045.017-.068l.007-.04a.6.6,0,0,0,.005-.075c0-.011,0-.024,0-.036a.68.68,0,0,0-.011-.112l-2.9-16.006a.726.726,0,1,0-1.43.258l1.226,6.769-9.462-10.993,6.364-1.42.943.525.41,2.256a.727.727,0,1,0,1.431-.26l-.472-2.594a.726.726,0,0,0-.36-.506h0l-9.8-5.456h0c-.029-.015-.058-.027-.087-.04l-.029-.009-.061-.019-.036-.008a.478.478,0,0,0-.056-.009.365.365,0,0,0-.038,0l-.055,0-.04,0a.515.515,0,0,0-.054,0l-.039.007-.053.012-.038.012-.051.019c-.011.006-.026.011-.038.017l-.015.007-1.662.867a14.141,14.141,0,0,0,1.86-6.672,10.173,10.173,0,1,0-20.346,0,14.172,14.172,0,0,0,1.9,6.739l-1.79-.934-.018-.007-.037-.016-.052-.02a.341.341,0,0,0-.038-.012l-.053-.012-.038-.007a.516.516,0,0,0-.055,0l-.039,0-.054,0-.04,0a.376.376,0,0,0-.053.009l-.039.008-.058.018a.221.221,0,0,0-.031.011.549.549,0,0,0-.085.04h0l-9.8,5.454a.726.726,0,0,0-.362.506h0l-2.759,15.216h0a.727.727,0,1,0,1.431.259l.828-4.564,9.413-4.975-.758,9.773-10.37,4.657.365-2.013a.727.727,0,0,0-1.431-.259l-.613,3.373a.729.729,0,0,0,1.015.792l11.725-5.264,11.721,5.261h0l.021.007.032.013.033.011.021.006.027.007c.016,0,.031.006.046.009l.022,0,.014,0c.025,0,.049,0,.073,0h.013a.594.594,0,0,0,.089-.006h.01l.016,0a.456.456,0,0,0,.068-.013l.018-.006h0l.006,0c.028-.009.056-.019.084-.03l11.726-5.264h0l11.727,5.264c.01.005.023.008.035.014l.034.013.046.012.028.008a.53.53,0,0,0,.057.009l.02,0a.692.692,0,0,0,.076,0h0a.641.641,0,0,0,.106-.009l.024,0a.608.608,0,0,0,.1-.025l.007,0a.392.392,0,0,0,.066-.027.179.179,0,0,1,.018-.01l.054-.032a.556.556,0,0,0,.052-.034l.018-.012a.233.233,0,0,0,.035-.031l.031-.027A.572.572,0,0,0,468,3775.228Zm-20.31-3.179-3.584-3.712v-8.9l6.074-2.645,3.743,2.923.714,9.216Zm-3.584,1.61v-3.228l2.174,2.251Zm-2.853-17.91c.606.563,1.1.979,1.4,1.228v1.161l-5.828-.7a.727.727,0,0,0-.7,1.111l6.528,10.29v3.514l-9.659-14.683.118-1.529.121-1.541Zm5.493-1.114,6.562-2.882.464,6-3.037-2.374a.729.729,0,0,0-.738-.093l-5.888,2.563v-.8A34.225,34.225,0,0,0,446.744,3754.636Zm8.388,1.864-.009-.107,10.422,12.105.67,3.684-10.884-13.128Zm-.57-7.342.795.441-.746.174Zm-16.392,9.908,4.479.537v6.524Zm-5.364.974L441.4,3773.1l-9.281-4.165Zm22.718,1.526,9.343,11.27-8.775-3.94Zm4.5-9.369-5.138,1.147-.163-2.1,2.522-.59,2.779,1.546Zm-6.932-3.18.093,1.2-4.1,1.8q.609-.756,1.138-1.506Zm-9.67-16.324a8.729,8.729,0,0,1,8.719,8.719c0,6.523-6.882,12.765-8.719,14.314-1.837-1.549-8.719-7.791-8.719-14.314A8.728,8.728,0,0,1,443.423,3732.694Zm-5.28,19.792c.466.557.93,1.074,1.377,1.547l-6.18-.884.319-4.13,3.015,1.572Q437.344,3751.531,438.143,3752.486Zm-5.953-3.327-.208,2.7-.114,1.459-8.742,4.607.75-4.136Zm-9.853,13.122.447-2.475.012-.064,8.939-4.711-.185,2.379Z" transform="translate(4001.258 -1616.58)" fill="#2d2d2d"/>
    <path id="Trazado_1468" data-name="Trazado 1468" d="M447.282,3741.236a4.5,4.5,0,0,0-4.495-4.494.727.727,0,1,0,0,1.454,3.041,3.041,0,1,1-2.169.91.727.727,0,1,0-1.037-1.02,4.494,4.494,0,1,0,7.7,3.15Z" transform="translate(4001.894 -1616.403)" fill="#2d2d2d"/>
  </g>
</svg>
