<svg id="Grupo_560" data-name="Grupo 560" xmlns="http://www.w3.org/2000/svg" width="49.549" height="49.549" viewBox="0 0 49.549 49.549">
  <g id="Grupo_524" data-name="Grupo 524" transform="translate(11.811 9.35)">
    <g id="Grupo_523" data-name="Grupo 523">
      <path id="Trazado_1382" data-name="Trazado 1382" d="M451.932,3601.2H426.788a.393.393,0,0,1-.392-.394V3570.74a.392.392,0,0,1,.392-.393h25.143a.394.394,0,0,1,.393.393V3600.8a.393.393,0,0,1-.392.394Zm-24.751-.787h24.356v-29.275H427.182Z" transform="translate(-426.396 -3570.347)" fill="#2d2d2d"/>
    </g>
  </g>
  <g id="Grupo_525" data-name="Grupo 525" transform="translate(0.393 0.393)">
    <path id="Trazado_1383" data-name="Trazado 1383" d="M438.111,3576.861H416.177a.843.843,0,0,1-.842-.843v-13.5a.843.843,0,0,1,.842-.844h21.934a.844.844,0,0,1,.844.844v13.5A.844.844,0,0,1,438.111,3576.861Z" transform="translate(-415.335 -3561.67)" fill="#f4efed"/>
  </g>
  <g id="Grupo_526" data-name="Grupo 526" transform="translate(21.647 0.393)">
    <path id="Trazado_1384" data-name="Trazado 1384" d="M437.447,3561.67h-1.523a.843.843,0,0,1,.842.844v13.5a.843.843,0,0,1-.842.843h1.523a.843.843,0,0,0,.843-.843v-13.5A.843.843,0,0,0,437.447,3561.67Z" transform="translate(-435.924 -3561.67)" fill="#d6d1cf"/>
  </g>
  <g id="Grupo_527" data-name="Grupo 527" transform="translate(0.393 0.393)">
    <path id="Trazado_1385" data-name="Trazado 1385" d="M416.177,3576.861H417.7a.843.843,0,0,1-.842-.843v-13.5a.843.843,0,0,1,.842-.844h-1.525a.843.843,0,0,0-.842.844v13.5A.843.843,0,0,0,416.177,3576.861Z" transform="translate(-415.335 -3561.67)" fill="#fff"/>
  </g>
  <g id="Grupo_528" data-name="Grupo 528" transform="translate(4.499 17.122)">
    <path id="Trazado_1386" data-name="Trazado 1386" d="M434.722,3579.848h-15.41v-1.128a.842.842,0,0,1,.842-.843h13.724a.842.842,0,0,1,.843.843Z" transform="translate(-419.312 -3577.876)" fill="#f4efed"/>
  </g>
  <g id="Grupo_529" data-name="Grupo 529" transform="translate(17.732 17.122)">
    <path id="Trazado_1387" data-name="Trazado 1387" d="M433.465,3577.876h-1.333a.842.842,0,0,1,.842.843v1.128h1.334v-1.128A.842.842,0,0,0,433.465,3577.876Z" transform="translate(-432.132 -3577.876)" fill="#34518c"/>
  </g>
  <g id="Grupo_530" data-name="Grupo 530" transform="translate(4.499 17.122)">
    <path id="Trazado_1388" data-name="Trazado 1388" d="M420.154,3577.876h1.334a.842.842,0,0,0-.842.843v1.128h-1.334v-1.128A.842.842,0,0,1,420.154,3577.876Z" transform="translate(-419.312 -3577.876)" fill="#fff"/>
  </g>
  <g id="Grupo_531" data-name="Grupo 531" transform="translate(7.68 15.583)">
    <path id="Trazado_1389" data-name="Trazado 1389" d="M422.394,3576.385h9.046v1.54h-9.046Z" transform="translate(-422.394 -3576.385)" fill="#d6d1cf"/>
  </g>
  <g id="Grupo_532" data-name="Grupo 532" transform="translate(4.105 16.729)">
    <path id="Trazado_1390" data-name="Trazado 1390" d="M434.734,3580.254h-15.41a.394.394,0,0,1-.393-.393v-1.128a1.237,1.237,0,0,1,1.236-1.237h13.724a1.237,1.237,0,0,1,1.237,1.237v1.128a.394.394,0,0,1-.393.393Zm-15.018-.786H434.34v-.736a.449.449,0,0,0-.449-.45H420.167a.45.45,0,0,0-.45.45Z" transform="translate(-418.931 -3577.495)" fill="#2d2d2d"/>
  </g>
  <g id="Grupo_533" data-name="Grupo 533" transform="translate(7.287 15.191)">
    <path id="Trazado_1391" data-name="Trazado 1391" d="M431.453,3578.33h-9.047a.393.393,0,0,1-.393-.394V3576.4a.392.392,0,0,1,.393-.393h9.047a.393.393,0,0,1,.393.393v1.539A.393.393,0,0,1,431.453,3578.33Zm-8.655-.787h8.26v-.753H422.8Z" transform="translate(-422.013 -3576.005)" fill="#2d2d2d"/>
  </g>
  <g id="Grupo_535" data-name="Grupo 535">
    <g id="Grupo_534" data-name="Grupo 534">
      <path id="Trazado_1392" data-name="Trazado 1392" d="M438.123,3577.266H416.19a1.237,1.237,0,0,1-1.236-1.236v-13.5a1.237,1.237,0,0,1,1.236-1.236h21.934a1.238,1.238,0,0,1,1.238,1.236v13.5A1.239,1.239,0,0,1,438.123,3577.266Zm-21.934-15.19a.449.449,0,0,0-.449.45v13.5a.45.45,0,0,0,.449.45h21.934a.45.45,0,0,0,.45-.45v-13.5a.45.45,0,0,0-.45-.45Z" transform="translate(-414.954 -3561.289)" fill="#2d2d2d"/>
    </g>
  </g>
  <g id="Grupo_536" data-name="Grupo 536" transform="translate(25.536 30.454)">
    <path id="Trazado_1393" data-name="Trazado 1393" d="M462.469,3605.982H440.535a.844.844,0,0,1-.843-.843v-13.5a.844.844,0,0,1,.843-.844h21.934a.843.843,0,0,1,.842.844v13.5A.843.843,0,0,1,462.469,3605.982Z" transform="translate(-439.692 -3590.791)" fill="#f4efed"/>
  </g>
  <g id="Grupo_537" data-name="Grupo 537" transform="translate(46.789 30.455)">
    <path id="Trazado_1394" data-name="Trazado 1394" d="M461.8,3590.792H460.28a.843.843,0,0,1,.843.843v13.5a.844.844,0,0,1-.843.843H461.8a.843.843,0,0,0,.842-.843v-13.5A.842.842,0,0,0,461.8,3590.792Z" transform="translate(-460.28 -3590.792)" fill="#d6d1cf"/>
  </g>
  <g id="Grupo_538" data-name="Grupo 538" transform="translate(25.536 30.454)">
    <path id="Trazado_1395" data-name="Trazado 1395" d="M440.535,3605.982h1.524a.843.843,0,0,1-.842-.843v-13.5a.843.843,0,0,1,.842-.844h-1.524a.844.844,0,0,0-.843.844v13.5A.844.844,0,0,0,440.535,3605.982Z" transform="translate(-439.692 -3590.791)" fill="#fff"/>
  </g>
  <g id="Grupo_539" data-name="Grupo 539" transform="translate(29.642 47.184)">
    <path id="Trazado_1396" data-name="Trazado 1396" d="M459.079,3608.969h-15.41v-1.129a.842.842,0,0,1,.842-.842h13.724a.843.843,0,0,1,.843.842Z" transform="translate(-443.669 -3606.998)" fill="#f4efed"/>
  </g>
  <g id="Grupo_540" data-name="Grupo 540" transform="translate(42.875 47.184)">
    <path id="Trazado_1397" data-name="Trazado 1397" d="M457.822,3607h-1.333a.843.843,0,0,1,.843.842v1.129h1.333v-1.129A.843.843,0,0,0,457.822,3607Z" transform="translate(-456.489 -3606.998)" fill="#d6d1cf"/>
  </g>
  <g id="Grupo_541" data-name="Grupo 541" transform="translate(29.642 47.184)">
    <path id="Trazado_1398" data-name="Trazado 1398" d="M444.511,3607h1.333a.842.842,0,0,0-.842.842v1.129h-1.333v-1.129A.842.842,0,0,1,444.511,3607Z" transform="translate(-443.669 -3606.998)" fill="#fff"/>
  </g>
  <g id="Grupo_542" data-name="Grupo 542" transform="translate(32.823 45.645)">
    <path id="Trazado_1399" data-name="Trazado 1399" d="M446.751,3605.507H455.8v1.539h-9.047Z" transform="translate(-446.751 -3605.507)" fill="#f4efed"/>
  </g>
  <g id="Grupo_543" data-name="Grupo 543" transform="translate(29.248 46.791)">
    <path id="Trazado_1400" data-name="Trazado 1400" d="M459.091,3609.376h-15.41a.394.394,0,0,1-.393-.394v-1.129a1.237,1.237,0,0,1,1.236-1.235h13.724a1.237,1.237,0,0,1,1.237,1.235v1.129a.394.394,0,0,1-.393.394Zm-15.016-.787H458.7v-.736a.45.45,0,0,0-.45-.449H444.524a.449.449,0,0,0-.449.449Z" transform="translate(-443.288 -3606.618)" fill="#2d2d2d"/>
  </g>
  <g id="Grupo_544" data-name="Grupo 544" transform="translate(32.43 45.252)">
    <path id="Trazado_1401" data-name="Trazado 1401" d="M455.81,3607.451h-9.047a.393.393,0,0,1-.393-.393v-1.539a.394.394,0,0,1,.393-.394h9.047a.394.394,0,0,1,.393.394v1.539A.393.393,0,0,1,455.81,3607.451Zm-8.654-.786h8.26v-.753h-8.26Z" transform="translate(-446.37 -3605.125)" fill="#2d2d2d"/>
  </g>
  <g id="Grupo_546" data-name="Grupo 546" transform="translate(25.144 30.061)">
    <g id="Grupo_545" data-name="Grupo 545">
      <path id="Trazado_1402" data-name="Trazado 1402" d="M462.481,3606.387H440.548a1.237,1.237,0,0,1-1.236-1.235v-13.5a1.238,1.238,0,0,1,1.236-1.238h21.934a1.238,1.238,0,0,1,1.236,1.238v13.5A1.237,1.237,0,0,1,462.481,3606.387ZM440.548,3591.2a.45.45,0,0,0-.45.45v13.5a.45.45,0,0,0,.45.448h21.934a.449.449,0,0,0,.449-.448v-13.5a.449.449,0,0,0-.449-.45Z" transform="translate(-439.312 -3590.41)" fill="#2d2d2d"/>
    </g>
  </g>
  <g id="Grupo_547" data-name="Grupo 547" transform="translate(15.014 15.013)">
    <path id="Trazado_1403" data-name="Trazado 1403" d="M439.259,3575.833a9.761,9.761,0,1,1-9.76,9.761A9.761,9.761,0,0,1,439.259,3575.833Z" transform="translate(-429.499 -3575.833)" fill="#fcc24c"/>
  </g>
  <g id="Grupo_548" data-name="Grupo 548" transform="translate(24.07 15.013)">
    <path id="Trazado_1404" data-name="Trazado 1404" d="M438.976,3575.833c-.235,0-.471.011-.7.029a9.758,9.758,0,0,1,0,19.466c.233.016.469.027.7.027a9.761,9.761,0,1,0,0-19.522Z" transform="translate(-438.272 -3575.833)" fill="#dea42e"/>
  </g>
  <g id="Grupo_549" data-name="Grupo 549" transform="translate(15.014 15.013)">
    <path id="Trazado_1405" data-name="Trazado 1405" d="M439.259,3595.355c.238,0,.472-.011.7-.027a9.758,9.758,0,0,1,0-19.466c-.232-.018-.466-.029-.7-.029a9.761,9.761,0,0,0,0,19.522Z" transform="translate(-429.499 -3575.833)" fill="#fce06a"/>
  </g>
  <g id="Grupo_551" data-name="Grupo 551" transform="translate(14.621 14.62)">
    <g id="Grupo_550" data-name="Grupo 550">
      <path id="Trazado_1406" data-name="Trazado 1406" d="M439.271,3595.761a10.155,10.155,0,1,1,10.154-10.155A10.165,10.165,0,0,1,439.271,3595.761Zm0-19.522a9.368,9.368,0,1,0,9.368,9.368A9.377,9.377,0,0,0,439.271,3576.239Z" transform="translate(-429.118 -3575.452)" fill="#2d2d2d"/>
    </g>
  </g>
  <g id="Grupo_552" data-name="Grupo 552" transform="translate(20.952 17.099)">
    <path id="Trazado_1407" data-name="Trazado 1407" d="M442.5,3583.774a.392.392,0,0,1-.392-.393v-1.7a3.036,3.036,0,1,0-6.072,0v1.7a.394.394,0,0,1-.788,0v-1.7a3.823,3.823,0,1,1,7.645,0v1.7a.393.393,0,0,1-.393.393Z" transform="translate(-435.251 -3577.854)" fill="#2d2d2d"/>
  </g>
  <g id="Grupo_553" data-name="Grupo 553" transform="translate(20.061 22.626)">
    <path id="Trazado_1408" data-name="Trazado 1408" d="M442.769,3592.638h-7.334a1.048,1.048,0,0,1-1.047-1.048v-7.334a1.047,1.047,0,0,1,1.047-1.048h7.334a1.047,1.047,0,0,1,1.047,1.048v7.334A1.048,1.048,0,0,1,442.769,3592.638Z" transform="translate(-434.388 -3583.208)" fill="#f4efed"/>
  </g>
  <g id="Grupo_554" data-name="Grupo 554" transform="translate(19.668 22.234)">
    <path id="Trazado_1409" data-name="Trazado 1409" d="M442.781,3593.043h-7.334a1.442,1.442,0,0,1-1.44-1.441v-7.334a1.442,1.442,0,0,1,1.44-1.44h7.334a1.443,1.443,0,0,1,1.441,1.44v7.334A1.443,1.443,0,0,1,442.781,3593.043Zm-7.334-9.43a.655.655,0,0,0-.653.655v7.334a.655.655,0,0,0,.653.654h7.334a.656.656,0,0,0,.654-.654v-7.334a.656.656,0,0,0-.654-.655Z" transform="translate(-434.007 -3582.828)" fill="#2d2d2d"/>
  </g>
  <g id="Grupo_556" data-name="Grupo 556" transform="translate(21.307 25.09)">
    <g id="Grupo_555" data-name="Grupo 555">
      <path id="Trazado_1410" data-name="Trazado 1410" d="M438.476,3590.317l-2.881-2.731.994-1.048,1.921,1.82,3.109-2.762.958,1.083Z" transform="translate(-435.595 -3585.596)" fill="#090"/>
    </g>
  </g>
  <g id="Grupo_559" data-name="Grupo 559" transform="translate(20.914 24.697)">
    <g id="Grupo_558" data-name="Grupo 558">
      <g id="Grupo_557" data-name="Grupo 557">
        <path id="Trazado_1411" data-name="Trazado 1411" d="M438.488,3590.722a.4.4,0,0,1-.271-.107l-2.881-2.732a.385.385,0,0,1-.123-.275.4.4,0,0,1,.106-.281l1-1.049a.392.392,0,0,1,.555-.016l1.66,1.572,2.841-2.521a.393.393,0,0,1,.554.034l.959,1.083a.394.394,0,0,1-.034.555l-4.1,3.638a.4.4,0,0,1-.261.1Zm-2.325-3.139,2.334,2.212,3.538-3.138-.437-.494-2.816,2.5a.392.392,0,0,1-.531-.009l-1.636-1.551Z" transform="translate(-435.214 -3585.215)" fill="#2d2d2d"/>
      </g>
    </g>
  </g>
</svg>
