<svg id="Grupo_586" data-name="Grupo 586" xmlns="http://www.w3.org/2000/svg" width="49.549" height="51.773" viewBox="0 0 49.549 51.773">
  <g id="Grupo_579" data-name="Grupo 579" transform="translate(1.011 1.011)">
    <path id="Trazado_1470" data-name="Trazado 1470" d="M753.418,3731.473H720.189a3.776,3.776,0,0,0-3.77,3.76v2.691a1.286,1.286,0,0,0,1.284,1.281h30.66a1.284,1.284,0,0,0,1.284-1.281v-2.691A3.775,3.775,0,0,1,753.418,3731.473Z" transform="translate(-716.419 -3731.473)" fill="#e6dfe1"/>
  </g>
  <g id="Grupo_580" data-name="Grupo 580" transform="translate(4.293 1.011)">
    <path id="Trazado_1471" data-name="Trazado 1471" d="M748.26,3739.206H719.6v38.99a1.285,1.285,0,0,0,1.284,1.281h27.063a13.345,13.345,0,0,1-2.963-2.837l-7.019-9.008c-2.246-2.884,1.3-6.7,3.776-4.042l2.462,2.64c1.987,2.13,1.621.831,1.621-2.18v-14.612a2.255,2.255,0,1,1,4.5,0v8.848a2.256,2.256,0,1,1,4.5,0v1.914a2.223,2.223,0,0,1,2.252-2.378v-22.587a3.769,3.769,0,0,0-7.539,0v2.691a1.284,1.284,0,0,1-1.284,1.281Zm-17.851,5.637a.94.94,0,0,1,.939.935v3.929a.94.94,0,0,1-.939.934H726.47a.938.938,0,0,1-.935-.934v-3.929a.938.938,0,0,1,.935-.935Z" transform="translate(-719.599 -3731.473)" fill="#fff"/>
  </g>
  <g id="Grupo_582" data-name="Grupo 582" transform="translate(10.229 14.381)">
    <g id="Grupo_581" data-name="Grupo 581">
      <path id="Trazado_1472" data-name="Trazado 1472" d="M730.223,3744.425h-3.939a.938.938,0,0,0-.935.935v3.929a.938.938,0,0,0,.935.934h3.939a.94.94,0,0,0,.94-.934v-3.929A.941.941,0,0,0,730.223,3744.425Z" transform="translate(-725.349 -3744.425)" fill="#090"/>
    </g>
  </g>
  <g id="Grupo_583" data-name="Grupo 583" transform="translate(21.943 16.598)">
    <path id="Trazado_1473" data-name="Trazado 1473" d="M745.271,3748.95v14.612c0,3.011.366,4.309-1.621,2.18l-2.462-2.639c-2.479-2.654-6.022,1.158-3.776,4.042l7.017,9.008a13.409,13.409,0,0,0,2.965,2.837c7.062,4.84,15.958-.895,15.9-11.2v-6.17a2.257,2.257,0,1,0-4.508,0v-1.912a2.255,2.255,0,1,0-4.5,0V3757.8a2.256,2.256,0,1,0-4.5,0v-8.848a2.255,2.255,0,1,0-4.5,0Z" transform="translate(-736.697 -3746.573)" fill="#ffdcd5"/>
  </g>
  <g id="Grupo_585" data-name="Grupo 585">
    <g id="Grupo_584" data-name="Grupo 584">
      <path id="Trazado_1474" data-name="Trazado 1474" d="M726.316,3751.265h3.939a1.95,1.95,0,0,0,1.95-1.944v-3.93a1.95,1.95,0,0,0-1.95-1.944h-3.939a1.948,1.948,0,0,0-1.948,1.944v3.93A1.948,1.948,0,0,0,726.316,3751.265Zm.074-5.8h3.792v3.775H726.39Z" transform="translate(-715.152 -3730.076)" fill="#2d2d2d"/>
      <path id="Trazado_1475" data-name="Trazado 1475" d="M761.723,3758.755a3.379,3.379,0,0,0-1.413.308,3.121,3.121,0,0,0-2.08-2.066v-21.731a4.782,4.782,0,0,0-4.78-4.771H720.22a4.782,4.782,0,0,0-4.78,4.771v2.691a2.3,2.3,0,0,0,2.295,2.292h.986v37.979a2.3,2.3,0,0,0,2.3,2.291h26.761a10.38,10.38,0,0,0,5.675,1.749,9.983,9.983,0,0,0,3.284-.563,11.7,11.7,0,0,0,5.912-4.8,15.68,15.68,0,0,0,2.34-8.593v-6.171a3.219,3.219,0,0,0-3.266-3.388Zm-40.98,19.473v-37.979h9.267a1.011,1.011,0,0,0,0-2.022H717.735a.276.276,0,0,1-.273-.27v-2.691a2.758,2.758,0,0,1,2.758-2.75h29.324a4.742,4.742,0,0,0-.875,2.75v2.691a.275.275,0,0,1-.275.27H739.11a1.011,1.011,0,1,0,0,2.022h9.284a2.3,2.3,0,0,0,2.3-2.292v-2.691a2.758,2.758,0,0,1,5.516,0V3757a2.432,2.432,0,0,1-3.494-2.068,3.392,3.392,0,0,0-1.242.235v-5.694a3.266,3.266,0,1,0-6.527,0v14.61c0,.461.008.881.016,1.25,0,.04,0,.081,0,.122l-2.351-2.521a3.37,3.37,0,0,0-4.814-.365,4.1,4.1,0,0,0-.5,5.717l7.019,9.008a15.493,15.493,0,0,0,1.038,1.205H721.017A.276.276,0,0,1,720.743,3778.228Zm42.224-9.908c.033,5.507-2.673,10.011-6.893,11.475-3.569,1.238-7.367-.162-10.159-3.744l-7.018-9.008a2.1,2.1,0,0,1,.216-2.938,1.432,1.432,0,0,1,.905-.365,1.528,1.528,0,0,1,1.117.572l2.462,2.64c.7.745,1.561,1.671,2.518,1.283a1.6,1.6,0,0,0,.859-1.457c.033-.39.023-.874.01-1.487-.008-.36-.017-.77-.017-1.208V3749.47a1.247,1.247,0,1,1,2.483,0v14.476a1.011,1.011,0,0,0,2.022,0v-5.628a1.215,1.215,0,0,1,1.242-1.367,1.26,1.26,0,0,1,.857.321,1.376,1.376,0,0,1,.385,1.046v5.628a1.011,1.011,0,0,0,2.022,0v-3.715a1.213,1.213,0,0,1,1.24-1.366,1.26,1.26,0,0,1,.857.321,1.367,1.367,0,0,1,.385,1.045v3.715a1.011,1.011,0,0,0,2.022,0v-1.8a1.214,1.214,0,0,1,1.242-1.366,1.263,1.263,0,0,1,.859.32,1.373,1.373,0,0,1,.385,1.046v6.177Z" transform="translate(-715.44 -3730.494)" fill="#2d2d2d"/>
      <path id="Trazado_1476" data-name="Trazado 1476" d="M734.124,3744.456a1.01,1.01,0,0,0,1.011,1.012h8.092a1.011,1.011,0,1,0,0-2.022h-8.092A1.009,1.009,0,0,0,734.124,3744.456Z" transform="translate(-714.837 -3730.076)" fill="#2d2d2d"/>
      <path id="Trazado_1477" data-name="Trazado 1477" d="M741.509,3749.062h-6.374a1.011,1.011,0,0,0,0,2.023h6.374a1.011,1.011,0,1,0,0-2.023Z" transform="translate(-714.837 -3729.895)" fill="#2d2d2d"/>
      <path id="Trazado_1478" data-name="Trazado 1478" d="M725.381,3756.7h15.444a1.011,1.011,0,1,0,0-2.023H725.381a1.011,1.011,0,1,0,0,2.023Z" transform="translate(-715.152 -3729.713)" fill="#2d2d2d"/>
      <path id="Trazado_1479" data-name="Trazado 1479" d="M725.381,3762.321h8.33a1.011,1.011,0,1,0,0-2.022h-8.33a1.011,1.011,0,1,0,0,2.022Z" transform="translate(-715.152 -3729.532)" fill="#2d2d2d"/>
      <path id="Trazado_1480" data-name="Trazado 1480" d="M725.381,3767.94h7.336a1.011,1.011,0,1,0,0-2.021h-7.336a1.011,1.011,0,1,0,0,2.021Z" transform="translate(-715.152 -3729.352)" fill="#2d2d2d"/>
      <path id="Trazado_1481" data-name="Trazado 1481" d="M736.144,3771.535H725.381a1.011,1.011,0,1,0,0,2.022h10.763a1.011,1.011,0,0,0,0-2.022Z" transform="translate(-715.152 -3729.17)" fill="#2d2d2d"/>
      <path id="Trazado_1482" data-name="Trazado 1482" d="M733.994,3740.007H734a1.016,1.016,0,1,0-.006,0Z" transform="translate(-714.874 -3730.253)" fill="#2d2d2d"/>
    </g>
  </g>
</svg>
