<svg id="Grupo_575" data-name="Grupo 575" xmlns="http://www.w3.org/2000/svg" width="49.549" height="48.281" viewBox="0 0 49.549 48.281">
  <g id="Grupo_572" data-name="Grupo 572" transform="translate(0.726 0.727)">
    <g id="Grupo_570" data-name="Grupo 570">
      <path id="Trazado_1428" data-name="Trazado 1428" d="M119.234,3736.279v29.945a1.327,1.327,0,0,0,1.329,1.327H159.69a1.327,1.327,0,0,0,1.326-1.327v-29.945a1.328,1.328,0,0,0-1.326-1.327H120.563A1.328,1.328,0,0,0,119.234,3736.279Z" transform="translate(-119.234 -3731.705)" fill="#ebeef2"/>
      <path id="Trazado_1429" data-name="Trazado 1429" d="M158.5,3734.952h-2.4a1.328,1.328,0,0,1,1.328,1.328v29.944a1.327,1.327,0,0,1-1.328,1.327h2.4a1.327,1.327,0,0,0,1.328-1.327v-29.945A1.328,1.328,0,0,0,158.5,3734.952Z" transform="translate(-118.044 -3731.705)" fill="#d1d6de"/>
      <g id="Grupo_569" data-name="Grupo 569" transform="translate(9.205 7.404)">
        <g id="Grupo_564" data-name="Grupo 564" transform="translate(0 9.307)">
          <path id="Trazado_1430" data-name="Trazado 1430" d="M129.845,3747.994a1.694,1.694,0,1,1-1.694,1.694A1.694,1.694,0,0,1,129.845,3747.994Z" transform="translate(-128.151 -3747.994)" fill="#5c9cee"/>
        </g>
        <g id="Grupo_566" data-name="Grupo 566" transform="translate(6.662 5.525)">
          <g id="Grupo_565" data-name="Grupo 565">
            <path id="Trazado_1431" data-name="Trazado 1431" d="M136.3,3744.33a1.693,1.693,0,1,1-1.693,1.693A1.693,1.693,0,0,1,136.3,3744.33Z" transform="translate(-134.605 -3744.33)" fill="#edcd1f"/>
          </g>
        </g>
        <g id="Grupo_567" data-name="Grupo 567" transform="translate(13.323 9.307)">
          <path id="Trazado_1432" data-name="Trazado 1432" d="M142.751,3747.994a1.694,1.694,0,1,1-1.693,1.694A1.693,1.693,0,0,1,142.751,3747.994Z" transform="translate(-141.058 -3747.994)" fill="#cd3934"/>
        </g>
        <g id="Grupo_568" data-name="Grupo 568" transform="translate(19.985)">
          <path id="Trazado_1433" data-name="Trazado 1433" d="M149.2,3738.978a1.693,1.693,0,1,1-1.693,1.693A1.694,1.694,0,0,1,149.2,3738.978Z" transform="translate(-147.511 -3738.978)" fill="#9fd479"/>
        </g>
      </g>
      <path id="Trazado_1434" data-name="Trazado 1434" d="M126.071,3768.854v-2.324h27.667v2.324a.924.924,0,0,1-.924.924H127A.925.925,0,0,1,126.071,3768.854Z" transform="translate(-119.013 -3730.685)" fill="#edcd1f"/>
      <path id="Trazado_1435" data-name="Trazado 1435" d="M150.629,3766.531v2.324a.925.925,0,0,1-.925.924h2.347a.924.924,0,0,0,.924-.924v-2.324Z" transform="translate(-118.251 -3730.685)" fill="#fcab29"/>
      <path id="Trazado_1436" data-name="Trazado 1436" d="M136.272,3735.053V3732.9a1.1,1.1,0,0,1,1.1-1.095h4.414a1.1,1.1,0,0,1,1.1,1.095v2.153Z" transform="translate(-118.684 -3731.806)" fill="#edcd1f"/>
      <path id="Trazado_1437" data-name="Trazado 1437" d="M141.684,3731.806h-2.363a1.1,1.1,0,0,1,1.1,1.095v2.153h2.363V3732.9A1.1,1.1,0,0,0,141.684,3731.806Z" transform="translate(-118.586 -3731.806)" fill="#fcab29"/>
      <rect id="Rectángulo_572" data-name="Rectángulo 572" width="2.944" height="6.413" transform="translate(9.427 25.26)" fill="#48cfb7"/>
      <rect id="Rectángulo_573" data-name="Rectángulo 573" width="2.945" height="10.123" transform="translate(16.088 21.551)" fill="#48cfb7"/>
      <rect id="Rectángulo_574" data-name="Rectángulo 574" width="2.945" height="6.413" transform="translate(22.75 25.26)" fill="#48cfb7"/>
      <rect id="Rectángulo_575" data-name="Rectángulo 575" width="2.945" height="13.015" transform="translate(29.411 18.658)" fill="#48cfb7"/>
    </g>
    <g id="Grupo_571" data-name="Grupo 571" transform="translate(28.598 13.345)">
      <path id="Trazado_1438" data-name="Trazado 1438" d="M156.918,3759.808l5.4,9.359a2.035,2.035,0,0,0,2.779.744h0a2.031,2.031,0,0,0,.743-2.777l-5.4-9.358Z" transform="translate(-146.616 -3744.314)" fill="#cd3934"/>
      <path id="Trazado_1439" data-name="Trazado 1439" d="M160.439,3757.775l-3.521,2.033,2.106,3.648a11.078,11.078,0,0,0,3.522-2.033Z" transform="translate(-146.616 -3744.314)" fill="#cc3a60"/>
      <path id="Trazado_1440" data-name="Trazado 1440" d="M155.7,3744.734a8.76,8.76,0,1,1-8.762,8.761A8.761,8.761,0,0,1,155.7,3744.734Z" transform="translate(-146.938 -3744.734)" fill="#edcd1f"/>
      <path id="Trazado_1441" data-name="Trazado 1441" d="M155.619,3747.248a6.166,6.166,0,1,1-6.166,6.167A6.166,6.166,0,0,1,155.619,3747.248Z" transform="translate(-146.857 -3744.653)" fill="#5c9cee"/>
    </g>
  </g>
  <g id="Grupo_574" data-name="Grupo 574">
    <g id="Grupo_573" data-name="Grupo 573">
      <path id="Trazado_1442" data-name="Trazado 1442" d="M149.851,3743.114a2.425,2.425,0,1,0-1.931-.967l-3.975,5.555a2.44,2.44,0,0,0-.755-.12,2.407,2.407,0,0,0-1.645.649l-2.651-1.5a2.366,2.366,0,0,0,.055-.509,2.42,2.42,0,0,0-4.839,0,2.509,2.509,0,0,0,.055.509l-2.649,1.5a2.418,2.418,0,1,0,.772,1.771,2.35,2.35,0,0,0-.055-.508l2.65-1.5a2.412,2.412,0,0,0,3.294,0l2.649,1.5a2.487,2.487,0,0,0-.054.508,2.42,2.42,0,1,0,4.352-1.453l3.976-5.556A2.379,2.379,0,0,0,149.851,3743.114Zm0-3.387a.968.968,0,1,1-.967.966A.969.969,0,0,1,149.851,3739.727Zm-19.984,11.241a.967.967,0,1,1,.968-.966A.967.967,0,0,1,129.868,3750.968Zm6.661-3.781a.968.968,0,1,1,.968-.968A.97.97,0,0,1,136.529,3747.187Zm6.661,3.781a.967.967,0,1,1,.968-.966A.969.969,0,0,1,143.19,3750.968Z" transform="translate(-118.243 -3730.87)" fill="#2d2d2d"/>
      <path id="Trazado_1443" data-name="Trazado 1443" d="M159.061,3766.847H120.585a.6.6,0,0,1-.6-.6V3736.3a.6.6,0,0,1,.6-.6h3.421a.726.726,0,0,0,0-1.452h-3.421a2.055,2.055,0,0,0-2.054,2.052v29.946a2.056,2.056,0,0,0,2.054,2.053h5v1.6a1.652,1.652,0,0,0,1.651,1.651H134.5l-3.42,6.677a.725.725,0,1,0,1.291.661l3.76-7.338h8.025l3.759,7.338a.725.725,0,0,0,.646.4.714.714,0,0,0,.329-.08.727.727,0,0,0,.317-.977l-3.422-6.677h7.267a1.653,1.653,0,0,0,1.65-1.651v-1.6h4.354a.727.727,0,0,0,0-1.453Zm-5.805,3.049a.2.2,0,0,1-.2.2H127.239a.2.2,0,0,1-.2-.2v-1.6h26.216Z" transform="translate(-118.531 -3731)" fill="#2d2d2d"/>
      <path id="Trazado_1444" data-name="Trazado 1444" d="M126.67,3735.8h32.8a.6.6,0,0,1,.6.6v6.9a.726.726,0,0,0,1.451,0v-6.9a2.055,2.055,0,0,0-2.053-2.053H143.936v-1.427a1.823,1.823,0,0,0-1.821-1.821H137.7a1.824,1.824,0,0,0-1.822,1.821v1.427h-9.21a.726.726,0,0,0,0,1.452Zm10.662-2.879a.37.37,0,0,1,.37-.369h4.414a.37.37,0,0,1,.37.369v1.427h-5.153v-1.427Z" transform="translate(-118.292 -3731.102)" fill="#2d2d2d"/>
      <path id="Trazado_1445" data-name="Trazado 1445" d="M128.389,3755.573a.726.726,0,0,0-.726.726v6.414a.727.727,0,0,0,.726.727h2.944a.727.727,0,0,0,.726-.727V3756.3a.726.726,0,0,0-.726-.726Zm2.218,6.413h-1.493v-4.961h1.493Z" transform="translate(-118.236 -3730.313)" fill="#2d2d2d"/>
      <path id="Trazado_1446" data-name="Trazado 1446" d="M134.842,3751.98a.726.726,0,0,0-.726.726v10.123a.726.726,0,0,0,.726.727h2.945a.726.726,0,0,0,.726-.727v-10.123a.726.726,0,0,0-.726-.726Zm2.219,10.122h-1.494v-8.67h1.494Z" transform="translate(-118.028 -3730.428)" fill="#2d2d2d"/>
      <path id="Trazado_1447" data-name="Trazado 1447" d="M141.295,3755.573a.726.726,0,0,0-.726.726v6.414a.727.727,0,0,0,.726.727h2.945a.727.727,0,0,0,.726-.727V3756.3a.726.726,0,0,0-.726-.726Zm2.219,6.413h-1.493v-4.961h1.493Z" transform="translate(-117.82 -3730.313)" fill="#2d2d2d"/>
      <path id="Trazado_1448" data-name="Trazado 1448" d="M147.749,3759.722a.726.726,0,0,0-.727.726v2.13a.727.727,0,0,0,.727.727h2.944a.726.726,0,0,0,0-1.453h-2.218v-1.4A.726.726,0,0,0,147.749,3759.722Z" transform="translate(-117.612 -3730.179)" fill="#2d2d2d"/>
      <path id="Trazado_1449" data-name="Trazado 1449" d="M166.816,3767.213,162.653,3760a9.48,9.48,0,1,0-4.778,2.759l4.162,7.212a2.759,2.759,0,0,0,4.779-2.76Zm-13.174-5.935a8.036,8.036,0,1,1,6.1-.8A7.982,7.982,0,0,1,153.642,3761.279Zm11.438,8.447a1.31,1.31,0,0,1-1.786-.477l-4-6.94a9.834,9.834,0,0,0,1.176-.576,9.387,9.387,0,0,0,1.086-.732l4.006,6.939a1.3,1.3,0,0,1-.478,1.786Z" transform="translate(-117.637 -3730.685)" fill="#2d2d2d"/>
      <path id="Trazado_1450" data-name="Trazado 1450" d="M162.222,3755.48a6.864,6.864,0,0,0-.344-4.975.726.726,0,1,0-1.313.619,5.437,5.437,0,1,1-1.639-2.025.726.726,0,1,0,.875-1.158,6.893,6.893,0,1,0,2.421,7.54Z" transform="translate(-117.556 -3730.604)" fill="#2d2d2d"/>
    </g>
  </g>
</svg>
