<?xml version="1.0" encoding="utf-8"?>
<!-- Generator: Adobe Illustrator 24.0.2, SVG Export Plug-In . SVG Version: 6.00 Build 0)  -->
<svg version="1.1" id="Capa_1" xmlns="http://www.w3.org/2000/svg" xmlns:xlink="http://www.w3.org/1999/xlink" x="0px" y="0px"
	 viewBox="0 0 1080 1080" style="enable-background:new 0 0 1080 1080;" xml:space="preserve">
<style type="text/css">
	.st0{fill:#CD3934;}
	.st1{fill:#AD1457;}
	.st2{fill:#F5F5F5;}
	.st3{fill:#4D4D4D;}
	.st4{fill:#FFFFFF;}
	.st5{fill:#231F20;}
	.st6{fill:#009900;}
	.st7{fill:#78D2FA;}
	.st8{fill:#EDCD1F;}
	.st9{fill:#F5C86E;}
	.st10{fill:#FF5A5A;}
	.st11{fill:#A5DC69;}
	.st12{fill:#036603;}
	.st13{fill:#BED3F7;}
	.st14{fill:#548AFF;}
</style>
<path class="st4" d="M298.2,811.11h-51.85c-35.8,0-64.82-29.02-64.82-64.82V192.55c0-35.8,29.02-64.82,64.82-64.82h667.63
	c35.8,0,64.82,29.02,64.82,64.82v553.74c0,35.8-29.02,64.82-64.82,64.82h-66.44H298.2z"/>
<path class="st0" d="M913.98,127.74H246.35c-35.8,0-64.82,29.02-64.82,64.82v51.85H978.8v-51.85
	C978.8,156.76,949.77,127.74,913.98,127.74z"/>
<rect x="256.07" y="746.75" class="st6" width="103.71" height="178.25"/>
<rect x="619.05" y="704.62" class="st7" width="103.71" height="220.38"/>
<rect x="437.56" y="567.58" class="st8" width="103.71" height="357.42"/>
<rect x="800.55" y="543.38" class="st0" width="103.71" height="381.62"/>
<circle class="st9" cx="480.29" cy="390.15" r="42.13"/>
<circle class="st7" cx="669.4" cy="583.08" r="42.13"/>
<circle class="st10" cx="852.4" cy="390.15" r="42.13"/>
<circle class="st11" cx="306.86" cy="567.58" r="42.13"/>
<path class="st3" d="M938.42,825.35c31.2,0,56.58-25.38,56.58-56.58V192.55c0-44.68-36.35-81.02-81.02-81.02H246.35
	c-44.68,0-81.02,36.35-81.02,81.02v576.21c0,31.2,25.38,56.58,56.58,56.58h17.96v83.45h-58.34c-8.95,0-16.2,7.26-16.2,16.2
	c0,8.95,7.25,16.2,16.2,16.2H978.8c8.95,0,16.2-7.26,16.2-16.2c0-8.95-7.25-16.2-16.2-16.2h-58.34v-83.45H938.42z M246.35,143.94
	h667.63c26.81,0,48.61,21.81,48.61,48.61v35.65H199.36c-0.55,0-1.09,0.03-1.63,0.08v-35.73
	C197.73,165.75,219.54,143.94,246.35,143.94z M272.28,908.8V762.96h71.3V908.8H272.28z M453.77,908.8V583.78h71.3V908.8H453.77z
	 M635.26,908.8V720.82h71.3V908.8H635.26z M816.75,908.8v-174.6c0-8.95-7.25-16.2-16.2-16.2c-8.95,0-16.2,7.26-16.2,16.2v174.6
	h-45.37V704.62c0-8.95-7.25-16.2-16.2-16.2H619.05c-8.95,0-16.2,7.26-16.2,16.2V908.8h-45.37V567.58c0-8.95-7.25-16.2-16.2-16.2
	H437.56c-8.95,0-16.2,7.26-16.2,16.2V908.8h-45.37V746.75c0-8.95-7.25-16.2-16.2-16.2H256.07c-8.95,0-16.2,7.26-16.2,16.2v46.19
	h-17.96c-13.33,0-24.17-10.84-24.17-24.17V260.53c0.53,0.05,1.08,0.08,1.63,0.08h763.23v508.15c0,13.33-10.84,24.17-24.17,24.17
	h-17.96V543.38c0-8.95-7.25-16.2-16.2-16.2H800.55c-8.95,0-16.2,7.26-16.2,16.2v81.83c0,8.95,7.25,16.2,16.2,16.2
	c8.95,0,16.2-7.26,16.2-16.2v-65.63h71.3V908.8H816.75z"/>
<path class="st3" d="M525.17,202.28h366.12c8.95,0,16.2-7.26,16.2-16.2s-7.25-16.2-16.2-16.2H525.17c-8.95,0-16.2,7.26-16.2,16.2
	S516.22,202.28,525.17,202.28z"/>
<path class="st3" d="M333.85,202.28c4.26,0,8.44-1.73,11.46-4.75c3.01-3.01,4.75-7.19,4.75-11.46s-1.73-8.44-4.75-11.46
	c-3.01-3.01-7.19-4.75-11.46-4.75c-4.26,0-8.44,1.73-11.46,4.75c-3.01,3.01-4.75,7.19-4.75,11.46s1.73,8.44,4.75,11.46
	C325.41,200.54,329.59,202.28,333.85,202.28z"/>
<path class="st3" d="M269.03,202.28c4.26,0,8.44-1.73,11.46-4.75c3.01-3.01,4.75-7.19,4.75-11.46s-1.73-8.44-4.75-11.46
	c-3.01-3.01-7.19-4.75-11.46-4.75c-4.26,0-8.44,1.73-11.46,4.75c-3.01,3.01-4.75,7.19-4.75,11.46s1.73,8.44,4.75,11.46
	C260.59,200.54,264.77,202.28,269.03,202.28z"/>
<path class="st3" d="M398.67,202.28c4.26,0,8.44-1.73,11.46-4.75c3.01-3.01,4.75-7.19,4.75-11.46s-1.73-8.44-4.75-11.46
	c-3.01-3.01-7.18-4.75-11.46-4.75c-4.26,0-8.44,1.73-11.46,4.75c-3.01,3.01-4.75,7.19-4.75,11.46s1.73,8.44,4.75,11.46
	C390.23,200.54,394.41,202.28,398.67,202.28z"/>
<path class="st3" d="M800.55,666.76c-4.26,0-8.44,1.72-11.46,4.75c-3.01,3.01-4.75,7.19-4.75,11.46c0,4.26,1.73,8.44,4.75,11.46
	c3.01,3.01,7.19,4.75,11.46,4.75c4.26,0,8.44-1.73,11.46-4.75c3.01-3.01,4.75-7.19,4.75-11.46c0-4.28-1.73-8.44-4.75-11.46
	C808.99,668.48,804.81,666.76,800.55,666.76z"/>
<path class="st3" d="M852.4,448.49c32.17,0,58.34-26.17,58.34-58.34s-26.17-58.34-58.34-58.34c-32.17,0-58.34,26.17-58.34,58.34
	c0,12.78,4.14,24.6,11.13,34.22L697.56,532.01c-8.35-4.62-17.95-7.26-28.16-7.26c-9.2,0-17.9,2.15-25.64,5.95L531.37,418.31
	c4.62-8.35,7.26-17.95,7.26-28.16c0-32.17-26.17-58.34-58.34-58.34s-58.34,26.17-58.34,58.34c0,11.24,3.21,21.75,8.74,30.66
	L335,516.5c-8.35-4.62-17.95-7.26-28.15-7.26c-32.17,0-58.34,26.17-58.34,58.34s26.17,58.34,58.34,58.34s58.34-26.17,58.34-58.34
	c0-10.21-2.64-19.8-7.26-28.16l96.84-96.84c7.72,3.77,16.38,5.9,25.54,5.9c10.2,0,19.8-2.64,28.15-7.26l111.29,111.29
	c-5.49,8.9-8.68,19.36-8.68,30.57c0,32.17,26.17,58.34,58.34,58.34s58.34-26.17,58.34-58.34c0-10.21-2.64-19.8-7.26-28.16L831,444.4
	C837.63,447.03,844.85,448.49,852.4,448.49z M852.4,364.22c14.3,0,25.93,11.63,25.93,25.93c0,14.3-11.63,25.93-25.93,25.93
	c-14.3,0-25.93-11.63-25.93-25.93C826.47,375.86,838.1,364.22,852.4,364.22z M306.85,593.51c-14.3,0-25.93-11.63-25.93-25.93
	c0-14.3,11.63-25.93,25.93-25.93s25.93,11.63,25.93,25.93C332.78,581.88,321.15,593.51,306.85,593.51z M480.3,416.08
	c-14.3,0-25.93-11.63-25.93-25.93c0-14.3,11.63-25.93,25.93-25.93c14.3,0,25.93,11.63,25.93,25.93
	C506.22,404.45,494.59,416.08,480.3,416.08z M669.4,609.01c-14.3,0-25.93-11.63-25.93-25.93s11.63-25.93,25.93-25.93
	c14.3,0,25.93,11.63,25.93,25.93S683.7,609.01,669.4,609.01z"/>
<path class="st3" d="M394.23,348.15c4.26,0,8.43-1.73,11.46-4.75c3.01-3.01,4.75-7.19,4.75-11.46s-1.73-8.44-4.75-11.46
	c-3.03-3.01-7.19-4.75-11.46-4.75c-4.28,0-8.46,1.73-11.47,4.75c-3.01,3.01-4.73,7.19-4.73,11.46s1.72,8.44,4.73,11.46
	C385.79,346.42,389.95,348.15,394.23,348.15z"/>
<path class="st3" d="M256.07,348.15h77.78c8.95,0,16.2-7.26,16.2-16.2c0-8.95-7.25-16.2-16.2-16.2h-77.78
	c-8.95,0-16.2,7.26-16.2,16.2C239.87,340.9,247.12,348.15,256.07,348.15z"/>
<path class="st3" d="M333.85,425.93c8.95,0,16.2-7.26,16.2-16.2s-7.25-16.2-16.2-16.2h-77.78c-8.95,0-16.2,7.26-16.2,16.2
	s7.25,16.2,16.2,16.2H333.85z"/>
</svg>
