<?xml version="1.0" encoding="utf-8"?>
<!-- Generator: Adobe Illustrator 24.0.2, SVG Export Plug-In . SVG Version: 6.00 Build 0)  -->
<svg version="1.1" id="Capa_1" xmlns="http://www.w3.org/2000/svg" xmlns:xlink="http://www.w3.org/1999/xlink" x="0px" y="0px"
	 viewBox="0 0 1080 1080" style="enable-background:new 0 0 1080 1080;" xml:space="preserve">
<style type="text/css">
	.st0{fill:#CD3934;}
	.st1{fill:#AD2121;}
	.st2{fill:#E4F6FF;}
	.st3{fill:#B9E4EF;}
	.st4{fill:#80B4FB;}
	.st5{fill:#009900;}
	.st6{fill:#EDCD1F;}
	.st7{fill:#2D2D2D;}
	.st8{fill:#DC4955;}
	.st9{fill:#D82F3C;}
	.st10{fill:#ABD641;}
	.st11{fill:#FFA442;}
	.st12{fill:#94CCD4;}
	.st13{fill:#6FBBC6;}
	.st14{opacity:0.7;fill:#A59D9D;}
	.st15{opacity:0.7;fill:#756F6F;}
	.st16{fill:#FAF8F8;}
	.st17{fill:#F0E9E6;}
	.st18{fill:#E6E9ED;}
	.st19{fill:#4FC1E9;}
	.st20{fill:#FFEAA7;}
	.st21{fill:#F0D0B4;}
	.st22{fill:#FFC729;}
	.st23{fill:#FCD770;}
</style>
<g>
	<path class="st0" d="M949.65,318.79H131.11V215.64c0-18.38,14.9-33.27,33.27-33.27h751.99c18.38,0,33.27,14.9,33.27,33.27V318.79z"
		/>
</g>
<g>
	<path class="st1" d="M916.37,182.37h-49.91c18.38,0,33.27,14.9,33.27,33.27v103.15h49.91V215.64
		C949.65,197.26,934.75,182.37,916.37,182.37z"/>
</g>
<g>
	<path class="st2" d="M131.11,318.79h818.54v545.69c0,18.38-14.9,33.27-33.27,33.27H164.38c-18.38,0-33.27-14.9-33.27-33.27
		L131.11,318.79z"/>
</g>
<g>
	<path class="st3" d="M899.74,318.79v545.69c0,18.38-14.9,33.27-33.27,33.27h49.91c18.38,0,33.27-14.9,33.27-33.27V318.79H899.74z"
		/>
</g>
<g>
	<path class="st0" d="M440.56,372.03H640.2v79.86H440.56V372.03z"/>
</g>
<g>
	<path class="st4" d="M440.56,568.34H640.2v79.86H440.56V568.34z"/>
</g>
<g>
	<path class="st4" d="M696.77,568.34h199.64v79.86H696.77V568.34z"/>
</g>
<g>
	<g>
		<path class="st5" d="M440.56,764.66H640.2v79.86H440.56V764.66z"/>
	</g>
</g>
<g>
	<g>
		<path class="st5" d="M696.77,764.66h199.64v79.86H696.77V764.66z"/>
	</g>
</g>
<g>
	<g>
		<path class="st6" d="M383.99,648.2H184.35v-79.86h199.64V648.2z"/>
	</g>
</g>
<g>
	<g>
		<path class="st5" d="M383.99,844.52H184.35v-79.86h199.64V844.52z"/>
	</g>
</g>
<g>
	<g>
		<path class="st7" d="M916.38,170.02H728.84c-6.82,0-12.35,5.53-12.35,12.35s5.53,12.35,12.35,12.35h187.54
			c11.53,0,20.92,9.38,20.92,20.92v90.8H143.46v-90.8c0-11.53,9.38-20.92,20.92-20.92H671.2c6.82,0,12.35-5.53,12.35-12.35
			s-5.53-12.35-12.35-12.35H164.38c-25.16,0-45.62,20.47-45.62,45.62v524.82c0,6.82,5.53,12.35,12.35,12.35
			c6.82,0,12.35-5.53,12.35-12.35V331.14H937.3v74.18c0,6.82,5.53,12.35,12.35,12.35S962,412.14,962,405.32V215.64
			C962,190.49,941.53,170.02,916.38,170.02z"/>
		<path class="st7" d="M949.65,450.61c-6.82,0-12.35,5.53-12.35,12.35v401.51c0,11.53-9.38,20.92-20.92,20.92h-752
			c-11.53,0-20.92-9.38-20.92-20.92v-66.37c0-6.82-5.53-12.35-12.35-12.35c-6.82,0-12.35,5.53-12.35,12.35v66.37
			c0,25.16,20.47,45.62,45.62,45.62h752c25.16,0,45.62-20.47,45.62-45.62V462.97C962,456.14,956.47,450.61,949.65,450.61
			L949.65,450.61z"/>
		<path class="st7" d="M861.47,250.58c0-11.03-8.94-19.96-19.96-19.96s-19.96,8.94-19.96,19.96c0,11.03,8.94,19.96,19.96,19.96
			S861.47,261.6,861.47,250.58z"/>
		<path class="st7" d="M793.26,250.58c0-11.03-8.94-19.96-19.96-19.96s-19.96,8.94-19.96,19.96c0,11.03,8.94,19.96,19.96,19.96
			S793.26,261.6,793.26,250.58z"/>
		<circle class="st7" cx="705.08" cy="250.58" r="19.96"/>
		<path class="st7" d="M184.35,752.31c-6.82,0-12.35,5.53-12.35,12.35v79.86c0,6.82,5.53,12.35,12.35,12.35h199.64
			c6.82,0,12.35-5.53,12.35-12.35v-27.58h31.86v27.58c0,6.82,5.53,12.35,12.35,12.35H640.2c6.82,0,12.35-5.53,12.35-12.35v-27.58
			h31.86v27.58c0,6.82,5.53,12.35,12.35,12.35h199.64c6.82,0,12.35-5.53,12.35-12.35v-79.86c0-6.82-5.53-12.35-12.35-12.35h-87.47
			v-91.75h87.47c6.82,0,12.35-5.53,12.35-12.35v-79.86c0-6.82-5.53-12.35-12.35-12.35H696.77c-6.82,0-12.35,5.53-12.35,12.35v27.58
			h-31.86v-27.58c0-6.82-5.53-12.35-12.35-12.35h-87.47v-91.75h87.47c6.82,0,12.35-5.53,12.35-12.35v-79.86
			c0-6.82-5.53-12.35-12.35-12.35H440.56c-6.82,0-12.35,5.53-12.35,12.35v79.86c0,6.82,5.53,12.35,12.35,12.35h87.47v91.75h-87.47
			c-6.82,0-12.35,5.53-12.35,12.35v27.58h-31.86v-27.58c0-6.82-5.53-12.35-12.35-12.35H184.35c-6.82,0-12.35,5.53-12.35,12.35v79.86
			c0,6.82,5.53,12.35,12.35,12.35h87.47v91.75H184.35z M452.91,384.38h174.94v55.15H452.91V384.38z M371.64,832.16H196.7v-55.15
			h174.94V832.16z M627.85,832.16H452.91v-55.15h174.94L627.85,832.16L627.85,832.16z M884.06,832.16H709.12v-55.15h174.94V832.16z
			 M709.12,580.7h174.94v55.15H709.12V580.7z M684.41,620.62v27.58c0,6.82,5.53,12.35,12.35,12.35h87.47v91.75h-87.47
			c-6.82,0-12.35,5.53-12.35,12.35v27.58h-31.86v-27.58c0-6.82-5.53-12.35-12.35-12.35h-87.47v-91.75h87.47
			c6.82,0,12.35-5.53,12.35-12.35v-27.58H684.41z M452.91,580.7h174.94v55.15H452.91V580.7z M196.7,580.7h174.94v55.15H196.7V580.7z
			 M296.52,660.55h87.47c6.82,0,12.35-5.53,12.35-12.35v-27.58h31.86v27.58c0,6.82,5.53,12.35,12.35,12.35h87.47v91.75h-87.47
			c-6.82,0-12.35,5.53-12.35,12.35v27.58h-31.86v-27.58c0-6.82-5.53-12.35-12.35-12.35h-87.47L296.52,660.55z"/>
		<path class="st7" d="M767.6,475.18c0,6.82,5.53,12.35,12.35,12.35h116.46c6.82,0,12.35-5.53,12.35-12.35
			c0-6.82-5.53-12.35-12.35-12.35H779.95C773.13,462.82,767.6,468.35,767.6,475.18z"/>
		<path class="st7" d="M896.41,434.29c6.82,0,12.35-5.53,12.35-12.35c0-6.82-5.53-12.35-12.35-12.35h-66.55
			c-6.82,0-12.35,5.53-12.35,12.35c0,6.82,5.53,12.35,12.35,12.35H896.41z"/>
		<path class="st7" d="M184.35,487.53h116.46c6.82,0,12.35-5.53,12.35-12.35c0-6.82-5.53-12.35-12.35-12.35H184.35
			c-6.82,0-12.35,5.53-12.35,12.35C171.99,482,177.53,487.53,184.35,487.53z"/>
		<path class="st7" d="M184.35,434.29h66.55c6.82,0,12.35-5.53,12.35-12.35c0-6.82-5.53-12.35-12.35-12.35h-66.55
			c-6.82,0-12.35,5.53-12.35,12.35C171.99,428.76,177.53,434.29,184.35,434.29z"/>
	</g>
</g>
</svg>
