<?xml version="1.0" encoding="utf-8"?>
<!-- Generator: Adobe Illustrator 24.0.2, SVG Export Plug-In . SVG Version: 6.00 Build 0)  -->
<svg version="1.1" id="Capa_1" xmlns="http://www.w3.org/2000/svg" xmlns:xlink="http://www.w3.org/1999/xlink" x="0px" y="0px"
	 viewBox="0 0 1080 1080" style="enable-background:new 0 0 1080 1080;" xml:space="preserve">
<style type="text/css">
	.st0{fill:#CD3934;}
	.st1{fill:#AD1457;}
	.st2{fill:#F5F5F5;}
	.st3{fill:#4D4D4D;}
	.st4{fill:#FFFFFF;}
	.st5{fill:#231F20;}
	.st6{fill:#009900;}
	.st7{fill:#78D2FA;}
	.st8{fill:#EDCD1F;}
	.st9{fill:#F5C86E;}
	.st10{fill:#FF5A5A;}
	.st11{fill:#A5DC69;}
	.st12{fill:#036603;}
	.st13{fill:#BED3F7;}
	.st14{fill:#548AFF;}
</style>
<g id="Page-1_1_">
	<g id="_x30_23---Pointer_1_">
		<path id="Shape_39_" class="st0" d="M504.53,751.83l40.75,55.57c2.73,3.68,7.29,5.51,11.8,4.74c4.51-0.77,8.21-4.01,9.56-8.39
			l130.33-424.89c1.3-4.29,0.13-8.94-3.04-12.11c-3.17-3.17-7.82-4.33-12.11-3.04L256.92,494.05c-4.37,1.35-7.62,5.05-8.39,9.56
			c-0.77,4.51,1.06,9.08,4.74,11.8l97.71,71.66c2.85,2.1,4.64,5.33,4.91,8.86c0.27,3.53-1.01,6.99-3.51,9.5L190.95,766.86
			c-4.73,4.74-4.73,12.41,0,17.15l42.86,42.86l42.86,42.86c4.74,4.73,12.41,4.73,17.15,0l161.45-161.45c2.5-2.5,5.97-3.78,9.5-3.51
			c3.53,0.27,6.76,2.06,8.86,4.91L504.53,751.83z"/>
		<path id="Shape_38_" class="st1" d="M437.19,709.68c-2.1-2.85-5.33-4.64-8.86-4.91c-3.53-0.27-6.99,1.01-9.5,3.51L267.02,860.11
			l9.64,9.72c4.74,4.73,12.41,4.73,17.15,0l150.44-150.51L437.19,709.68z"/>
		<path id="Shape_37_" class="st1" d="M681.83,363.71l-21.86,6.72c1.23,2.64,1.44,5.64,0.6,8.43L533.9,791.81l11.4,15.56
			c2.73,3.68,7.29,5.51,11.8,4.74c4.51-0.77,8.21-4.01,9.56-8.39l130.31-424.87c1.3-4.29,0.13-8.94-3.04-12.11
			C690.77,363.58,686.12,362.41,681.83,363.71z"/>
		<path id="Shape_36_" class="st2" d="M340.6,531.34c-6.01,0-11.12-4.4-12.01-10.35s2.7-11.65,8.45-13.41l65.43-20.08
			c4.17-1.35,8.74-0.34,11.96,2.63c3.22,2.97,4.59,7.45,3.59,11.71c-1,4.27-4.23,7.66-8.43,8.88l-65.42,20.05
			C343.01,531.14,341.81,531.33,340.6,531.34L340.6,531.34z"/>
		<path id="Shape_35_" class="st2" d="M466.76,492.65c-6.03,0.02-11.15-4.39-12.05-10.35c-0.89-5.96,2.72-11.67,8.49-13.42
			l21.05-6.45c6.37-1.85,13.06,1.76,15,8.1c1.95,6.35-1.57,13.08-7.88,15.12l-21.05,6.45C469.16,492.46,467.96,492.65,466.76,492.65
			z"/>
		<g>
			<g>
				<path id="Shape_86_" class="st3" d="M891.85,314.58h-48.58c-6.71,0-12.15,5.44-12.15,12.15c0,6.71,5.44,12.15,12.15,12.15h48.58
					c6.71,0,12.15-5.44,12.15-12.15C904,320.02,898.56,314.58,891.85,314.58z"/>
				<path id="Shape_85_" class="st3" d="M576.07,314.58c-6.71,0-12.15,5.44-12.15,12.15c0,6.71,5.44,12.15,12.15,12.15h48.58
					c6.71,0,12.15-5.44,12.15-12.15c0-6.71-5.44-12.15-12.15-12.15H576.07z"/>
				<path id="Shape_84_" class="st3" d="M819.83,395.4c-3.07-3.07-7.54-4.27-11.73-3.15s-7.47,4.4-8.59,8.59
					c-1.12,4.19,0.07,8.67,3.14,11.74l34.36,34.4c3.07,3.07,7.55,4.27,11.75,3.14s7.48-4.41,8.6-8.61c1.12-4.2-0.08-8.68-3.15-11.75
					L819.83,395.4z"/>
				<path id="Shape_83_" class="st3" d="M656.65,261.56c4.91,0,9.34-2.96,11.22-7.5c1.88-4.54,0.84-9.76-2.63-13.23l-34.36-34.34
					c-4.8-4.35-12.16-4.17-16.74,0.41c-4.58,4.58-4.76,11.94-0.42,16.74L648.08,258C650.35,260.27,653.44,261.55,656.65,261.56
					L656.65,261.56z"/>
				<path id="Shape_82_" class="st3" d="M733.96,423.9c-6.71,0-12.15,5.44-12.15,12.15v48.58c0,6.71,5.44,12.15,12.15,12.15
					c6.71,0,12.15-5.44,12.15-12.15v-48.58C746.11,429.33,740.67,423.9,733.96,423.9z"/>
				<path id="Shape_81_" class="st3" d="M721.82,168.84v48.58c0,6.71,5.44,12.15,12.15,12.15c6.71,0,12.15-5.44,12.15-12.15v-48.58
					c0-6.71-5.44-12.15-12.15-12.15C727.25,156.69,721.82,162.13,721.82,168.84z"/>
				<path id="Shape_80_" class="st3" d="M854.2,206.49c-4.74-4.74-12.43-4.74-17.17,0l-34.38,34.34c-3.07,3.07-4.26,7.54-3.14,11.74
					c1.12,4.19,4.4,7.47,8.59,8.59s8.67-0.08,11.73-3.15l34.37-34.36C858.93,218.9,858.93,211.23,854.2,206.49z"/>
				<path id="Shape_79_" class="st3" d="M268.08,878.29c9.48,9.46,24.83,9.46,34.31,0l161.43-161.45
					c3.97,5.41,11.57,6.58,16.98,2.61c5.41-3.97,6.58-11.57,2.61-16.98c-4.19-5.71-10.67-9.3-17.73-9.84
					c-7.06-0.54-14,2.03-19.01,7.03L285.25,861.14l-85.7-85.71l161.43-161.45c5-5.01,7.56-11.95,7.03-19.01
					c-0.54-7.06-4.13-13.53-9.83-17.72l-97.71-71.66l424.92-130.27L555.07,800.18l-40.75-55.57c-3.97-5.42-11.58-6.6-17-2.63
					c-5.42,3.97-6.6,11.58-2.63,17l40.75,55.57c5.44,7.39,14.59,11.08,23.63,9.53c9.05-1.54,16.45-8.05,19.14-16.82l130.32-424.92
					c2.65-8.6,0.32-17.96-6.04-24.32c-6.36-6.36-15.72-8.69-24.33-6.04L253.33,482.4c-8.77,2.69-15.27,10.1-16.81,19.14
					c-1.54,9.04,2.14,18.18,9.52,23.63l97.71,71.66L182.37,758.24c-9.47,9.48-9.47,24.84,0,34.32L268.08,878.29z"/>
				<path id="Shape_78_" class="st3" d="M696.02,326.73c3.13,0.78,6.43,0.28,9.19-1.38c2.76-1.66,4.75-4.35,5.53-7.48
					c4.35-17.29,20.56-28.9,38.33-27.43c17.77,1.46,31.87,15.57,33.32,33.33c1.46,17.77-10.15,33.98-27.44,38.32
					c-5.94,1.49-9.84,7.17-9.1,13.25c0.74,6.08,5.89,10.66,12.02,10.68c1,0,1.99-0.12,2.95-0.36c28.84-7.21,48.21-34.24,45.79-63.87
					c-2.43-29.63-25.94-53.14-55.57-55.57c-29.63-2.43-56.66,16.95-63.87,45.79c-0.78,3.13-0.28,6.43,1.38,9.19
					C690.2,323.96,692.89,325.95,696.02,326.73L696.02,326.73z"/>
			</g>
		</g>
	</g>
</g>
</svg>
