<?xml version="1.0" encoding="utf-8"?>
<!-- Generator: Adobe Illustrator 24.0.2, SVG Export Plug-In . SVG Version: 6.00 Build 0)  -->
<svg version="1.1" id="Capa_1" xmlns="http://www.w3.org/2000/svg" xmlns:xlink="http://www.w3.org/1999/xlink" x="0px" y="0px"
	 viewBox="0 0 1080 1080" style="enable-background:new 0 0 1080 1080;" xml:space="preserve">
<style type="text/css">
	.st0{fill:#CD3934;}
	.st1{fill:#AD1457;}
	.st2{fill:#F5F5F5;}
	.st3{fill:#4D4D4D;}
	.st4{fill:#FFFFFF;}
	.st5{fill:#231F20;}
	.st6{fill:#009900;}
	.st7{fill:#78D2FA;}
	.st8{fill:#EDCD1F;}
	.st9{fill:#F5C86E;}
	.st10{fill:#FF5A5A;}
	.st11{fill:#A5DC69;}
	.st12{fill:#036603;}
	.st13{fill:#BED3F7;}
	.st14{fill:#548AFF;}
</style>
<g>
	<path class="st6" d="M498.29,499.65v409.73c0,15.08-12.22,27.31-27.3,27.32c-0.01,0-0.01,0-0.02,0H170.51
		c-15.08,0-27.31-12.22-27.32-27.3c0-0.01,0-0.01,0-0.02V592.92c0.03-7.24,2.9-14.19,8.01-19.33l93.25-93.25
		c5.14-5.1,12.08-7.98,19.33-8.01h207.2c15.08,0,27.31,12.22,27.32,27.3C498.29,499.64,498.29,499.65,498.29,499.65z"/>
	<path class="st12" d="M252.46,474.81v79.47c0,15.08-12.22,27.31-27.3,27.32c-0.01,0-0.01,0-0.02,0h-79.47
		c1.34-2.98,3.22-5.69,5.53-8.01l93.25-93.25C246.76,478.03,249.48,476.16,252.46,474.81z"/>
	<path class="st0" d="M580.24,759.15h81.95v95.6h-81.95V759.15z"/>
	<path class="st6" d="M662.19,677.2h81.95v177.55h-81.95V677.2z"/>
	<path class="st6" d="M744.13,595.26h81.95v259.49h-81.95V595.26z"/>
	<path class="st6" d="M826.08,513.31h81.95v341.44h-81.95V513.31z"/>
	<g>
		<circle class="st13" cx="170.51" cy="431.37" r="27.32"/>
		<circle class="st13" cx="266.12" cy="335.76" r="27.32"/>
		<circle class="st13" cx="402.69" cy="335.76" r="27.32"/>
		<circle class="st13" cx="539.27" cy="240.16" r="27.32"/>
	</g>
	<path class="st8" d="M935.34,308.45c0,90.51-73.38,163.89-163.89,163.89s-163.89-73.38-163.89-163.89s73.38-163.89,163.89-163.89
		c90.25-0.27,163.62,72.68,163.89,162.92C935.34,307.8,935.34,308.13,935.34,308.45z"/>
	<path class="st14" d="M935.34,308.45H771.45V144.56C861.96,144.56,935.34,217.93,935.34,308.45
		C935.34,308.45,935.34,308.45,935.34,308.45z"/>
	<path class="st0" d="M935.34,308.45c0.06,46.83-19.98,91.43-55.02,122.49L771.45,308.45H935.34z"/>
	<circle class="st13" cx="416.35" cy="554.28" r="27.32"/>
	<circle class="st13" cx="430.01" cy="854.75" r="27.32"/>
	<path class="st3" d="M307.09,554.28h40.97v27.32h-40.97V554.28z"/>
	<path class="st3" d="M402.69,622.57h40.97v27.32h-40.97V622.57z"/>
	<path class="st3" d="M307.09,622.57h68.29v27.32h-68.29V622.57z"/>
	<path class="st3" d="M197.83,622.57h81.95v27.32h-81.95V622.57z"/>
	<path class="st3" d="M279.77,690.86h163.89v27.32H279.77V690.86z"/>
	<path class="st3" d="M197.83,690.86h54.63v27.32h-54.63V690.86z"/>
	<path class="st3" d="M361.72,759.15h81.95v27.32h-81.95V759.15z"/>
	<path class="st3" d="M197.83,759.15H334.4v27.32H197.83V759.15z"/>
	<path class="st3" d="M279.77,827.44h81.95v27.32h-81.95V827.44z"/>
	<path class="st3" d="M197.83,827.44h54.63v27.32h-54.63V827.44z"/>
	<path class="st3" d="M921.68,513.31c0-7.54-6.11-13.66-13.66-13.66h-81.95c-7.54,0-13.66,6.11-13.66,13.66v68.29h-68.29
		c-7.54,0-13.66,6.11-13.66,13.66v68.29h-68.29c-7.54,0-13.66,6.11-13.66,13.66v68.29h-68.29c-7.54,0-13.66,6.11-13.66,13.66v81.95
		h-97.95c-7.54-21.33-30.95-32.51-52.29-24.97c-21.33,7.54-32.51,30.95-24.97,52.29c7.54,21.33,30.95,32.51,52.29,24.97
		c11.67-4.13,20.85-13.3,24.97-24.97h16.01v40.97c-0.01,7.54-6.12,13.65-13.66,13.66H170.51c-7.54-0.01-13.65-6.12-13.66-13.66
		V595.26h68.29c22.62-0.03,40.95-18.35,40.97-40.97V486h204.86c7.54,0.01,13.65,6.12,13.66,13.66v13.66h27.32v-13.66
		c-0.03-22.62-18.35-40.95-40.97-40.97H263.77c-10.87-0.03-21.31,4.29-28.97,12l-93.26,93.26c-7.71,7.67-12.03,18.1-12,28.97v316.47
		c0.03,22.62,18.35,40.95,40.97,40.97h300.47c22.62-0.03,40.95-18.35,40.97-40.97v-40.97h437.04v-27.32h-27.32V513.31z
		 M238.8,505.31v48.97c-0.01,7.54-6.12,13.65-13.66,13.66h-48.97L238.8,505.31z M430.01,868.41c-7.54,0-13.66-6.11-13.66-13.66
		c0-7.54,6.11-13.66,13.66-13.66s13.66,6.11,13.66,13.66C443.66,862.29,437.55,868.4,430.01,868.41z M593.9,772.81h54.63v68.29
		H593.9V772.81z M675.84,690.86h54.63v150.23h-54.63V690.86z M757.79,608.91h54.63v232.18h-54.63V608.91z M839.73,841.09V526.97
		h54.63v314.12H839.73z"/>
	<path class="st3" d="M170.51,472.34c22.62,0.01,40.97-18.33,40.97-40.95c0-6.12-1.37-12.15-4-17.67l40.98-40.98
		c20.41,9.75,44.86,1.12,54.61-19.29c0.63-1.31,1.18-2.65,1.67-4.02h59.33c7.54,21.33,30.94,32.51,52.27,24.97
		c14.05-4.96,24.29-17.17,26.75-31.86l77.13-66.11c20.04,10.52,44.81,2.8,55.32-17.24c10.52-20.04,2.8-44.81-17.24-55.32
		s-44.81-2.8-55.32,17.24c-5.75,10.95-6.24,23.91-1.34,35.27l-65.34,56.01c-12.9-18.57-38.41-23.17-56.99-10.27
		c-7.06,4.9-12.39,11.9-15.25,20h-59.33c-7.54-21.33-30.94-32.52-52.28-24.98c-21.33,7.54-32.52,30.94-24.98,52.28
		c0.48,1.37,1.04,2.71,1.66,4.02l-40.98,40.98c-20.42-9.75-44.88-1.1-54.63,19.31c-9.75,20.42-1.1,44.88,19.31,54.63
		C158.37,470.97,164.4,472.34,170.51,472.34z M539.27,226.5c7.54,0,13.66,6.11,13.66,13.66s-6.11,13.66-13.66,13.66
		c-7.54,0-13.66-6.11-13.66-13.66C525.62,232.62,531.73,226.51,539.27,226.5z M402.69,322.11c7.54,0,13.66,6.11,13.66,13.66
		c0,7.54-6.11,13.66-13.66,13.66c-7.54,0-13.66-6.11-13.66-13.66C389.04,328.22,395.15,322.11,402.69,322.11z M266.12,322.11
		c7.54,0,13.66,6.11,13.66,13.66c0,7.54-6.11,13.66-13.66,13.66s-13.66-6.11-13.66-13.66C252.47,328.22,258.58,322.11,266.12,322.11
		z M170.51,417.71c7.54,0,13.66,6.11,13.66,13.66s-6.11,13.66-13.66,13.66c-7.54,0-13.66-6.11-13.66-13.66
		C156.86,423.83,162.97,417.72,170.51,417.71z"/>
	<path class="st3" d="M664.86,450.35l-90.27,90.28H454.97c-7.54-21.33-30.95-32.51-52.29-24.97c-21.33,7.54-32.51,30.95-24.97,52.29
		c7.54,21.33,30.95,32.51,52.29,24.97c11.67-4.13,20.85-13.3,24.97-24.97h29.66v245.84h27.32V567.94h68.29c3.62,0,7.1-1.44,9.66-4
		l98.57-98.57c86.85,46.1,194.63,13.06,240.72-73.79c46.1-86.85,13.06-194.63-73.79-240.72s-194.63-13.06-240.72,73.79
		C573.63,301.99,594.91,397.69,664.86,450.35L664.86,450.35z M416.35,567.94c-7.54,0-13.66-6.11-13.66-13.66s6.11-13.66,13.66-13.66
		s13.66,6.11,13.66,13.66C430,561.82,423.89,567.93,416.35,567.94z M881,411.14l-79.14-89.03h119.19
		C918.02,355.42,903.92,386.77,881,411.14z M921.05,294.79H785.1V158.84C857.24,165.53,914.37,222.66,921.05,294.79z M757.79,158.84
		v149.61c0,3.34,1.23,6.57,3.46,9.06l-0.01,0.01l99.35,111.77c-66.75,49.25-160.79,35.06-210.04-31.69s-35.06-160.79,31.69-210.04
		C704.33,171.26,730.46,161.33,757.79,158.84z"/>
</g>
</svg>
