<?xml version="1.0" encoding="utf-8"?>

<svg version="1.1" id="reactivacion_economica" xmlns="http://www.w3.org/2000/svg" xmlns:xlink="http://www.w3.org/1999/xlink" x="0px" y="0px"
	 viewBox="0 0 1080 1080" style="enable-background:new 0 0 1080 1080;" xml:space="preserve">
<style type="text/css">
	.st0{fill:#FCD770;}
	.st1{fill:#2D2D2D;}
	.st2{fill:#CD3934;}
	.st3{fill:#3A312A;}
	.st4{fill:#FCE8CB;}
	.st5{fill:#87796F;}
	.st6{fill:#8AC6DD;}
	.st7{fill:#DECAAD;}
	.st8{fill:#AA2929;}
	.st9{fill:#F5F5F5;}
	.st10{fill:#017C01;}
	.st11{fill:#009900;}
	.st12{fill:#FFC729;}
	.st13{fill:#CCD1D9;}
	.st14{fill:#AAB2BD;}
	.st15{fill:#ECC19C;}
	.st16{fill:#F5E0CD;}
	.st17{fill:#DFB28B;}
	.st18{fill:#F0D0B4;}
	.st19{fill:#E6E9ED;}
	.st20{fill:#F5BE9A;}
	.st21{fill:#9DC6FB;}
	.st22{fill:#80B4FB;}
	.st23{fill:#F1D59D;}
	.st24{fill:#ECC373;}
	.st25{fill:#E28086;}
	.st26{fill:#DD636E;}
	.st27{fill:#F9F6F9;}
	.st28{fill:#DFDDE2;}
</style>
<g>
	<g>
		<path class="st21" d="M866.48,759.58c-28.29,0-28.29-19.31-56.57-19.31c-28.28,0-28.28,19.31-56.56,19.31
			c-28.28,0-28.28-19.31-56.56-19.31c-21.66,0-26.74,11.32-40.64,16.63l266.91,133.05V740.26
			C894.76,740.26,894.76,759.58,866.48,759.58L866.48,759.58z"/>
	</g>
	<g>
		<path class="st22" d="M923.05,853.97L694.99,740.29c-20.16,0.61-25.35,11.45-38.85,16.6l266.91,133.05V853.97z"/>
	</g>
	<g>
		<path class="st23" d="M607.57,732.68c-136.09-67.84-294.74-74-435.68-16.93l-40.68,16.47v157.72h791.84L607.57,732.68z"/>
	</g>
	<g>
		<path class="st24" d="M373.47,889.94h549.58L607.57,732.68c-17.18-8.56-34.72-16.14-52.54-22.74
			C532.53,793.07,463.57,860.45,373.47,889.94L373.47,889.94z"/>
	</g>
	<g>
		<g>
			<g>
				<path class="st25" d="M706.27,480.13c-12.08-112.38-119.42-228.35-241.31-258.39S194.13,244.5,131.21,338.39L706.27,480.13z"/>
			</g>
			<g>
				<path class="st26" d="M556.95,299.11c-13.58,55.09-63.05,94.97-129.15,112.38l278.47,68.64c-8.76-81.5-67.63-164.87-145.8-216
					C560.92,275.84,559.8,287.54,556.95,299.11z"/>
			</g>
			<g>
				<path class="st27" d="M464.96,221.74c34.45,8.49,49.86,101.8,35.04,207.55l121.89,30.04
					C620.81,349.66,551.07,242.96,464.96,221.74s-197.45,40.84-249.37,137.45l121.89,30.04
					C373.5,288.71,430.51,213.25,464.96,221.74z"/>
			</g>
			<g>
				<path class="st28" d="M559.46,285.82c-0.6,4.45-1.43,8.88-2.52,13.29c-7.48,30.34-25.85,56.06-51.88,75.96
					c-0.8,17.43-2.46,35.63-5.07,54.22l121.89,30.04C621.25,394.88,596.9,331.47,559.46,285.82L559.46,285.82z"/>
			</g>
		</g>
	</g>
	<g>
		<path d="M901.5,759.79c6.44-4.4,11.1-7.58,21.55-7.58c6.6,0,11.95-5.35,11.95-11.95c0-6.6-5.35-11.95-11.95-11.95
			c-17.83,0-27.37,6.51-35.02,11.74c-6.44,4.4-11.1,7.58-21.55,7.58c-10.45,0-15.11-3.18-21.55-7.58
			c-7.66-5.23-17.19-11.74-35.02-11.74c-17.83,0-27.36,6.51-35.02,11.74c-6.44,4.4-11.09,7.57-21.54,7.57s-15.1-3.18-21.54-7.58
			c-7.66-5.23-17.19-11.74-35.02-11.74s-27.37,6.51-35.03,11.73c-1.92,1.31-3.7,2.5-5.51,3.55l-43.35-21.61
			c-76.15-37.96-160.42-57.22-244.92-56.84l59.5-241.42l101.87,25.11c6.41,1.58,12.88-2.33,14.46-8.74s-2.34-12.88-8.74-14.46
			l-21.84-5.38c5.96-48.65,5.81-95.59-0.49-133.18c-2.28-13.57-5.28-25.45-8.97-35.6c56.87,35.94,99.86,112.03,105.54,192.45
			l-19.77-4.87c-6.41-1.58-12.88,2.33-14.46,8.74c-1.58,6.41,2.34,12.88,8.74,14.46l119.59,29.48c0.95,0.23,1.91,0.35,2.86,0.35
			c2.86,0,5.66-1.03,7.86-2.95c2.93-2.57,4.44-6.4,4.02-10.28c-6.13-57.03-35.47-116.32-82.62-166.94
			c-44.14-47.39-99.2-82.11-156.17-98.67l4.9-19.89c1.58-6.41-2.34-12.88-8.74-14.46c-6.41-1.57-12.88,2.33-14.46,8.74l-4.9,19.89
			c-58.14-11.81-123.04-6.66-184.14,14.79c-65.27,22.91-118.8,61.77-150.73,109.42c-2.17,3.24-2.62,7.33-1.22,10.97
			s4.5,6.36,8.28,7.29L404.28,418l-61.08,247.82c-28.3,1.42-56.54,5.03-84.43,10.92c-6.46,1.37-10.58,7.71-9.22,14.16
			s7.7,10.58,14.16,9.22c24.29-5.14,48.87-8.46,73.51-10.04l-11.94,48.47c-11.89,1.94-22.19,8.64-28.89,18.08
			c-2.97-0.62-6.01-0.96-9.05-0.96c-24.34,0-44.14,19.8-44.14,44.14c0,6.6,5.35,11.95,11.95,11.95s11.95-5.35,11.95-11.95
			c0-11.16,9.08-20.24,20.24-20.24c0.34,0,0.67,0.04,1,0.06c-0.05,0.82-0.07,1.65-0.07,2.48c0,6.6,5.35,11.95,11.95,11.95
			c6.6,0,11.95-5.35,11.95-11.95c0-11.16,9.08-20.24,20.24-20.24c11.16,0,20.24,9.08,20.24,20.24c0,6.6,5.35,11.95,11.95,11.95
			c6.6,0,11.95-5.35,11.95-11.95c0-0.83-0.03-1.66-0.07-2.48c0.33-0.02,0.66-0.06,1-0.06c11.16,0,20.24,9.08,20.24,20.24
			c0,6.6,5.35,11.95,11.95,11.95c6.6,0,11.95-5.35,11.95-11.95c0-24.34-19.8-44.14-44.14-44.14c-3.05,0-6.08,0.34-9.05,0.96
			c-4.8-6.76-11.44-12.12-19.19-15.33l12.87-52.22c82.8-1.34,165.56,17.1,240.16,54.29l189.28,94.36c1.71,0.85,3.53,1.26,5.32,1.26
			c4.39,0,8.61-2.43,10.7-6.62c2.94-5.91,0.54-13.08-5.36-16.03L681.13,756c4.13-2.32,8.55-3.78,15.65-3.78
			c10.45,0,15.1,3.18,21.54,7.57c7.66,5.23,17.19,11.74,35.02,11.74c17.83,0,27.36-6.51,35.02-11.74c6.44-4.4,11.09-7.58,21.54-7.58
			c10.45,0,15.11,3.18,21.55,7.58c7.66,5.23,17.19,11.74,35.02,11.74C884.31,771.53,893.84,765.02,901.5,759.79L901.5,759.79z
			 M353.34,380.83c37.89-99.01,88.1-152.61,108.76-147.49c20.66,5.09,40.22,75.86,27.76,181.14L353.34,380.83z M233.89,351.39
			c42.4-68.58,115.83-115.97,182.89-121.36c-7.98,7.27-16.17,16.39-24.49,27.35c-23.05,30.35-44.99,71.84-62.32,117.69
			L233.89,351.39z M691.78,464.25l-58.2-14.35c-2.27-52.39-19.25-105-48.29-149.11c-1.79-2.72-3.63-5.37-5.49-7.99
			C636.67,338.01,679.37,400.9,691.78,464.25z M330.24,231.3c-2.86,1.46-5.72,2.95-8.57,4.52
			c-46.21,25.56-85.68,64.26-112.04,109.59l-58.21-14.35C191.84,280.74,258.88,244.9,330.24,231.3z"/>
		<path d="M928.38,879.25l-76-37.88c-5.91-2.95-13.08-0.54-16.03,5.36c-2.94,5.91-0.54,13.08,5.36,16.03l76,37.88
			c1.71,0.85,3.53,1.26,5.32,1.26c4.39,0,8.61-2.43,10.7-6.62C936.69,889.37,934.29,882.19,928.38,879.25z"/>
		<path d="M203.69,691.46c-12.19,3.95-24.4,8.4-36.29,13.21l-40.68,16.47c-6.12,2.48-9.07,9.44-6.59,15.56
			c1.88,4.65,6.36,7.47,11.08,7.47c1.49,0,3.01-0.28,4.48-0.88l40.68-16.47c11.36-4.6,23.04-8.85,34.69-12.63
			c6.28-2.04,9.72-8.78,7.68-15.05C216.71,692.86,209.97,689.42,203.69,691.46z"/>
		<path d="M521.37,764.4c0-6.6-5.35-11.95-11.95-11.95h-16.09c-6.6,0-11.95,5.35-11.95,11.95s5.35,11.95,11.95,11.95h16.09
			C516.02,776.35,521.37,771,521.37,764.4z"/>
		<path d="M544.83,836.15h-16.1c-6.6,0-11.95,5.35-11.95,11.95c0,6.6,5.35,11.95,11.95,11.95h16.09c6.6,0,11.95-5.35,11.95-11.95
			C556.78,841.5,551.43,836.15,544.83,836.15L544.83,836.15z"/>
		<path d="M705.78,832.93h-16.09c-6.6,0-11.95,5.35-11.95,11.95c0,6.6,5.35,11.95,11.95,11.95h16.09c6.6,0,11.95-5.35,11.95-11.95
			C717.72,838.28,712.37,832.93,705.78,832.93z"/>
		<path d="M190.76,821.66h-16.1c-6.6,0-11.95,5.35-11.95,11.95c0,6.6,5.35,11.95,11.95,11.95h16.09c6.6,0,11.95-5.35,11.95-11.95
			C202.7,827.01,197.36,821.66,190.76,821.66z"/>
		<path d="M369.4,839.37h-16.09c-6.6,0-11.95,5.35-11.95,11.95s5.35,11.95,11.95,11.95h16.09c6.6,0,11.95-5.35,11.95-11.95
			S376,839.37,369.4,839.37z"/>
	</g>
</g>
</svg>
