<svg id="Capa_1" data-name="Capa 1" xmlns="http://www.w3.org/2000/svg" viewBox="0 0 35.51 35.51"><defs><style>.cls-1{fill:#fefcfa;}.cls-2{fill:#cd3934;}</style></defs><title>Sin título-1</title><circle class="cls-1" cx="17.75" cy="17.75" r="17.75"/><path class="cls-2" d="M8.35,27.2l1.33-4.85A9.36,9.36,0,1,1,17.79,27h0a9.26,9.26,0,0,1-4.47-1.14Zm5.2-3,.28.17a7.73,7.73,0,0,0,4,1.08h0a7.77,7.77,0,1,0-6.59-3.64l.19.29L10.6,25Z"/><path class="cls-2" d="M15.45,13.76c-.17-.39-.36-.4-.52-.41h-.45a.85.85,0,0,0-.62.29A2.59,2.59,0,0,0,13,15.59,4.55,4.55,0,0,0,14,18a9.69,9.69,0,0,0,4,3.53c2,.78,2.37.62,2.8.58A2.34,2.34,0,0,0,22.37,21a1.9,1.9,0,0,0,.14-1.11c-.06-.1-.22-.16-.45-.27s-1.38-.69-1.6-.76-.37-.12-.52.11-.61.76-.75.92-.27.18-.5.06a6.49,6.49,0,0,1-1.88-1.16,6.81,6.81,0,0,1-1.3-1.62c-.14-.23,0-.35.1-.48a5.76,5.76,0,0,0,.58-.8.45.45,0,0,0,0-.41C16.12,15.37,15.66,14.22,15.45,13.76Z"/></svg>