<svg xmlns="http://www.w3.org/2000/svg" width="61.523" height="60.864" viewBox="0 0 61.523 60.864">
  <g id="estacion-de-bomberos" transform="translate(0 -2.742)">
    <g id="Grupo_1609" data-name="Grupo 1609" transform="translate(0.9 13.853)">
      <path id="Trazado_4945" data-name="Trazado 4945" d="M65.412,95.206H9.294a1.8,1.8,0,0,0-1.8,1.8V126.8H67.214V97.008A1.8,1.8,0,0,0,65.412,95.206Z" transform="translate(-7.492 -95.206)" fill="#e7ecf6"/>
    </g>
    <g id="Grupo_1610" data-name="Grupo 1610" transform="translate(54.06 13.853)">
      <path id="Trazado_4946" data-name="Trazado 4946" d="M454.652,95.206H449.89V126.8h6.563V97.006A1.8,1.8,0,0,0,454.652,95.206Z" transform="translate(-449.89 -95.206)" fill="#d8e2f1"/>
    </g>
    <g id="Grupo_1611" data-name="Grupo 1611" transform="translate(0.9 18.114)">
      <path id="Trazado_4947" data-name="Trazado 4947" d="M44.842,130.673H29.862A22.371,22.371,0,0,0,7.491,153.044v20.418a1.8,1.8,0,0,0,1.8,1.8H65.411a1.8,1.8,0,0,0,1.8-1.8V153.044A22.371,22.371,0,0,0,44.842,130.673Z" transform="translate(-7.491 -130.673)" fill="#365e7d"/>
    </g>
    <g id="Grupo_1612" data-name="Grupo 1612" transform="translate(31.713 18.114)">
      <path id="Trazado_4948" data-name="Trazado 4948" d="M270.484,130.673h-6.563a22.347,22.347,0,0,1,22.346,22.347v20.444a1.8,1.8,0,0,1-1.8,1.8h6.563a1.8,1.8,0,0,0,1.8-1.8V153.02A22.346,22.346,0,0,0,270.484,130.673Z" transform="translate(-263.921 -130.673)" fill="#2b4d66"/>
    </g>
    <g id="Grupo_1613" data-name="Grupo 1613" transform="translate(18.304 54.195)">
      <path id="Trazado_4949" data-name="Trazado 4949" d="M157.02,439.448h-3.491a1.2,1.2,0,0,1-1.2-1.2v-7.309h5.895v7.309A1.2,1.2,0,0,1,157.02,439.448Z" transform="translate(-152.327 -430.937)" fill="#e7ecf6"/>
    </g>
    <g id="Grupo_1614" data-name="Grupo 1614" transform="translate(37.324 54.195)">
      <path id="Trazado_4950" data-name="Trazado 4950" d="M315.31,439.448h-3.491a1.2,1.2,0,0,1-1.2-1.2v-7.309h5.895v7.309A1.2,1.2,0,0,1,315.31,439.448Z" transform="translate(-310.617 -430.937)" fill="#e7ecf6"/>
    </g>
    <g id="Grupo_1615" data-name="Grupo 1615" transform="translate(20.76 54.195)">
      <path id="Trazado_4951" data-name="Trazado 4951" d="M173.967,430.937v7.311a1.2,1.2,0,0,1-1.2,1.2h2.238a1.2,1.2,0,0,0,1.2-1.2v-7.311Z" transform="translate(-172.767 -430.937)" fill="#d8e2f1"/>
    </g>
    <g id="Grupo_1616" data-name="Grupo 1616" transform="translate(39.781 54.195)">
      <path id="Trazado_4952" data-name="Trazado 4952" d="M332.258,430.937v7.311a1.2,1.2,0,0,1-1.2,1.2H333.3a1.2,1.2,0,0,0,1.2-1.2v-7.311Z" transform="translate(-331.058 -430.937)" fill="#d8e2f1"/>
    </g>
    <g id="Grupo_1617" data-name="Grupo 1617" transform="translate(14.286 28.204)">
      <path id="Trazado_4953" data-name="Trazado 4953" d="M150.641,244.791H120.095a1.2,1.2,0,0,1-1.2-1.2V220.046a5.407,5.407,0,0,1,5.407-5.407h22.135a5.407,5.407,0,0,1,5.407,5.407V243.59A1.2,1.2,0,0,1,150.641,244.791Z" transform="translate(-118.893 -214.639)" fill="#dd636e"/>
    </g>
    <g id="Grupo_1618" data-name="Grupo 1618" transform="translate(14.286 28.442)">
      <path id="Trazado_4954" data-name="Trazado 4954" d="M148.031,216.619a5.4,5.4,0,0,1,.238,1.589v23.551a1.2,1.2,0,0,1-1.2,1.2H118.893v2.374a1.2,1.2,0,0,0,1.2,1.2h30.549a1.2,1.2,0,0,0,1.2-1.2V221.782a5.4,5.4,0,0,0-3.812-5.163Z" transform="translate(-118.893 -216.619)" fill="#da4a54"/>
    </g>
    <g id="Grupo_1619" data-name="Grupo 1619" transform="translate(14.286 47.509)">
      <path id="Trazado_4955" data-name="Trazado 4955" d="M151.843,375.3h-32.95v4.877h7.876a1.2,1.2,0,0,1,1.079.675l.516,1.059a1.2,1.2,0,0,0,1.079.675h11.94a1.2,1.2,0,0,0,1.089-.7l.472-1.018a1.2,1.2,0,0,1,1.089-.7h7.81V375.3Z" transform="translate(-118.893 -375.297)" fill="#e7ecf6"/>
    </g>
    <g id="Grupo_1620" data-name="Grupo 1620" transform="translate(14.286 47.508)">
      <path id="Trazado_4956" data-name="Trazado 4956" d="M118.89,375.292h3.781a1.3,1.3,0,0,1,1.3,1.3v3.575H118.89Z" transform="translate(-118.89 -375.292)" fill="#f6e266"/>
    </g>
    <g id="Grupo_1621" data-name="Grupo 1621" transform="translate(42.152 47.508)">
      <path id="Trazado_4957" data-name="Trazado 4957" d="M355.881,375.292v4.878H350.8V376.6a1.3,1.3,0,0,1,1.3-1.3Z" transform="translate(-350.796 -375.292)" fill="#f6e266"/>
    </g>
    <g id="Grupo_1622" data-name="Grupo 1622" transform="translate(43.662 47.508)">
      <path id="Trazado_4958" data-name="Trazado 4958" d="M363.361,375.292h3.575v4.878h-3.575Z" transform="translate(-363.361 -375.292)" fill="#f1d333"/>
    </g>
    <g id="Grupo_1623" data-name="Grupo 1623" transform="translate(39.881 22.297)">
      <path id="Trazado_4959" data-name="Trazado 4959" d="M335.237,170.591H331.9v-3.437a1.671,1.671,0,0,1,3.342,0v3.437Z" transform="translate(-331.895 -165.483)" fill="#90d8f9"/>
    </g>
    <g id="Grupo_1624" data-name="Grupo 1624" transform="translate(40.855 22.297)">
      <path id="Trazado_4960" data-name="Trazado 4960" d="M340.694,165.483a1.662,1.662,0,0,0-.7.154,1.67,1.67,0,0,1,.973,1.517v3.437h1.4v-3.437a1.671,1.671,0,0,0-1.671-1.671Z" transform="translate(-339.996 -165.483)" fill="#75cef9"/>
    </g>
    <g id="Grupo_1625" data-name="Grupo 1625" transform="translate(51.002 33.874)">
      <path id="Trazado_4961" data-name="Trazado 4961" d="M427.7,271.012H425.58a1.133,1.133,0,0,1-1.133-1.133v-6.922a1.133,1.133,0,0,1,1.133-1.133H427.7a1.133,1.133,0,0,1,1.133,1.133v6.922A1.133,1.133,0,0,1,427.7,271.012Z" transform="translate(-424.447 -261.825)" fill="#dd636e"/>
    </g>
    <g id="Grupo_1626" data-name="Grupo 1626" transform="translate(6.137 33.874)">
      <path id="Trazado_4962" data-name="Trazado 4962" d="M54.32,271.012H52.2a1.133,1.133,0,0,1-1.133-1.133v-6.922a1.133,1.133,0,0,1,1.133-1.133H54.32a1.133,1.133,0,0,1,1.133,1.133v6.922A1.133,1.133,0,0,1,54.32,271.012Z" transform="translate(-51.069 -261.825)" fill="#dd636e"/>
    </g>
    <g id="Grupo_1627" data-name="Grupo 1627" transform="translate(51.002 33.874)">
      <path id="Trazado_4963" data-name="Trazado 4963" d="M427.7,261.825h-.8v6.125a1.132,1.132,0,0,1-1.132,1.132h-1.321v.8a1.131,1.131,0,0,0,1.132,1.132H427.7a1.131,1.131,0,0,0,1.132-1.132v-6.924A1.132,1.132,0,0,0,427.7,261.825Z" transform="translate(-424.448 -261.825)" fill="#da4a54"/>
    </g>
    <g id="Grupo_1628" data-name="Grupo 1628" transform="translate(6.137 33.874)">
      <path id="Trazado_4964" data-name="Trazado 4964" d="M54.321,261.825h-.8v6.125a1.132,1.132,0,0,1-1.132,1.132H51.069v.8a1.132,1.132,0,0,0,1.132,1.132h2.121a1.132,1.132,0,0,0,1.132-1.132v-6.924A1.132,1.132,0,0,0,54.321,261.825Z" transform="translate(-51.069 -261.825)" fill="#da4a54"/>
    </g>
    <g id="Grupo_1629" data-name="Grupo 1629" transform="translate(20.56 3.642)">
      <circle id="Elipse_28" data-name="Elipse 28" cx="10.21" cy="10.21" r="10.21" transform="translate(0 0)" fill="#dd636e"/>
    </g>
    <g id="Grupo_1630" data-name="Grupo 1630" transform="translate(21.675 4.757)">
      <path id="Trazado_4965" data-name="Trazado 4965" d="M194.117,19.513a10.209,10.209,0,0,1-13.733,13.733,10.21,10.21,0,1,0,13.733-13.733Z" transform="translate(-180.384 -19.513)" fill="#da4a54"/>
    </g>
    <g id="Grupo_1631" data-name="Grupo 1631" transform="translate(14.286 28.204)">
      <path id="Trazado_4966" data-name="Trazado 4966" d="M146.442,214.639H124.294a5.4,5.4,0,0,0-5.4,5.4v7.936h32.95V220.04a5.4,5.4,0,0,0-5.4-5.4Z" transform="translate(-118.893 -214.639)" fill="#90d8f9"/>
    </g>
    <g id="Grupo_1632" data-name="Grupo 1632" transform="translate(41.881 28.205)">
      <path id="Trazado_4967" data-name="Trazado 4967" d="M348.536,214.648a5.387,5.387,0,0,1,1.781,4.008v9.328h3.574v-7.936A5.4,5.4,0,0,0,348.536,214.648Z" transform="translate(-348.536 -214.648)" fill="#75cef9"/>
    </g>
    <g id="Grupo_1636" data-name="Grupo 1636" transform="translate(26.842 8.254)">
      <g id="Grupo_1634" data-name="Grupo 1634">
        <g id="Grupo_1633" data-name="Grupo 1633">
          <path id="Trazado_4968" data-name="Trazado 4968" d="M226.332,48.716a.349.349,0,0,1,.582.333,4.081,4.081,0,0,0,2.663,4.81,3.169,3.169,0,0,1,1.758,1.394,4.077,4.077,0,0,1-7.016,4.151,6.843,6.843,0,0,1-.911-3.2A9.461,9.461,0,0,1,226.332,48.716Z" transform="translate(-223.385 -48.616)" fill="#f6e266"/>
        </g>
      </g>
      <g id="Grupo_1635" data-name="Grupo 1635" transform="translate(1.663 0.001)">
        <path id="Trazado_4969" data-name="Trazado 4969" d="M244.043,56.981a4.056,4.056,0,0,0-.524-1.715,3.171,3.171,0,0,0-1.763-1.4,4.082,4.082,0,0,1-2.663-4.81.349.349,0,0,0-.582-.332,9.96,9.96,0,0,0-1.2,1.4A4.082,4.082,0,0,0,240,54.8a3.173,3.173,0,0,1,1.763,1.4,4.067,4.067,0,0,1-.809,5.038,4.093,4.093,0,0,0,3.089-4.262Z" transform="translate(-237.226 -48.621)" fill="#f1d333"/>
      </g>
    </g>
    <g id="Grupo_1637" data-name="Grupo 1637" transform="translate(0 2.742)">
      <path id="Trazado_4970" data-name="Trazado 4970" d="M58.822,12.952H41.844A11.112,11.112,0,0,0,24.655,4.575a.9.9,0,0,0,.992,1.5,9.308,9.308,0,1,1-2.659,2.663.9.9,0,0,0-1.5-.99,11.05,11.05,0,0,0-1.787,5.2H2.7a2.7,2.7,0,0,0-2.7,2.7V60.905a2.7,2.7,0,0,0,2.7,2.7H58.822a2.7,2.7,0,0,0,2.7-2.7V15.653a2.7,2.7,0,0,0-2.7-2.7ZM1.8,15.653a.9.9,0,0,1,.9-.9h17a11.036,11.036,0,0,0,.546,2.655A23.278,23.278,0,0,0,1.8,31.478V15.653ZM19.5,61.805a.3.3,0,0,1-.3-.3V59.257H23.3v2.249a.3.3,0,0,1-.3.3ZM18.421,40.641H15.187V33.605a4.506,4.506,0,0,1,4.5-4.5H29.861V40.641H22.855a.9.9,0,1,0,0,1.8H46.336v4.167H15.187V42.441h3.234a.9.9,0,0,0,0-1.8ZM41.835,29.1a4.506,4.506,0,0,1,4.5,4.5v7.035H31.662V29.1Zm.488-3.471H40.781V23.968a.771.771,0,1,1,1.542,0Zm-2.9,25.853A2.107,2.107,0,0,0,37.521,52.7l-.472,1.018a.3.3,0,0,1-.272.174H24.836a.3.3,0,0,1-.27-.169l-.516-1.059a2.113,2.113,0,0,0-1.888-1.181H20.271l-.039-3.077H41.291l-.039,3.077Zm-24.24,0V48.409h2.886a.4.4,0,0,1,.4.4v2.674Zm27.866-2.674a.4.4,0,0,1,.4-.4h2.886v3.077H43.052V48.812ZM15.187,53.287h6.976a.3.3,0,0,1,.27.169l.516,1.059A2.113,2.113,0,0,0,24.836,55.7h11.94a2.108,2.108,0,0,0,1.906-1.217l.472-1.018a.3.3,0,0,1,.272-.174h6.909v3.869a.3.3,0,0,1-.3.3H15.487a.3.3,0,0,1-.3-.3Zm9.912,5.97H36.424v2.249a2.112,2.112,0,0,0,.024.3H25.075a2.094,2.094,0,0,0,.024-.3V59.257Zm13.426,2.549a.3.3,0,0,1-.3-.3V59.257h4.094v2.249a.3.3,0,0,1-.3.3ZM57.758,27.772a.9.9,0,1,0-1.508.984,21.36,21.36,0,0,1,3.473,11.7V60.905a.9.9,0,0,1-.9.9H44.1a2.094,2.094,0,0,0,.024-.3V59.257h1.917a2.1,2.1,0,0,0,2.1-2.1V41.714H50.1v.215a2.034,2.034,0,0,0,2.032,2.032h2.121a2.034,2.034,0,0,0,2.032-2.032V35.005a2.034,2.034,0,0,0-2.032-2.032H52.134A2.034,2.034,0,0,0,50.1,35.005v4.908H48.136V33.605a6.3,6.3,0,0,0-3.042-5.391v-1.2a1.383,1.383,0,0,0-.971-1.318V23.968a2.571,2.571,0,0,0-5.142,0v1.726a1.383,1.383,0,0,0-.971,1.318V27.3H19.688a6.309,6.309,0,0,0-6.3,6.3v6.308H11.421V35.006a2.034,2.034,0,0,0-2.032-2.032H7.268a2.034,2.034,0,0,0-2.032,2.032V41.93a2.034,2.034,0,0,0,2.032,2.032H9.389a2.034,2.034,0,0,0,2.032-2.032v-.215h1.965V57.156a2.1,2.1,0,0,0,2.1,2.1H17.4v2.249a2.111,2.111,0,0,0,.024.3H2.7a.9.9,0,0,1-.9-.9V40.461A21.573,21.573,0,0,1,21,19.132a11.107,11.107,0,0,0,19.547,0,21.409,21.409,0,0,1,13.228,6.5.9.9,0,0,0,1.3-1.245A23.212,23.212,0,0,0,41.3,17.409a11.03,11.03,0,0,0,.547-2.657H58.822a.9.9,0,0,1,.9.9V31.476a23.147,23.147,0,0,0-1.965-3.7ZM51.9,41.929V35.005a.232.232,0,0,1,.231-.231h2.121a.232.232,0,0,1,.231.231v6.924a.232.232,0,0,1-.231.231H52.134A.232.232,0,0,1,51.9,41.929ZM9.62,35.005v6.924a.232.232,0,0,1-.231.231H7.268a.232.232,0,0,1-.231-.231V35.005a.232.232,0,0,1,.231-.231H9.389A.232.232,0,0,1,9.62,35.005Z" transform="translate(0 -2.742)"/>
      <path id="Trazado_4971" data-name="Trazado 4971" d="M227.1,398.207h-7.056a.9.9,0,0,0,0,1.8H227.1a.9.9,0,0,0,0-1.8Z" transform="translate(-192.813 -350.687)"/>
      <path id="Trazado_4972" data-name="Trazado 4972" d="M215.922,49.669a7.734,7.734,0,0,0,1.051,3.627,4.977,4.977,0,0,0,9.2-3,4.927,4.927,0,0,0-.645-2.089,4.072,4.072,0,0,0-2.25-1.8,3.181,3.181,0,0,1-2.076-3.748,1.249,1.249,0,0,0-2.083-1.189A10.386,10.386,0,0,0,215.922,49.669Zm3.423-5.722a4.965,4.965,0,0,0,3.356,4.169,2.275,2.275,0,0,1,1.266.99,3.14,3.14,0,0,1,.411,1.332,3.2,3.2,0,0,1-2.413,3.333,1.461,1.461,0,0,0,.548-.905,1.259,1.259,0,0,0-.649-1.385,1.466,1.466,0,0,1-.792-1.408v-.011a.289.289,0,0,0-.484-.243,3.37,3.37,0,0,0-1.03,2.189,2.462,2.462,0,0,0,.162,1.187,1.469,1.469,0,0,0,.28.425,3.184,3.184,0,0,1-1.5-1.28c-.009-.015-.013-.022-.023-.036a6.172,6.172,0,0,1-.758-2.762A8.5,8.5,0,0,1,219.345,43.947Z" transform="translate(-189.954 -36.509)"/>
    </g>
  </g>
</svg>
