<svg id="pantalla-tactil" xmlns="http://www.w3.org/2000/svg" width="37.913" height="53.632" viewBox="0 0 37.913 53.632">
  <circle id="Elipse_25" data-name="Elipse 25" cx="9.251" cy="9.251" r="9.251" transform="translate(3.571 1.675)" fill="#4caf50"/>
  <path id="Trazado_4858" data-name="Trazado 4858" d="M39.185,24.073V37.455A11.156,11.156,0,0,1,28.033,48.606H17.35c-5.264,0-13.872-3.9-13.85-15.724A6.855,6.855,0,0,1,10.191,26.3H10.3a2.593,2.593,0,0,1,2.119,1.115V7.345A3.341,3.341,0,0,1,15.767,4a3.378,3.378,0,0,1,3.345,3.345V19.612a3.345,3.345,0,0,1,6.691,0v2.23a3.345,3.345,0,0,1,6.691,0v2.23a3.378,3.378,0,0,1,3.345-3.345A3.341,3.341,0,0,1,39.185,24.073Z" transform="translate(-2.387 5.026)" fill="#ffcc80"/>
  <path id="Trazado_4859" data-name="Trazado 4859" d="M8.173,34.224A1.673,1.673,0,0,1,6.5,32.551V8.018a5.018,5.018,0,1,1,10.036,0v22.3a1.673,1.673,0,1,1-3.345,0V8.018a1.673,1.673,0,1,0-3.345,0V32.551A1.673,1.673,0,0,1,8.173,34.224Z" transform="translate(1.304 3.796)"/>
  <path id="Trazado_4860" data-name="Trazado 4860" d="M17.864,24.612a1.673,1.673,0,0,1-1.673-1.673V14.018a1.673,1.673,0,0,0-3.345,0v2.23a1.673,1.673,0,1,1-3.345,0v-2.23a5.018,5.018,0,0,1,10.036,0v8.921A1.673,1.673,0,0,1,17.864,24.612Z" transform="translate(4.995 11.178)"/>
  <path id="Trazado_4861" data-name="Trazado 4861" d="M20.864,23.382a1.673,1.673,0,0,1-1.673-1.673V15.018a1.673,1.673,0,0,0-3.345,0v1.673a1.673,1.673,0,0,1-3.345,0V15.018a5.018,5.018,0,0,1,10.036,0v6.691A1.673,1.673,0,0,1,20.864,23.382Z" transform="translate(8.686 12.408)"/>
  <path id="Trazado_4862" data-name="Trazado 4862" d="M30.32,39.994H17.971C10.754,39.994,3.03,35.745,3,23.815a8.88,8.88,0,0,1,2.6-6.341A8.685,8.685,0,0,1,11.791,14.9h.687a1.673,1.673,0,0,1,0,3.345h-.687A5.365,5.365,0,0,0,7.97,19.836a5.567,5.567,0,0,0-1.626,3.97c.031,11.916,8.906,12.842,11.627,12.842H30.32A7.257,7.257,0,0,0,37.568,29.4V16.018a1.673,1.673,0,1,0-3.345,0v1.673a1.673,1.673,0,1,1-3.345,0V16.018a5.018,5.018,0,1,1,10.036,0V29.4A10.606,10.606,0,0,1,30.32,39.994Z" transform="translate(-3.001 13.638)"/>
  <path id="Trazado_4863" data-name="Trazado 4863" d="M24.38,12.777A1.673,1.673,0,0,1,22.708,11.1,7.806,7.806,0,1,0,7.1,11.1a1.673,1.673,0,1,1-3.345,0,11.152,11.152,0,1,1,22.3,0A1.673,1.673,0,0,1,24.38,12.777Z" transform="translate(-2.079 0.047)"/>
</svg>
