<svg xmlns="http://www.w3.org/2000/svg" width="61.731" height="55.322" viewBox="0 0 61.731 55.322">
  <g id="CORVIVIENDA" transform="translate(-606.489 -298.15)">
    <g id="Grupo_1475" data-name="Grupo 1475" transform="translate(474.14 160.9)">
      <path id="Trazado_4049" data-name="Trazado 4049" d="M257.247,461.614c-.129-.516.287-.573.641-.69q5.615-1.86,11.229-3.721c.784-.26,1.56-.546,2.352-.778a.772.772,0,0,0,.61-.794c.1-.979.26-1.953.423-2.925.056-.334.142-.605-.274-.786-.356-.155-.145-.464-.077-.7.251-.87.536-1.731.776-2.6a3.4,3.4,0,0,0-1.07-3.762c-.647-.556-1.3-1.107-1.925-1.686a8.077,8.077,0,0,1-.786-.9.357.357,0,0,1-.048-.445c.142-.188.341-.136.5-.033.449.285.9.568,1.327.886a20.356,20.356,0,0,0,2.121,1.425,2.991,2.991,0,0,0,3.182-.066,25.619,25.619,0,0,0,2.745-1.93,1.247,1.247,0,0,1,1.722-.014c.844.648,1.727,1.248,2.615,1.835a2.983,2.983,0,0,0,3.521.068c.6-.392,1.2-.8,1.788-1.2.394-.272.768-.577,1.17-.838.233-.152.527-.414.784-.138.28.3,0,.594-.185.846a13.359,13.359,0,0,1-1.62,1.6,14.344,14.344,0,0,0-1.1,1.049,3.852,3.852,0,0,0-.933,3.115c.341,2.587,1.231,5.078,1.352,7.7.019.413.353.417.615.506q6.011,2.059,12.025,4.112c.245.084.559.084.684.353a.98.98,0,0,1,0,.854c-.17.3-.489.069-.723.014q-10.19-2.413-20.376-4.851a3.141,3.141,0,0,0-1.494.014Q268.44,459.579,258.045,462C257.761,462.063,257.193,462.465,257.247,461.614Zm26.346-13.559a4.272,4.272,0,0,0-1.158-2.916c-.783-.762-1.6-1.487-2.376-2.259-.254-.253-.369-.151-.571.031q-1.067.966-2.162,1.9a3.369,3.369,0,0,0-1.155,3.594c.188.776.461,1.532.658,2.305.124.483.627,1.042-.192,1.426-.06.028-.027.3,0,.452a10.3,10.3,0,0,0,.207,1.1c.075.282-.079.806.314.787a1.723,1.723,0,0,0,1.432-.569,3.139,3.139,0,0,0-.572-3.753c-.39-.363-.784-.722-1.152-1.107-.134-.14-.324-.353-.125-.554.169-.172.353.018.494.115.482.333.943.7,1.424,1.029a2.151,2.151,0,0,0,2.763-.236,11.925,11.925,0,0,1,1.221-.9c.111-.078.242-.127.36-.006a.255.255,0,0,1-.01.363,4.386,4.386,0,0,1-.766.809c-1.474,1-1.644,2.344-1.206,3.945.176.645.645.674,1.079.725s.264-.424.364-.66a3.552,3.552,0,0,0,.172-.7C282.965,451.287,283.295,449.588,283.593,448.055Zm3.1,7.895c-.18-.9-.334-1.645-.478-2.393a7.011,7.011,0,0,0-.565-1.9c-.116-.227-.236-.518-.553-.5-.271.014-.391.274-.471.49a12.739,12.739,0,0,0-.512,1.585c-.385,1.684-.373,1.687,1.228,2.254C285.741,455.628,286.142,455.761,286.695,455.95Zm-13.67-.061c.508-.163.86-.271,1.209-.389,1.836-.619,1.8-.612,1.3-2.542-.153-.594-.478-.583-.92-.571s-.9-.1-1.013.562C273.452,453.883,273.242,454.806,273.024,455.889Z" transform="translate(-115.465 -281.304)" fill="#189b07"/>
      <path id="Trazado_4050" data-name="Trazado 4050" d="M632.346,141.1a23.785,23.785,0,0,0-6.684,10.4,7.673,7.673,0,0,1-.119-3.914,12.017,12.017,0,0,1,5.762-9.048,9.389,9.389,0,0,1,5.6-1.264c.522.037.745.224.8.752a15.484,15.484,0,0,1-.179,5.327c-.147.587-.041.724.57.645a11.175,11.175,0,0,1,5.415.692c.616.23.732.507.486,1.125a12.6,12.6,0,0,1-6.2,6.721,13.177,13.177,0,0,1-10.083,1.015c-.621-.185-.784-.429-.638-1.08a30.391,30.391,0,0,1,2.66-7.171,14.512,14.512,0,0,1,1.988-3A2.148,2.148,0,0,0,632.346,141.1Z" transform="translate(-455.624)" fill="#189b07"/>
      <path id="Trazado_4051" data-name="Trazado 4051" d="M294.593,324.075q-.377-5.1-.755-10.2c-.065-.877-.153-1.754-.179-2.633a.855.855,0,0,0-.588-.834q-6.351-3.017-12.686-6.068a1.093,1.093,0,0,0-1.047.008q-6.427,3.044-12.871,6.054a.972.972,0,0,0-.658.943c-.245,3.671-.525,7.34-.8,11.009a3.155,3.155,0,0,1-.291,1.1c-.162-1.58-.327-3.16-.486-4.741-.214-2.122-.437-4.244-.625-6.368-.041-.465-.145-.529-.565-.328-1.8.863-3.609,1.7-5.422,2.546-.283-.6.2-.736.5-.94q9.107-6.086,18.222-12.16c1.064-.71,2.139-1.405,3.189-2.136a.77.77,0,0,1,1.048-.031q10.365,7.151,20.76,14.257c.355.243.537.488.318.966l-5.724-2.729c-.414,4.164-.819,8.232-1.225,12.3Z" transform="translate(-115.749 -149.548)" fill="#054e77"/>
      <path id="Trazado_4052" data-name="Trazado 4052" d="M779.869,744.1c0-.832.033-1.54-.01-2.243-.038-.625.368-.515.727-.518s.73-.1.721.526c-.033,2.234-.008,4.469-.018,6.7,0,.207.154.568-.205.583-.4.017-.993.255-1.164-.145-.182-.423-.262-.226-.447-.107a2.365,2.365,0,0,1-2.838-.067,2.939,2.939,0,0,1-1.16-3.1,2.639,2.639,0,0,1,2-2.24A2.729,2.729,0,0,1,779.869,744.1Zm.061,2.216a1.547,1.547,0,0,0-1.609-1.6,1.653,1.653,0,0,0,.094,3.3A1.551,1.551,0,0,0,779.93,746.318Z" transform="translate(-594.267 -558.169)" fill="#054e77"/>
      <path id="Trazado_4053" data-name="Trazado 4053" d="M137.509,750.174a3.879,3.879,0,0,1-3.911-2.809,3.939,3.939,0,0,1,1.838-4.6,4.431,4.431,0,0,1,5.123.634c.223.23.349.452.014.625-.315.162-.414.873-.975.432a3.552,3.552,0,0,0-1.4-.74,2.624,2.624,0,0,0-2.961,1.2,2.672,2.672,0,0,0,.345,3.048,2.815,2.815,0,0,0,3.178.535c.191-.093.358-.233.547-.328.22-.112.346-.524.627-.352a3.111,3.111,0,0,1,.781.789c.171.222-.106.314-.226.429A4.144,4.144,0,0,1,137.509,750.174Z" transform="translate(-1.09 -558.993)" fill="#054e77"/>
      <path id="Trazado_4054" data-name="Trazado 4054" d="M873.693,771.543c0,.719.011,1.438-.006,2.157-.005.216.142.563-.18.614-.4.063-.968.246-1.171-.116s-.253-.249-.471-.113a2.375,2.375,0,0,1-2.9-.127,2.936,2.936,0,0,1-1.049-3.216,2.6,2.6,0,0,1,2.134-2.111,2.353,2.353,0,0,1,1.756.351c.205.125.331.371.533-.1.159-.373.725-.151,1.1-.133.4.019.248.4.254.64C873.7,770.1,873.693,770.824,873.693,771.543Zm-1.377,0a1.543,1.543,0,1,0-3.081-.041,1.569,1.569,0,0,0,1.526,1.688A1.528,1.528,0,0,0,872.316,771.544Z" transform="translate(-679.635 -583.347)" fill="#054e77"/>
      <path id="Trazado_4055" data-name="Trazado 4055" d="M606.848,773.278a3.111,3.111,0,0,1-3.839.933,2.956,2.956,0,0,1-1.53-3.573,3,3,0,0,1,5.85.808c.016.4-.133.5-.5.5-1.146-.014-2.292-.007-3.437,0-.2,0-.481-.094-.562.16-.063.2.09.4.222.578a1.582,1.582,0,0,0,2.019.43A1.4,1.4,0,0,1,606.848,773.278Zm-4.011-2.453c.918,0,1.731,0,2.545,0,.122,0,.28.045.349-.1.085-.181-.069-.295-.165-.41C604.867,769.477,603.545,769.667,602.837,770.825Z" transform="translate(-433.436 -583.333)" fill="#054e77"/>
      <path id="Trazado_4056" data-name="Trazado 4056" d="M242.2,771.595a2.968,2.968,0,0,1,5.936-.047,2.968,2.968,0,0,1-5.936.047Zm1.427-.1a1.54,1.54,0,1,0,3.068.106,1.538,1.538,0,1,0-3.068-.106Z" transform="translate(-101.583 -583.369)" fill="#054e77"/>
      <path id="Trazado_4057" data-name="Trazado 4057" d="M694.511,771.675c0-.719-.014-1.438.008-2.156.007-.231-.166-.616.233-.648.375-.029.891-.229,1.114.122.192.3.23.272.487.133,1.789-.965,3.148-.175,3.168,1.833.01,1.012-.024,2.025.015,3.035.023.578-.338.493-.671.479s-.78.167-.76-.483c.028-.9,0-1.811-.011-2.716-.006-.641-.168-1.188-.929-1.25a1.2,1.2,0,0,0-1.184,1.181,19.9,19.9,0,0,0-.033,2.633c.039.662-.313.626-.778.648-.514.024-.708-.113-.673-.654C694.547,773.116,694.511,772.394,694.511,771.675Z" transform="translate(-519.494 -583.469)" fill="#054e77"/>
      <path id="Trazado_4058" data-name="Trazado 4058" d="M484.8,770.515c1.415-.1,1.414-.1,1.912,1.063.29.674.585,1.346.951,2.188.367-.837.664-1.5.952-2.173.5-1.168.5-1.168,1.893-1.078-.388.922-.762,1.814-1.14,2.7-.354.833-.722,1.661-1.065,2.5a.546.546,0,0,1-.6.391c-.275-.014-.511-.008-.645-.328C486.322,774.043,485.571,772.313,484.8,770.515Z" transform="translate(-325.744 -585.094)" fill="#054e77"/>
      <path id="Trazado_4059" data-name="Trazado 4059" d="M373.05,769.706c1.4-.127,1.4-.127,1.9,1.038.293.683.587,1.366.956,2.224.438-1.016.816-1.9,1.2-2.789a1.309,1.309,0,0,1,1.459-.525c.223.114.1.271.048.4-.7,1.639-1.406,3.271-2.1,4.912-.135.32-.362.323-.642.321-.255,0-.451-.014-.571-.3C374.573,773.248,373.826,771.519,373.05,769.706Z" transform="translate(-222.488 -584.273)" fill="#054e77"/>
      <path id="Trazado_4060" data-name="Trazado 4060" d="M331.156,771.419c0-.718-.008-1.437.005-2.154,0-.217-.116-.556.22-.591.317-.033.756-.2.949.126.157.268.178.308.395.093a1.5,1.5,0,0,1,.47-.287.893.893,0,0,1,.846.011c.23.142.074.331-.007.484-.141.266-.04.711-.6.659-.548-.05-.68.406-.763.844a15.346,15.346,0,0,0-.08,3.024c.005.521-.132.7-.661.667-.454-.027-.836.027-.784-.642C331.2,772.912,331.155,772.163,331.156,771.419Z" transform="translate(-183.762 -583.273)" fill="#054e77"/>
      <path id="Trazado_4061" data-name="Trazado 4061" d="M570.531,773.1c0,.774-.036,1.55.01,2.321.039.647-.387.49-.73.5-.359.006-.743.115-.727-.515.039-1.519.043-3.042,0-4.561-.019-.68.4-.528.781-.553.424-.029.713.008.676.572C570.5,771.6,570.531,772.352,570.531,773.1Z" transform="translate(-403.622 -584.912)" fill="#054e77"/>
      <path id="Trazado_4062" data-name="Trazado 4062" d="M458.389,773.086c0,.769-.021,1.539.006,2.308.024.676-.464.416-.772.446-.328.033-.688.119-.676-.464.03-1.565.025-3.131,0-4.7-.01-.668.458-.429.774-.453s.7-.109.676.471C458.361,771.493,458.389,772.29,458.389,773.086Z" transform="translate(-300.008 -584.844)" fill="#054e77"/>
      <path id="Trazado_4063" data-name="Trazado 4063" d="M611.057,438.732a1.215,1.215,0,0,1-1.187,1.243,1.178,1.178,0,0,1-1.212-1.123,1.2,1.2,0,1,1,2.4-.12Z" transform="translate(-440.185 -277.49)" fill="#189b07"/>
      <path id="Trazado_4064" data-name="Trazado 4064" d="M472.653,440.476a1.138,1.138,0,0,1-1.116,1.12,1.135,1.135,0,1,1-.049-2.27A1.133,1.133,0,0,1,472.653,440.476Z" transform="translate(-312.406 -279.116)" fill="#189b07"/>
      <path id="Trazado_4065" data-name="Trazado 4065" d="M568.825,740.982c-.074.532-.35.893-.93.872a.845.845,0,0,1-.878-.932.83.83,0,0,1,.917-.887C568.5,740.048,568.783,740.41,568.825,740.982Z" transform="translate(-401.712 -556.967)" fill="#054e77"/>
      <path id="Trazado_4066" data-name="Trazado 4066" d="M456.561,740.9c-.043.544-.295.922-.876.936a.84.84,0,0,1-.927-.881.823.823,0,0,1,.86-.939C456.182,740,456.484,740.345,456.561,740.9Z" transform="translate(-297.985 -556.951)" fill="#054e77"/>
      <path id="Trazado_4067" data-name="Trazado 4067" d="M279.936,864.84l-.016-.021.021.017Z" transform="translate(-136.437 -672.268)" fill="#054e77"/>
      <path id="Trazado_4068" data-name="Trazado 4068" d="M512.406,460.605c-.3,1.533-.629,3.232-.962,4.929a3.537,3.537,0,0,1-.172.7c-.1.236.062.71-.364.66s-.9-.081-1.079-.725c-.438-1.6-.268-2.945,1.206-3.945a4.339,4.339,0,0,0,.766-.809.255.255,0,0,0,.01-.363c-.117-.121-.249-.073-.36.006a11.919,11.919,0,0,0-1.221.9,2.149,2.149,0,0,1-2.763.236c-.482-.333-.943-.7-1.424-1.029-.141-.1-.325-.287-.494-.115-.2.2-.008.414.125.554.367.385.762.744,1.152,1.107a3.14,3.14,0,0,1,.572,3.753,1.723,1.723,0,0,1-1.432.569c-.392.018-.238-.505-.314-.787a9.943,9.943,0,0,1-.207-1.1c-.024-.153-.056-.424,0-.452.819-.384.315-.943.192-1.426-.2-.774-.47-1.529-.658-2.305a3.369,3.369,0,0,1,1.155-3.594q1.095-.935,2.162-1.9c.2-.182.318-.284.571-.031.773.772,1.592,1.5,2.376,2.259A4.269,4.269,0,0,1,512.406,460.605Zm-2.848.733c-.052-.522-.27-.885-.822-.909a.807.807,0,0,0-.947.83.794.794,0,0,0,.806.9A.886.886,0,0,0,509.558,461.338Z" transform="translate(-344.278 -293.854)" fill="#fbfcfc"/>
      <path id="Trazado_4069" data-name="Trazado 4069" d="M611.052,570.992c-.553-.189-.953-.322-1.352-.463-1.6-.566-1.614-.57-1.228-2.254a12.913,12.913,0,0,1,.512-1.585c.08-.216.2-.474.471-.489.317-.018.436.274.553.5a7.011,7.011,0,0,1,.565,1.9C610.718,569.347,610.872,570.093,611.052,570.992Z" transform="translate(-439.822 -396.346)" fill="#fbfcfc"/>
      <path id="Trazado_4075" data-name="Trazado 4075" d="M545.171,523.941a.885.885,0,0,1-.964.818.794.794,0,0,1-.806-.9.807.807,0,0,1,.947-.83C544.9,523.056,545.117,523.418,545.171,523.941Z" transform="translate(-379.89 -356.457)" fill="#189b07"/>
    </g>
  </g>
</svg>
