<svg id="DADIS" xmlns="http://www.w3.org/2000/svg" width="74.787" height="29.466" viewBox="0 0 74.787 29.466">
  <g id="Grupo_1462" data-name="Grupo 1462" transform="translate(48.042)">
    <path id="Trazado_3990" data-name="Trazado 3990" d="M632.126,458.424a27.814,27.814,0,0,0,.224,3.4c.012.483.016,1.043-.566,1.19-.644.162-.929-.365-1.141-.847a7.5,7.5,0,0,1-.462-3.658,31.265,31.265,0,0,1,1.454-6.558,16.894,16.894,0,0,0,.331-8.544c-.443-2.033-.806-4.086-1.12-6.144a4.169,4.169,0,0,1,.553-3.011c.2-.306.461-.591.884-.467a.715.715,0,0,1,.484.867c-.323,2.111.283,4.138.524,6.2a4.964,4.964,0,0,0,.676,2.159c.635.988,1.139,1.073,1.954.2a9.881,9.881,0,0,0,1.206-1.749,20.648,20.648,0,0,1,8.443-7.639c.357-.19.86-.419,1.093-.036.328.539-.272.756-.629.948a15.907,15.907,0,0,0-7.722,8.828,7.736,7.736,0,0,0-.528,3.762,16.03,16.03,0,0,1,.213,2.874c-.18,4.117,5.04,7.172,8.437,4.853.431-.294,1-.538,1.4.017s-.041.994-.443,1.329a4.975,4.975,0,0,1-2.486,1.129,8.064,8.064,0,0,1-8.371-5.084,1.605,1.605,0,0,0-1.54-1.274,1.791,1.791,0,0,0-1.754,1.215A12.2,12.2,0,0,0,632.126,458.424Z" transform="translate(-630.142 -433.573)" fill="#e21e28"/>
  </g>
  <g id="Grupo_1463" data-name="Grupo 1463" transform="translate(51.496 2.19)">
    <path id="Trazado_3991" data-name="Trazado 3991" d="M670.686,456.34c.534.216,1.38-.348,1.521.32.129.61-.74.868-1.241,1.113-1.616.795-2.123,2.256-2.528,3.83-.119.465-.134,1.148-.779,1.2s-.749-.638-.948-1.079a10.9,10.9,0,0,1-.6-1.813,2.385,2.385,0,0,1,1.46-3.021A6.125,6.125,0,0,1,670.686,456.34Z" transform="translate(-666.003 -456.313)" fill="#f2da20"/>
  </g>
  <g id="Grupo_1464" data-name="Grupo 1464" transform="translate(0 4.788)">
    <path id="Trazado_3992" data-name="Trazado 3992" d="M131.39,483.28h6.018a12.335,12.335,0,0,1,3.1.3A5.519,5.519,0,0,1,142.971,485a6.71,6.71,0,0,1,1.558,2.508,10.884,10.884,0,0,1,.534,3.659,9.691,9.691,0,0,1-.5,3.3,6.775,6.775,0,0,1-1.746,2.736,5.881,5.881,0,0,1-2.314,1.236,10.451,10.451,0,0,1-2.915.328h-6.2Zm3.292,2.619v10.255h2.459a9.459,9.459,0,0,0,1.991-.147,3.111,3.111,0,0,0,1.329-.644,3.237,3.237,0,0,0,.862-1.495,9.616,9.616,0,0,0,.333-2.836,8.843,8.843,0,0,0-.333-2.757,3.513,3.513,0,0,0-.934-1.5,3.19,3.19,0,0,0-1.524-.728,15.775,15.775,0,0,0-2.7-.147Z" transform="translate(-131.39 -483.28)"/>
    <path id="Trazado_3993" data-name="Trazado 3993" d="M301.476,498.763h-3.582l-1.424-3.517H289.95l-1.347,3.517H285.11l6.353-15.483h3.482Zm-6.063-6.126-2.247-5.745-2.2,5.745Z" transform="translate(-270.303 -483.28)"/>
    <path id="Trazado_3994" data-name="Trazado 3994" d="M473.03,483.28h6.018a12.334,12.334,0,0,1,3.1.3A5.519,5.519,0,0,1,484.611,485a6.71,6.71,0,0,1,1.558,2.508,10.909,10.909,0,0,1,.534,3.659,9.691,9.691,0,0,1-.5,3.3,6.784,6.784,0,0,1-1.746,2.736,5.881,5.881,0,0,1-2.314,1.236,10.451,10.451,0,0,1-2.915.328h-6.2V483.28Zm3.293,2.619v10.255h2.458a9.459,9.459,0,0,0,1.991-.147,3.106,3.106,0,0,0,1.329-.644,3.236,3.236,0,0,0,.862-1.495,9.615,9.615,0,0,0,.333-2.836,8.813,8.813,0,0,0-.333-2.757,3.513,3.513,0,0,0-.934-1.5,3.19,3.19,0,0,0-1.524-.728,15.774,15.774,0,0,0-2.7-.147Z" transform="translate(-440.122 -483.28)"/>
  </g>
  <g id="Grupo_1465" data-name="Grupo 1465" transform="translate(61.526 4.524)">
    <path id="Trazado_3995" data-name="Trazado 3995" d="M770.13,491.249l3.2-.3a3.238,3.238,0,0,0,3.56,2.967,3.809,3.809,0,0,0,2.4-.639,1.87,1.87,0,0,0,.806-1.494,1.369,1.369,0,0,0-.339-.934,2.736,2.736,0,0,0-1.185-.67q-.578-.191-2.636-.676a9.17,9.17,0,0,1-3.716-1.532,3.948,3.948,0,0,1-1.5-3.116,3.837,3.837,0,0,1,.706-2.213,4.38,4.38,0,0,1,2.036-1.568,8.542,8.542,0,0,1,3.209-.539,7.139,7.139,0,0,1,4.623,1.278,4.42,4.42,0,0,1,1.63,3.411l-3.293.137a2.614,2.614,0,0,0-.906-1.716,3.45,3.45,0,0,0-2.086-.523,3.918,3.918,0,0,0-2.247.56,1.112,1.112,0,0,0-.523.961,1.169,1.169,0,0,0,.489.94,8.932,8.932,0,0,0,3.026,1.035,16.523,16.523,0,0,1,3.555,1.114,4.494,4.494,0,0,1,1.8,1.574,4.659,4.659,0,0,1-.128,4.958,4.619,4.619,0,0,1-2.2,1.727,9.683,9.683,0,0,1-3.549.565,7.322,7.322,0,0,1-4.751-1.357A5.8,5.8,0,0,1,770.13,491.249Z" transform="translate(-770.13 -480.54)" fill="#0e9642"/>
  </g>
</svg>
