<svg xmlns="http://www.w3.org/2000/svg" width="55.636" height="48.192" viewBox="0 0 55.636 48.192">
  <g id="Grupo_1489" data-name="Grupo 1489" transform="translate(-296.729 -882.755)">
    <path id="Trazado_1485" data-name="Trazado 1485" d="M1182.247,5403.553h12.678v.008h13.906l6.955,12.041,0,0,6.954,12.051-13.912,24.1h-13.906v-.006h-13.9l-6.955-12.044h0l-6.958-12.047,13.916-24.1Zm12.678,4.255v.008h-11.456l-11.451,19.833,5.726,9.916v.01l5.725,9.917h11.456v-.012h11.458l11.45-19.83-5.725-9.915v-.01l-5.725-9.917Z" transform="translate(-870.378 -4520.798)" fill-rule="evenodd"/>
    <path id="Trazado_1486" data-name="Trazado 1486" d="M1181.2,5404.778h25.362l6.34,10.983,6.34,10.985-6.34,10.981-6.34,10.985H1181.2l-6.341-10.985-6.343-10.981,6.343-10.985Z" transform="translate(-869.334 -4519.896)" fill="#ffcb00" fill-rule="evenodd"/>
    <path id="Trazado_1487" data-name="Trazado 1487" d="M1179.538,5406.472l-6.466,11.2h34.9l-6.469-11.2Zm-6.466,26.838,6.466,11.2H1201.5l6.469-11.2Z" transform="translate(-865.972 -4518.644)" fill-rule="evenodd"/>
    <path id="Trazado_1488" data-name="Trazado 1488" d="M1181.1,5416.87a3.31,3.31,0,0,0-.777-.756,4.265,4.265,0,0,0-.922-.487,5.41,5.41,0,0,0-.974-.252,5.876,5.876,0,0,0-.937-.078h-4.068v.487l.873.334a.592.592,0,0,1,.15.092.248.248,0,0,1,.061.176v5.953a.263.263,0,0,1-.061.187.469.469,0,0,1-.15.1l-.873.336v.482h4a5.984,5.984,0,0,0,1.732-.242,3.982,3.982,0,0,0,1.4-.742,3.393,3.393,0,0,0,.939-1.269,4.361,4.361,0,0,0,.343-1.807,4.757,4.757,0,0,0-.2-1.439A3.626,3.626,0,0,0,1181.1,5416.87Zm-1.418,3.929a2.6,2.6,0,0,1-.419.927,1.773,1.773,0,0,1-.716.579,2.578,2.578,0,0,1-1.033.193h-1.126v-6.251h.832a2.465,2.465,0,0,1,1.074.229,2.237,2.237,0,0,1,.821.655,3.125,3.125,0,0,1,.52,1.038,4.779,4.779,0,0,1,.184,1.382A5.441,5.441,0,0,1,1179.681,5420.8Z" transform="translate(-865.712 -4512.126)"/>
    <path id="Trazado_1489" data-name="Trazado 1489" d="M1186.71,5422.76a.4.4,0,0,1-.163-.122.685.685,0,0,1-.111-.187l-2.783-7.227h-1.332l-.69,1.358-2.313,5.844a.566.566,0,0,1-.3.315l-.583.273v.484h2.851v-.484l-.964-.383.673-1.743h2.863l.717,1.783-.955.343v.484h3.694v-.484Zm-5.344-2.79,1.04-2.753h.1l.227.765.774,1.988Z" transform="translate(-862.007 -4512.178)"/>
    <path id="Trazado_1490" data-name="Trazado 1490" d="M1185.148,5422.96v.482h4.193v-.482l-.937-.342a.358.358,0,0,1-.15-.1.235.235,0,0,1-.071-.186v-6.1h1.671a.208.208,0,0,1,.146.057.307.307,0,0,1,.1.157l.322,1.23h.751V5415.3h-7.845v2.379h.744l.332-1.23a.3.3,0,0,1,.085-.159.2.2,0,0,1,.156-.055h1.66v6.1a.277.277,0,0,1-.057.186.4.4,0,0,1-.163.1Z" transform="translate(-858.399 -4512.126)" fill-rule="evenodd"/>
    <path id="Trazado_1491" data-name="Trazado 1491" d="M1190,5422.96l.934-.342a.39.39,0,0,0,.162-.1.268.268,0,0,0,.059-.186v-6.1h-1.66a.209.209,0,0,0-.16.055.335.335,0,0,0-.085.159l-.328,1.23h-.744V5415.3h7.843v2.379h-.75l-.324-1.23a.33.33,0,0,0-.09-.157.224.224,0,0,0-.146-.057h-1.675v6.1a.239.239,0,0,0,.068.186.381.381,0,0,0,.157.1l.937.342v.482H1190Z" transform="translate(-854.816 -4512.126)" fill-rule="evenodd"/>
  </g>
</svg>
