<svg xmlns="http://www.w3.org/2000/svg" width="58.599" height="41.083" viewBox="0 0 58.599 41.083">
  <g id="birrete" transform="translate(0 -76.517)">
    <g id="Grupo_1479" data-name="Grupo 1479" transform="translate(0.831 77.377)">
      <path id="Trazado_4081" data-name="Trazado 4081" d="M113.065,240.249l.537,1.108s8.508,6.909,15.8,6.909,15.834-6.909,15.834-6.909l.5-1.108h0A78.341,78.341,0,0,1,143.2,230.9l-1.557-.876H116.921l-1.329.875a78.342,78.342,0,0,1-2.527,9.345Z" transform="translate(-100.954 -213.318)" fill="#365e7d"/>
      <path id="Trazado_4082" data-name="Trazado 4082" d="M120.292,230.406l.571-.376h-3.941l-1.329.875a78.342,78.342,0,0,1-2.527,9.345h0l.537,1.108a39.258,39.258,0,0,0,3.341,2.355c1.19-3.976,2.4-8.557,3.349-13.308Z" transform="translate(-100.955 -213.319)" fill="#294b64"/>
      <path id="Trazado_4083" data-name="Trazado 4083" d="M63.592,93.209,37.12,84.262a4.44,4.44,0,0,0-2.843,0L7.8,93.209a.807.807,0,0,0-.1,1.49l26.044,12.7a4.44,4.44,0,0,0,3.891,0L63.688,94.7a.807.807,0,0,0-.1-1.49Z" transform="translate(-7.255 -84.029)" fill="#477b9e"/>
      <path id="Trazado_4084" data-name="Trazado 4084" d="M15.721,94.7a.807.807,0,0,1,.1-1.49L39.7,85.136l-2.585-.874a4.44,4.44,0,0,0-2.843,0L7.8,93.209a.807.807,0,0,0-.1,1.49l26.044,12.7a4.44,4.44,0,0,0,3.891,0l2.06-1Z" transform="translate(-7.255 -84.028)" fill="#3f6d8e"/>
      <path id="Trazado_4085" data-name="Trazado 4085" d="M435.311,369.863H432.3l-.357,5.559a.789.789,0,0,0,.774.851h2.172a.789.789,0,0,0,.774-.851Z" transform="translate(-383.336 -337.147)" fill="#ffd064"/>
      <path id="Trazado_4086" data-name="Trazado 4086" d="M433.9,375.422l.357-5.559H432.3l-.357,5.559a.789.789,0,0,0,.774.851h1.956A.789.789,0,0,1,433.9,375.422Z" transform="translate(-383.335 -337.147)" fill="#f2ab08"/>
      <path id="Trazado_4087" data-name="Trazado 4087" d="M433.775,334.957h-1.391a1.264,1.264,0,0,0-1.26,1.26v2.5a.412.412,0,0,0,.412.412h3.088a.412.412,0,0,0,.412-.412v-2.5A1.264,1.264,0,0,0,433.775,334.957Z" transform="translate(-382.608 -306.236)" fill="#ffe07d"/>
      <path id="Trazado_4088" data-name="Trazado 4088" d="M433.336,338.719v-2.5a1.264,1.264,0,0,1,.85-1.19,1.248,1.248,0,0,0-.411-.07h-1.391a1.264,1.264,0,0,0-1.26,1.26v2.5a.412.412,0,0,0,.412.412h2.213A.412.412,0,0,1,433.336,338.719Z" transform="translate(-382.608 -306.236)" fill="#ffd064"/>
      <path id="Trazado_4089" data-name="Trazado 4089" d="M233.934,134.119a2.844,2.844,0,0,0-3.02,2.838v.014a1.341,1.341,0,0,0,1.35,1.317h2.987a1.343,1.343,0,0,0,1.347-1.47A2.857,2.857,0,0,0,233.934,134.119Z" transform="translate(-205.314 -128.381)" fill="#3f6d8e"/>
      <path id="Trazado_4090" data-name="Trazado 4090" d="M233.49,136.972v-.014a2.843,2.843,0,0,1,1.55-2.532,2.792,2.792,0,0,0-1.105-.306,2.844,2.844,0,0,0-3.02,2.838v.014a1.341,1.341,0,0,0,1.35,1.317h2.575A1.341,1.341,0,0,1,233.49,136.972Z" transform="translate(-205.315 -128.381)" fill="#365e7d"/>
      <path id="Trazado_4091" data-name="Trazado 4091" d="M138.568,319.322a42.183,42.183,0,0,1-13.076,6.886,10.672,10.672,0,0,1-6.51,0,42.185,42.185,0,0,1-13.076-6.886c-.287.857-.551,1.6-.771,2.2a2.544,2.544,0,0,0,.813,2.874,42.593,42.593,0,0,0,13.034,6.85,10.675,10.675,0,0,0,6.51,0,42.6,42.6,0,0,0,13.034-6.85,2.544,2.544,0,0,0,.813-2.874C139.118,320.924,138.854,320.179,138.568,319.322Z" transform="translate(-93.793 -292.391)" fill="#ffe07d"/>
      <path id="Trazado_4092" data-name="Trazado 4092" d="M109.974,322.136a33.228,33.228,0,0,1-4.07-2.813c-.287.857-.551,1.6-.771,2.2a2.544,2.544,0,0,0,.813,2.874c.9.71,1.817,1.36,2.725,1.953.423-1.312.863-2.725,1.3-4.218Z" transform="translate(-93.793 -292.392)" fill="#ffd064"/>
    </g>
    <g id="Grupo_1480" data-name="Grupo 1480" transform="translate(0 76.517)">
      <path id="Trazado_4093" data-name="Trazado 4093" d="M57.469,85.741,45.1,81.561a.858.858,0,1,0-.55,1.627L56.8,87.328,51.034,90.14a2.606,2.606,0,0,0-.8-.362l-17.3-4.521a3.7,3.7,0,0,0-7.337.693v.019a2.2,2.2,0,0,0,2.208,2.171h2.987a2.186,2.186,0,0,0,1.943-1.16L48.868,91.2l-18,8.775a3.564,3.564,0,0,1-3.139,0L1.8,87.328l26.355-8.907a3.6,3.6,0,0,1,2.293,0L40.736,81.9a.858.858,0,1,0,.55-1.627L31,76.794a5.329,5.329,0,0,0-3.393,0L1.131,85.741a1.667,1.667,0,0,0-.2,3.075L14.52,95.44a81.206,81.206,0,0,1-3.129,10.774,3.394,3.394,0,0,0,1.088,3.844,43.144,43.144,0,0,0,13.3,6.992,11.537,11.537,0,0,0,7.037,0,43.152,43.152,0,0,0,13.3-6.992,3.394,3.394,0,0,0,1.088-3.844,81.244,81.244,0,0,1-3.129-10.774l6.391-3.116v12.92a2.12,2.12,0,0,0-1.956,2.111v2.5a1.266,1.266,0,0,0,.417.938l-.319,4.821a1.636,1.636,0,0,0,1.631,1.742h2.172a1.636,1.636,0,0,0,1.631-1.742l-.319-4.821a1.266,1.266,0,0,0,.417-.938v-2.5a2.12,2.12,0,0,0-1.956-2.11V92.306a2.6,2.6,0,0,0-.116-.762l5.595-2.728a1.667,1.667,0,0,0-.2-3.075Zm-26.676.681H27.807a.485.485,0,0,1-.492-.458V85.95A1.966,1.966,0,0,1,27.94,84.5a1.988,1.988,0,0,1,3.342,1.347A.488.488,0,0,1,30.793,86.423Zm13.835,17.585a40.558,40.558,0,0,1-13.487,6.659.858.858,0,1,0,.322,1.686,42.281,42.281,0,0,0,13.747-6.627c.12.342.259.732.386,1.078a1.682,1.682,0,0,1-.537,1.9,41.567,41.567,0,0,1-12.767,6.708,9.822,9.822,0,0,1-5.984,0,41.57,41.57,0,0,1-12.767-6.708A1.681,1.681,0,0,1,13,106.8l.015-.041c.125-.342.263-.73.371-1.037a42.342,42.342,0,0,0,13.746,6.628.858.858,0,1,0,.322-1.686,40.571,40.571,0,0,1-13.487-6.659,80.675,80.675,0,0,0,2.14-7.792l10.868,5.3a5.266,5.266,0,0,0,4.644,0l10.867-5.3A80.643,80.643,0,0,0,44.629,104.008Zm5.7,11.634.3-4.514h1.4l.3,4.514Zm2.1-8.287v2.055h-2.2v-2.055a.407.407,0,0,1,.4-.4h1.391A.407.407,0,0,1,52.426,107.355Z" transform="translate(0 -76.517)"/>
    </g>
  </g>
</svg>
