<svg xmlns="http://www.w3.org/2000/svg" width="79.813" height="24.208" viewBox="0 0 79.813 24.208">
  <g id="FAMILIAS_EN_ACCIÓN" data-name="FAMILIAS EN ACCIÓN" transform="translate(-207.624 -350.296)">
    <g id="Grupo_1487" data-name="Grupo 1487" transform="translate(207.624 350.296)">
      <path id="Trazado_4156" data-name="Trazado 4156" d="M218.293,448.408c0,1.163-.031,2.328.01,3.49.036,1.053-.48,1.476-1.467,1.428-3.308-.161-3.389-.713-3.367-3.209.012-1.342-.058-2.684-.087-4.026-.017-.744-.339-1.04-1.112-.884a12,12,0,0,1-3.747.049c-.427-.049-.824-.208-.891-.67s.369-.555.688-.693a11.138,11.138,0,0,1,3.325-1.014,1.914,1.914,0,0,0,1.767-1.584c.292-1.164-.141-1.677-1.34-1.7-.851-.016-1.7-.007-2.552-.023-.375-.007-.738-.1-.851-.514-.134-.5.194-.772.59-.91a16.917,16.917,0,0,1,2.179-.65,1.8,1.8,0,0,0,1.637-2.055,32.756,32.756,0,0,1,.149-3.885c.07-.746.252-1.565,1.17-1.771.97-.218,1.5.457,1.937,1.145a9.483,9.483,0,0,1,1.044,3.581c.136.761.359,1.241,1.285,1.13.858-.1,1.3-.435,1.3-1.347,0-1.207.111-2.414.106-3.62,0-1.115.543-1.476,1.589-1.467,2.287.018,3.234.8,3.539,3.444.155,1.342.656,1.674,1.9,1.414a19.173,19.173,0,0,1,2.8-.277c.5-.03,1.054.066,1.188.649.13.568-.413.736-.8.934a8.508,8.508,0,0,1-3.222.852c-.742.063-1.429.236-1.343,1.269a1.317,1.317,0,0,0,1.442,1.394,7.106,7.106,0,0,1,1.7.332c.423.125.9.328.907.865,0,.564-.493.693-.928.808a8.317,8.317,0,0,1-1.442.31c-1.179.091-1.6.742-1.638,1.862a23.777,23.777,0,0,1-.342,3.469,2.381,2.381,0,0,1-3.587,1.9,2.085,2.085,0,0,1-1.039-1.768c-.1-.753-.055-1.522-.156-2.274-.073-.534.283-1.456-.748-1.372-.845.069-1.725.326-1.706,1.495.011.672.006,1.343.007,2.015,0,.626,0,1.253,0,1.879C218.224,448.409,218.258,448.409,218.293,448.408Zm2.257-9.564c0-.944-.217-1.216-.983-1.242a1.746,1.746,0,0,0-1.99,1.952c-.013.684.147,1.119.957,1.077C219.791,440.565,220.551,439.915,220.55,438.844Z" transform="translate(-207.624 -429.209)" fill="#e8436e"/>
      <path id="Trazado_4157" data-name="Trazado 4157" d="M548.067,486.144c0-.761-.019-1.522,0-2.282.033-1.063.712-1.53,1.54-.914.555.413.839.237,1.27,0a1.956,1.956,0,0,1,2.167-.138c1.039.877,1.821.413,2.825-.017a2.338,2.338,0,0,1,3.369,2.218c.047,1.206-.006,2.417.013,3.624.012.726-.157,1.213-1.028,1.212-.941,0-.946-.629-.95-1.279-.006-.94,0-1.88,0-2.819,0-.773-.146-1.495-1.111-1.517a1.365,1.365,0,0,0-1.458,1.434,30.587,30.587,0,0,0-.031,3.085c.021.731-.246,1.071-1,1.076-.779.006-1.006-.378-.985-1.088.029-1.028.018-2.058,0-3.087-.012-.734-.241-1.363-1.1-1.421a1.289,1.289,0,0,0-1.466,1.254,28.851,28.851,0,0,0-.08,3.082c0,.72-.15,1.223-1.016,1.237-.921.016-.981-.565-.971-1.248C548.075,487.755,548.067,486.95,548.067,486.144Z" transform="translate(-507.45 -476.174)" fill="#646b6e"/>
      <path id="Trazado_4158" data-name="Trazado 4158" d="M480.337,490.171c-1.544.068-2.525-.256-2.721-1.505-.18-1.149.588-1.818,1.594-2.182a15.038,15.038,0,0,1,1.678-.427c.477-.113,1.064-.141.934-.856-.122-.67-.667-.757-1.241-.749a1.6,1.6,0,0,0-1.128.648c-.514.534-1.008.26-1.418-.1-.477-.415-.092-.83.171-1.167.65-.834,2.6-1.193,3.89-.749a2.45,2.45,0,0,1,1.85,2.621c-.026.715,0,1.43,0,2.146,0,.354-.035.754.379.921a.638.638,0,0,1,.407.955.74.74,0,0,1-1,.437A3.866,3.866,0,0,0,480.337,490.171Zm.855-2.9c-.474.27-1.4.038-1.453.984-.031.559.478.58.885.53.652-.08,1.256-.293,1.3-1.088C481.941,487.276,481.618,487.212,481.192,487.274Z" transform="translate(-445.386 -476.49)" fill="#646b6e"/>
      <path id="Trazado_4159" data-name="Trazado 4159" d="M760.342,482.68c2.333,0,3.274.958,3.357,3.078.042,1.088-.309,2.2.732,3.22.557.544-.34,1.258-.966.972-1.288-.589-2.444-.1-3.672.036-.992.11-2.034-.018-2.333-1.28-.274-1.158.305-2.021,1.688-2.492a10.954,10.954,0,0,1,1.57-.333c.458-.083.922-.153.872-.78s-.49-.834-1.015-.867a1.44,1.44,0,0,0-1.306.557c-.5.676-1.059.432-1.488.014-.568-.553-.017-1,.354-1.336A3.467,3.467,0,0,1,760.342,482.68Zm.641,4.422c-.457.314-1.419-.017-1.464.948-.024.511.435.617.865.563a1.208,1.208,0,0,0,1.2-1.027C761.645,487.2,761.441,487.01,760.983,487.1Z" transform="translate(-691.814 -476.302)" fill="#646b6e"/>
      <path id="Trazado_4160" data-name="Trazado 4160" d="M417.432,469.8c0-1.206.02-2.412-.007-3.617-.018-.762.229-1.173,1.068-1.157,1.608.031,3.216.024,4.824.007.65-.007,1.019.205,1,.918s-.5.737-1.019.734c-.938-.007-1.878.019-2.814-.017-.709-.027-1.094.191-1.093.97,0,.756.124,1.349,1.057,1.348.67,0,1.341.019,2.01.007.576-.011.786.264.774.82-.013.575-.292.8-.837.784-.926-.021-2.049-.45-2.713.215s-.228,1.785-.256,2.707c-.023.728-.434.871-1.058.873-.691,0-.96-.3-.948-.973.02-1.2.006-2.411.006-3.617Z" transform="translate(-392.391 -460.754)" fill="#646b6e"/>
      <path id="Trazado_4161" data-name="Trazado 4161" d="M827.232,490.148a4.489,4.489,0,0,1-2.6-.527c-.361-.214-.951-.491-.641-.984a.872.872,0,0,1,1.372-.27,1.824,1.824,0,0,0,1.823.367c.381-.109.9-.043.9-.577s-.55-.506-.905-.623c-.593-.2-1.226-.285-1.8-.521a1.89,1.89,0,0,1-1.348-1.676,2.089,2.089,0,0,1,.99-1.93,4.348,4.348,0,0,1,4.451.122c.366.3.69.627.37,1.126a.753.753,0,0,1-1.241.233,2.062,2.062,0,0,0-1.609-.521c-.353.043-.777.086-.864.5-.094.454.316.6.648.712.464.159.947.261,1.418.4,1.143.338,2.127.841,1.99,2.275-.1,1.09-1.112,1.808-2.568,1.889C827.45,490.156,827.269,490.148,827.232,490.148Z" transform="translate(-750.394 -476.455)" fill="#646b6e"/>
      <path id="Trazado_4162" data-name="Trazado 4162" d="M420.393,567.734c-2.952-.023-2.954-.023-2.951-2.975,0-1.474.041-2.95-.008-4.423-.031-.9.246-1.311,1.213-1.258,1.249.067,2.5.019,3.754.03.407,0,.865-.006.825.6-.033.511-.453.471-.8.476-.983.013-1.967.016-2.95.014-.632,0-1.145.061-1.119.923.023.753-.013,1.492.971,1.588.71.068,1.429.03,2.144.049.42.012.865.067.835.622-.024.459-.421.519-.8.525a8.436,8.436,0,0,1-1.473,0c-1.362-.221-1.561.524-1.523,1.628.029.847.338,1.223,1.211,1.177.981-.051,1.966-.032,2.95-.027.344,0,.774-.064.816.454.048.6-.4.6-.814.6C421.912,567.737,421.152,567.734,420.393,567.734Z" transform="translate(-392.404 -543.581)" fill="#646b6e"/>
      <path id="Trazado_4163" data-name="Trazado 4163" d="M542.895,567.658c-.017.49-.34.6-.723.437a1.33,1.33,0,0,1-.531-.567c-.321-.563-.3-1.452-1.082-1.579a9.754,9.754,0,0,0-2.8-.067c-.774.1-1.035.855-1.286,1.544-.1.285-.224.814-.662.664-.477-.162-.357-.56-.181-1,.891-2.229,1.723-4.482,2.587-6.721a1.025,1.025,0,0,1,1.023-.724.852.852,0,0,1,.8.611q1.392,3.561,2.771,7.125A2.663,2.663,0,0,1,542.895,567.658Zm-3.629-6.337a7.055,7.055,0,0,0-1.276,2.79c-.075.205-.1.524.169.551a10.121,10.121,0,0,0,1.852.021c.332-.029.354-.365.258-.636C539.964,563.187,539.639,562.332,539.266,561.322Z" transform="translate(-496.366 -544.088)" fill="#646b6e"/>
      <path id="Trazado_4164" data-name="Trazado 4164" d="M690.439,462.92c0-1.163.024-2.326-.008-3.488-.019-.7.173-1.084.967-1.082.766,0,1.031.346,1.026,1.06-.012,2.056,0,4.114,0,6.171,0,.641-.066,1.288.84,1.4.438.053.57.371.527.784a.9.9,0,0,1-.751.824,1.9,1.9,0,0,1-2.56-1.779c-.068-1.293-.014-2.592-.014-3.889Z" transform="translate(-632.837 -454.874)" fill="#646b6e"/>
      <path id="Trazado_4165" data-name="Trazado 4165" d="M758.1,582.339a2.978,2.978,0,0,1-3.087-3.295c.017-2.084,1.226-3.4,3.15-3.416s3.16,1.319,3.142,3.4C761.283,581.126,760.1,582.351,758.1,582.339Zm2.034-3.369c0-1.381-.755-2.3-1.9-2.313a2.037,2.037,0,0,0-2.024,2.332c.019,1.423.853,2.445,1.978,2.425C759.357,581.393,760.132,580.419,760.13,578.971Z" transform="translate(-689.713 -558.162)" fill="#646b6e"/>
      <path id="Trazado_4166" data-name="Trazado 4166" d="M474.64,578.98c0-.581-.029-1.164.007-1.743.044-.717-.32-1.874,1.2-1.134.256.124.732-.224,1.114-.333a2.447,2.447,0,0,1,3.32,2.387c.031.938.038,1.88-.016,2.815-.026.465.261,1.256-.573,1.231-.71-.02-.468-.736-.485-1.185-.033-.848,0-1.7-.031-2.548-.033-.939-.375-1.718-1.437-1.768a1.7,1.7,0,0,0-1.875,1.536,20.391,20.391,0,0,0-.143,2.939c-.029.426.073,1.032-.571,1-.629-.027-.5-.635-.508-1.057-.02-.715-.006-1.43-.006-2.146Z" transform="translate(-442.779 -558.172)" fill="#646b6e"/>
      <path id="Trazado_4167" data-name="Trazado 4167" d="M823.811,578.846c0-.805,0-1.61,0-2.417,0-.327.141-.81.452-.651.947.483,1.7-.222,2.541-.265a2.318,2.318,0,0,1,2.574,1.867c.129,1.33.055,2.68.054,4.022,0,.395-.156.736-.617.7-.42-.027-.426-.4-.429-.711-.013-.984.014-1.969-.026-2.952-.041-.966-.339-1.827-1.492-1.869A1.729,1.729,0,0,0,825,578.292c-.116.972-.078,1.962-.111,2.945-.014.42-.064.877-.613.852-.494-.023-.449-.481-.454-.828-.013-.805,0-1.61,0-2.417C823.814,578.846,823.813,578.846,823.811,578.846Z" transform="translate(-750.307 -558.057)" fill="#646b6e"/>
      <path id="Trazado_4168" data-name="Trazado 4168" d="M608.926,582a2.654,2.654,0,0,1-2.72-1.87,3.621,3.621,0,0,1,.779-4.09,2.948,2.948,0,0,1,3.375-.483,2.372,2.372,0,0,1,.848.62c.245.267.7.58.233,1-.4.36-.729.1-1.031-.21A1.7,1.7,0,0,0,608,576.7a2.5,2.5,0,0,0-.773,2.8A1.835,1.835,0,0,0,609.04,581a1.7,1.7,0,0,0,1.6-.785c.248-.354.577-.444.9-.134.31.3.048.575-.12.827A2.487,2.487,0,0,1,608.926,582Z" transform="translate(-558.385 -557.832)" fill="#646b6e"/>
      <path id="Trazado_4169" data-name="Trazado 4169" d="M659.551,487.372c0,.8-.014,1.609,0,2.413.017.723-.28,1.052-1.034,1.053s-1.056-.318-1.051-1.044c.012-1.7.01-3.4,0-5.094,0-.648.253-1.02.946-1,.661.014,1.134.2,1.117.995-.02.893,0,1.787,0,2.682Z" transform="translate(-603.809 -477.196)" fill="#646b6e"/>
      <path id="Trazado_4170" data-name="Trazado 4170" d="M727.464,487.986c0-.711.038-1.424-.008-2.133-.056-.837.2-1.155,1.118-1.164,1-.01.935.551.934,1.193,0,1.556,0,3.111.012,4.667.007.725-.179,1.2-1.043,1.182-.846-.019-1.045-.477-1.02-1.212C727.486,489.676,727.463,488.831,727.464,487.986Z" transform="translate(-665.441 -478.071)" fill="#646b6e"/>
      <path id="Trazado_4171" data-name="Trazado 4171" d="M667.9,578.693a2.346,2.346,0,0,0,1.149,2.294c.856.5,1.687.031,2.348-.686.157-.171.352-.643.724-.27.283.284.274.568-.048.9a3.261,3.261,0,0,1-4.09.584,3.934,3.934,0,0,1-.718-4.884,2.945,2.945,0,0,1,4.709-.472c.279.291.592.632.149,1.016-.353.307-.676.117-.913-.2a1.561,1.561,0,0,0-2.023-.54A2.159,2.159,0,0,0,667.9,578.693Z" transform="translate(-611.964 -557.795)" fill="#646b6e"/>
      <path id="Trazado_4172" data-name="Trazado 4172" d="M731.658,580.495c0,.849.007,1.7,0,2.547,0,.319-.049.667-.451.706s-.545-.272-.546-.6c-.01-1.7,0-3.4.011-5.094,0-.284.122-.536.45-.564.422-.037.53.254.533.6.008.8,0,1.609,0,2.413Z" transform="translate(-668.263 -559.796)" fill="#646b6e"/>
      <path id="Trazado_4173" data-name="Trazado 4173" d="M657.777,460.643c-.876.03-1.367-.261-1.394-1.033-.025-.7.388-1.032,1.068-1.07.712-.041,1.258.218,1.325.967A.979.979,0,0,1,657.777,460.643Z" transform="translate(-602.85 -455.038)" fill="#646b6e"/>
      <path id="Trazado_4174" data-name="Trazado 4174" d="M726.985,458.64c.9,0,1.459.2,1.463,1.012,0,.763-.452,1.089-1.194,1.089s-1.2-.32-1.194-1.086A.934.934,0,0,1,726.985,458.64Z" transform="translate(-664.216 -455.129)" fill="#646b6e"/>
      <path id="Trazado_4175" data-name="Trazado 4175" d="M777.92,552.553c-.474-.083-.6-.322-.444-.6.319-.592.3-1.483,1.245-1.554a.345.345,0,0,1,.359.532C778.75,551.533,778.526,552.241,777.92,552.553Z" transform="translate(-709.447 -535.94)" fill="#646b6e"/>
      <path id="Trazado_4176" data-name="Trazado 4176" d="M729.862,555.288c-.066.474-.31.742-.785.716-.509-.029-.837-.295-.786-.834.047-.486.416-.636.85-.614A.67.67,0,0,1,729.862,555.288Z" transform="translate(-666.178 -539.602)" fill="#646b6e"/>
    </g>
  </g>
</svg>
