<svg xmlns="http://www.w3.org/2000/svg" width="65.22" height="59.752" viewBox="0 0 65.22 59.752">
  <g id="casa" transform="translate(0 -21.461)">
    <path id="Trazado_4910" data-name="Trazado 4910" d="M126.218,81l-6.443.009-.018-10.858a.55.55,0,0,1,.549-.551l5.343-.008a.55.55,0,0,1,.551.549Z" transform="translate(-104.502 -41.997)" fill="#ffb125"/>
    <path id="Trazado_4911" data-name="Trazado 4911" d="M126.323,70.138a.55.55,0,0,0-.551-.549l-3.186,0a.548.548,0,0,1,.506.545L123.11,81,119.9,81v0L126.34,81Z" transform="translate(-104.624 -41.997)" fill="#ff901d"/>
    <path id="Trazado_4912" data-name="Trazado 4912" d="M135.888,68.044,118.628,84.3l.035,24.718a1.181,1.181,0,0,0,1.182,1.179l32.2-.045a1.181,1.181,0,0,0,1.179-1.182l-.035-24.718Z" transform="translate(-103.517 -40.649)" fill="#e1effb"/>
    <path id="Trazado_4913" data-name="Trazado 4913" d="M251.933,84.255,234.628,68.044l-2.846,2.681,14.443,13.53.035,24.718a1.181,1.181,0,0,1-1.179,1.182h5.708a1.181,1.181,0,0,0,1.179-1.182Z" transform="translate(-202.257 -40.649)" fill="#ccdfed"/>
    <path id="Trazado_4914" data-name="Trazado 4914" d="M101.385,55.415a2.365,2.365,0,0,1-1.626-.641L77.992,34.383,56.281,54.835a2.373,2.373,0,0,1-3.255-3.455L76.36,29.4a2.374,2.374,0,0,1,3.25,0L103.005,51.31a2.374,2.374,0,0,1-1.62,4.106Z" transform="translate(-45.621 -6.363)" fill="#ff4c4c"/>
    <path id="Trazado_4915" data-name="Trazado 4915" d="M103.124,70.82a2.373,2.373,0,0,1-3.355.109L78,50.538,56.29,70.99a2.368,2.368,0,0,1-3.522-.3,2.372,2.372,0,0,0,3.522,3.154L78,53.393,99.769,73.784a2.372,2.372,0,0,0,3.517-3.158A2.4,2.4,0,0,1,103.124,70.82Z" transform="translate(-45.63 -25.373)" fill="#f33939"/>
    <path id="Trazado_4916" data-name="Trazado 4916" d="M223.237,228.014l-8.873.012a.754.754,0,0,0-.753.755l.029,21,10.38-.015-.029-21A.754.754,0,0,0,223.237,228.014Z" transform="translate(-186.401 -180.242)" fill="#2d5871"/>
    <path id="Trazado_4917" data-name="Trazado 4917" d="M255.589,228.768a.754.754,0,0,0-.755-.753l-5.013.007a.754.754,0,0,1,.529.718l.029,21.031,5.239-.007Z" transform="translate(-217.998 -180.243)" fill="#1d4859"/>
    <path id="Trazado_4918" data-name="Trazado 4918" d="M85.781,291.039,72.7,299.792l-3.9-.219-.153-1.534A4.98,4.98,0,0,0,64.4,293.6l-10.443-1.2a18.715,18.715,0,0,1-6.828-2.377h0a18.717,18.717,0,0,0-9.451-2.561H30.145v17.186l19.9,7.535a5.413,5.413,0,0,0,2.314.154l.014,0L72.4,309.446a8.864,8.864,0,0,0,4.205-1.884l12.948-11.645a3.091,3.091,0,0,0,.5-4.051h0A3.091,3.091,0,0,0,85.781,291.039Z" transform="translate(-26.305 -232.116)" fill="#fed9a8"/>
    <path id="Trazado_4919" data-name="Trazado 4919" d="M90.232,324.285l-12.8,10.773a10.946,10.946,0,0,1-4.768,1.884l-20.295,1.451-.014,0a5.417,5.417,0,0,1-2.314-.154l-19.9-7.535v6.075l19.9,7.535a5.7,5.7,0,0,0,1.149.2q.145.01.291.013a5.094,5.094,0,0,0,.873-.061l.014,0L72.4,341.58a8.884,8.884,0,0,0,1.415-.347q.138-.046.274-.1a8.865,8.865,0,0,0,1.315-.615q.126-.072.25-.149a8.85,8.85,0,0,0,.951-.677L89.558,328.05A3.091,3.091,0,0,0,90.232,324.285Z" transform="translate(-26.305 -264.249)" fill="#f4c892"/>
    <path id="Trazado_4920" data-name="Trazado 4920" d="M12.755,283.38H9.776a2.468,2.468,0,0,1-2.468-2.468V258.868A2.468,2.468,0,0,1,9.776,256.4h2.979a2.468,2.468,0,0,1,2.468,2.468v22.045A2.468,2.468,0,0,1,12.755,283.38Z" transform="translate(-6.377 -205.012)" fill="#2d5871"/>
    <path id="Trazado_4921" data-name="Trazado 4921" d="M26.309,256.4H23.33a2.475,2.475,0,0,0-.489.049,2.468,2.468,0,0,1,1.979,2.419v22.045a2.468,2.468,0,0,1-1.979,2.419,2.476,2.476,0,0,0,.489.049h2.979a2.468,2.468,0,0,0,2.468-2.468V258.868A2.468,2.468,0,0,0,26.309,256.4Z" transform="translate(-19.931 -205.012)" fill="#1d4859"/>
    <path id="Trazado_4922" data-name="Trazado 4922" d="M64.526,59.226a4.031,4.031,0,0,0-5.568-1.077l-8.323,5.57-.024-17.338L53.5,49.091a3.292,3.292,0,0,0,2.258.893h0a3.317,3.317,0,0,0,2.407-1.045,3.3,3.3,0,0,0-.152-4.671l-5.482-5.135a.931.931,0,0,0-1.273,1.359l5.482,5.135a1.442,1.442,0,0,1-.985,2.5h0a1.436,1.436,0,0,1-.986-.39l-4.462-4.18h0L33.008,27.34a.931.931,0,0,0-1.275,0L14.474,43.6h0l-4.451,4.193a1.443,1.443,0,0,1-1.978-2.1L31.378,23.713a1.445,1.445,0,0,1,1.975,0L47,36.5a.931.931,0,1,0,1.273-1.359L34.626,22.352a3.31,3.31,0,0,0-4.525.006l-7.47,7.037,0-1.255a1.481,1.481,0,0,0-1.481-1.479h0l-5.343.008a1.481,1.481,0,0,0-1.479,1.483l.015,9.055L6.767,44.339a3.3,3.3,0,0,0,2.167,5.708l.1,0a3.28,3.28,0,0,0,2.263-.9l2.885-2.718.011,8.19a19.617,19.617,0,0,0-2.827-.207H9.776v-.558a3.4,3.4,0,0,0-3.4-3.4H3.4a3.4,3.4,0,0,0-3.4,3.4V68.443a.931.931,0,0,0,1.862,0V53.856A1.539,1.539,0,0,1,3.4,52.319H6.377a1.539,1.539,0,0,1,1.537,1.537V75.9a1.539,1.539,0,0,1-1.537,1.537H3.4A1.539,1.539,0,0,1,1.862,75.9V74.272a.931.931,0,0,0-1.862,0V75.9a3.4,3.4,0,0,0,3.4,3.4H6.377a3.4,3.4,0,0,0,3.4-3.4v-.126l13.633,5.163q.038.014.077.025a6.5,6.5,0,0,0,1.77.251,6.026,6.026,0,0,0,.942-.074l20.035-2.888.014,0a9.808,9.808,0,0,0,4.647-2.082l.034-.029L63.871,64.5A4.032,4.032,0,0,0,64.526,59.226Zm-43.758-30.7,0,2.623L16.2,35.455l-.011-6.926Zm-4.71,26.459-.014-10.3L32.373,29.3,48.747,44.635l.028,20.329-2.636,1.764-2.791-.157-.074-.741a5.9,5.9,0,0,0-4.736-5.213l-.017-12.094a1.687,1.687,0,0,0-1.685-1.682h0l-8.873.012a1.685,1.685,0,0,0-1.682,1.687l.015,10.545a17.692,17.692,0,0,1-5-1.983Q21,56.931,20.7,56.77c-.078-.042-.157-.081-.235-.122-.121-.063-.242-.127-.365-.188-.1-.048-.2-.094-.295-.141s-.209-.1-.314-.147-.215-.095-.323-.141-.2-.085-.3-.126-.222-.09-.334-.133-.2-.077-.3-.114-.221-.081-.333-.12-.209-.073-.314-.108-.213-.07-.32-.1-.229-.07-.344-.1c-.1-.029-.2-.058-.3-.086-.13-.036-.26-.07-.39-.1C16.18,55.015,16.119,55,16.058,54.983Zm12.084-6.267L36.66,48.7l.016,11.682-7.786-.9-.734-.084ZM62.631,63.109,49.7,74.738a7.944,7.944,0,0,1-3.74,1.672L25.934,79.3l-.012,0-.014,0a4.439,4.439,0,0,1-1.878-.12l-14.253-5.4V56.276h1.593a17.777,17.777,0,0,1,4.014.461l.146.035c.161.039.322.079.482.122l.042.012q.241.066.479.138l.086.026q.254.079.506.164l.052.018q.524.181,1.037.395l.056.023q.255.107.508.223l.014.006q.244.112.484.232l.057.028q.235.118.467.243l.087.048c.156.085.311.172.464.261A19.555,19.555,0,0,0,27.517,61.2l.024,0,10.43,1.2q.087.012.172.029a4.037,4.037,0,0,1,3.153,2.9,4.09,4.09,0,0,1,.126.678l.041.417L21.915,64.719a.931.931,0,0,0-.163,1.855l20.667,1.811h.015l.015,0,3.9.219H46.4c.018,0,.037,0,.055,0s.042,0,.062,0,.055-.01.082-.016.039-.008.058-.013a.906.906,0,0,0,.087-.032c.016-.006.032-.011.047-.018a.92.92,0,0,0,.126-.07l3.308-2.214h0L60,59.7a2.161,2.161,0,0,1,2.635,3.413Z" transform="translate(0 0)"/>
  </g>
</svg>
