<svg xmlns="http://www.w3.org/2000/svg" width="38.305" height="56.757" viewBox="0 0 38.305 56.757">
  <g id="Grupo_1552" data-name="Grupo 1552" transform="translate(-526.342 -726.078)">
    <path id="Trazado_4329" data-name="Trazado 4329" d="M400.89,235.012a.756.756,0,0,1-.185.414,25.963,25.963,0,0,1-4.847,4.694.32.32,0,0,1-.452-.012,50.555,50.555,0,0,0-7.928-4.6c-.422-.2-.47-.42-.184-.811a59.728,59.728,0,0,1,5.081-6.037.593.593,0,0,1,.891-.091,55.117,55.117,0,0,1,7.251,5.855C400.684,234.591,400.9,234.731,400.89,235.012Z" transform="translate(148.458 505.962)" fill="#df262a"/>
    <path id="Trazado_4333" data-name="Trazado 4333" d="M494.764,112.406a16.294,16.294,0,0,1-1.708,7.271c-.379.769-.556.8-1.185.2a55.191,55.191,0,0,0-6.618-5.344c-.647-.446-.665-.6-.116-1.133a71.853,71.853,0,0,1,7.84-6.521c.564-.406.769-.333.984.331A16.872,16.872,0,0,1,494.764,112.406Z" transform="translate(57.48 619.45)" fill="#df262a"/>
    <path id="Trazado_4326" data-name="Trazado 4326" d="M314.253,343.442c.039.016.168.061.291.117a49.337,49.337,0,0,1,7.229,4.077c.579.395.589.6.054,1.047a28.348,28.348,0,0,0-4.687,4.863.65.65,0,0,1-.914.241,40.6,40.6,0,0,0-6.167-2.069c-.61-.149-.689-.33-.418-.915a52.3,52.3,0,0,1,3.961-7A.591.591,0,0,1,314.253,343.442Z" transform="translate(220.788 398.782)" fill="#df262a"/>
    <path id="Trazado_4327" data-name="Trazado 4327" d="M269.037,487.248c-.611-.087-1.12-.153-1.625-.234a34.016,34.016,0,0,0-3.98-.383c-.57-.023-.7-.183-.579-.735a45.936,45.936,0,0,1,2.288-7.495.623.623,0,0,1,.867-.437,46.106,46.106,0,0,1,5.9,1.916c.654.263.707.433.345,1.025a34.36,34.36,0,0,0-2.782,5.824C269.372,486.99,269.3,487.266,269.037,487.248Z" transform="translate(264.287 273.459)" fill="#df262a"/>
    <path id="Trazado_4336" data-name="Trazado 4336" d="M535.312,361.219a1.041,1.041,0,0,1-.672-.328,39.282,39.282,0,0,0-5.066-4.706c-.5-.4-.5-.6,0-.989a59.885,59.885,0,0,1,5.008-3.485.61.61,0,0,1,.9.119,44,44,0,0,1,4.358,5.825.565.565,0,0,1-.1.819,20.3,20.3,0,0,1-4.228,2.693A.808.808,0,0,1,535.312,361.219Z" transform="translate(16.055 391.203)" fill="#f6a62f"/>
    <path id="Trazado_4330" data-name="Trazado 4330" d="M441.128,433.025a.8.8,0,0,1-.415-.185,41.026,41.026,0,0,0-5.063-2.909c-.493-.237-.557-.457-.219-.872a38.371,38.371,0,0,1,4.781-4.851c.363-.312.634-.092.9.123a40.935,40.935,0,0,1,3.558,3.094c.482.484.97.966,1.439,1.463.335.355.3.625-.131.86a23.976,23.976,0,0,0-4.485,3.117A.551.551,0,0,1,441.128,433.025Z" transform="translate(103.63 323.658)" fill="#f6a62f"/>
    <path id="Trazado_4328" data-name="Trazado 4328" d="M375.749,528.13c-.418-.14-.921-.306-1.421-.478a31.529,31.529,0,0,0-3.5-.981c-.566-.124-.681-.32-.468-.862a27.221,27.221,0,0,1,3.13-5.7.557.557,0,0,1,.792-.208,40.176,40.176,0,0,1,5.09,2.866.476.476,0,0,1,.1.816,29.265,29.265,0,0,0-3.135,4.244C376.159,528.106,376.087,528.134,375.749,528.13Z" transform="translate(164.165 234.415)" fill="#f6a62f"/>
    <path id="Trazado_4338" data-name="Trazado 4338" d="M639.868,288.474a11.337,11.337,0,0,1-2.657,7.17c-.343.429-.626.413-.927-.053a45.39,45.39,0,0,0-4.014-5.313c-.357-.406-.326-.61.155-.889a72.512,72.512,0,0,1,6.473-3.325c.431-.2.623-.088.736.385A8.9,8.9,0,0,1,639.868,288.474Z" transform="translate(-79.768 452.329)" fill="#f6a62f"/>
    <path id="Trazado_4339" data-name="Trazado 4339" d="M635.967,478.741a.478.478,0,0,1-.306.535,14.4,14.4,0,0,1-3.448,1.122.47.47,0,0,1-.535-.3,34.356,34.356,0,0,0-3.266-4.834.435.435,0,0,1,.159-.751,41.982,41.982,0,0,1,4.294-1.935.462.462,0,0,1,.654.211,34.491,34.491,0,0,1,2.432,5.857A.49.49,0,0,1,635.967,478.741Z" transform="translate(-76.254 278.491)" fill="#06814b"/>
    <path id="Trazado_4331" data-name="Trazado 4331" d="M254.384,626.824c-.7,0-1.4-.006-2.1,0-.412,0-.573-.182-.579-.593a36.506,36.506,0,0,1,.351-4.953c.062-.508.294-.7.811-.668a44.958,44.958,0,0,1,4.941.521c.636.107.723.255.527.871-.44,1.385-.823,2.784-1.137,4.2a.682.682,0,0,1-.813.629C255.718,626.8,255.05,626.824,254.384,626.824Z" transform="translate(274.642 140.498)" fill="#df262a"/>
    <path id="Trazado_4337" data-name="Trazado 4337" d="M547.869,520.409a.467.467,0,0,1-.4.445,16.2,16.2,0,0,0-3.806,1.5.518.518,0,0,1-.689-.127,31.393,31.393,0,0,0-3.258-2.891.453.453,0,0,1-.012-.805,31.478,31.478,0,0,1,4.269-3.012.455.455,0,0,1,.643.1,31.547,31.547,0,0,1,3.18,4.588A1.011,1.011,0,0,1,547.869,520.409Z" transform="translate(6.49 238.511)" fill="#06814b"/>
    <path id="Trazado_4340" data-name="Trazado 4340" d="M726.1,440.642a9.153,9.153,0,0,1-3.221,6.309c-.47.41-.735.339-.93-.243a37.5,37.5,0,0,0-2.11-5c-.256-.506-.182-.677.376-.866,1.62-.551,3.265-1.015,4.922-1.437C726.043,439.172,726.154,439.26,726.1,440.642Z" transform="translate(-161.467 309.445)" fill="#06814b"/>
    <path id="Trazado_4332" data-name="Trazado 4332" d="M344.77,638.584c-.752,0-1.5.007-2.254,0-.617-.007-.79-.221-.626-.793.395-1.377.8-2.749,1.209-4.123a.515.515,0,0,1,.685-.427,36.8,36.8,0,0,1,4.612,1.355c.51.2.6.36.4.843-.372.881-.73,1.766-1.019,2.677a.633.633,0,0,1-.7.473C346.307,638.577,345.538,638.583,344.77,638.584Z" transform="translate(190.653 128.75)" fill="#f6a62f"/>
    <path id="Trazado_4334" data-name="Trazado 4334" d="M478.2,583.2c.014.2-.123.309-.262.411a22.074,22.074,0,0,0-2.933,2.626.575.575,0,0,1-.811.122,32.6,32.6,0,0,0-2.922-1.478c-.486-.217-.538-.418-.246-.878a23.258,23.258,0,0,1,3.065-3.83.543.543,0,0,1,.841-.066,37.882,37.882,0,0,1,3.053,2.65A.548.548,0,0,1,478.2,583.2Z" transform="translate(70.429 178.396)" fill="#06814b"/>
    <path id="Trazado_4335" data-name="Trazado 4335" d="M443.689,667.47c-.478,0-.957.011-1.435,0-.51-.016-.671-.232-.48-.684.318-.755.67-1.5,1.009-2.241a.458.458,0,0,1,.675-.249,26.778,26.778,0,0,1,2.8,1.383.443.443,0,0,1,.14.732c-.215.287-.454.555-.677.836a.679.679,0,0,1-.595.23C444.646,667.466,444.167,667.47,443.689,667.47Z" transform="translate(97.595 99.847)" fill="#06814b"/>
    <g id="Grupo_1498" data-name="Grupo 1498" transform="translate(526.45 770.168)">
      <path id="Trazado_4322" data-name="Trazado 4322" d="M253.28,757.16h3.073v12.18H253.28Z" transform="translate(-253.28 -756.917)"/>
      <path id="Trazado_4323" data-name="Trazado 4323" d="M340.272,761.667c0,2.767-1.863,4.489-4.826,4.489h-1.893v3.184H330.48V757.16h4.966C338.41,757.16,340.272,758.883,340.272,761.667Zm-3.1,0a1.664,1.664,0,0,0-1.909-1.792h-1.707v3.567h1.707C336.532,763.442,337.168,762.78,337.168,761.667Z" transform="translate(-325.219 -756.917)"/>
      <path id="Trazado_4324" data-name="Trazado 4324" d="M490.1,759.924c0-3.706,2.53-6.334,5.975-6.334a5.5,5.5,0,0,1,4.671,2.3l-1.955,1.984a3.106,3.106,0,0,0-2.56-1.427c-1.785,0-3.027,1.392-3.027,3.48s1.242,3.48,3.027,3.48a3.1,3.1,0,0,0,2.56-1.427l1.955,1.984a5.5,5.5,0,0,1-4.671,2.3C492.63,766.258,490.1,763.63,490.1,759.924Z" transform="translate(-473.961 -753.59)"/>
      <path id="Trazado_4325" data-name="Trazado 4325" d="M654.74,759.924c0-3.706,2.53-6.334,5.975-6.334a5.5,5.5,0,0,1,4.671,2.3l-1.955,1.984a3.106,3.106,0,0,0-2.56-1.427c-1.785,0-3.026,1.392-3.026,3.48s1.242,3.48,3.026,3.48a3.1,3.1,0,0,0,2.56-1.427l1.955,1.984a5.5,5.5,0,0,1-4.671,2.3C657.27,766.258,654.74,763.63,654.74,759.924Z" transform="translate(-627.381 -753.59)"/>
    </g>
  </g>
</svg>
