<svg xmlns="http://www.w3.org/2000/svg" width="53.026" height="53.026" viewBox="0 0 53.026 53.026">
  <g id="trabajador" transform="translate(-16 -16)">
    <path id="Trazado_4864" data-name="Trazado 4864" d="M260.281,133.624v.321a20.813,20.813,0,0,1-1.326,7.313,20.793,20.793,0,0,0-1.325,7.309v.643H245.257v-8.838a3.881,3.881,0,0,1-2.651-3.679V135.07l-7.07,7.07H232v-3.535l9.311-9.31A4.418,4.418,0,0,1,244.436,128h10.221a5.624,5.624,0,0,1,5.624,5.625Z" transform="translate(-192.138 -99.628)" fill="#ffa100"/>
    <rect id="Rectángulo_1359" data-name="Rectángulo 1359" width="26.731" height="3.24" transform="translate(27.123 45.753)" fill="#c47220"/>
    <rect id="Rectángulo_1360" data-name="Rectángulo 1360" width="12.15" height="3.24" transform="translate(39.273 42.513)" fill="#3942ed"/>
    <path id="Trazado_4865" data-name="Trazado 4865" d="M41.675,325.21V311.07l7.07,7.07h3.535v-3.535l-9.311-9.311A4.419,4.419,0,0,0,39.845,304H29.624A5.624,5.624,0,0,0,24,309.624V325.21Z" transform="translate(-7.116 -256.185)" fill="#ffa100"/>
    <path id="Trazado_4866" data-name="Trazado 4866" d="M187.489,432H176.884L176,434.651h11.489Z" transform="translate(-142.325 -370.044)" fill="#3942ed"/>
    <path id="Trazado_4867" data-name="Trazado 4867" d="M176,406.186v-4.419l1.548-1.032a4.378,4.378,0,0,1,2.429-.735h0a4.378,4.378,0,0,1,2.429.735l1.036.69a1.151,1.151,0,0,1,.513.958h0a1.151,1.151,0,0,1-1.151,1.151h-2.384Z" transform="translate(-142.325 -341.579)" fill="#ffceb6"/>
    <rect id="Rectángulo_1361" data-name="Rectángulo 1361" width="12.96" height="12.15" transform="translate(45.753 52.233)" fill="#4f5dff"/>
    <circle id="Elipse_26" data-name="Elipse 26" cx="1.62" cy="1.62" r="1.62" transform="translate(50.613 57.093)" fill="#788dff"/>
    <rect id="Rectángulo_1362" data-name="Rectángulo 1362" width="37.261" height="4.05" transform="translate(31.173 64.383)" fill="#c47220"/>
    <path id="Trazado_4868" data-name="Trazado 4868" d="M271.954,225.768l-1.548-1.032a4.378,4.378,0,0,0-2.429-.735h0a4.378,4.378,0,0,0-2.429.735l-1.036.69a1.151,1.151,0,0,0-.513.958h0a1.151,1.151,0,0,0,1.151,1.151h2.384l4.419,2.651Z" transform="translate(-220.603 -185.022)" fill="#ffceb6"/>
    <rect id="Rectángulo_1363" data-name="Rectángulo 1363" width="3.24" height="4.86" transform="translate(51.423 40.893)" fill="#ffa100"/>
    <rect id="Rectángulo_1364" data-name="Rectángulo 1364" width="12.96" height="12.96" transform="translate(26.313 32.792)" fill="#4f5dff"/>
    <path id="Trazado_4869" data-name="Trazado 4869" d="M373.3,128l-.416.972-2.235,5.214-2.235-5.214L368,128Z" transform="translate(-313.114 -99.628)" fill="#ffceb6"/>
    <path id="Trazado_4870" data-name="Trazado 4870" d="M105.466,344l1.768,7.954h-1.768l-2.8-2.8L103.7,344Z" transform="translate(-77.093 -291.766)" fill="#ef5e3b"/>
    <path id="Trazado_4871" data-name="Trazado 4871" d="M104.884,315.535,104,313.768,105.768,312l1.768,1.768-.884,1.768Z" transform="translate(-78.279 -263.301)" fill="#e04f2b"/>
    <ellipse id="Elipse_27" data-name="Elipse 27" cx="4.455" cy="4.86" rx="4.455" ry="4.86" transform="translate(57.093 16.592)" fill="#b66514"/>
    <path id="Trazado_4872" data-name="Trazado 4872" d="M360,46.186V43.535A3.535,3.535,0,0,1,363.535,40h0a3.535,3.535,0,0,1,3.535,3.535v2.651Z" transform="translate(-305.998 -21.349)" fill="#c47220"/>
    <path id="Trazado_4873" data-name="Trazado 4873" d="M363.535,79.07h0a3.535,3.535,0,0,0,3.535-3.535v-.884L364.419,72h0a3.877,3.877,0,0,1-3.678,2.651H360v.884A3.535,3.535,0,0,0,363.535,79.07Z" transform="translate(-305.998 -49.814)" fill="#ffceb6"/>
    <path id="Trazado_4874" data-name="Trazado 4874" d="M91.535,247.954h0A3.535,3.535,0,0,1,88,244.419v-1.768L90.651,240H95.07v4.419A3.535,3.535,0,0,1,91.535,247.954Z" transform="translate(-64.046 -199.255)" fill="#ffceb6"/>
    <path id="Trazado_4875" data-name="Trazado 4875" d="M95.07,211.535l.862-.431a1.639,1.639,0,0,0,.906-1.466h0A1.639,1.639,0,0,0,95.2,208H91.535A3.535,3.535,0,0,0,88,211.535v2.651l2.651-2.651Z" transform="translate(-64.046 -170.79)" fill="#c47220"/>
    <path id="Trazado_4876" data-name="Trazado 4876" d="M322.651,376a2.651,2.651,0,1,0,2.651,2.651A2.651,2.651,0,0,0,322.651,376Zm0,3.535a.884.884,0,1,1,.884-.884A.884.884,0,0,1,322.651,379.535Z" transform="translate(-270.417 -320.231)"/>
    <path id="Trazado_4877" data-name="Trazado 4877" d="M68.142,227.4H60.188V215.908a.884.884,0,0,0-.884-.884H45.164a.884.884,0,0,0-.884.884v4.053l-7.8-7.8a5.268,5.268,0,0,0-3.749-1.553H31.538a4.392,4.392,0,0,0,.37-1.768v-3.873l.373-.187A2.522,2.522,0,0,0,31.153,200H27.489a4.424,4.424,0,0,0-4.419,4.419v4.419a4.392,4.392,0,0,0,.37,1.768h-.932A6.515,6.515,0,0,0,16,217.113V232.7h1.768V221.57c.046.049.091.1.139.146l6.155,6.155a4.39,4.39,0,0,0,3.125,1.294H30.14v2.651a.884.884,0,0,0,.884.884H68.142a.884.884,0,0,0,.884-.884v-3.535a.884.884,0,0,0-.884-.884ZM46.048,216.792H58.421V227.4H46.048ZM36.866,227.4l1.473-.884h5.942v.884Zm3.612-2.651H38.094a.884.884,0,0,0-.455.126l-3.08,1.848v-2.385l1.155-.77a3.5,3.5,0,0,1,3.877,0l1.036.69a.268.268,0,0,1-.148.49ZM35.443,221.7v-1l.73.73a5.233,5.233,0,0,0-.73.274Zm-.214-8.289,9.052,9.052v2.285H42.493a2.01,2.01,0,0,0-.887-1.961l-1.036-.69a5.244,5.244,0,0,0-2.036-.809l-3.351-3.351a.884.884,0,0,0-1.509.625v4.24l-.268.178H30.849L29.3,216.022l.2-.39.9.9,1.25-1.25-2.4-2.4a4.421,4.421,0,0,0,.887-.517v0h2.589a3.512,3.512,0,0,1,2.5,1.035Zm-7.739-1.919a2.654,2.654,0,0,1-2.651-2.651v-1.4l2.134-2.134H30.14v3.535A2.654,2.654,0,0,1,27.489,211.489Zm0,2.134.692.692-.355.709h-.675l-.355-.709Zm-.175,3.169h.35l1.375,6.186h-.3l-2.29-2.29Zm.175-15.024h3.664a.755.755,0,0,1,.338,1.43l-.675.338h-4.21a.884.884,0,0,0-.625.259l-1.143,1.143v-.518a2.654,2.654,0,0,1,2.651-2.651ZM25.311,226.62l-6.155-6.155a4.74,4.74,0,0,1,3.352-8.093h2.33v0a4.422,4.422,0,0,0,.887.517l-2.4,2.4,1.25,1.25.9-.9.2.39-.707,3.184-2.156-2.156-1.25,1.25,6.186,6.186a.884.884,0,0,0,.625.259h4.419V227.4H27.186a2.634,2.634,0,0,1-1.875-.777Zm41.948,4.312H31.908v-1.768H67.259Z" transform="translate(0 -163.674)"/>
    <path id="Trazado_4878" data-name="Trazado 4878" d="M133.68,27.489h-.932a4.377,4.377,0,0,0,.292-.945,5.3,5.3,0,1,0-4.775-8.755,4.425,4.425,0,0,0-3.984,4.4v3.535a4.392,4.392,0,0,0,.37,1.768H123.46a5.268,5.268,0,0,0-3.749,1.553l-7.8,7.8V32.791a.884.884,0,0,0-.884-.884H96.884a.884.884,0,0,0-.884.884v2.651h1.768V33.675H110.14V44.28h-5.3v1.768h19.443v1.768H110.14v1.768h15.024a.884.884,0,0,0,.884-.884V46.048H129a4.391,4.391,0,0,0,3.125-1.294l5.73-5.73a19.986,19.986,0,0,1-.706,2.3,21.63,21.63,0,0,0-1.382,7.621v.643h1.768v-.643a19.87,19.87,0,0,1,1.269-7,21.63,21.63,0,0,0,1.382-7.621V34A6.515,6.515,0,0,0,133.68,27.489ZM128.7,32.315l-.98-2.286a4.386,4.386,0,0,0,1.96,0Zm0-3.943a2.654,2.654,0,0,1-2.651-2.651v0a4.755,4.755,0,0,0,3.771-2.047l1.531,1.531v.518a2.654,2.654,0,0,1-2.651,2.651Zm-2.988,1.457.732,1.708-1.091-.273Zm1.895,4.421.21.489v2.6l-1.467-1.834Zm1.977,3.091v-2.6l.21-.489,1.257,1.257Zm2.1-7.513.359,1.435-1.091.273ZM135.77,21.3a3.541,3.541,0,0,1-2.651,3.423V22.186a4.424,4.424,0,0,0-2.551-4,3.538,3.538,0,0,1,5.2,3.119Zm-7.07-1.768a2.654,2.654,0,0,1,2.651,2.651V22.7l-1.143-1.143a.884.884,0,0,0-1.463.345,2.988,2.988,0,0,1-2.7,2.041V22.186a2.654,2.654,0,0,1,2.651-2.651Zm-7.74,10.757a3.512,3.512,0,0,1,2.5-1.035h.573l-.609,2.437a.884.884,0,0,0,.643,1.072l2.021.505-1.548,1.548a.884.884,0,0,0-.065,1.177l3.041,3.8-.066.066h-3.01a2.988,2.988,0,0,1-1.927-2.795V35.443A.884.884,0,0,0,121,34.818l-3.351,3.351a5.245,5.245,0,0,0-2.036.809l-1.036.69a2.01,2.01,0,0,0-.887,1.961h-1.787V39.344Zm-9.052,13.1h5.942l1.473.884h-7.415Zm3.535-2.035a.267.267,0,0,1,.119-.223l1.036-.69a3.5,3.5,0,0,1,3.877,0l1.155.77V43.6l-3.08-1.848a.884.884,0,0,0-.455-.126H115.71a.268.268,0,0,1-.268-.268Zm4.573-3.055.754-.754a4.749,4.749,0,0,0,.279,1.182,5.24,5.24,0,0,0-1.033-.427Zm10.862,5.2A2.634,2.634,0,0,1,129,44.28H123.4V41.629h4.419a.884.884,0,0,0,.625-.259l6.186-6.186-1.25-1.25-.7.7-1.365-1.365,2.021-.505a.884.884,0,0,0,.643-1.072l-.609-2.437h.314a4.74,4.74,0,0,1,3.352,8.093Z" transform="translate(-71.162)"/>
  </g>
</svg>
