<svg xmlns="http://www.w3.org/2000/svg" width="63.811" height="50.425" viewBox="0 0 63.811 50.425">
  <g id="plan" transform="translate(0 -53.704)">
    <g id="Grupo_1607" data-name="Grupo 1607" transform="translate(0.936 54.64)">
      <path id="Trazado_4895" data-name="Trazado 4895" d="M7.511,156.773H67.4a2.545,2.545,0,0,1,2.056,2.056v32.534a2.549,2.549,0,0,1-2.056,2.056H13.464a5.954,5.954,0,0,1-5.953-5.956v-30.69Z" transform="translate(-7.511 -144.864)" fill="#ecf4ff" fill-rule="evenodd"/>
      <path id="Trazado_4896" data-name="Trazado 4896" d="M13.464,61.218a5.951,5.951,0,0,0-5.953,5.953v36.646a5.951,5.951,0,0,1,5.953-5.953,5.562,5.562,0,0,1,2.954.781.414.414,0,0,0,.636-.389V63.179a1.448,1.448,0,0,0-.724-1.229A5.89,5.89,0,0,0,13.464,61.218Z" transform="translate(-7.511 -61.218)" fill="#cbe2ff" fill-rule="evenodd"/>
      <path id="Trazado_4897" data-name="Trazado 4897" d="M124.921,195.041h8.9a.912.912,0,0,1,.908.908v8.892a.91.91,0,0,1-.908.908h-8.9a.907.907,0,0,1-.9-.908v-8.892A.909.909,0,0,1,124.921,195.041Z" transform="translate(-109.497 -178.362)" fill="#cbe2ff" fill-rule="evenodd"/>
      <path id="Trazado_4898" data-name="Trazado 4898" d="M408.359,107.1l-4.172-1.268-3.815,1.268v29.775l4.017,1.046,3.971-1.046Z" transform="translate(-351.409 -100.274)" fill="#ff6978" fill-rule="evenodd"/>
      <path id="Trazado_4899" data-name="Trazado 4899" d="M404.868,361.786l1.494-2.939,2-3.932h-7.988l2,3.932,1.494,2.939a.548.548,0,0,0,1.007,0Z" transform="translate(-351.408 -318.311)" fill="#ffcbbe" fill-rule="evenodd"/>
      <path id="Trazado_4900" data-name="Trazado 4900" d="M408.359,68.047V63.659a2.449,2.449,0,0,0-2.441-2.441h-3.1a2.449,2.449,0,0,0-2.445,2.441v4.388Z" transform="translate(-351.409 -61.218)" fill="#ff8793" fill-rule="evenodd"/>
      <path id="Trazado_4901" data-name="Trazado 4901" d="M117.242,376.725h6.091l1-3.307-1-2.572h-6.091a1.894,1.894,0,0,0-1.53,1.533V375.2A1.894,1.894,0,0,0,117.242,376.725Z" transform="translate(-102.227 -332.257)" fill="#f2ce7e" fill-rule="evenodd"/>
      <path id="Trazado_4902" data-name="Trazado 4902" d="M176.856,332.755h7.624L185.522,329l-1.042-5.783v-1.063a1.894,1.894,0,0,0-1.533-1.533h-4.557a1.894,1.894,0,0,0-1.533,1.533v10.605Z" transform="translate(-155.75 -288.287)" fill="#b3e59f" fill-rule="evenodd"/>
      <path id="Trazado_4903" data-name="Trazado 4903" d="M238.028,350.993h7.62l.77-2.533-.77-3.346v-2.134a1.894,1.894,0,0,0-1.533-1.53h-6.087Z" transform="translate(-209.298 -306.525)" fill="#f2ce7e" fill-rule="evenodd"/>
      <path id="Trazado_4904" data-name="Trazado 4904" d="M299.172,376.725h6.091a1.9,1.9,0,0,0,1.53-1.53v-2.816a1.894,1.894,0,0,0-1.53-1.533h-6.091Z" transform="translate(-262.822 -332.257)" fill="#b3e59f" fill-rule="evenodd"/>
      <path id="Trazado_4905" data-name="Trazado 4905" d="M67.972,190.4H14.038a5.926,5.926,0,0,1-2.416-.512,5.95,5.95,0,0,0,5.441,3.536H71a2.549,2.549,0,0,0,2.056-2.056V158.829A2.545,2.545,0,0,0,71,156.773h-.968v31.566A2.549,2.549,0,0,1,67.972,190.4Z" transform="translate(-11.11 -144.864)" fill="#cbe2ff" fill-rule="evenodd"/>
      <path id="Trazado_4906" data-name="Trazado 4906" d="M45.246,73.127V97.885a5.388,5.388,0,0,1,2.388.76.414.414,0,0,0,.636-.389V63.179a1.448,1.448,0,0,0-.724-1.229,5.891,5.891,0,0,0-2.865-.731,6.065,6.065,0,0,0-1.509.191,6.059,6.059,0,0,1,1.35.541,1.448,1.448,0,0,1,.724,1.229v9.949Z" transform="translate(-38.728 -61.218)" fill="#bed8fb" fill-rule="evenodd"/>
      <path id="Trazado_4907" data-name="Trazado 4907" d="M440.2,116.011v29.775h3.024V116.011Z" transform="translate(-386.272 -109.182)" fill="#eb616f" fill-rule="evenodd"/>
      <path id="Trazado_4908" data-name="Trazado 4908" d="M423.026,63.659v4.388h3.024V63.659a2.449,2.449,0,0,0-2.441-2.441h-3.028A2.449,2.449,0,0,1,423.026,63.659Z" transform="translate(-369.1 -61.218)" fill="#f77b87" fill-rule="evenodd"/>
    </g>
    <path id="Trazado_4909" data-name="Trazado 4909" d="M56.954,60.537V57.082a1.52,1.52,0,0,0-1.509-1.508h-3.1a1.514,1.514,0,0,0-1.509,1.508v3.455h6.119ZM17.88,77.335A.934.934,0,0,1,19.2,76.014l.851.851L22.416,74.5a.936.936,0,1,1,1.321,1.325l-3.024,3.024a.936.936,0,0,1-1.321,0ZM52.958,66.55a.934.934,0,1,1,1.869,0V86.168a.934.934,0,1,1-1.869,0ZM38.222,98.176h5.752v-4.01H38.222Zm6.684,1.869H14.421a.938.938,0,0,1-.936-.936V93.23a.935.935,0,0,1,.936-.933h6.688V86.969a.932.932,0,0,1,.933-.932h7.624a.932.932,0,0,1,.933.932v1.66h6.688a.938.938,0,0,1,.936.936V92.3h6.684a.935.935,0,0,1,.936.933v5.879A.938.938,0,0,1,44.907,100.045ZM30.6,98.176H36.35V90.5H30.6Zm-7.62,0h5.751V87.906H22.978Zm-7.624,0h5.755v-4.01H15.354ZM11.411,65.613H48.962V57.082A3.39,3.39,0,0,1,52.343,53.7h3.1a3.39,3.39,0,0,1,3.377,3.378v8.532h4.056a.935.935,0,0,1,.933.936V103.2a.932.932,0,0,1-.933.933H37a.934.934,0,0,1,0-1.869H61.942V67.482h-3.12v6.758a.934.934,0,1,1-1.869,0V62.406H50.835V90.312h6.119V78.477a.934.934,0,1,1,1.869,0V91.244a.992.992,0,0,1-.159.53l-3.936,7.751a.95.95,0,0,1-.417.417.93.93,0,0,1-1.251-.413l-3.95-7.772a.994.994,0,0,1-.148-.512V67.482H11.411v7.073a.934.934,0,1,1-1.869,0V56.329a4.958,4.958,0,0,0-2.653-.756,5.018,5.018,0,0,0-5.02,5.02v31.93c.049-.053.1-.106.148-.155a6.87,6.87,0,0,1,4.872-2.017,6.976,6.976,0,0,1,2.19.357c.156.053.311.113.463.177V78.791a.934.934,0,1,1,1.869,0v13.7a.935.935,0,0,1-1.5.742,4.895,4.895,0,0,0-1.427-.753,5.022,5.022,0,1,0-1.6,9.782H32.767a.934.934,0,0,1,0,1.869H6.889A6.887,6.887,0,0,1,0,97.24V60.593a6.889,6.889,0,0,1,10.994-5.532.941.941,0,0,1,.417.781v9.772ZM56.367,92.18H51.418l2.477,4.872Zm-12.492-20.9a.934.934,0,0,1,0,1.869H31.224a.934.934,0,0,1,0-1.869ZM38.615,80.2a.934.934,0,1,1,0,1.869H31.224a.934.934,0,0,1,0-1.869Zm5.26-4.462a.934.934,0,0,1,0,1.869H31.224a.934.934,0,0,1,0-1.869ZM15.456,70.383H26.165a.935.935,0,0,1,.933.936V82.027a.935.935,0,0,1-.933.936H15.456a.936.936,0,0,1-.936-.936V71.319a.936.936,0,0,1,.936-.936Zm9.772,1.872H16.389v8.839h8.839Z" transform="translate(0 0)"/>
  </g>
</svg>
