<svg xmlns="http://www.w3.org/2000/svg" width="61.473" height="61.473" viewBox="0 0 61.473 61.473">
  <g id="FilledOutline" transform="translate(-7.1 -7.1)">
    <path id="Trazado_4880" data-name="Trazado 4880" d="M77.569,249.03a1.976,1.976,0,0,0-2.794-2.794l-6.287,6.287-1.679-.56a4.284,4.284,0,0,0-5.555,4.9l.636,3.182a2.964,2.964,0,0,1-.81,2.677l-3.07,3.07,8.383,8.383,4.191-4.191a18.716,18.716,0,0,0,7.315-4.521l1.766-1.766a1.976,1.976,0,0,0-2.794-2.794l2.1-2.1a1.976,1.976,0,1,0-2.794-2.794l.7-.7a1.976,1.976,0,1,0-2.794-2.794Z" transform="translate(-44.623 -209.098)" fill="#f5be9a"/>
    <path id="Trazado_4881" data-name="Trazado 4881" d="M0,0H3.952V15.807H0Z" transform="translate(10.587 56.693) rotate(-45)" fill="#0093ba"/>
    <path id="Trazado_4882" data-name="Trazado 4882" d="M249.03,276.617a1.976,1.976,0,0,0-2.794,2.794l6.287,6.287-.56,1.68a4.283,4.283,0,0,0,4.9,5.555l3.182-.636a2.964,2.964,0,0,1,2.677.81l3.07,3.07,8.383-8.383-4.191-4.191a18.715,18.715,0,0,0-4.521-7.315l-1.766-1.766a1.976,1.976,0,0,0-2.794,2.794l-2.1-2.1a1.976,1.976,0,1,0-2.794,2.794l-.7-.7a1.976,1.976,0,1,0-2.794,2.794Z" transform="translate(-209.098 -233.891)" fill="#f5be9a"/>
    <path id="Trazado_4883" data-name="Trazado 4883" d="M0,0H15.807V3.952H0Z" transform="translate(53.893 62.286) rotate(-45)" fill="#0093ba"/>
    <path id="Trazado_4884" data-name="Trazado 4884" d="M276.616,60.531a1.976,1.976,0,1,0,2.794,2.794l6.287-6.287,1.68.56a4.283,4.283,0,0,0,5.555-4.9l-.637-3.183a2.964,2.964,0,0,1,.81-2.677l3.07-3.07-8.383-8.383L283.6,39.574a18.716,18.716,0,0,0-7.315,4.521l-1.766,1.766a1.976,1.976,0,1,0,2.794,2.794l-2.1,2.1a1.976,1.976,0,0,0,2.794,2.794l-.7.7a1.976,1.976,0,0,0,2.794,2.794Z" transform="translate(-233.889 -24.79)" fill="#f5be9a"/>
    <path id="Trazado_4885" data-name="Trazado 4885" d="M0,0H3.952V15.807H0Z" transform="translate(51.104 10.598) rotate(-45)" fill="#0093ba"/>
    <path id="Trazado_4886" data-name="Trazado 4886" d="M60.531,77.569a1.976,1.976,0,1,0,2.794-2.794l-6.287-6.287.56-1.679a4.284,4.284,0,0,0-4.9-5.555l-3.182.636a2.964,2.964,0,0,1-2.677-.81l-3.07-3.07-8.383,8.383,4.191,4.191A18.715,18.715,0,0,0,44.1,77.9l1.766,1.766a1.976,1.976,0,1,0,2.794-2.794l2.1,2.1a1.976,1.976,0,0,0,2.794-2.794l.7.7a1.976,1.976,0,0,0,2.794-2.794Z" transform="translate(-24.79 -44.623)" fill="#f5be9a"/>
    <path id="Trazado_4887" data-name="Trazado 4887" d="M0,0H15.807V3.952H0Z" transform="translate(7.797 21.769) rotate(-45)" fill="#0093ba"/>
    <path id="Trazado_4888" data-name="Trazado 4888" d="M267.864,277.262a.988.988,0,0,0-1.4,0l-.7.7-1.933-1.933a19.809,19.809,0,0,0-4.684-7.478l-1.766-1.766a2.955,2.955,0,0,0-4.768.821l-.122-.122a2.96,2.96,0,0,0-4.948,1.3,2.945,2.945,0,0,0-3.312,1.615l-1.519-1.52a2.964,2.964,0,0,0-4.191,4.192l5.855,5.855-.367,1.1a5.271,5.271,0,0,0,6.035,6.835l3.182-.636a1.971,1.971,0,0,1,1.785.54l.974.974-.7.7a.988.988,0,0,0,0,1.4l2.794,2.794,1.4-1.4-2.1-2.1,9.78-9.78,2.1,2.1,1.4-1.4Zm-11.452,8.107a3.944,3.944,0,0,0-3.569-1.081l-3.183.636a3.3,3.3,0,0,1-3.772-4.273l.054-.163,1.664,1.664,1.4-1.4-9.082-9.081a.988.988,0,1,1,1.4-1.4l6.287,6.287,1.4-1.4-2.794-2.794a.988.988,0,1,1,1.4-1.4l2.794,2.794,1.4-1.4-2.1-2.1a.988.988,0,1,1,1.4-1.4l2.794,2.794,1.4-1.4-.7-.7a.988.988,0,1,1,1.4-1.4l1.766,1.766a17.816,17.816,0,0,1,4.282,6.93.99.99,0,0,0,.239.386l2.1,2.1-6.986,6.986Z" transform="translate(-202.086 -226.852)"/>
    <path id="Trazado_4889" data-name="Trazado 4889" d="M10.593,45.384a.985.985,0,0,0,.7-.289l.7-.7,1.933,1.933a19.81,19.81,0,0,0,4.684,7.478l1.766,1.766a2.955,2.955,0,0,0,4.768-.821l.122.122a2.96,2.96,0,0,0,4.948-1.3,2.986,2.986,0,0,0,.64.072,2.944,2.944,0,0,0,2.672-1.687l1.519,1.519a2.964,2.964,0,0,0,4.191-4.192L33.378,43.43l.367-1.1a5.271,5.271,0,0,0-6.035-6.835l-3.182.636a1.971,1.971,0,0,1-1.785-.54l-.974-.974.7-.7a.988.988,0,0,0,0-1.4l-2.794-2.794-1.4,1.4,2.1,2.1L10.592,43,8.5,40.9,7.1,42.3l2.794,2.794a.985.985,0,0,0,.7.289Zm10.754-8.4a3.946,3.946,0,0,0,3.569,1.081l3.183-.636A3.3,3.3,0,0,1,31.87,41.7l-.054.163L30.152,40.2l-1.4,1.4,9.082,9.081a.988.988,0,1,1-1.4,1.4l-6.287-6.287-1.4,1.4,2.794,2.794a.988.988,0,1,1-1.4,1.4l-2.794-2.794-1.4,1.4,2.1,2.1a.988.988,0,1,1-1.4,1.4l-2.794-2.794-1.4,1.4.7.7a.988.988,0,1,1-1.4,1.4L20,52.41a17.816,17.816,0,0,1-4.282-6.93.989.989,0,0,0-.239-.386l-2.1-2.1,6.986-6.986Z" transform="translate(0 -19.832)"/>
    <path id="Trazado_4890" data-name="Trazado 4890" d="M267.605,25.14l-.122.122a2.96,2.96,0,0,0,1.3,4.948,2.945,2.945,0,0,0,1.615,3.312l-1.52,1.519a2.964,2.964,0,1,0,4.192,4.191l5.855-5.855,1.1.367a5.271,5.271,0,0,0,6.835-6.035l-.636-3.182a1.971,1.971,0,0,1,.54-1.785l.974-.974.7.7a.988.988,0,0,0,1.4,0l2.794-2.794-1.4-1.4-2.1,2.1-9.78-9.78,2.1-2.1-1.4-1.4-2.794,2.794a.988.988,0,0,0,0,1.4l.7.7-1.933,1.933a19.81,19.81,0,0,0-7.478,4.684l-1.766,1.766a2.956,2.956,0,0,0,.821,4.768Zm.576-3.371L269.947,20a17.816,17.816,0,0,1,6.93-4.282.99.99,0,0,0,.386-.239l2.1-2.1,6.985,6.986-.974.974a3.944,3.944,0,0,0-1.081,3.569l.636,3.183a3.3,3.3,0,0,1-4.273,3.772l-.163-.054,1.664-1.664-1.4-1.4-9.082,9.082a.988.988,0,1,1-1.4-1.4l6.287-6.287-1.4-1.4-2.794,2.794a.988.988,0,1,1-1.4-1.4l2.794-2.794-1.4-1.4-2.1,2.1a.988.988,0,0,1-1.4-1.4l2.794-2.794-1.4-1.4-.7.7a.988.988,0,1,1-1.4-1.4Z" transform="translate(-226.852)"/>
    <path id="Trazado_4891" data-name="Trazado 4891" d="M54.752,252.621l.122-.122a2.96,2.96,0,0,0-1.3-4.948,2.945,2.945,0,0,0-1.615-3.312l1.52-1.519a2.964,2.964,0,0,0-4.192-4.191l-5.855,5.855-1.1-.367a5.271,5.271,0,0,0-6.835,6.035l.636,3.182a1.972,1.972,0,0,1-.54,1.785l-.974.974-.7-.7a.988.988,0,0,0-1.4,0l-2.794,2.794,1.4,1.4,2.1-2.1,9.78,9.78-2.1,2.1,1.4,1.4,2.794-2.794a.988.988,0,0,0,0-1.4l-.7-.7,1.933-1.933a19.81,19.81,0,0,0,7.478-4.684l1.766-1.766a2.956,2.956,0,0,0-.821-4.768Zm-.576,3.37-1.766,1.766a17.816,17.816,0,0,1-6.93,4.282.99.99,0,0,0-.386.239l-2.1,2.1-6.985-6.986.974-.974a3.944,3.944,0,0,0,1.081-3.569l-.636-3.183a3.3,3.3,0,0,1,4.273-3.772l.163.054L40.2,247.609l1.4,1.4,9.081-9.082a.988.988,0,1,1,1.4,1.4l-6.287,6.287,1.4,1.4,2.794-2.794a.988.988,0,1,1,1.4,1.4L48.587,250.4l1.4,1.4,2.1-2.1a.988.988,0,1,1,1.4,1.4L50.683,253.9l1.4,1.4.7-.7a.988.988,0,1,1,1.4,1.4Z" transform="translate(-19.832 -202.088)"/>
  </g>
</svg>
