<svg xmlns="http://www.w3.org/2000/svg" width="53.033" height="53.033" viewBox="0 0 53.033 53.033">
  <g id="responsabilidad" transform="translate(-1 -1)">
    <path id="Trazado_4396" data-name="Trazado 4396" d="M21.3,26.64h-.125a3.159,3.159,0,0,1-.394-.025,2.763,2.763,0,0,1-2.265-2.105,4.155,4.155,0,0,1-3.639,0,2.761,2.761,0,0,1-2.265,2.105,3.023,3.023,0,0,1-.394.026h-.125A3.1,3.1,0,0,0,9,29.734v4.6H24.4v-4.6A3.1,3.1,0,0,0,21.3,26.64Z" transform="translate(-1.157 -3.4)" fill="#efbe9c"/>
    <path id="Trazado_4397" data-name="Trazado 4397" d="M21.3,26.975h-.125a3.159,3.159,0,0,1-.394-.025,2.556,2.556,0,0,1-.515-.123l-.649.649a4.13,4.13,0,0,1-5.84,0l-.649-.649a2.542,2.542,0,0,1-.515.123,3.18,3.18,0,0,1-.394.025h-.125A3.1,3.1,0,0,0,9,30.07v4.6H24.4v-4.6A3.1,3.1,0,0,0,21.3,26.975Z" transform="translate(-1.157 -3.736)" fill="#4472b0"/>
    <path id="Trazado_4398" data-name="Trazado 4398" d="M21.177,26.975a3.159,3.159,0,0,1-.394-.025,2.556,2.556,0,0,1-.515-.123l-.649.649a4.13,4.13,0,0,1-5.84,0l-.649-.649a2.542,2.542,0,0,1-.515.123,3.18,3.18,0,0,1-.394.025h-.125A3.1,3.1,0,0,0,9,30.07v2.856c.285.013.566.037.855.037a16.2,16.2,0,0,0,12.671-5.734,3.073,3.073,0,0,0-1.224-.254Z" transform="translate(-1.157 -3.736)" fill="#698ec0"/>
    <path id="Trazado_4399" data-name="Trazado 4399" d="M17.277,23.264A4.277,4.277,0,0,1,13,18.988V17.277a4.277,4.277,0,0,1,8.554,0v1.711A4.277,4.277,0,0,1,17.277,23.264Z" transform="translate(-1.736 -1.736)" fill="#efbe9c"/>
    <path id="Trazado_4400" data-name="Trazado 4400" d="M49.3,26.64h-.125a3.159,3.159,0,0,1-.394-.025,2.763,2.763,0,0,1-2.265-2.105,4.155,4.155,0,0,1-3.639,0,2.761,2.761,0,0,1-2.265,2.105,3.023,3.023,0,0,1-.394.026h-.125A3.1,3.1,0,0,0,37,29.734v4.6H52.4v-4.6A3.1,3.1,0,0,0,49.3,26.64Z" transform="translate(-5.207 -3.4)" fill="#efbe9c"/>
    <path id="Trazado_4401" data-name="Trazado 4401" d="M49.3,26.975h-.125a3.159,3.159,0,0,1-.394-.025,2.556,2.556,0,0,1-.515-.123l-.649.649a4.13,4.13,0,0,1-5.84,0l-.649-.649a2.542,2.542,0,0,1-.515.123,3.18,3.18,0,0,1-.394.025h-.125A3.1,3.1,0,0,0,37,30.07v4.6H52.4v-4.6A3.1,3.1,0,0,0,49.3,26.975Z" transform="translate(-5.207 -3.736)" fill="#4472b0"/>
    <path id="Trazado_4402" data-name="Trazado 4402" d="M49.177,26.975a3.159,3.159,0,0,1-.394-.025,2.556,2.556,0,0,1-.515-.123l-.649.649a4.13,4.13,0,0,1-5.84,0l-.649-.649a2.542,2.542,0,0,1-.515.123,3.18,3.18,0,0,1-.394.025h-.125A3.1,3.1,0,0,0,37,30.07v2.856c.285.013.566.037.855.037a16.2,16.2,0,0,0,12.671-5.734,3.072,3.072,0,0,0-1.224-.254Z" transform="translate(-5.207 -3.736)" fill="#698ec0"/>
    <path id="Trazado_4403" data-name="Trazado 4403" d="M45.277,23.264A4.277,4.277,0,0,1,41,18.988V17.277a4.277,4.277,0,0,1,8.554,0v1.711A4.277,4.277,0,0,1,45.277,23.264Z" transform="translate(-5.785 -1.736)" fill="#efbe9c"/>
    <path id="Trazado_4404" data-name="Trazado 4404" d="M35.3,23.64h-.125a3.159,3.159,0,0,1-.394-.025,2.763,2.763,0,0,1-2.265-2.105,4.155,4.155,0,0,1-3.639,0,2.761,2.761,0,0,1-2.265,2.105,3.023,3.023,0,0,1-.394.026h-.125A3.1,3.1,0,0,0,23,26.734v3.748H38.4V26.734A3.1,3.1,0,0,0,35.3,23.64Z" transform="translate(-3.182 -2.966)" fill="#efbe9c"/>
    <path id="Trazado_4405" data-name="Trazado 4405" d="M35.3,23.975h-.125a3.159,3.159,0,0,1-.394-.025,2.556,2.556,0,0,1-.515-.123l-.649.649a4.13,4.13,0,0,1-5.84,0l-.649-.649a2.542,2.542,0,0,1-.515.123,3.18,3.18,0,0,1-.394.025h-.125A3.1,3.1,0,0,0,23,27.07v3.748H38.4V27.07A3.1,3.1,0,0,0,35.3,23.975Z" transform="translate(-3.182 -3.302)" fill="#4472b0"/>
    <path id="Trazado_4406" data-name="Trazado 4406" d="M35.177,23.975a3.159,3.159,0,0,1-.394-.025,2.556,2.556,0,0,1-.515-.123l-.649.649a4.13,4.13,0,0,1-5.84,0l-.649-.649a2.542,2.542,0,0,1-.515.123,3.18,3.18,0,0,1-.394.025h-.125A3.1,3.1,0,0,0,23,27.07v2.856c.285.013.566.037.855.037a16.2,16.2,0,0,0,12.671-5.734,3.073,3.073,0,0,0-1.224-.254Z" transform="translate(-3.182 -3.302)" fill="#698ec0"/>
    <path id="Trazado_4407" data-name="Trazado 4407" d="M31.277,20.264A4.277,4.277,0,0,1,27,15.988V14.277a4.277,4.277,0,1,1,8.554,0v1.711A4.277,4.277,0,0,1,31.277,20.264Z" transform="translate(-3.761 -1.302)" fill="#efbe9c"/>
    <path id="Trazado_4408" data-name="Trazado 4408" d="M33.107,48.843l17.926-4.889a3.3,3.3,0,0,1,4.314,3.179v.855L27.975,57.4l-5.132-1.711H16V42H26.264Z" transform="translate(-2.17 -5.93)" fill="#efbe9c"/>
    <path id="Trazado_4409" data-name="Trazado 4409" d="M2,40H8.843V58.818H2Z" transform="translate(-0.145 -5.641)" fill="#4472b0"/>
    <path id="Trazado_4410" data-name="Trazado 4410" d="M10,40h5.132V57.107H10Z" transform="translate(-1.302 -5.641)" fill="#698ec0"/>
    <g id="Grupo_1551" data-name="Grupo 1551" transform="translate(1 1)">
      <path id="Trazado_4411" data-name="Trazado 4411" d="M11.421,16.7v1.711a5.126,5.126,0,0,0,2.367,4.316,2.214,2.214,0,0,1-1.713.816H11.95A3.954,3.954,0,0,0,8,27.491v4.6a.855.855,0,0,0,.855.855h15.4a.855.855,0,0,0,.855-.855V29.529H31.95v2.566a.855.855,0,0,0,.855.855H48.2a.855.855,0,0,0,.855-.855v-4.6a3.954,3.954,0,0,0-3.95-3.95h-.125a2.212,2.212,0,0,1-1.712-.816,5.127,5.127,0,0,0,2.366-4.316V16.7a5.132,5.132,0,0,0-10.264,0v1.711a5.126,5.126,0,0,0,2.367,4.316,2.194,2.194,0,0,1-.964.672,3.956,3.956,0,0,0-3.642-2.422h-.125a2.212,2.212,0,0,1-1.712-.816,5.127,5.127,0,0,0,2.366-4.316V14.132a5.132,5.132,0,0,0-10.264,0v1.711a5.126,5.126,0,0,0,2.367,4.316,2.214,2.214,0,0,1-1.713.816h-.125A3.955,3.955,0,0,0,20.283,23.4a2.194,2.194,0,0,1-.964-.672,5.129,5.129,0,0,0,2.367-4.317V16.7a5.132,5.132,0,1,0-10.264,0ZM23.4,31.239H9.711V27.491a2.242,2.242,0,0,1,2.239-2.239h.125a4.028,4.028,0,0,0,.646-.057l.308.308a4.977,4.977,0,0,0,6.946.094v3.077a.855.855,0,0,0,.855.855H23.4Zm21.711-5.988a2.242,2.242,0,0,1,2.239,2.239v3.748H33.661V29.529h2.566a.855.855,0,0,0,.855-.855V25.6a4.977,4.977,0,0,0,6.946-.094l.308-.308a4.028,4.028,0,0,0,.646.057ZM37.082,16.7a3.421,3.421,0,1,1,6.843,0v1.711a3.421,3.421,0,1,1-6.843,0ZM40.5,23.541a5.119,5.119,0,0,0,1.146-.133,3.936,3.936,0,0,0,.965,1.05,3.351,3.351,0,0,1-4.222,0,3.921,3.921,0,0,0,.965-1.05,5.119,5.119,0,0,0,1.146.133Zm-15.4-9.409a3.421,3.421,0,0,1,6.843,0v1.711a3.421,3.421,0,1,1-6.843,0Zm3.421,6.843a5.119,5.119,0,0,0,1.146-.133,3.936,3.936,0,0,0,.965,1.05,3.351,3.351,0,0,1-4.222,0,3.922,3.922,0,0,0,.965-1.05,5.119,5.119,0,0,0,1.146.133Zm-6.843,3.95a2.242,2.242,0,0,1,2.239-2.239h.125a4.028,4.028,0,0,0,.646-.057l.308.308a4.985,4.985,0,0,0,7.05,0l.308-.308a4.028,4.028,0,0,0,.646.057h.125a2.242,2.242,0,0,1,2.239,2.239v2.893H21.686Zm-3.021-.468a3.351,3.351,0,0,1-4.222,0,3.921,3.921,0,0,0,.965-1.05,4.974,4.974,0,0,0,2.292,0,3.905,3.905,0,0,0,.965,1.05Zm1.31-7.759v1.711a3.421,3.421,0,0,1-6.843,0V16.7a3.421,3.421,0,0,1,6.843,0Z" transform="translate(-2.012 -2.157)"/>
      <path id="Trazado_4412" data-name="Trazado 4412" d="M48.639,42.694l-17.526,4.78a3.288,3.288,0,0,0-.426-.526L24.7,40.96a.856.856,0,0,0-.6-.25H14.686v-.855A.855.855,0,0,0,13.83,39H1.855A.855.855,0,0,0,1,39.855V58.673a.855.855,0,0,0,.855.855H8.7a.855.855,0,0,0,.855-.855v-.855H13.83a.855.855,0,0,0,.855-.855v-.855h5.849l5,1.666a.844.844,0,0,0,.548,0l27.372-9.409a.854.854,0,0,0,.577-.808V46.7a4.156,4.156,0,0,0-5.394-4ZM7.843,57.818H2.711V40.711H7.843V57.818Zm5.132-1.711H9.554v-15.4h3.421Zm39.347-9.164L25.8,56.059,20.944,54.44a.881.881,0,0,0-.27-.044H14.686V42.421h9.055l5.737,5.737a1.564,1.564,0,1,1-2.212,2.212l-4.277-4.277L21.779,47.3l4.277,4.277a3.263,3.263,0,0,0,5.574-2.473l17.459-4.762A2.448,2.448,0,0,1,52.322,46.7Z" transform="translate(-1 -6.496)"/>
      <path id="Trazado_4413" data-name="Trazado 4413" d="M40.81,2.3q-.831-.255-1.684-.459l-.4,1.664q.8.19,1.576.431Z" transform="translate(-6.457 -1.121)"/>
      <path id="Trazado_4414" data-name="Trazado 4414" d="M61,31.912c0,.385-.009.769-.027,1.15l1.709.079q.028-.611.028-1.228,0-.259-.005-.517l-1.711.033c0,.162.005.323.005.484Z" transform="translate(-9.674 -5.396)"/>
      <path id="Trazado_4415" data-name="Trazado 4415" d="M36.871,1.394c-.564-.095-1.145-.174-1.73-.234l-.174,1.7q.817.082,1.618.219Z" transform="translate(-5.913 -1.023)"/>
      <path id="Trazado_4416" data-name="Trazado 4416" d="M60.258,25.4l1.671-.368c-.125-.568-.269-1.137-.43-1.692l-1.643.476Q60.081,24.6,60.258,25.4Z" transform="translate(-9.513 -4.232)"/>
      <path id="Trazado_4417" data-name="Trazado 4417" d="M44.6,3.724c-.53-.245-1.073-.473-1.612-.679l-.612,1.6q.766.294,1.506.636Z" transform="translate(-6.985 -1.296)"/>
      <path id="Trazado_4418" data-name="Trazado 4418" d="M60.864,29.208l1.7-.145q-.074-.875-.2-1.733l-1.692.256Q60.8,28.389,60.864,29.208Z" transform="translate(-9.631 -4.808)"/>
      <path id="Trazado_4419" data-name="Trazado 4419" d="M55.574,14.94l1.4-.984q-.5-.715-1.05-1.394L54.59,13.635q.513.636.984,1.305Z" transform="translate(-8.751 -2.672)"/>
      <path id="Trazado_4420" data-name="Trazado 4420" d="M59.159,21.714l1.608-.585c-.2-.547-.418-1.091-.65-1.618l-1.565.69q.327.744.607,1.513Z" transform="translate(-9.324 -3.677)"/>
      <path id="Trazado_4421" data-name="Trazado 4421" d="M54.41,10.8c-.389-.423-.8-.843-1.224-1.245L52.006,10.8q.59.563,1.144,1.165Z" transform="translate(-8.377 -2.238)"/>
      <path id="Trazado_4422" data-name="Trazado 4422" d="M48.173,5.643c-.488-.309-.995-.607-1.507-.886l-.817,1.5q.719.391,1.408.828Z" transform="translate(-7.487 -1.543)"/>
      <path id="Trazado_4423" data-name="Trazado 4423" d="M59.627,40.579l1.629.521c.178-.556.338-1.122.476-1.682l-1.66-.411q-.2.8-.446,1.571Z" transform="translate(-9.48 -6.497)"/>
      <path id="Trazado_4424" data-name="Trazado 4424" d="M62.481,35.439l-1.7-.189q-.091.816-.234,1.616l1.684.3c.1-.57.186-1.151.251-1.73Z" transform="translate(-9.612 -5.954)"/>
      <path id="Trazado_4425" data-name="Trazado 4425" d="M51.461,8.017c-.446-.372-.91-.735-1.376-1.075L49.076,8.323q.661.482,1.287,1.007Z" transform="translate(-7.954 -1.859)"/>
      <path id="Trazado_4426" data-name="Trazado 4426" d="M57.588,18.209l1.517-.792c-.268-.512-.556-1.023-.858-1.518l-1.461.889Q57.211,17.483,57.588,18.209Z" transform="translate(-9.069 -3.155)"/>
      <path id="Trazado_4427" data-name="Trazado 4427" d="M3.854,23.612l-1.64-.489c-.166.559-.316,1.127-.443,1.69l1.668.379Q3.621,24.392,3.854,23.612Z" transform="translate(-1.112 -4.2)"/>
      <path id="Trazado_4428" data-name="Trazado 4428" d="M5.162,20,3.6,19.3c-.237.525-.46,1.07-.664,1.617l1.6.6q.285-.769.62-1.512Z" transform="translate(-1.28 -3.646)"/>
      <path id="Trazado_4429" data-name="Trazado 4429" d="M6.94,16.591l-1.453-.9c-.305.493-.6,1-.872,1.515l1.51.8Q6.51,17.286,6.94,16.591Z" transform="translate(-1.523 -3.124)"/>
      <path id="Trazado_4430" data-name="Trazado 4430" d="M9.151,13.453,7.827,12.37q-.553.675-1.062,1.386l1.391,1Q8.633,14.087,9.151,13.453Z" transform="translate(-1.834 -2.644)"/>
      <path id="Trazado_4431" data-name="Trazado 4431" d="M2.73,32.846c-.013-.321-.019-.644-.019-.967,0-.224,0-.446.009-.667l-1.71-.047C1,31.4,1,31.641,1,31.88q0,.517.02,1.031Z" transform="translate(-1 -5.363)"/>
      <path id="Trazado_4432" data-name="Trazado 4432" d="M3.038,27.372,1.347,27.1c-.091.573-.163,1.156-.216,1.731l1.7.157Q2.91,28.174,3.038,27.372Z" transform="translate(-1.019 -4.776)"/>
      <path id="Trazado_4433" data-name="Trazado 4433" d="M1.167,35.213q.091.875.238,1.73l1.687-.289q-.137-.8-.222-1.618Z" transform="translate(-1.024 -5.923)"/>
      <path id="Trazado_4434" data-name="Trazado 4434" d="M14.708,8.186l-1-1.388Q13,7.307,12.326,7.861l1.087,1.322Q14.043,8.664,14.708,8.186Z" transform="translate(-2.638 -1.838)"/>
      <path id="Trazado_4435" data-name="Trazado 4435" d="M21.448,4.566l-.6-1.6c-.545.2-1.087.429-1.612.665l.7,1.558q.742-.335,1.507-.622Z" transform="translate(-3.638 -1.284)"/>
      <path id="Trazado_4436" data-name="Trazado 4436" d="M25.125,3.454l-.381-1.667c-.565.129-1.133.28-1.689.447l.494,1.637C24.067,3.716,24.6,3.576,25.125,3.454Z" transform="translate(-4.19 -1.114)"/>
      <path id="Trazado_4437" data-name="Trazado 4437" d="M28.923,2.842l-.159-1.7c-.573.053-1.156.127-1.733.222L27.3,3.049C27.838,2.962,28.378,2.891,28.923,2.842Z" transform="translate(-4.765 -1.02)"/>
      <path id="Trazado_4438" data-name="Trazado 4438" d="M17.957,6.152l-.806-1.509c-.513.274-1.021.567-1.511.873l.906,1.452Q17.235,6.537,17.957,6.152Z" transform="translate(-3.117 -1.527)"/>
      <path id="Trazado_4439" data-name="Trazado 4439" d="M31.795,2.711c.325,0,.657.005.983.016l.059-1.709C32.516,1.006,32.193,1,31.871,1c-.262,0-.521,0-.78.01l.052,1.711C31.359,2.714,31.575,2.711,31.795,2.711Z" transform="translate(-5.352 -1)"/>
      <path id="Trazado_4440" data-name="Trazado 4440" d="M11.755,10.639l-1.168-1.25c-.418.391-.833.807-1.234,1.236L10.6,11.793c.374-.4.762-.79,1.152-1.154Z" transform="translate(-2.208 -2.213)"/>
    </g>
  </g>
</svg>
