<svg xmlns="http://www.w3.org/2000/svg" width="55.735" height="55.736" viewBox="0 0 55.735 55.736">
  <g id="estadisticas" transform="translate(-2 -2)">
    <path id="Trazado_4923" data-name="Trazado 4923" d="M11.044,21.282A21.349,21.349,0,0,1,30.365,9.02V30.385L9.743,35.94H9.734a21.332,21.332,0,0,1,1.31-14.658Z" transform="translate(-0.498 -0.499)" fill="#f6db40"/>
    <path id="Trazado_4924" data-name="Trazado 4924" d="M17.817,49.25A21.289,21.289,0,0,1,9.8,37.555L30.422,32V53.365A21.278,21.278,0,0,1,17.817,49.25Z" transform="translate(-0.554 -2.132)" fill="#db535b"/>
    <path id="Trazado_4925" data-name="Trazado 4925" d="M44.057,49.631A21.184,21.184,0,0,1,32,53.365V32H53.365A21.331,21.331,0,0,1,44.057,49.631Z" transform="translate(-2.132 -2.132)" fill="#71d2df"/>
    <path id="Trazado_4926" data-name="Trazado 4926" d="M56,11h3.716V30.507H56Z" transform="translate(-3.838 -0.64)" fill="#6599ed"/>
    <path id="Trazado_4927" data-name="Trazado 4927" d="M52,20h3.716V31.147H52Z" transform="translate(-3.554 -1.279)" fill="#6599ed"/>
    <path id="Trazado_4928" data-name="Trazado 4928" d="M48,15h3.716V30.792H48Z" transform="translate(-3.27 -0.924)" fill="#6599ed"/>
    <path id="Trazado_4929" data-name="Trazado 4929" d="M44,10h3.716V30.436H44Z" transform="translate(-2.985 -0.569)" fill="#6599ed"/>
    <path id="Trazado_4930" data-name="Trazado 4930" d="M40,16h3.716V30.863H40Z" transform="translate(-2.701 -0.995)" fill="#6599ed"/>
    <path id="Trazado_4931" data-name="Trazado 4931" d="M32,23h3.716v8.36H32Z" transform="translate(-2.132 -1.493)" fill="#6599ed"/>
    <path id="Trazado_4932" data-name="Trazado 4932" d="M36,20h3.716V31.147H36Z" transform="translate(-2.417 -1.279)" fill="#6599ed"/>
    <g id="Grupo_1608" data-name="Grupo 1608" transform="translate(2 2)">
      <path id="Trazado_4933" data-name="Trazado 4933" d="M57.091,10.787a.928.928,0,0,0-.929-.929H52.446a.928.928,0,0,0-.929.929v7.431H49.659V14.5a.928.928,0,0,0-.929-.929H45.944V9.858a.928.928,0,0,0-.929-.929H41.3a.928.928,0,0,0-.929.929V14.5H37.583a.928.928,0,0,0-.929.929v2.787H33.868a.928.928,0,0,0-.929.929V21H31.081V8.929A.928.928,0,0,0,30.152,8,22.313,22.313,0,0,0,10.581,19.627L7.858,16.9V13.574H6v3.716a.925.925,0,0,0,.272.657l3.446,3.446a22.247,22.247,0,0,0,6.433,26.234L14.9,48.873H13.431V50.73h1.858a.925.925,0,0,0,.657-.272l1.711-1.711a22.229,22.229,0,0,0,24.426.365l1.346,1.346a.926.926,0,0,0,.657.272h2.787V48.873h-2.4l-.838-.838a22.269,22.269,0,0,0,8.79-16.812h5.6V29.365h-.929Zm-5.574,9.289v9.289H49.659V20.076ZM47.8,15.431V29.365H45.944V15.431Zm-5.574-4.645h1.858V29.365H42.228ZM38.512,16.36H40.37v13H38.512v-13ZM34.8,20.076h1.858v9.289H34.8Zm-1.858,2.787v6.5H31.081v-6.5Zm-21.794-.045,4.417,4.417,1.313-1.313-4.914-4.914A20.462,20.462,0,0,1,29.223,9.878v19.7L10.2,34.7a20.284,20.284,0,0,1,.944-11.886Zm9.991,19.824L17.473,46.3a20.5,20.5,0,0,1-6.791-9.8l18.541-4.993v19.2A20.3,20.3,0,0,1,19,47.406l3.45-3.45ZM42.295,46.7l-5.913-5.913L35.069,42.1l5.655,5.655a20.266,20.266,0,0,1-9.643,2.931V31.223H50.568A20.412,20.412,0,0,1,42.295,46.7ZM55.233,29.365H53.375V11.716h1.858Z" transform="translate(-2.284 -2.426)" fill="#1a1a1a"/>
      <path id="Trazado_4934" data-name="Trazado 4934" d="M52,52h9.289v1.858H52Z" transform="translate(-5.554 -5.554)" fill="#1a1a1a"/>
      <path id="Trazado_4935" data-name="Trazado 4935" d="M52,56h9.289v1.858H52Z" transform="translate(-5.554 -5.838)" fill="#1a1a1a"/>
      <path id="Trazado_4936" data-name="Trazado 4936" d="M52,60h9.289v1.858H52Z" transform="translate(-5.554 -6.122)" fill="#1a1a1a"/>
      <path id="Trazado_4937" data-name="Trazado 4937" d="M2,52h9.289v1.858H2Z" transform="translate(-2 -5.554)" fill="#1a1a1a"/>
      <path id="Trazado_4938" data-name="Trazado 4938" d="M2,56h9.289v1.858H2Z" transform="translate(-2 -5.838)" fill="#1a1a1a"/>
      <path id="Trazado_4939" data-name="Trazado 4939" d="M2,60h9.289v1.858H2Z" transform="translate(-2 -6.122)" fill="#1a1a1a"/>
      <path id="Trazado_4940" data-name="Trazado 4940" d="M2,2H13.147V3.858H2Z" transform="translate(-2 -2)" fill="#1a1a1a"/>
      <path id="Trazado_4941" data-name="Trazado 4941" d="M2,6H13.147V7.858H2Z" transform="translate(-2 -2.284)" fill="#1a1a1a"/>
      <path id="Trazado_4942" data-name="Trazado 4942" d="M2,10H13.147v1.858H2Z" transform="translate(-2 -2.568)" fill="#1a1a1a"/>
      <path id="Trazado_4943" data-name="Trazado 4943" d="M45.3,4.186l4.921,4.1a.927.927,0,0,0,1.046.1l8.36-4.645-.9-1.624-7.8,4.335L45.834,2.215a.93.93,0,0,0-1.252.058l-9.289,9.289,1.313,1.313Z" transform="translate(-4.366 -2)" fill="#1a1a1a"/>
    </g>
  </g>
</svg>
