<svg xmlns="http://www.w3.org/2000/svg" width="167.953" height="41.729" viewBox="0 0 167.953 41.729">
  <g id="Grupo_918" data-name="Grupo 918" transform="translate(-99.044 -3135.386)">
    <text id="GOV.CO" transform="translate(159.997 3167.868)" fill="#fff" font-size="28.251" font-family="Montserrat-Regular, Montserrat"><tspan x="0" y="0" letter-spacing="-0.026em">G</tspan><tspan y="0" letter-spacing="-0.039em">O</tspan><tspan y="0" letter-spacing="-0.085em">V</tspan><tspan y="0" letter-spacing="-0.027em">.</tspan><tspan y="0" letter-spacing="-0.042em">C</tspan><tspan y="0">O</tspan></text>
    <path id="Trazado_2117" data-name="Trazado 2117" d="M117.686,3169.033l.314,4.758Zm.314,4.759-.314-4.759Zm-1.623,0,0,.013h0v0l0-.021Zm4.93-30.175.16.086-.014-.076,0,0a.323.323,0,0,0-.143-.006m-6.948,2.38c-.006,0-.015,0-.015.009a1.817,1.817,0,0,0,.08.779c-.031-.04-.065-.078-.1-.114a.01.01,0,0,0-.016,0,1.228,1.228,0,0,0-.153.537,1.874,1.874,0,0,0,.071.671,1.755,1.755,0,0,0,.063.167l-.109-.048a5.61,5.61,0,0,0-2.538-.215c-2.426.648-3.882.99-4.6.374a.652.652,0,0,0,.091.066,2.311,2.311,0,0,0,1.184.248,5.12,5.12,0,0,0,.668-.936c.02-.106.044-.213.066-.322a.755.755,0,0,1-.053.288,1.1,1.1,0,0,0-.024-.97,2.974,2.974,0,0,0-.564-.721,1.347,1.347,0,0,0-1.536-.352,1.4,1.4,0,0,1-1.838-.465l.065-.035.085-.041.1-.087.17-.007h.117l.115-.028.134-.116.1-.087.073-.034.125-.06.068-.057.059-.076h.217l.117.01h.1l.1-.01.084-.058.1-.019.078-.019.123.029.1-.069.077-.1.106-.106.075-.007.115-.069.057-.057.1-.037h.247l.142-.059.126-.095.1-.1.092-.1.07-.047.057-.012.125-.065.074-.086.069-.067.057-.037.048.018.076.037.077-.018.057-.029v.1l.074.02.116-.008.095-.042.02.109v.218l.019.287.084.084.259.115.154-.049.112-.044.106-.049.113-.02.164-.028.047-.058.1-.048.046-.077.067-.037.126.085.1-.057.058-.066.056-.028.048-.049.125.086.078.066h.093s-.019-.037.047-.037h.153l.115-.009s.165-.04.181.019.078.171.078.171l.056.123.068.126.045.133.115.1.115.076.124.125.125.041.1.084.134.075.094.041.134.007.087-.038.006-.132.025-.033.037.034.025.013a.784.784,0,0,0,.156.494.488.488,0,0,0,.177.126.011.011,0,0,0,.013,0,2.493,2.493,0,0,0,.208-.515l.053-.04.032-.11.015.036a1.693,1.693,0,0,0,.01.415H114a1.176,1.176,0,0,0-.245.48,1.831,1.831,0,0,0-.057.652.829.829,0,0,0,.215.516.5.5,0,0,0,.193.106.009.009,0,0,0,.012-.006,2.076,2.076,0,0,0,.167-.918c0-.041-.005-.08-.011-.121a2.581,2.581,0,0,0,.274.364.01.01,0,0,0,.016,0,.294.294,0,0,0,.05-.04v.113a.888.888,0,0,0-.258-.16m.342-4.613,0,0-.011-.009-.013.068Zm.215.169c.044.049.087.1.127.146.056.026.12.053.191.081l0-.069a1.029,1.029,0,0,1-.208-.09.862.862,0,0,1-.107-.068m.439.186a.608.608,0,0,0,.166-.006.394.394,0,0,0,.177-.085.009.009,0,0,0,0-.013,1.882,1.882,0,0,0-.592-.607l-.019-.01.064,0c.58-.024,1,.268,1.191,1.007l-.015-.02a.142.142,0,0,0-.054-.046.119.119,0,0,0-.041-.017l.026-.019a.078.078,0,0,0,.019-.064.141.141,0,0,0-.025-.064.193.193,0,0,0-.054-.053.108.108,0,0,0-.108-.019,1.378,1.378,0,0,0-.343.226l-.031-.007a1.54,1.54,0,0,0-.365-.2m1.845.27,0,0-.007.012Zm.1-.222h.007l0-.005Zm.044-.249.036-.015a.132.132,0,0,1,.1-.032,1.521,1.521,0,0,1,.2.061l.019-.074.952.08.206.078.053-.136.1-.07.022-.128v-.116l-.053-.184-.09-.2-.031-.156,0-.036-.06-.107-.043-.053-.017-.058a8.087,8.087,0,0,1-.354-.752l-.021-.285c-.206-.969.319-1.55,1.344-1.865l.393-.07.361.01.418-.017.311.007.493.064.336.061.364.033a19.794,19.794,0,0,1,9.485,6.458l.05.1.049.032.065.016.059.022.078.026.076.044.067.04.067.044.04.028.052.02.062.032.041.023.037.037.057.048.05.049.037.02.037.025.05.025.037.036.062.03.028.04.033.044.025.037.042.05.076.064.05.052.055.061.043.061.02.048.061.024.039.03.08.054.075.051.062.042.075.053.052.06.053.065.054.055.05.064.038.054.049.08.029.04.021.068.011.081.023.078.018.058.038.131.021.057-.136-.016-.1.03-.114.027-.127.009-.15-.007-.1-.006-.009,0-1.619,1.984-.99-.024-.065-.13.012.052.009.037h0a16.1,16.1,0,0,1,.359,3.193l-2.942,1.961a25.2,25.2,0,0,0-.09-3.19c-1.022.76-2.049,1.525-2.556,1.905v.011l.819-.606c.043,0-.045,2.981-.1,3.144l5.51-3.6.274-.834,2.834-1.03-1.99,2.227-.991-.07-.075-.171.022.138-.011.009c.465,6.288.244,12.184-3.184,16.231-2.212,2.613-5.791,3.106-9.585.51a20.129,20.129,0,0,0,.772,1.88,20.555,20.555,0,0,0,1.079,2.021.02.02,0,0,1-.013.029,4.627,4.627,0,0,1-1.184.135l-.318.012c.176.489.337.958.238,1.109l-.013-.042,0,.042c-.157.234-.847.236-1.274.307l.024.218.084.682a.369.369,0,0,0-.024-.122l.018.154c.087.756-2.57.679-2.5,0l.012-.111a.372.372,0,0,0-.012.094l.032-.282.069-.627c-.427-.083-1.135-.075-1.3-.313l0-.042-.014.042c-.1-.151.063-.62.24-1.109l-.318-.012a4.635,4.635,0,0,1-1.185-.135.021.021,0,0,1-.011-.029,20.765,20.765,0,0,0,1.078-2.021c.259-.552.5-1.128.72-1.737-3.712,2.431-7.2,1.912-9.371-.653-3.43-4.047-3.651-9.943-3.185-16.231l-.012-.009.023-.134v0l-.076.169-.99.07-1.988-2.227,2.832,1.03.271.828.01-.042,1.011.712,2.228,1.454h.013l-2.623-1.747a16.277,16.277,0,0,1,.363-3.188l0,0,.013-.045.012-.046-.065.132-.993.024-1.888-2.315,2.785,1.157.223.8,5.18,3.864c.007-.532.025-1.057.045-1.573a4,4,0,0,1-.509-.045,2.214,2.214,0,0,1-1.75-2.346.858.858,0,0,0,.059.083c-.121-.207.056-.389.337-.557a3.9,3.9,0,0,0,.977-.806,4.929,4.929,0,0,0-.548-.052c-.589.13-1.441.784-2.4.508a3.251,3.251,0,0,1-1.523-1.376,4.548,4.548,0,0,0,1.264.193,6.481,6.481,0,0,0-.062-.82l-.037-.017-.105-.039-.125-.007-.141-.023-.087-.039-.025-.039-.022-.04-.018-.042-.026-.044-.027.008-.02.032-.028.053-.011.077-.1.009-.049.031-.074.022-.048.028-.047.034-.042.033-.073.032-.047.03-.1.008-.08.021-.073.01-.074.028-.065.03-.057.021-.081.025-.1.011-.1.015-.067.032-.086.017-.1.01-.106.05-.091.023-.088.034-.062.031-.052.012-.081.016-.082.014-.122.05-.04.02-.055.014s-.05.025-.064.029-.112,0-.112,0l-.1.01-.1.017h-.085l-.1-.012-.081-.045-.065-.054-.028-.03-.043.041-.1.034-.119.034-.069.036-.121.046-.135.036-.115.025-.09.036-.084.025-.118.015-.073.023-.077.043-.055.028-.054.039-.077.024-.1.029-.087.014-.1.006h-.149l-.126-.012-.115-.031-.1-.03-.136.011.019-.055.043-.129.021-.054.023-.083.014-.08.022-.066.028-.039.05-.078.042-.057.053-.063.055-.051.052-.067.055-.058.074-.052.065-.038.078-.05.08-.052.041-.027.062-.026.02-.047.044-.057.055-.06.053-.051.075-.062.046-.05.023-.037.039-.042.026-.039.062-.031.041-.033.047-.026.037-.022.04-.018.05-.046.059-.051.038-.033.04-.026.063-.029.053-.02.042-.025.066-.04.068-.04.078-.043.079-.024.058-.024.066-.009.05-.033.051-.1a19.768,19.768,0,0,1,9.636-6.229l.367-.027.334-.051.5-.053h.31l.417.026h.365l.389.078c1.017.34,1.53.934,1.3,1.9l-.006.061.134.033h.112l.1-.05.066-.044.127-.063.156-.033.123-.017.112.008.081.052.04.072.021.061v.079l-.03.069-.031.066-.007.011c.349.151.695.548.328.865a1.705,1.705,0,0,0-.369.181,1.487,1.487,0,0,1,.372-.176c.4-.041.478.6,1.015.914m4.251,2.1.137,0c.066,0,.046.039.046.039l.1,0,.078-.067.127-.083.046.05.057.033.056.064.1.061.126-.082.067.038.047.078.094.049.044.058.162.033.114.025.1.05.115.047.15.051.261-.107.087-.085.027-.283,0-.223.021-.1.094.04.115.013.075-.019,0-.094.058.03.076.021.077-.038.048-.018.056.041.065.068.075.089.123.07.057.011.063.049.1.109.093.094.121.1.141.06.1,0,.146.006.094.039.056.057.111.071.078.012.1.108.074.107.105.068.125-.024.075.021.094.021.086.059.1.012.106,0,.115-.009.218.005.056.078.066.058.122.061.077.039.091.09.131.118.115.032.115,0,.169.012.1.092.084.038.087.049.065.08.068-.029.106-.034.124-.009.144-.013.088-.038.025-.042.021-.038.022-.043.025-.041.028.007.021.033.025.054.006.077.1.01.05.033.074.027.047.023.047.04.012.01a1.342,1.342,0,0,1-1.694.311,1.342,1.342,0,0,0-1.536.35,2.969,2.969,0,0,0-.563.723,1.1,1.1,0,0,0-.025.969.785.785,0,0,1-.053-.288c.022.108.044.215.067.321a5.257,5.257,0,0,0,.651.924,6.419,6.419,0,0,1-.98-.139l-2.113-.532a5.15,5.15,0,0,0-1.908-.062l.006-.023.018-.051v.006l-.018.048.059-.023.006-.05.007-.071-.013-.047-.026-.05-.065-.038h-.061l-.065.022-.042.037-.027.06v.116l.021.087.082-.029.045-.014-.006-.023.017.043v.009c-.1.017-.212.037-.315.057l-.306.087,0-.007.019-.05v.023h.037l.031-.02v-.063l0-.079-.034-.076-.037-.039-.071-.016-.093.006-.038.028-.019.047-.04.059-.013.084v.092l.007.089.065-.022.038-.012.065-.027.006-.028-.016-.034-.026-.02v-.044h0l.013.03.02.039.024.057,0,0c-.175.058-.348.117-.513.183l.012-.041-.009-.075-.014-.021.014.012.027.035-.018-.079-.038-.068-.06-.047-.1-.01-.034,0-.055.05v.081a.6.6,0,0,1,.018.1.318.318,0,0,0,.009.063l.018.055.075,0,.044-.028-.006-.051.012.023.015.034a5.567,5.567,0,0,0-1.631.98l.027-.028.1-.092.028-.1v-.131l-.047-.208-.013-.2-.078-.178-.022-.121-.014-.1-.03-.068.108.007a1.517,1.517,0,0,0,.152.018.664.664,0,0,0,.112,0h.1l.013,0,.58.5.08-.05.071-.041.1-.057.115-.047.082-.048-.418-.359-.169-.172-.023-.038.021-.07.021-.113.006-.1v-.4l.007-.1-.02-.21-.034-.1-.034-.1-.056-.095-.06-.08-.024-.069.028-.164.019-.194.021-.162.026-.181.061-.188.066-.258.026-.078.03.014.171.016.1-.025.017,0,.065-.02.014-.023.036-.019.057-.059.018.032.088.059.11.074.118-.008.121-.032.1-.059.053-.085.066-.043.1-.064,0,.007.082.121.1.021.112-.01.195-.026.126-.09.131-.092.18-.119.108-.071.123-.125.087-.11.04-.1.065-.129.009-.26-.105-.026-.006-.027Zm7.942,1.706a6.363,6.363,0,0,0-.039.645,4.556,4.556,0,0,0,1.263-.193,3.276,3.276,0,0,1-1.522,1.378c-.963.274-1.814-.38-2.4-.507-.2.01-.384.027-.546.05a3.925,3.925,0,0,0,.975.807c.383.228.571.478.08.8a2.4,2.4,0,0,1-.678.221,1.676,1.676,0,0,0,.923-.329c-.22,1.174-.662,2.094-1.9,2.107l-.176,0c.014.5.02,1.005.02,1.509l5.144-3.834.223-.8,2.228-.924-.02-.01-.051-.032-.075-.045-.074-.026-.118-.017-.087-.027-.087-.036-.113-.03-.137-.038-.116-.05-.068-.036-.118-.035-.1-.041-.042-.045-.03.031-.065.055-.082.042-.106.013-.078,0-.108-.021-.1-.013s-.1,0-.114,0-.065-.03-.065-.03l-.053-.017-.038-.019-.122-.053-.084-.017-.08-.017-.05-.013-.062-.031-.089-.037-.087-.027-.108-.053-.1-.01-.087-.022-.066-.031-.094-.02-.1-.013-.084-.024-.053-.022-.065-.032-.073-.029-.074-.014-.079-.022Zm-8.866,4.387,0-.006v-.035l.016-.04.019-.034-.019.025-.016.042v.007Zm.056-.163.006-.01v-.042a6.978,6.978,0,0,0-1.484.336q-.374.141-.735.314a5.92,5.92,0,0,0,5.364-.169c-.187-.06-.371-.13-.555-.205a6.089,6.089,0,0,0-2.543-.282l0,0,0,.021.055.052.026.054v.064l-.041.087-.078.031h-.071l-.064-.036-.028-.076-.028-.038v-.115l.045-.011h.027l.065-.007h.033Zm.064-.013.007.032.016.054v-.028l-.016-.039Zm.24-1.842v.009l.012.017,0-.007Zm-.558.107v0l0,0Zm-9.8,2.07a6.427,6.427,0,0,0,2.605.758,1.036,1.036,0,0,1,.121-.18.44.44,0,0,0,.1-.119c.03-.051.1-.229.1-.229l.065-.156.075-.172.109-.2.016-.088a6.64,6.64,0,0,0-3.188.39m7.36-.57-.067.045-.087.109-.087.091-.017.032a3.167,3.167,0,0,1,.258-.277m3.455,16.4c-.106.131-.215.254-.327.378l.33-.278c.06.1.122.193.185.285a1.8,1.8,0,0,1-.188-.385m-8.328.2-.129-.153a1.81,1.81,0,0,1-.174.346c.065-.1.125-.191.188-.29Zm-4.124-13.73v-.011c-.493-.367-1.543-1.151-2.592-1.928a24.832,24.832,0,0,0-.09,3.19l-.159-.1h0v-.006l-.074-.05h-.006v0l-.05-.031v.008l2.226,1.45c-.059-.163-.151-3.144-.1-3.144Zm19.7,1.222c-.7.459-1.416.923-2.018,1.323-.1,4.228-.987,8.362-4.23,12.223a3.924,3.924,0,0,1-.64-.611,4.627,4.627,0,0,0,2.149,1.622l.028-.034-.028-.014a15.836,15.836,0,0,0,1.27-1.6l.013.024c2.971-4.19,3.582-8.67,3.456-12.937m-22.927,0c-.124,4.267.481,8.747,3.458,12.937l.012-.024a15.438,15.438,0,0,0,1.269,1.6l-.029.014.029.034a4.639,4.639,0,0,0,2.148-1.622,3.8,3.8,0,0,1-.639.611c-3.241-3.861-4.127-8-4.23-12.223-.6-.4-1.317-.864-2.018-1.323m12.261,20.284,0,0v0Zm-1.71.041v0Zm-.084-.059,0,0Z" fill="#fff" fill-rule="evenodd"/>
    <path id="Trazado_2118" data-name="Trazado 2118" d="M145.164,3151.972l5.136-.051v-16.535h-5.136Z" fill="#ffd000" fill-rule="evenodd"/>
    <path id="Trazado_2119" data-name="Trazado 2119" d="M145.164,3164.675l5.136-.055v-12.7l-5.136.052Z" fill="#0054a2" fill-rule="evenodd"/>
    <path id="Trazado_2120" data-name="Trazado 2120" d="M150.3,3164.62l-5.136.055v12.439H150.3Z" fill="#f2193d" fill-rule="evenodd"/>
  </g>
</svg>
