<svg id="Grupo_518" data-name="Grupo 518" xmlns="http://www.w3.org/2000/svg" width="52.322" height="49.537" viewBox="0 0 52.322 49.537">
  <path id="Trazado_1304" data-name="Trazado 1304" d="M420.946,3398.656h3.094v18.582h-3.094Z" transform="translate(-414.761 -3397.858)" fill="#9edfe0"/>
  <path id="Trazado_1305" data-name="Trazado 1305" d="M417.951,3398.656h3.092v18.582h-3.092Z" transform="translate(-414.857 -3397.858)" fill="#23a8cc"/>
  <path id="Trazado_1306" data-name="Trazado 1306" d="M423.943,3424.2v-25.542h15.465l7.732,7.732V3424.2Z" transform="translate(-414.664 -3397.858)" fill="#fff"/>
  <path id="Trazado_1307" data-name="Trazado 1307" d="M438.925,3398.68v7.733h7.732Z" transform="translate(-414.181 -3397.858)" fill="#cd3934"/>
  <path id="Trazado_1308" data-name="Trazado 1308" d="M455.138,3421.37h-21.65l-3.092-6.96H415.7v31.7h39.434Z" transform="translate(-414.93 -3397.35)" fill="#edcd1f"/>
  <g id="Grupo_514" data-name="Grupo 514" transform="translate(0.774 17.06)" opacity="0.2">
    <path id="Trazado_1309" data-name="Trazado 1309" d="M455.138,3421.37h-21.65l-3.092-6.96H415.7v9.511c5.228-.525,12.5-.264,18.557,3.634,5.934,3.814,14.417,2.053,20.877-.317Z" transform="translate(-415.704 -3414.41)" fill="#fff"/>
  </g>
  <circle id="Elipse_3" data-name="Elipse 3" cx="8.566" cy="8.566" r="8.566" transform="translate(28.095 37.165) rotate(-45)" fill="#090"/>
  <g id="Grupo_515" data-name="Grupo 515" transform="translate(31.641 28.594)" opacity="0.2">
    <path id="Trazado_1310" data-name="Trazado 1310" d="M462.4,3431.8a8.562,8.562,0,0,0-16.631,4.021c3.875-1.771,10.339-4.17,16.631-4.021Z" transform="translate(-445.606 -3425.583)" fill="#fff"/>
  </g>
  <g id="Grupo_517" data-name="Grupo 517">
    <g id="Grupo_516" data-name="Grupo 516">
      <path id="Trazado_1311" data-name="Trazado 1311" d="M457.917,3433.258h-3.094v-3.094a.773.773,0,0,0-1.546,0v3.094h-3.093a.773.773,0,1,0,0,1.546h3.093v3.093a.773.773,0,1,0,1.546,0V3434.8h3.094a.773.773,0,0,0,0-1.546Z" transform="translate(-413.842 -3396.867)" fill="#2d2d2d"/>
      <path id="Trazado_1312" data-name="Trazado 1312" d="M431.459,3405.423a.773.773,0,1,0,0,1.546h.772a.773.773,0,1,0,0-1.546Z" transform="translate(-414.446 -3397.641)" fill="#2d2d2d"/>
      <path id="Trazado_1313" data-name="Trazado 1313" d="M435.227,3405.423h-.772a.773.773,0,1,0,0,1.546h.772a.773.773,0,1,0,0-1.546Z" transform="translate(-414.35 -3397.641)" fill="#2d2d2d"/>
      <path id="Trazado_1314" data-name="Trazado 1314" d="M429.235,3406.969a.773.773,0,1,0,0-1.546h-.773a.773.773,0,1,0,0,1.546Z" transform="translate(-414.543 -3397.641)" fill="#2d2d2d"/>
      <path id="Trazado_1315" data-name="Trazado 1315" d="M428.462,3403.973h6.959a.773.773,0,1,0,0-1.546h-6.959a.773.773,0,1,0,0,1.546Z" transform="translate(-414.543 -3397.737)" fill="#2d2d2d"/>
      <path id="Trazado_1316" data-name="Trazado 1316" d="M428.438,3411.439a.772.772,0,0,0,.773.773h12.371a.774.774,0,1,0,0-1.547H429.211A.773.773,0,0,0,428.438,3411.439Z" transform="translate(-414.519 -3397.47)" fill="#2d2d2d"/>
      <path id="Trazado_1317" data-name="Trazado 1317" d="M441.364,3413.661h-5.411a.773.773,0,1,0,0,1.546h5.411a.773.773,0,1,0,0-1.546Z" transform="translate(-414.301 -3397.374)" fill="#2d2d2d"/>
      <path id="Trazado_1318" data-name="Trazado 1318" d="M441.34,3416.656H436.7a.774.774,0,0,0,0,1.548h4.639a.774.774,0,1,0,0-1.548Z" transform="translate(-414.277 -3397.277)" fill="#2d2d2d"/>
      <path id="Trazado_1319" data-name="Trazado 1319" d="M422.493,3442.922a.773.773,0,1,0,0-1.546h-.773a.773.773,0,1,0,0,1.546Z" transform="translate(-414.761 -3396.48)" fill="#2d2d2d"/>
      <path id="Trazado_1320" data-name="Trazado 1320" d="M425.489,3442.922a.773.773,0,1,0,0-1.546h-.773a.773.773,0,1,0,0,1.546Z" transform="translate(-414.664 -3396.48)" fill="#2d2d2d"/>
      <path id="Trazado_1321" data-name="Trazado 1321" d="M419.5,3442.922a.773.773,0,1,0,0-1.546h-.772a.773.773,0,1,0,0,1.546Z" transform="translate(-414.857 -3396.48)" fill="#2d2d2d"/>
      <path id="Trazado_1322" data-name="Trazado 1322" d="M415.728,3430.212a.772.772,0,0,0,.772-.772v-.774a.773.773,0,0,0-1.546,0v.774A.773.773,0,0,0,415.728,3430.212Z" transform="translate(-414.954 -3396.915)" fill="#2d2d2d"/>
      <path id="Trazado_1323" data-name="Trazado 1323" d="M417.975,3400.251a.774.774,0,0,0,.773-.773v-.773a.773.773,0,0,0-1.546,0v.773A.773.773,0,0,0,417.975,3400.251Z" transform="translate(-414.882 -3397.883)" fill="#2d2d2d"/>
      <path id="Trazado_1324" data-name="Trazado 1324" d="M455.935,3425.748V3421.9a.772.772,0,0,0-.773-.773h-6.934v-14.716a.8.8,0,0,0-.231-.564l-7.733-7.733a.808.808,0,0,0-.566-.233H424.233a.8.8,0,0,0-.8.8v15.488h-1.523v-15.464a.773.773,0,1,0-1.546,0v15.464h-1.546v-11.6a.773.773,0,1,0-1.546,0v11.6h-1.546a.774.774,0,0,0-.774.773v11.6a.773.773,0,0,0,1.546,0v-10.826h13.417l2.887,6.5a.774.774,0,0,0,.707.459h20.877v3.071a9.331,9.331,0,0,0,0,18.6v1.524H416.5V3433.5a.773.773,0,1,0-1.546,0v13.146a.774.774,0,0,0,.774.773h39.434a.773.773,0,0,0,.773-.773v-2.3a9.332,9.332,0,0,0,0-18.6Zm-15.464-25.164,5.083,5.082h-5.083Zm6.162,20.546H434.014l-2.888-6.5a.774.774,0,0,0-.705-.459h-5.389v-14.691h13.893v6.96a.775.775,0,0,0,.774.773h6.934Zm8.53,21.71a7.792,7.792,0,1,1,7.793-7.793h0A7.8,7.8,0,0,1,455.162,3442.841Z" transform="translate(-414.954 -3397.883)" fill="#2d2d2d"/>
    </g>
  </g>
</svg>
