<svg id="Grupo_507" data-name="Grupo 507" xmlns="http://www.w3.org/2000/svg" width="49.55" height="55.812" viewBox="0 0 49.55 55.812">
  <g id="Grupo_502" data-name="Grupo 502" transform="translate(0.819 0.818)">
    <g id="Grupo_501" data-name="Grupo 501">
      <g id="Grupo_500" data-name="Grupo 500">
        <g id="Grupo_489" data-name="Grupo 489">
          <g id="Grupo_488" data-name="Grupo 488">
            <g id="Grupo_487" data-name="Grupo 487">
              <g id="Grupo_486" data-name="Grupo 486">
                <g id="Grupo_485" data-name="Grupo 485">
                  <g id="Grupo_484" data-name="Grupo 484">
                    <g id="Grupo_483" data-name="Grupo 483">
                      <g id="Grupo_482" data-name="Grupo 482">
                        <g id="Grupo_481" data-name="Grupo 481">
                          <g id="Grupo_480" data-name="Grupo 480">
                            <path id="Trazado_1255" data-name="Trazado 1255" d="M719.735,3224.908a3.368,3.368,0,0,0-3.367,3.368v43.38a3.368,3.368,0,0,0,3.367,3.367H751.4a3.367,3.367,0,0,0,3.366-3.367v-36.364a2.552,2.552,0,0,0-.747-1.8l-7.833-7.834a2.552,2.552,0,0,0-1.8-.748Z" transform="translate(-716.368 -3224.908)" fill="#f4f8f8"/>
                            <path id="Trazado_1256" data-name="Trazado 1256" d="M747.921,3233.946a3.437,3.437,0,0,1-.738-.081v37.5a3.369,3.369,0,0,1-3.369,3.368h6.7a3.367,3.367,0,0,0,3.366-3.368V3235a2.565,2.565,0,0,0-.229-1.058Z" transform="translate(-715.482 -3224.619)" fill="#e7ecf1"/>
                            <path id="Trazado_1257" data-name="Trazado 1257" d="M753.109,3233.482l-7.833-7.834a2.545,2.545,0,0,0-.748-.518v5.729a3.368,3.368,0,0,0,3.369,3.369h5.73A2.518,2.518,0,0,0,753.109,3233.482Z" transform="translate(-715.459 -3224.901)" fill="#cd3934"/>
                          </g>
                        </g>
                      </g>
                    </g>
                  </g>
                </g>
              </g>
            </g>
          </g>
        </g>
        <g id="Grupo_499" data-name="Grupo 499" transform="translate(6.385 27.573)">
          <g id="Grupo_497" data-name="Grupo 497" transform="translate(1.869 2.192)">
            <g id="Grupo_496" data-name="Grupo 496">
              <g id="Grupo_491" data-name="Grupo 491">
                <g id="Grupo_490" data-name="Grupo 490">
                  <path id="Trazado_1258" data-name="Trazado 1258" d="M757.2,3267.78l-12.028-7.124a1.3,1.3,0,0,1-.456-1.778s.3-.5.615-1.04l-2.434-1.44c-1.6-.92-2.355-1.091-3.8-.531l-1.578.61a3.359,3.359,0,0,1-2.923-.243l-4.226-2.492-6,10.128,5.41,3.193a3.375,3.375,0,0,1,.947.84l1.823,2.364a21.07,21.07,0,0,0,4.417,3.5l6.958,4.122a1.933,1.933,0,1,0,1.97-3.326l2.175,1.288a1.933,1.933,0,1,0,1.97-3.326l1.45.858a1.933,1.933,0,0,0,1.97-3.326l1.775,1.051a1.932,1.932,0,0,0,1.97-3.325Z" transform="translate(-724.364 -3253.742)" fill="#ffece3"/>
                </g>
                <path id="Trazado_1259" data-name="Trazado 1259" d="M756.753,3267.417l-4.146-2.455a2.239,2.239,0,0,1-.554,1,2.3,2.3,0,0,1-2.826.347l-1.18-.7a.1.1,0,0,0-.129.018.1.1,0,0,0-.007.132,2.252,2.252,0,0,1-2.988,3.232l-.928-.555a.09.09,0,0,0-.117.131,2.242,2.242,0,0,1,.123,2.541,2.286,2.286,0,0,1-3.11.724l-.763-.451a.445.445,0,0,0-.663.47,2.246,2.246,0,0,1-1.318,2.515l5.286,3.132a1.974,1.974,0,0,0,2.71-.685,1.932,1.932,0,0,0-.7-2.615l2.131,1.263a1.974,1.974,0,0,0,2.71-.683,1.934,1.934,0,0,0-.7-2.617l1.406.833a1.975,1.975,0,0,0,2.71-.685,1.934,1.934,0,0,0-.7-2.616l1.73,1.024a1.973,1.973,0,0,0,2.71-.683,1.933,1.933,0,0,0-.7-2.615Z" transform="translate(-723.919 -3253.38)" fill="#ffddce"/>
              </g>
              <g id="Grupo_492" data-name="Grupo 492" transform="translate(17.208 0.606)">
                <path id="Trazado_1260" data-name="Trazado 1260" d="M755.617,3254.33l-3.243,1.886a3.366,3.366,0,0,1-2.925.242l-1.781-.7a2.857,2.857,0,0,0-1.747-.111l-2.728.69a2.863,2.863,0,0,0-2.157,2.773v3.641a.933.933,0,0,0,.931.935,2.808,2.808,0,0,0,2.811-2.809v-.155l11.676,6.914a3.346,3.346,0,0,1,.736-.591l4.43-2.588Z" transform="translate(-741.034 -3254.33)" fill="#fcd0a3"/>
              </g>
              <g id="Grupo_493" data-name="Grupo 493" transform="translate(25.908 3.527)">
                <path id="Trazado_1261" data-name="Trazado 1261" d="M757.077,3257.159l-.625,2.313-6.99,4.1,6.718,3.977a3.347,3.347,0,0,1,.736-.592l4.429-2.588Z" transform="translate(-749.462 -3257.159)" fill="#ffb983"/>
              </g>
              <g id="Grupo_495" data-name="Grupo 495" transform="translate(3.183 12.408)">
                <g id="Grupo_494" data-name="Grupo 494">
                  <path id="Trazado_1262" data-name="Trazado 1262" d="M732.045,3268.822l-1.094,1.523a1.932,1.932,0,1,1-3.139-2.253l1.094-1.525a1.932,1.932,0,0,1,3.139,2.255Z" transform="translate(-727.448 -3265.763)" fill="#fcd0a3"/>
                  <path id="Trazado_1263" data-name="Trazado 1263" d="M736.293,3269.375l-2.3,3.207a1.932,1.932,0,1,1-3.139-2.253l2.3-3.207a1.933,1.933,0,0,1,3.141,2.254Z" transform="translate(-727.35 -3265.744)" fill="#fcd0a3"/>
                  <path id="Trazado_1264" data-name="Trazado 1264" d="M739.335,3271.558l-2.3,3.207a1.932,1.932,0,1,1-3.139-2.253l2.3-3.207a1.932,1.932,0,0,1,3.139,2.253Z" transform="translate(-727.252 -3265.674)" fill="#fcd0a3"/>
                </g>
                <path id="Trazado_1265" data-name="Trazado 1265" d="M741.335,3275.122l-.764,1.066a1.932,1.932,0,1,1-3.139-2.253l.764-1.066a1.932,1.932,0,1,1,3.139,2.253Z" transform="translate(-727.137 -3265.559)" fill="#ffb983"/>
              </g>
            </g>
          </g>
          <g id="Grupo_498" data-name="Grupo 498">
            <path id="Trazado_1266" data-name="Trazado 1266" d="M732.683,3252.758l-1.691-1a.983.983,0,0,0-1.343.344l-6.958,11.744a.98.98,0,0,0,.346,1.342l1.691,1a2.387,2.387,0,0,0,3.272-.836l5.523-9.319A2.392,2.392,0,0,0,732.683,3252.758Z" transform="translate(-722.554 -3251.619)" fill="#edcd1f"/>
            <path id="Trazado_1267" data-name="Trazado 1267" d="M754.7,3251.755l-1.693,1a2.389,2.389,0,0,0-.837,3.274l5.521,9.319a2.39,2.39,0,0,0,3.274.836l1.691-1a.978.978,0,0,0,.343-1.342L756.04,3252.1A.98.98,0,0,0,754.7,3251.755Z" transform="translate(-721.609 -3251.619)" fill="#090"/>
          </g>
        </g>
      </g>
    </g>
  </g>
  <g id="Grupo_506" data-name="Grupo 506">
    <g id="Grupo_505" data-name="Grupo 505">
      <g id="Grupo_504" data-name="Grupo 504">
        <g id="Grupo_503" data-name="Grupo 503">
          <path id="Trazado_1268" data-name="Trazado 1268" d="M748.774,3238.668H722.048a.821.821,0,1,0,0,1.642h26.727a.821.821,0,0,0,0-1.642Z" transform="translate(-715.393 -3223.646)" fill="#2d2d2d"/>
          <path id="Trazado_1269" data-name="Trazado 1269" d="M722.048,3234.792h13.364a.821.821,0,0,0,0-1.641H722.048a.821.821,0,1,0,0,1.641Z" transform="translate(-715.393 -3223.825)" fill="#2d2d2d"/>
          <path id="Trazado_1270" data-name="Trazado 1270" d="M748.774,3243.556H722.048a.821.821,0,1,0,0,1.642h26.727a.821.821,0,0,0,0-1.642Z" transform="translate(-715.393 -3223.489)" fill="#2d2d2d"/>
          <path id="Trazado_1271" data-name="Trazado 1271" d="M728.317,3274.224h-8.552a2.548,2.548,0,0,1-2.547-2.546v-43.373a2.548,2.548,0,0,1,2.547-2.547h24.641a1.71,1.71,0,0,1,.235.018v5.12a4.192,4.192,0,0,0,4.188,4.188h5.121a1.821,1.821,0,0,1,.018.237V3249.3a.82.82,0,1,0,1.64,0V3235.32a3.345,3.345,0,0,0-.988-2.385l-7.831-7.832a3.351,3.351,0,0,0-2.385-.988H719.765a4.194,4.194,0,0,0-4.19,4.189v43.373a4.194,4.194,0,0,0,4.19,4.188h8.552a.821.821,0,0,0,0-1.642Zm24.491-40.781H748.83a2.55,2.55,0,0,1-2.547-2.546v-3.976Z" transform="translate(-715.575 -3224.116)" fill="#2d2d2d"/>
          <path id="Trazado_1272" data-name="Trazado 1272" d="M764.672,3263.449l-6.955-11.744a1.8,1.8,0,0,0-2.468-.63l-1.692,1a3.214,3.214,0,0,0-1.417,3.749,2.515,2.515,0,0,1-1.771-.02c-1.335-.42-2.352-1.266-4.029-.841-2.849.725-2.761.689-3.019.777-1.668-.949-2.669-1.232-4.44-.547l-1.579.61a2.522,2.522,0,0,1-2.211-.185l-.429-.254a3.209,3.209,0,0,0-1.533-3.289h0l-1.691-1a1.805,1.805,0,0,0-2.468.63l-6.955,11.744a1.8,1.8,0,0,0,.631,2.467l1.692,1a3.213,3.213,0,0,0,3.385-.072l.353.208-.744,1.038a33.233,33.233,0,0,1,6.908,8.348,2.755,2.755,0,0,1,3.653,1.539,2.755,2.755,0,0,0,3.715-.471l1.978,1.172a2.754,2.754,0,0,0,4.139-2.04l.006,0a2.753,2.753,0,0,0,3.77-.966,2.7,2.7,0,0,0,.378-1.2,2.76,2.76,0,0,0,3.042-1.268,2.728,2.728,0,0,0,.371-1.114,2.754,2.754,0,0,0,3.111-4.337l1.09-.636a3.2,3.2,0,0,0,2.857-.2l1.694-1a1.8,1.8,0,0,0,.631-2.467Zm-39.5,2.057-1.691-1a.157.157,0,0,1-.055-.217l6.955-11.743a.16.16,0,0,1,.218-.056l1.692,1a1.569,1.569,0,0,1,.55,2.149l-5.521,9.317a1.571,1.571,0,0,1-2.149.552Zm3.744,5.094a1.112,1.112,0,0,1-.254-1.55l1.1-1.524a1.111,1.111,0,1,1,1.8,1.3l-1.1,1.524A1.112,1.112,0,0,1,728.916,3270.6Zm3.139,2.253a1.112,1.112,0,0,1-.254-1.549l1.1-1.525h0l1.208-1.681a1.1,1.1,0,0,1,.722-.448,1.069,1.069,0,0,1,.184-.016,1.112,1.112,0,0,1,.9,1.76l-2.3,3.207A1.107,1.107,0,0,1,732.055,3272.854Zm3.139,2.253a1.111,1.111,0,0,1-.254-1.549h0l2.3-3.207a1.111,1.111,0,1,1,1.8,1.3l-1.024,1.425h0l-1.279,1.782a1.111,1.111,0,0,1-1.55.254Zm3.653,1.538a1.112,1.112,0,0,1-.256-1.549l.767-1.067a1.111,1.111,0,0,1,1.8,1.3l-.767,1.067A1.11,1.11,0,0,1,738.847,3276.645Zm18.4-6.545a1.112,1.112,0,0,1-1.523.389l-7.268-4.306a.822.822,0,0,0-.837,1.414l5.495,3.254h0a1.112,1.112,0,1,1-1.133,1.913l-5.5-3.256a.821.821,0,1,0-.837,1.412l4.048,2.4h0a1.111,1.111,0,0,1-1.132,1.913l-2.174-1.287h0l-1.585-.939a.821.821,0,1,0-.837,1.412l1.586.94h0a1.112,1.112,0,0,1-1.132,1.913l-1.851-1.1a33.569,33.569,0,0,1-2.823-7.41,2.75,2.75,0,0,1-3.137-2.253,2.752,2.752,0,0,1-4.347-.571,2.76,2.76,0,0,0-3.044-.111l-.375-.221,5.164-8.718.245.146a4.156,4.156,0,0,0,3.638.3l1.578-.611a2.421,2.421,0,0,1,2.295.051,3.67,3.67,0,0,0-.932,2.448v3.641a1.757,1.757,0,0,0,1.753,1.754h0a3.637,3.637,0,0,0,3.437-2.459c1.06.629,9.818,5.815,10.835,6.417a1.111,1.111,0,0,1,.389,1.523Zm5.955-5.6-1.693,1a1.572,1.572,0,0,1-2.148-.551l-2.586-4.368a.821.821,0,0,0-1.414.836l2.589,4.368a2.737,2.737,0,0,0,.156.236l-.721.422a4.228,4.228,0,0,0-.417.283l-11.156-6.6a.82.82,0,0,0-1.238.706A2.115,2.115,0,0,1,744,3262.4a1.983,1.983,0,0,1-1.406.582h0a.111.111,0,0,1-.11-.113v-3.64a2.041,2.041,0,0,1,1.538-1.978l2.728-.69c.988-.25,1.548.278,3.029.779a4.149,4.149,0,0,0,3.14-.051l.5.838a.821.821,0,1,0,1.411-.838l-.975-1.647a1.567,1.567,0,0,1,.55-2.149l1.692-1a.16.16,0,0,1,.218.056l6.955,11.743a.157.157,0,0,1-.055.217Z" transform="translate(-715.375 -3223.255)" fill="#2d2d2d"/>
        </g>
      </g>
    </g>
  </g>
</svg>
