<svg xmlns="http://www.w3.org/2000/svg" width="49.549" height="49.549" viewBox="0 0 49.549 49.549">
  <g id="Grupo_520" data-name="Grupo 520" transform="translate(0)">
    <path id="Trazado_1325" data-name="Trazado 1325" d="M752.447,3403.356a6.394,6.394,0,1,1-3.34,11.844,3.2,3.2,0,0,0-2.109-2.11,6.392,6.392,0,0,1,5.449-9.734Zm3.2,6.394a3.2,3.2,0,1,0-3.2,3.2A3.2,3.2,0,0,0,755.645,3409.75Z" transform="translate(-714.886 -3397.762)" fill="#fcd770"/>
    <path id="Trazado_1326" data-name="Trazado 1326" d="M763.785,3407.5v4.794l-2.046.5a9.749,9.749,0,0,1-.632,1.5l1.1,1.813-3.387,3.389-1.815-1.1a9.375,9.375,0,0,1-1.5.631l-.5,2.047-.639.623a5.562,5.562,0,0,0-4.954-.08v-5.338a3.068,3.068,0,0,0-.145-.943,6.4,6.4,0,1,0-2.109-2.11,3.142,3.142,0,0,0-.944-.144h-4.8V3407.5l2.047-.5a9.715,9.715,0,0,1,.631-1.5l-1.093-1.814,3.388-3.388,1.814,1.1a9.506,9.506,0,0,1,1.5-.631l.5-2.047h4.794l.5,2.047a9.465,9.465,0,0,1,1.5.631l1.815-1.1,3.387,3.388-1.1,1.814a9.659,9.659,0,0,1,.632,1.5Z" transform="translate(-715.036 -3397.913)" fill="#ffc729"/>
    <path id="Trazado_1327" data-name="Trazado 1327" d="M726.7,3437.422h14.97a11.837,11.837,0,0,0-1.352,4.8H726.7Z" transform="translate(-715.51 -3396.664)" fill="#969faa"/>
    <path id="Trazado_1328" data-name="Trazado 1328" d="M746.612,3432.777l-.25.15-2.236,1.767a12.022,12.022,0,0,0-2.134,2.876H719.831a3.194,3.194,0,0,1-3.2-3.2v-1.6h29.976Z" transform="translate(-715.835 -3396.813)" fill="#ccd1d9"/>
    <path id="Trazado_1329" data-name="Trazado 1329" d="M750.2,3415.844v5.338a5.568,5.568,0,0,0-3.2,5.051v-9.589a.8.8,0,0,0-.8-.8H720.63a.8.8,0,0,0-.8.8v16.784h-3.2v-17.583a3.194,3.194,0,0,1,3.2-3.2H747a3.124,3.124,0,0,1,.943.143,3.2,3.2,0,0,1,2.109,2.11A3.061,3.061,0,0,1,750.2,3415.844Z" transform="translate(-715.835 -3397.462)" fill="#e6e9ed"/>
    <path id="Trazado_1330" data-name="Trazado 1330" d="M746.9,3433.328H719.731v-16.785a.8.8,0,0,1,.8-.8H746.1a.8.8,0,0,1,.8.8Z" transform="translate(-715.735 -3397.363)" fill="#69d6f4"/>
    <g id="Grupo_519" data-name="Grupo 519" transform="translate(11.989 21.578)">
      <path id="Trazado_1331" data-name="Trazado 1331" d="M739.86,3418.84h3.2v14.387h-3.2Z" transform="translate(-727.074 -3418.84)" fill="#090"/>
      <path id="Trazado_1332" data-name="Trazado 1332" d="M733.667,3421.937h3.2v11.19h-3.2Z" transform="translate(-727.274 -3418.74)" fill="#090"/>
      <path id="Trazado_1333" data-name="Trazado 1333" d="M727.474,3425.033h3.2v7.994h-3.2Z" transform="translate(-727.474 -3418.64)" fill="#090"/>
      <path id="Trazado_1334" data-name="Trazado 1334" d="M743.856,3445.558h-4v-2.4c0-.272.008-.534.031-.8a11.842,11.842,0,0,1,1.352-4.8,12.025,12.025,0,0,1,2.134-2.876l2.236-1.767.641,3.844,1.6,1.6-.8,1.6,3.2,5.594Z" transform="translate(-727.074 -3418.385)" fill="#b4dd7f"/>
      <path id="Trazado_1335" data-name="Trazado 1335" d="M759.416,3445.558h-6.394l3.2-5.594-.8-1.6,1.6-1.6.637-3.844a11.983,11.983,0,0,1,5.754,10.238v2.4Z" transform="translate(-726.65 -3418.385)" fill="#b4dd7f"/>
    </g>
    <path id="Trazado_1336" data-name="Trazado 1336" d="M755.47,3438.4l.8,1.6-3.2,5.594h-1.6l3.818-13.762a11.762,11.762,0,0,1,2.414,1.127l-.637,3.844Z" transform="translate(-714.711 -3396.844)" fill="#090"/>
    <path id="Trazado_1337" data-name="Trazado 1337" d="M747.847,3431.831l3.821,13.762h-1.6l-3.2-5.594.8-1.6-1.6-1.6-.641-3.844.25-.151c.127-.073.254-.145.391-.217A12.6,12.6,0,0,1,747.847,3431.831Z" transform="translate(-714.906 -3396.844)" fill="#090"/>
    <path id="Trazado_1338" data-name="Trazado 1338" d="M755.412,3431.851l-3.818,13.762-3.822-13.762a12,12,0,0,1,7.64,0Z" transform="translate(-714.83 -3396.862)" fill="#ccd1d9"/>
    <path id="Trazado_1339" data-name="Trazado 1339" d="M754.2,3421.012a5.593,5.593,0,1,1-4.954-.08,5.56,5.56,0,0,1,4.954.08Z" transform="translate(-714.886 -3397.213)" fill="#f0d0b4"/>
    <path id="Trazado_1340" data-name="Trazado 1340" d="M765.409,3412.948V3406.9l-2.234-.55c-.1-.265-.21-.529-.333-.793l1.193-1.971-4.277-4.277-1.968,1.194c-.264-.123-.531-.235-.8-.333l-.548-2.233H750.4l-.548,2.233c-.264.1-.532.21-.8.333l-1.971-1.192-4.276,4.276,1.191,1.971c-.123.265-.235.53-.332.8l-2.232.548v5.421H719.856a4,4,0,0,0-4,4V3435.5a4,4,0,0,0,4,4h6.394v3.2h-3.2a1.6,1.6,0,0,0-1.6,1.6v1.6a1.6,1.6,0,0,0,1.6,1.6h42.357v-3.2a12.8,12.8,0,0,0-9.227-12.273,6.377,6.377,0,0,0,.276-10.41l.084-.079.453-1.848c.266-.1.533-.209.8-.333l1.969,1.193,4.276-4.278-1.193-1.969c.125-.265.237-.531.333-.794Zm-45.553.973h27.172a2.4,2.4,0,0,1,2.4,2.4v4.859a6.464,6.464,0,0,0-1.6,1.315v-5.376a1.6,1.6,0,0,0-1.6-1.6H720.655a1.6,1.6,0,0,0-1.6,1.6V3433.1h-1.6v-16.782A2.4,2.4,0,0,1,719.856,3413.921Zm27.97-4a5.629,5.629,0,1,1,2.9,4.887,4.006,4.006,0,0,0-2.192-2.191A5.566,5.566,0,0,1,747.826,3409.926Zm8.683,31.142-2.754,4.82h-.083l3.306-11.9q.511.218,1,.485l-.506,3.042-1.825,1.825Zm-5.024,4.82-2.752-4.82.865-1.731-1.825-1.825-.506-3.042a10.813,10.813,0,0,1,1-.484l3.3,11.9Zm-8.453-12.788h-1.6v-12.786h1.6Zm4.794-.657v-1.521a6.4,6.4,0,0,0,1.238,1.094C748.643,3432.139,748.232,3432.281,747.826,3432.444Zm-1.6.657h-1.6v-14.384h-4.8V3433.1h-1.6v-11.188h-4.794V3433.1h-1.6v-7.991h-4.8v7.991h-6.393v-15.983h25.574Zm-9.593,0h-1.6v-9.59h1.6Zm-6.391,0h-1.6v-6.393h1.6Zm-12.789,2.4v-.8h26.737a12.919,12.919,0,0,0-2.629,3.2H719.856A2.4,2.4,0,0,1,717.457,3435.5Zm10.392,4h12.927a12.694,12.694,0,0,0-.829,3.2h-12.1Zm-4.8,6.394v-1.6h16.783v1.6Zm18.382,0v-1.6a11.172,11.172,0,0,1,4.375-8.854l.476,2.844,1.371,1.373-.734,1.466,2.724,4.771h-4.216v-6.394h-1.6v6.394h-2.4Zm22.376-1.6v1.6h-2.4v-6.394h-1.6v6.394H755.6l2.725-4.771-.732-1.466,1.371-1.373.474-2.844A11.163,11.163,0,0,1,763.81,3444.289Zm-8.348-10.809-2.839,10.22-2.841-10.22a10.818,10.818,0,0,1,5.68,0Zm1.955-6.772a4.8,4.8,0,1,1-4.794-4.795A4.8,4.8,0,0,1,757.417,3426.708Zm4.6-10.688-2.5,2.5-1.655-1-.4.208a8.553,8.553,0,0,1-1.377.576l-.429.137-.554,2.26-.085.082a6.354,6.354,0,0,0-2.391-.468,6.284,6.284,0,0,0-1.6.211v-3.836a7.248,7.248,0,1,0-4.367-4.368h-3.624v-4.168l1.875-.461.135-.427a8.9,8.9,0,0,1,.576-1.379l.208-.4-1-1.656,2.5-2.5,1.659,1,.4-.207a8.82,8.82,0,0,1,1.377-.578l.429-.134.461-1.875h3.541l.461,1.877.429.134a8.587,8.587,0,0,1,1.377.578l.4.207,1.655-1,2.5,2.5-1,1.658.205.4a8.567,8.567,0,0,1,.578,1.378l.135.43,1.875.459v3.542l-1.875.462-.135.427a8.581,8.581,0,0,1-.578,1.38l-.205.4Z" transform="translate(-715.86 -3397.937)" fill="#2d2d2d"/>
    <path id="Trazado_1341" data-name="Trazado 1341" d="M752.372,3413.671a4,4,0,1,0-4-4A4,4,0,0,0,752.372,3413.671Zm0-6.394a2.4,2.4,0,1,1-2.4,2.4A2.4,2.4,0,0,1,752.372,3407.277Z" transform="translate(-714.811 -3397.687)" fill="#2d2d2d"/>
    <path id="Trazado_1342" data-name="Trazado 1342" d="M722.054,3418.067h1.6v1.6h-1.6Z" transform="translate(-715.66 -3397.288)" fill="#2d2d2d"/>
    <path id="Trazado_1343" data-name="Trazado 1343" d="M725.151,3418.067h1.6v1.6h-1.6Z" transform="translate(-715.56 -3397.288)" fill="#2d2d2d"/>
    <path id="Trazado_1344" data-name="Trazado 1344" d="M728.247,3418.067h1.6v1.6h-1.6Z" transform="translate(-715.46 -3397.288)" fill="#2d2d2d"/>
    <path id="Trazado_1345" data-name="Trazado 1345" d="M722.054,3421.163h7.992v1.6h-7.992Z" transform="translate(-715.66 -3397.188)" fill="#2d2d2d"/>
  </g>
</svg>
