<svg id="Grupo_522" data-name="Grupo 522" xmlns="http://www.w3.org/2000/svg" width="54.029" height="54.029" viewBox="0 0 54.029 54.029">
  <g id="Grupo_521" data-name="Grupo 521" transform="translate(0.901 0.901)">
    <path id="Trazado_1346" data-name="Trazado 1346" d="M1040.438,3401.716l-26.113-3.6,6.3,23.413-5.4,24.313,25.212,4.5Z" transform="translate(-1014.325 -3398.114)" fill="#dfdeed"/>
    <path id="Trazado_1347" data-name="Trazado 1347" d="M1039.622,3401.716l26.113-3.6-5.445,19.294,5.445,28.431-26.113,4.5Z" transform="translate(-1013.509 -3398.114)" fill="#dfdeed"/>
  </g>
  <path id="Trazado_1348" data-name="Trazado 1348" d="M1020.431,3403.348l15.308,2.7v4.5l-15.308-2.7Z" transform="translate(-1013.227 -3397.044)" fill="#f73445"/>
  <path id="Trazado_1349" data-name="Trazado 1349" d="M1056.618,3421.667l-13.506,2.7v4.5l13.506-2.7Z" transform="translate(-1012.496 -3396.453)" fill="#fed966"/>
  <path id="Trazado_1350" data-name="Trazado 1350" d="M1030.026,3423.207v4.5l6.3,1.112v-4.5Z" transform="translate(-1012.918 -3396.404)" fill="#92b1f9"/>
  <path id="Trazado_1351" data-name="Trazado 1351" d="M1058.139,3404.015v4.5l-6.3,1.113v-4.5Z" transform="translate(-1012.214 -3397.023)" fill="#f59536"/>
  <path id="Trazado_1352" data-name="Trazado 1352" d="M1067.259,3397.552a.9.9,0,0,0-.8-.3l-25.99,3.585-25.99-3.585a.9.9,0,0,0-1.014.77.858.858,0,0,0,.021.358l6.246,23.2-5.354,24.1a.9.9,0,0,0,.683,1.074l.036.009,25.214,4.5a.812.812,0,0,0,.157.015.89.89,0,0,0,.154-.013l26.112-4.5a.9.9,0,0,0,.736-1.041l0-.017-5.405-28.221,5.388-19.09a.9.9,0,0,0-.188-.834Zm-45.724,24.2a.9.9,0,0,0-.008-.429l-5.951-22.1,23.992,3.31v46.763l-23.23-4.146Zm38.735-4.558a.858.858,0,0,0-.019.414l5.273,27.53-24.156,4.166V3402.53l23.972-3.308Z" transform="translate(-1013.453 -3397.241)"/>
  <path id="Trazado_1353" data-name="Trazado 1353" d="M1035.768,3411.48a.9.9,0,0,0,.9-.9v-4.5a.9.9,0,0,0-.744-.887l-15.307-2.7a.9.9,0,0,0-1.056.886v4.5a.9.9,0,0,0,.743.887l15.307,2.7a.82.82,0,0,0,.158.014Zm-.9-1.975-13.506-2.382v-2.675l13.506,2.385Z" transform="translate(-1013.256 -3397.073)"/>
  <path id="Trazado_1354" data-name="Trazado 1354" d="M1043.316,3429.782l13.508-2.7a.905.905,0,0,0,.724-.883v-4.5a.9.9,0,0,0-.9-.9.92.92,0,0,0-.176.016l-13.509,2.7a.9.9,0,0,0-.724.883v4.5a.9.9,0,0,0,1.077.883Zm.724-4.648,11.706-2.34v2.666l-11.706,2.341Z" transform="translate(-1012.524 -3396.481)"/>
  <path id="Trazado_1355" data-name="Trazado 1355" d="M1036.516,3423.46l-6.3-1.112a.9.9,0,0,0-1.057.887v4.5a.9.9,0,0,0,.744.885l6.3,1.113a.9.9,0,0,0,1.059-.886v-4.5A.9.9,0,0,0,1036.516,3423.46Zm-1.058,4.315-4.5-.793v-2.674l4.5.794Z" transform="translate(-1012.946 -3396.431)"/>
  <path id="Trazado_1356" data-name="Trazado 1356" d="M1051.863,3410.558a.816.816,0,0,0,.157-.013l6.3-1.112a.9.9,0,0,0,.743-.886v-4.5a.9.9,0,0,0-.9-.9.966.966,0,0,0-.155.012l-6.3,1.113a.9.9,0,0,0-.744.887v4.5A.9.9,0,0,0,1051.863,3410.558Zm.9-4.646,4.5-.794v2.672l-4.5.795Z" transform="translate(-1012.242 -3397.051)"/>
  <path id="Trazado_1357" data-name="Trazado 1357" d="M1021.151,3412.984l.315-1.772,15.308,2.7-.315,1.773Z" transform="translate(-1013.204 -3396.79)"/>
  <path id="Trazado_1358" data-name="Trazado 1358" d="M1029.876,3419.607l.313-1.774,7.2,1.271-.312,1.772Z" transform="translate(-1012.922 -3396.577)"/>
  <path id="Trazado_1359" data-name="Trazado 1359" d="M1022.9,3418.219l.313-1.773,5.1.9-.313,1.772Z" transform="translate(-1013.148 -3396.622)"/>
  <path id="Trazado_1360" data-name="Trazado 1360" d="M1029,3443.156l.315-1.773,7.2,1.272-.315,1.773Z" transform="translate(-1012.951 -3395.817)"/>
  <path id="Trazado_1361" data-name="Trazado 1361" d="M1022.024,3441.773l.315-1.774,5.1.9-.312,1.772Z" transform="translate(-1013.176 -3395.861)"/>
  <path id="Trazado_1362" data-name="Trazado 1362" d="M1021.151,3436.54l.315-1.773,15.308,2.7-.315,1.772Z" transform="translate(-1013.204 -3396.03)"/>
  <path id="Trazado_1363" data-name="Trazado 1363" d="M1022.878,3425.192l.353-1.765,4.5.9-.353,1.766Z" transform="translate(-1013.148 -3396.396)"/>
  <path id="Trazado_1364" data-name="Trazado 1364" d="M1022.015,3431.3l.333-1.771,14.407,2.7-.33,1.77Z" transform="translate(-1013.176 -3396.199)"/>
  <path id="Trazado_1365" data-name="Trazado 1365" d="M1042.96,3413.914l15.306-2.7.315,1.774-15.308,2.7Z" transform="translate(-1012.501 -3396.791)"/>
  <path id="Trazado_1366" data-name="Trazado 1366" d="M1042.087,3419.1l7.205-1.273.312,1.774-7.2,1.271Z" transform="translate(-1012.529 -3396.577)"/>
  <path id="Trazado_1367" data-name="Trazado 1367" d="M1051.1,3417.347l5.1-.9.313,1.773-5.1.9Z" transform="translate(-1012.238 -3396.622)"/>
  <path id="Trazado_1368" data-name="Trazado 1368" d="M1042.96,3442.656l7.2-1.273.313,1.773-7.2,1.272Z" transform="translate(-1012.501 -3395.817)"/>
  <path id="Trazado_1369" data-name="Trazado 1369" d="M1051.974,3440.9l5.1-.9.315,1.773-5.1.9Z" transform="translate(-1012.21 -3395.862)"/>
  <path id="Trazado_1370" data-name="Trazado 1370" d="M1042.96,3437.467l15.309-2.7.313,1.772-15.308,2.7Z" transform="translate(-1012.501 -3396.03)"/>
  <path id="Trazado_1371" data-name="Trazado 1371" d="M1044.686,3407.755l4.5-.9.353,1.765-4.5.9Z" transform="translate(-1012.445 -3396.931)"/>
  <path id="Trazado_1372" data-name="Trazado 1372" d="M1042.952,3432.238l14.405-2.706.333,1.769-14.406,2.705Z" transform="translate(-1012.501 -3396.2)"/>
</svg>
