<svg id="Grupo_510" data-name="Grupo 510" xmlns="http://www.w3.org/2000/svg" xmlns:xlink="http://www.w3.org/1999/xlink" width="49.549" height="64.508" viewBox="0 0 49.549 64.508">
  <defs>
    <clipPath id="clip-path">
      <path id="Trazado_1290" data-name="Trazado 1290" d="M1048.679,3220.889a8.258,8.258,0,1,1-8.258-8.257A8.258,8.258,0,0,1,1048.679,3220.889Z" transform="translate(-1032.163 -3212.632)" fill="none"/>
    </clipPath>
  </defs>
  <path id="Trazado_1273" data-name="Trazado 1273" d="M1045.005,3232.059h-4.719l-3.931,9.438,3.931,7.078h7.079v-14.156Z" transform="translate(-1015.511 -3212.005)" fill="#ebebeb"/>
  <path id="Trazado_1274" data-name="Trazado 1274" d="M1035.667,3232.059l-2.359,2.36v14.156h7.076v-16.516Z" transform="translate(-1015.61 -3212.005)" fill="#fff"/>
  <path id="Trazado_1275" data-name="Trazado 1275" d="M1031.021,3235.205v13.37h4.72v-16.516h-1.575A3.147,3.147,0,0,0,1031.021,3235.205Z" transform="translate(-1015.684 -3212.005)" fill="#fff"/>
  <path id="Trazado_1276" data-name="Trazado 1276" d="M1046.308,3232.059h-1.573v16.516h4.721v-13.37A3.148,3.148,0,0,0,1046.308,3232.059Z" transform="translate(-1015.241 -3212.005)" fill="#ebebeb"/>
  <path id="Trazado_1277" data-name="Trazado 1277" d="M1037.878,3248.059l7.078,26.756h7.081v-26.756Z" transform="translate(-1015.462 -3211.489)" fill="#c27749"/>
  <path id="Trazado_1278" data-name="Trazado 1278" d="M1028.733,3248.059h18.878v26.756h-18.878Z" transform="translate(-1015.757 -3211.489)" fill="#e18f4e"/>
  <path id="Trazado_1279" data-name="Trazado 1279" d="M1051.964,3248.059l-11.8,21.236a16.513,16.513,0,0,0,16.516-16.516Z" transform="translate(-1015.389 -3211.489)" fill="#eb1b00"/>
  <path id="Trazado_1280" data-name="Trazado 1280" d="M1052.48,3252.779v-4.72l-28.317,4.72a16.515,16.515,0,0,0,16.517,16.516C1047.2,3269.295,1052.48,3261.9,1052.48,3252.779Z" transform="translate(-1015.905 -3211.489)" fill="#cd3934"/>
  <path id="Trazado_1281" data-name="Trazado 1281" d="M1028.733,3252.779a11.8,11.8,0,0,0,23.6,0l-11.8-4.72Z" transform="translate(-1015.757 -3211.489)" fill="#090"/>
  <path id="Trazado_1282" data-name="Trazado 1282" d="M1033.308,3252.779a7.078,7.078,0,1,0,14.155,0l-7.079-4.72Z" transform="translate(-1015.61 -3211.489)" fill="#edcd1f"/>
  <path id="Trazado_1283" data-name="Trazado 1283" d="M1056.458,3252.926h-4.715l-4.722-4.72,4.722-4.718h4.715Z" transform="translate(-1015.167 -3211.636)" fill="#e18f4e"/>
  <path id="Trazado_1284" data-name="Trazado 1284" d="M1024.163,3243.488h28.317v9.438h-28.317Z" transform="translate(-1015.905 -3211.636)" fill="#ffa754"/>
  <path id="Trazado_1285" data-name="Trazado 1285" d="M1065.712,3221.429a1.179,1.179,0,0,0-2.359,0,12.992,12.992,0,0,1-11.975,12.936,4.332,4.332,0,0,0-4.148-3.1h-12.586a4.33,4.33,0,0,0-4.146,3.1,12.992,12.992,0,0,1-11.976-12.936,1.179,1.179,0,0,0-2.359,0,15.358,15.358,0,0,0,14.158,15.293v6.336h-5.9a1.178,1.178,0,0,0-1.179,1.18v9.438a17.619,17.619,0,0,0,4.72,12.016v10.021a1.18,1.18,0,0,0,1.177,1.181h23.6a1.179,1.179,0,0,0,1.177-1.181v-10.021a17.631,17.631,0,0,0,4.72-12.016v-9.438a1.181,1.181,0,0,0-1.182-1.18h-5.9v-6.336A15.357,15.357,0,0,0,1065.712,3221.429Zm-23.593,21.629v-9.438h2.359v9.438Zm-4.723,0v-9.438h2.362v9.438Zm-4.717-7.472a1.969,1.969,0,0,1,1.965-1.966h.4v9.438h-2.361Zm.087,19.269a8.257,8.257,0,0,0,16.345,0h2.379a10.618,10.618,0,0,1-21.1,0Zm2.392,0h11.559a5.9,5.9,0,0,1-11.559,0Zm-7.142,0a12.976,12.976,0,0,0,25.845,0h2.369a15.337,15.337,0,0,1-30.583,0Zm2.3,19.678v-6.708a17.672,17.672,0,0,0,21.236,0v6.708Zm25.954-22.037H1025.6v-7.078h30.672Zm-9.438-9.438v-9.438h.394a1.967,1.967,0,0,1,1.965,1.966v7.472Z" transform="translate(-1016.163 -3212.386)" fill="#2d2d2d"/>
  <g id="Grupo_509" data-name="Grupo 509" transform="translate(16.516)">
    <g id="Grupo_508" data-name="Grupo 508" clip-path="url(#clip-path)">
      <path id="Trazado_1286" data-name="Trazado 1286" d="M1044.877,3212.257a4.722,4.722,0,0,0-8.983,0c-1.491.415-2.586-.361-2.586,1.265v7.485h14.155v-7.485C1047.463,3211.9,1046.368,3212.671,1044.877,3212.257Z" transform="translate(-1032.126 -3212.749)" fill="#ebebeb"/>
      <path id="Trazado_1287" data-name="Trazado 1287" d="M1040.163,3213.773v14.158a7.079,7.079,0,1,0,0-14.158Z" transform="translate(-1031.905 -3212.596)" fill="#ff8d7e"/>
      <path id="Trazado_1288" data-name="Trazado 1288" d="M1042.743,3220.853c0-3.908-1.056-7.079-2.359-7.079a7.079,7.079,0,0,0,0,14.158C1041.687,3227.931,1042.743,3224.762,1042.743,3220.853Z" transform="translate(-1032.126 -3212.596)" fill="#ffb4a9"/>
      <path id="Trazado_1289" data-name="Trazado 1289" d="M1040.421,3229.3a8.267,8.267,0,0,0,8.258-8.258v-7.486c0-1.9-1.149-1.46-2.863-2.194a5.9,5.9,0,0,0-10.791,0c-1.712.735-2.863.3-2.863,2.194v7.486A8.269,8.269,0,0,0,1040.421,3229.3Zm-5.9-15.744c0-1.055.71.154,1.724-.128a1.184,1.184,0,0,0,.808-.773,3.537,3.537,0,0,1,6.73,0,1.187,1.187,0,0,0,.808.773c1.016.282,1.726-.927,1.726.128v1.714a8.239,8.239,0,0,0-11.8,0Zm5.9,1.587a5.9,5.9,0,1,1-5.9,5.9A5.9,5.9,0,0,1,1040.421,3215.145Z" transform="translate(-1032.163 -3212.787)" fill="#2d2d2d"/>
    </g>
  </g>
  <rect id="Rectángulo_564" data-name="Rectángulo 564" width="12.335" height="9.439" transform="translate(18.607 21.234)" fill="#fff"/>
</svg>
