<svg id="Grupo_479" data-name="Grupo 479" xmlns="http://www.w3.org/2000/svg" width="49.549" height="49.549" viewBox="0 0 49.549 49.549">
  <g id="Grupo_476" data-name="Grupo 476" transform="translate(0.799 0.799)">
    <g id="Grupo_455" data-name="Grupo 455" transform="translate(31.967)">
      <g id="Grupo_454" data-name="Grupo 454">
        <path id="Trazado_1224" data-name="Trazado 1224" d="M463.457,3225.079v14.385a.8.8,0,0,1-.8.8h-2.4v-1.6a4.8,4.8,0,0,0-4.795-4.8,3.2,3.2,0,1,0-3.2-3.2,3.2,3.2,0,0,0,3.2,3.2,4.8,4.8,0,0,0-4.8,4.8v1.6h-2.4a.8.8,0,0,1-.8-.8v-14.385a.8.8,0,0,1,.8-.8h14.386A.8.8,0,0,1,463.457,3225.079Z" transform="translate(-447.473 -3224.279)" fill="#090"/>
      </g>
    </g>
    <g id="Grupo_457" data-name="Grupo 457" transform="translate(31.967 19.179)">
      <g id="Grupo_456" data-name="Grupo 456">
        <path id="Trazado_1225" data-name="Trazado 1225" d="M463.457,3243.659v14.385a.8.8,0,0,1-.8.8h-2.4v-1.6a4.8,4.8,0,0,0-4.795-4.795,3.2,3.2,0,1,0-3.2-3.2,3.2,3.2,0,0,0,3.2,3.2,4.8,4.8,0,0,0-4.8,4.795v1.6h-2.4a.8.8,0,0,1-.8-.8v-14.385a.8.8,0,0,1,.8-.8h14.386A.8.8,0,0,1,463.457,3243.659Z" transform="translate(-447.473 -3242.859)" fill="#090"/>
      </g>
    </g>
    <g id="Grupo_458" data-name="Grupo 458" transform="translate(35.163 28.77)">
      <path id="Trazado_1226" data-name="Trazado 1226" d="M460.16,3256.945v1.6h-9.591v-1.6a4.8,4.8,0,0,1,9.591,0Z" transform="translate(-450.569 -3252.15)" fill="#e6e9ed"/>
    </g>
    <g id="Grupo_459" data-name="Grupo 459" transform="translate(36.762 22.377)">
      <path id="Trazado_1227" data-name="Trazado 1227" d="M455.315,3245.956a3.2,3.2,0,1,1-3.2,3.2A3.2,3.2,0,0,1,455.315,3245.956Z" transform="translate(-452.118 -3245.956)" fill="#e6e9ed"/>
    </g>
    <g id="Grupo_460" data-name="Grupo 460" transform="translate(35.163 9.59)">
      <path id="Trazado_1228" data-name="Trazado 1228" d="M460.16,3238.365v1.6h-9.591v-1.6a4.8,4.8,0,0,1,9.591,0Z" transform="translate(-450.569 -3233.569)" fill="#e6e9ed"/>
    </g>
    <g id="Grupo_461" data-name="Grupo 461" transform="translate(36.762 3.197)">
      <path id="Trazado_1229" data-name="Trazado 1229" d="M455.315,3227.376a3.2,3.2,0,1,1-3.2,3.2A3.2,3.2,0,0,1,455.315,3227.376Z" transform="translate(-452.118 -3227.376)" fill="#e6e9ed"/>
    </g>
    <g id="Grupo_462" data-name="Grupo 462" transform="translate(9.91 23.975)">
      <path id="Trazado_1230" data-name="Trazado 1230" d="M435.056,3247.5l-2.877,4.795h-3.2l-2.877-4.795Z" transform="translate(-426.105 -3247.505)" fill="#656d78"/>
    </g>
    <g id="Grupo_463" data-name="Grupo 463" transform="translate(4.795 41.557)">
      <path id="Trazado_1231" data-name="Trazado 1231" d="M440.331,3264.538v.8a2.4,2.4,0,0,1-2.4,2.4H423.548a2.4,2.4,0,0,1-2.4-2.4v-.8Z" transform="translate(-421.15 -3264.538)" fill="#ccd1d9"/>
    </g>
    <g id="Grupo_464" data-name="Grupo 464" transform="translate(4.795 28.77)">
      <path id="Trazado_1232" data-name="Trazado 1232" d="M440.331,3264.937H421.15v-11.988a.8.8,0,0,1,.8-.8h17.582a.8.8,0,0,1,.8.8v11.988Z" transform="translate(-421.15 -3252.15)" fill="#ccd1d9"/>
    </g>
    <g id="Grupo_465" data-name="Grupo 465" transform="translate(15.984 21.203)">
      <path id="Trazado_1233" data-name="Trazado 1233" d="M434.866,3247.592l1.662-2.772,1.072.15a8.122,8.122,0,0,1,1.582.385,8.563,8.563,0,0,1,1.382.631,8.338,8.338,0,0,1,4.212,7.255v2.342h-4.795v-2.4a.8.8,0,0,0-.8-.8h-7.193Z" transform="translate(-431.989 -3244.819)" fill="#f9f953"/>
    </g>
    <g id="Grupo_466" data-name="Grupo 466" transform="translate(0 21.203)">
      <path id="Trazado_1234" data-name="Trazado 1234" d="M426.415,3247.592l2.877,4.794H422.1a.8.8,0,0,0-.8.8v2.4h-4.795v-2.342a8.338,8.338,0,0,1,4.212-7.255,8.534,8.534,0,0,1,1.383-.631,8.1,8.1,0,0,1,1.582-.385l1.07-.15Z" transform="translate(-416.505 -3244.819)" fill="#f9f953"/>
    </g>
    <g id="Grupo_467" data-name="Grupo 467" transform="translate(23.975 31.966)">
      <path id="Trazado_1235" data-name="Trazado 1235" d="M444.526,3258.444v1.6a3.2,3.2,0,0,1-3.2,3.2h-1.6v-7.992h4.795Z" transform="translate(-439.731 -3255.247)" fill="#f0d0b4"/>
    </g>
    <g id="Grupo_468" data-name="Grupo 468" transform="translate(0 31.966)">
      <path id="Trazado_1236" data-name="Trazado 1236" d="M421.3,3258.444v4.794h-1.6a3.2,3.2,0,0,1-3.2-3.2v-4.794H421.3Z" transform="translate(-416.505 -3255.247)" fill="#f0d0b4"/>
    </g>
    <g id="Grupo_469" data-name="Grupo 469" transform="translate(5.595)">
      <path id="Trazado_1237" data-name="Trazado 1237" d="M424.322,3232.271a2.4,2.4,0,0,0-2.4,2.4v-1.6a8.791,8.791,0,1,1,17.582,0v1.6a2.4,2.4,0,0,0-2.4-2.4h-6.394a2.38,2.38,0,0,1-2.38-2.189h-.008a4.785,4.785,0,0,0-2.6,2.189Z" transform="translate(-421.925 -3224.279)" fill="#57565c"/>
    </g>
    <g id="Grupo_470" data-name="Grupo 470" transform="translate(16.791 11.987)">
      <path id="Trazado_1238" data-name="Trazado 1238" d="M439.157,3239.887v5.754a8.157,8.157,0,0,0-1.582-.384l-1.071-.15-1.374-.2a2.391,2.391,0,0,1-1.974-1.751l-.384-1.415a5.606,5.606,0,0,0,2.957-3.451h1.03a2.4,2.4,0,0,0,2.4-2.4Z" transform="translate(-432.771 -3235.891)" fill="#57565c"/>
    </g>
    <g id="Grupo_471" data-name="Grupo 471" transform="translate(5.595 11.987)">
      <path id="Trazado_1239" data-name="Trazado 1239" d="M424.322,3238.29h1.03a5.567,5.567,0,0,0,1.447,2.4h-.08a1.6,1.6,0,0,0-1.6,1.6h-.8a2.393,2.393,0,0,1-2.4-2.4v-4A2.394,2.394,0,0,0,424.322,3238.29Z" transform="translate(-421.925 -3235.891)" fill="#57565c"/>
    </g>
    <g id="Grupo_472" data-name="Grupo 472" transform="translate(5.595 15.983)">
      <path id="Trazado_1240" data-name="Trazado 1240" d="M424.578,3244.982l-1.07.151a8.07,8.07,0,0,0-1.583.384v-5.755a2.394,2.394,0,0,0,2.4,2.4h.8a1.612,1.612,0,0,0,1.6,1.6h.88a2.424,2.424,0,0,1-1.645,1.023Z" transform="translate(-421.925 -3239.762)" fill="#57565c"/>
    </g>
    <g id="Grupo_473" data-name="Grupo 473" transform="translate(8.791 16.783)">
      <path id="Trazado_1241" data-name="Trazado 1241" d="M429.817,3242.079v.056a1.6,1.6,0,0,1-1.6,1.6h-1.6a1.61,1.61,0,0,1-1.6-1.6,1.6,1.6,0,0,1,1.6-1.6h1.6a1.56,1.56,0,0,1,1.127.472A1.581,1.581,0,0,1,429.817,3242.079Z" transform="translate(-425.021 -3240.537)" fill="#656d78"/>
    </g>
    <g id="Grupo_474" data-name="Grupo 474" transform="translate(8.248 17.837)">
      <path id="Trazado_1242" data-name="Trazado 1242" d="M436.77,3244.924l-1.662,2.773h-8.951l-1.662-2.773,1.375-.2a2.424,2.424,0,0,0,1.645-1.024h.719a1.6,1.6,0,0,0,1.6-1.6v-.056a5.27,5.27,0,0,0,.8.056,5.5,5.5,0,0,0,2.406-.544l.384,1.415a2.392,2.392,0,0,0,1.974,1.751Z" transform="translate(-424.495 -3241.558)" fill="#f0d0b4"/>
    </g>
    <g id="Grupo_475" data-name="Grupo 475" transform="translate(5.595 5.801)">
      <path id="Trazado_1243" data-name="Trazado 1243" d="M437.109,3232.088h-6.394a2.381,2.381,0,0,1-2.38-2.189h-.008a4.785,4.785,0,0,0-2.6,2.189h-1.407a2.394,2.394,0,0,0-2.4,2.4v1.6a2.394,2.394,0,0,0,2.4,2.4h1.03a5.568,5.568,0,0,0,1.447,2.4h1.519a1.56,1.56,0,0,1,1.127.471,1.582,1.582,0,0,1,.472,1.07,5.272,5.272,0,0,0,.8.056,5.6,5.6,0,0,0,5.364-4h1.03a2.4,2.4,0,0,0,2.4-2.4v-1.6A2.4,2.4,0,0,0,437.109,3232.088Z" transform="translate(-421.925 -3229.899)" fill="#f0d0b4"/>
    </g>
  </g>
  <g id="Grupo_478" data-name="Grupo 478">
    <g id="Grupo_477" data-name="Grupo 477">
      <path id="Trazado_1244" data-name="Trazado 1244" d="M415.731,3269.956H465.28v1.6H415.731Z" transform="translate(-415.731 -3222.006)" fill="#2d2d2d"/>
      <path id="Trazado_1245" data-name="Trazado 1245" d="M432.788,3234.343a.8.8,0,1,1-.8.8A.8.8,0,0,1,432.788,3234.343Z" transform="translate(-415.206 -3223.156)" fill="#2d2d2d"/>
      <path id="Trazado_1246" data-name="Trazado 1246" d="M428.143,3234.343a.8.8,0,1,1-.8.8A.8.8,0,0,1,428.143,3234.343Z" transform="translate(-415.356 -3223.156)" fill="#2d2d2d"/>
      <path id="Trazado_1247" data-name="Trazado 1247" d="M432.136,3237.263a1.787,1.787,0,0,1-3.2,0l-.083-.17-1.431.716.084.168a3.386,3.386,0,0,0,6.056,0l.084-.168-1.43-.715Z" transform="translate(-415.354 -3223.067)" fill="#2d2d2d"/>
      <path id="Trazado_1248" data-name="Trazado 1248" d="M463.682,3241.087a1.6,1.6,0,0,0,1.6-1.6V3225.1a1.6,1.6,0,0,0-1.6-1.6H449.3a1.6,1.6,0,0,0-1.6,1.6v14.384h-7.192v-6.393a9.59,9.59,0,1,0-19.181,0V3245.5a9.361,9.361,0,0,0-.983.478,9.176,9.176,0,0,0-4.611,7.948v7.14a4,4,0,0,0,4,4h.8v1.6a3.2,3.2,0,0,0,3.2,3.2h14.385a3.2,3.2,0,0,0,3.2-3.2v-1.6h.8a4,4,0,0,0,4-4v-.8h17.583a1.6,1.6,0,0,0,1.6-1.6v-14.385a1.6,1.6,0,0,0-1.6-1.6H449.3a1.6,1.6,0,0,0-1.6,1.6v14.385h-1.6v-4.743a9.054,9.054,0,0,0-5.594-8.425v-4.414Zm-9.591-10.389a2.4,2.4,0,1,1,2.4,2.4A2.4,2.4,0,0,1,454.091,3230.7Zm6.394,8.79h-7.992v-.8a4,4,0,1,1,7.992,0ZM449.3,3225.1h14.386v14.384h-1.6v-.8a5.6,5.6,0,0,0-3.02-4.962,4,4,0,1,0-5.147,0,5.593,5.593,0,0,0-3.02,4.962v.8h-1.6Zm4.795,24.774a2.4,2.4,0,1,1,2.4,2.4A2.4,2.4,0,0,1,454.091,3249.877Zm6.394,8.792h-7.992v-.8a4,4,0,0,1,7.992,0ZM449.3,3244.284h14.386v14.385h-1.6v-.8a5.6,5.6,0,0,0-3.02-4.961,4,4,0,1,0-5.147,0,5.593,5.593,0,0,0-3.02,4.961v.8h-1.6Zm-10.389-7.993a1.6,1.6,0,0,1-1.6,1.6h-.055a6.57,6.57,0,0,0,.055-.8v-4a1.6,1.6,0,0,1,1.6,1.6Zm-7.993-11.187a8,8,0,0,1,7.892,6.782,3.175,3.175,0,0,0-1.5-.389h-6.394a1.6,1.6,0,1,1,1.6-1.6h1.6a3.188,3.188,0,0,0-6.36-.323,5.571,5.571,0,0,0-2.26,1.921h-.97a3.161,3.161,0,0,0-1.5.389A7.993,7.993,0,0,1,430.915,3225.1Zm2.015,18.661a3.189,3.189,0,0,0,2.633,2.332l.189.027-.813,1.357h-8.046l-.814-1.357.189-.027a3.185,3.185,0,0,0,1.893-1.015h.357a2.4,2.4,0,0,0,2.255-1.609c.048,0,.095.012.142.012a6.356,6.356,0,0,0,1.863-.278Zm6.777,21.3H422.125v-11.188h17.582Zm-9.937-12.787-1.918-3.2h6.127l-1.918,3.2Zm-2.851-8.791a.8.8,0,0,1,0-1.6h1.6a.8.8,0,0,1,0,1.6Zm4-1.6c-.05,0-.1-.009-.15-.01a2.394,2.394,0,0,0-2.247-1.589h-1.169a4.754,4.754,0,0,1-1.227-3.2v-2.462a3.992,3.992,0,0,1,1.9-3.391,3.2,3.2,0,0,0,2.892,1.857h4.8v4A4.8,4.8,0,0,1,430.915,3241.886Zm-7.992-7.193a1.6,1.6,0,0,1,1.6-1.6h.226a5.582,5.582,0,0,0-.226,1.534v2.462a6.635,6.635,0,0,0,.055.8h-.055a1.6,1.6,0,0,1-1.6-1.6Zm0,4.351a3.172,3.172,0,0,0,1.6.444h.465a6.164,6.164,0,0,0,.632,1.187,2.4,2.4,0,0,0-.95,1.211h-.148a1.6,1.6,0,0,1-1.6-1.6Zm0,4a3.175,3.175,0,0,0,1.6.444h.148a2.376,2.376,0,0,0,.817,1.11l-1.9.271c-.226.032-.447.079-.667.127v-1.952Zm-1.786,4.326a7.52,7.52,0,0,1,2.68-.919l.546-.077,3.542,5.905h-5.78a1.6,1.6,0,0,0-1.6,1.6v1.6h-3.2v-1.546A7.572,7.572,0,0,1,421.137,3247.366Zm-1.409,16.1a2.4,2.4,0,0,1-2.4-2.4v-4h3.2v1.6h-1.6v1.6h1.6v3.2Zm18.38,4.793H423.723a1.6,1.6,0,0,1-1.6-1.6h17.582A1.6,1.6,0,0,1,438.108,3268.258Zm4-4.793h-.8v-3.2h1.6v-1.6h-1.6v-1.6h3.2v4A2.4,2.4,0,0,1,442.1,3263.465Zm2.4-9.539v1.546h-3.2v-1.6a1.6,1.6,0,0,0-1.6-1.6h-5.782l3.544-5.905.545.077a7.554,7.554,0,0,1,6.489,7.479Zm-6.262-9.061-2.452-.35a1.6,1.6,0,0,1-1.316-1.166l-.22-.814a6.426,6.426,0,0,0,2.586-3.047h.47a3.166,3.166,0,0,0,1.6-.444v5.949C438.687,3244.944,438.466,3244.9,438.241,3244.865Z" transform="translate(-415.731 -3223.505)" fill="#2d2d2d"/>
      <path id="Trazado_1249" data-name="Trazado 1249" d="M446.7,3260.666h7.992v1.6H446.7Z" transform="translate(-414.732 -3222.306)" fill="#2d2d2d"/>
      <path id="Trazado_1250" data-name="Trazado 1250" d="M455.989,3260.666h7.992v1.6h-7.992Z" transform="translate(-414.432 -3222.306)" fill="#2d2d2d"/>
      <path id="Trazado_1251" data-name="Trazado 1251" d="M448.247,3263.762h14.386v1.6H448.247Z" transform="translate(-414.682 -3222.206)" fill="#2d2d2d"/>
      <path id="Trazado_1252" data-name="Trazado 1252" d="M454.44,3266.859h1.6v1.6h-1.6Z" transform="translate(-414.482 -3222.106)" fill="#2d2d2d"/>
      <path id="Trazado_1253" data-name="Trazado 1253" d="M457.537,3266.859h1.6v1.6h-1.6Z" transform="translate(-414.382 -3222.106)" fill="#2d2d2d"/>
      <path id="Trazado_1254" data-name="Trazado 1254" d="M451.344,3266.859h1.6v1.6h-1.6Z" transform="translate(-414.582 -3222.106)" fill="#2d2d2d"/>
    </g>
  </g>
</svg>
