<svg id="Grupo_513" data-name="Grupo 513" xmlns="http://www.w3.org/2000/svg" width="49.549" height="61.936" viewBox="0 0 49.549 61.936">
  <path id="Trazado_1291" data-name="Trazado 1291" d="M150.613,3404.562v1.032a2.071,2.071,0,0,1-2.064,2.064H132.031a2.071,2.071,0,0,1-2.065-2.064v-1.032H119.645v40.259h12.386v12.387h28.9v-52.646Zm-26.84,5.161h8.258v8.259h-8.258Z" transform="translate(-118.613 -3396.304)" fill="#f4f8f8"/>
  <path id="Trazado_1292" data-name="Trazado 1292" d="M119.645,3443.562,131,3455.949h1.032v-12.387Z" transform="translate(-118.613 -3395.045)" fill="#cd3934"/>
  <path id="Trazado_1293" data-name="Trazado 1293" d="M123.644,3409.562H131.9v8.258h-8.258Z" transform="translate(-118.484 -3396.142)" fill="#fbce9d"/>
  <path id="Trazado_1294" data-name="Trazado 1294" d="M151.129,3416.562a15.494,15.494,0,1,0,9.29,27.864,15.7,15.7,0,0,0,3.1-3.089,15.452,15.452,0,0,0-3.1-21.668,15.272,15.272,0,0,0-3.1-1.815A15.5,15.5,0,0,0,151.129,3416.562Zm9.609,11.035-11.674,11.676-5.845-5.843,2.922-2.921,2.922,2.921,8.765-8.753Z" transform="translate(-118.096 -3395.917)" fill="#090"/>
  <path id="Trazado_1295" data-name="Trazado 1295" d="M157.593,3424.422l-8.765,8.754-2.922-2.922-2.922,2.922,5.845,5.843,11.674-11.676Z" transform="translate(-117.86 -3395.664)" fill="#edcd1f"/>
  <g id="Grupo_512" data-name="Grupo 512" transform="translate(4.128 12.387)">
    <g id="Grupo_511" data-name="Grupo 511">
      <path id="Trazado_1296" data-name="Trazado 1296" d="M122.644,3409.595v8.258a1.033,1.033,0,0,0,1.032,1.033h8.258a1.034,1.034,0,0,0,1.033-1.033v-8.258a1.034,1.034,0,0,0-1.033-1.032h-8.258A1.033,1.033,0,0,0,122.644,3409.595Zm2.065,1.032H130.9v6.194h-6.194Z" transform="translate(-122.644 -3408.563)" fill="#2d2d2d"/>
      <path id="Trazado_1297" data-name="Trazado 1297" d="M135.677,3411.626h8.258a1.032,1.032,0,1,0,0-2.064h-8.258a1.032,1.032,0,1,0,0,2.064Z" transform="translate(-122.257 -3408.53)" fill="#2d2d2d"/>
      <path id="Trazado_1298" data-name="Trazado 1298" d="M135.677,3415.627h8.258a1.032,1.032,0,1,0,0-2.064h-8.258a1.032,1.032,0,1,0,0,2.064Z" transform="translate(-122.257 -3408.401)" fill="#2d2d2d"/>
      <path id="Trazado_1299" data-name="Trazado 1299" d="M156.324,3448.563H135.677a1.032,1.032,0,1,0,0,2.064h20.646a1.032,1.032,0,0,0,0-2.064Z" transform="translate(-122.257 -3407.272)" fill="#2d2d2d"/>
    </g>
  </g>
  <path id="Trazado_1300" data-name="Trazado 1300" d="M148.227,3401.691h-2.066v-4.129H133.774v4.129h-2.066a2.072,2.072,0,0,0-2.065,2.065v2.064a2.07,2.07,0,0,0,2.065,2.063h16.518a2.07,2.07,0,0,0,2.064-2.063v-2.064A2.072,2.072,0,0,0,148.227,3401.691Z" transform="translate(-118.29 -3396.529)" fill="#414042"/>
  <path id="Trazado_1301" data-name="Trazado 1301" d="M161.266,3426.646l-2.91-2.921a1.032,1.032,0,0,0-1.461,0l-8.035,8.024-2.193-2.194a1.033,1.033,0,0,0-1.461,0l-2.92,2.92a1.035,1.035,0,0,0,0,1.459l5.844,5.843a1.033,1.033,0,0,0,1.46,0l11.675-11.669a1.033,1.033,0,0,0,0-1.462Zm-12.406,10.945-4.384-4.384,1.462-1.462,2.193,2.192a1.031,1.031,0,0,0,1.46,0l8.033-8.023,1.455,1.458Z" transform="translate(-117.892 -3395.696)" fill="#2d2d2d"/>
  <path id="Trazado_1302" data-name="Trazado 1302" d="M164.89,3422.782A16.614,16.614,0,0,0,162,3419.8V3404.82a1.033,1.033,0,0,0-1.032-1.032h-9.29a3.1,3.1,0,0,0-3.1-3.1h-1.034v-3.1a1.032,1.032,0,0,0-1.031-1.032H134.129a1.032,1.032,0,0,0-1.032,1.032v3.1h-1.033a3.1,3.1,0,0,0-3.1,3.1h-9.29a1.032,1.032,0,0,0-1.032,1.032v40.258a.553.553,0,0,0,.01.056,1.054,1.054,0,0,0,.059.292c.009.022.012.049.022.071a1.026,1.026,0,0,0,.173.272l9.29,10.324a1.033,1.033,0,0,0,1.535-1.381l-7.74-8.6h9.036v11.355a1.032,1.032,0,0,0,1.032,1.032h28.9a1.033,1.033,0,0,0,1.032-1.032V3445.58a16.5,16.5,0,0,0,2.889-22.8Zm-32.826-20.026h2.066a1.033,1.033,0,0,0,1.032-1.032v-3.1h10.323v3.1a1.033,1.033,0,0,0,1.032,1.032h2.066a1.032,1.032,0,0,1,1.031,1.032v2.064a1.032,1.032,0,0,1-1.031,1.031H132.063a1.032,1.032,0,0,1-1.032-1.031v-2.064A1.032,1.032,0,0,1,132.063,3402.756Zm27.872,53.678H133.1v-11.355a1.033,1.033,0,0,0-1.033-1.032H120.71v-38.194h8.258a3.1,3.1,0,0,0,3.1,3.1h16.518a3.1,3.1,0,0,0,3.1-3.1h8.258v12.541a16.139,16.139,0,0,0-1.653-.842,16.474,16.474,0,0,0-18.568,3.785H123.805a1.032,1.032,0,1,0,0,2.064h14.228a16.255,16.255,0,0,0-1.185,2.064H123.805a1.032,1.032,0,1,0,0,2.064H136a16.043,16.043,0,0,0-.536,2.065H123.805a1.032,1.032,0,1,0,0,2.064h11.408c-.022.343-.052.684-.052,1.032s.03.689.052,1.032H123.805a1.032,1.032,0,0,0,0,2.065h11.657a16.1,16.1,0,0,0,.536,2.064H123.805a1.032,1.032,0,1,0,0,2.064h13.043a16.022,16.022,0,0,0,1.185,2.064h-1.84a1.032,1.032,0,1,0,0,2.064h3.521a16.6,16.6,0,0,0,2.374,2.064h-5.9a1.032,1.032,0,1,0,0,2.064h9.791a16.389,16.389,0,0,0,12.3-.344,16.143,16.143,0,0,0,1.653-.841Zm3.3-15.071a14.452,14.452,0,1,1,0-17.342A14.45,14.45,0,0,1,163.239,3441.362Z" transform="translate(-118.645 -3396.563)" fill="#2d2d2d"/>
  <path id="Trazado_1303" data-name="Trazado 1303" d="M137.676,3402.626h4.13a1.032,1.032,0,1,0,0-2.064h-4.13a1.032,1.032,0,0,0,0,2.064Z" transform="translate(-118.064 -3396.433)" fill="#2d2d2d"/>
</svg>
