<svg id="Consult-Talk" xmlns="http://www.w3.org/2000/svg" width="49.288" height="49.548" viewBox="0 0 49.288 49.548">
  <path id="Trazado_1176" data-name="Trazado 1176" d="M161.9,3257.027a10.239,10.239,0,0,1-.88,2.134l2.252,3-3.484,3.485-3-2.253a10.285,10.285,0,0,1-2.135.879l-.535,3.721h-4.929l-.535-3.721a10.262,10.262,0,0,1-2.135-.879l-3,2.253-3.484-3.485,2.251-3a10.238,10.238,0,0,1-.878-2.134l-3.722-.537v-4.927l3.722-.536a10.255,10.255,0,0,1,.878-2.132l-2.251-3,3.484-3.481,1.806,1.354,1.191.893a10.985,10.985,0,0,1,1.026-.491,10.211,10.211,0,0,1,1.109-.385l.535-3.724h4.929l.535,3.724a10.136,10.136,0,0,1,1.109.385q.523.219,1.026.491l2.259-1.691.74-.556,3.484,3.481-2.252,3a10.255,10.255,0,0,1,.88,2.132l3.721.536v4.927Z" transform="translate(-117.129 -3222.55)" fill="#ff9811"/>
  <path id="Trazado_1177" data-name="Trazado 1177" d="M155.532,3248.671a6.589,6.589,0,0,0-3.286-1.4,6.977,6.977,0,0,0-.823-.049,6.572,6.572,0,0,0,0,13.143,6.8,6.8,0,0,0,1.643-.206,6.571,6.571,0,0,0,2.465-11.491Z" transform="translate(-116.898 -3222.32)" fill="#ffd422"/>
  <path id="Trazado_1178" data-name="Trazado 1178" d="M155.378,3244.693a9.88,9.88,0,0,0-1.109-.385l-.535-3.723h-1.642V3233.8a5.744,5.744,0,0,1,.821-9.907v5.194l2.465.821,2.464-.821v-5.194a5.743,5.743,0,0,1,.821,9.907v9.693l-2.259,1.69Q155.9,3244.912,155.378,3244.693Z" transform="translate(-116.744 -3223.072)" fill="#c6c5ca"/>
  <path id="Trazado_1179" data-name="Trazado 1179" d="M155.3,3244.17v4.732a6.584,6.584,0,0,0-3.286-1.4v-7.444h1.642l.535,3.724A10.134,10.134,0,0,1,155.3,3244.17Z" transform="translate(-116.667 -3222.55)" fill="#ff9811"/>
  <path id="Trazado_1180" data-name="Trazado 1180" d="M144.134,3238.471H142.49a1.661,1.661,0,0,0-.821.221v4.709c0,.2-.008.394-.024.582a.674.674,0,0,0,.155.082,1.632,1.632,0,0,0,.69.157h1.643a1.6,1.6,0,0,0,1.068-.4,1.619,1.619,0,0,0,.574-1.241v-2.465A1.645,1.645,0,0,0,144.134,3238.471Z" transform="translate(-117.002 -3222.602)" fill="#ee8700"/>
  <path id="Trazado_1181" data-name="Trazado 1181" d="M148.666,3259.1a8.156,8.156,0,0,0-4.027-3.442l-6.333-2.538-.82-.328a3.287,3.287,0,0,1-6.573,0l-7.155,2.866a8.2,8.2,0,0,0-5.165,7.624v7.582h31.214v-7.582A8.207,8.207,0,0,0,148.666,3259.1Z" transform="translate(-117.745 -3222.139)" fill="#39c2fb"/>
  <path id="Trazado_1182" data-name="Trazado 1182" d="M149.23,3263.286a8.188,8.188,0,0,0-5.168-7.624l-6.333-2.538-.82-.328a3.262,3.262,0,0,1-.452,1.635l4.319,1.729a8.189,8.189,0,0,1,5.166,7.624v7.084h3.287Z" transform="translate(-117.169 -3222.139)" fill="#148bdf"/>
  <path id="Trazado_1183" data-name="Trazado 1183" d="M130.628,3256.579a3.254,3.254,0,0,0,2.055-.741,3.282,3.282,0,0,1-2.055-3.042l-3.184,1.276A3.28,3.28,0,0,0,130.628,3256.579Z" transform="translate(-117.46 -3222.139)" fill="#39c2fb"/>
  <path id="Trazado_1184" data-name="Trazado 1184" d="M137.1,3250.535v2.335a3.287,3.287,0,0,1-6.574,0v-2.335A8.168,8.168,0,0,0,137.1,3250.535Z" transform="translate(-117.36 -3222.213)" fill="#f8dfa5"/>
  <path id="Trazado_1185" data-name="Trazado 1185" d="M125.881,3243.4c0,.2.008.394.026.582a1.558,1.558,0,0,1-.846.239h-1.643a1.648,1.648,0,0,1-1.643-1.644v-2.465a1.646,1.646,0,0,1,1.643-1.643h1.643a1.661,1.661,0,0,1,.821.221Z" transform="translate(-117.643 -3222.602)" fill="#ee8700"/>
  <path id="Trazado_1186" data-name="Trazado 1186" d="M137.1,3250.535v1.645a8.192,8.192,0,0,1-6.574,0v-1.645A8.168,8.168,0,0,0,137.1,3250.535Z" transform="translate(-117.36 -3222.213)" fill="#e9bc8b"/>
  <path id="Trazado_1187" data-name="Trazado 1187" d="M142.183,3238.974v.6h-.821a3.284,3.284,0,0,1-2.629-1.314l-1.477-1.971-2.762,2.209a4.908,4.908,0,0,1-3.071,1.077h-5.669v-1.642a8.215,8.215,0,1,1,16.43,0Z" transform="translate(-117.514 -3222.885)" fill="#57565c"/>
  <path id="Trazado_1188" data-name="Trazado 1188" d="M141.362,3239.37a3.283,3.283,0,0,1-2.629-1.314l-1.477-1.971-2.762,2.209a4.909,4.909,0,0,1-3.071,1.077h-5.669v4.108c0,.195.008.394.026.582a8.207,8.207,0,0,0,14.752,4.345,6.951,6.951,0,0,0,.765-1.223,8.1,8.1,0,0,0,.846-2.869v-.006c.008-.084.016-.165.016-.247.016-.188.024-.387.024-.582v-4.108Z" transform="translate(-117.514 -3222.678)" fill="#f8dfa5"/>
  <path id="Trazado_1189" data-name="Trazado 1189" d="M141.123,3239.37a3.283,3.283,0,0,1-2.629-1.314l-1.477-1.971-.771.615,1.019,1.357a3.278,3.278,0,0,0,2.627,1.314h.823v4.108c0,.195-.008.394-.025.582a2.237,2.237,0,0,1-.018.247v.006a8.072,8.072,0,0,1-.845,2.869,6.943,6.943,0,0,1-.764,1.223,8.21,8.21,0,0,1-5.917,3.255,8.338,8.338,0,0,0,1.159.008,8.2,8.2,0,0,0,5.987-3.263,6.947,6.947,0,0,0,.765-1.223,8.1,8.1,0,0,0,.846-2.869v-.006c.008-.084.016-.165.016-.247.015-.188.024-.387.024-.582v-4.108Z" transform="translate(-117.276 -3222.678)" fill="#e9bc8b"/>
  <path id="Trazado_1190" data-name="Trazado 1190" d="M166.354,3251.3l-3.207-.46a12.28,12.28,0,0,0-.541-1.314l1.942-2.588a.821.821,0,0,0-.076-1.075l-3.486-3.486a.8.8,0,0,0-.5-.231v-7.907a6.575,6.575,0,0,0,2.466-5.126,6.5,6.5,0,0,0-3.756-5.934.823.823,0,0,0-1.094.391.805.805,0,0,0-.078.35v4.6l-1.643.546-1.643-.546v-4.6a.823.823,0,0,0-.825-.819.861.861,0,0,0-.347.081,6.5,6.5,0,0,0-3.755,5.931,6.575,6.575,0,0,0,2.463,5.126v5.552H149.81a.822.822,0,0,0-.814.7l-.531,3.722,1.627.231.429-3.015h3.5l.431,3.015a.815.815,0,0,0,.582.672,9.823,9.823,0,0,1,1.972.813.823.823,0,0,0,.888-.064l2.433-1.825,2.475,2.478-1.826,2.433a.829.829,0,0,0-.065.89,9.774,9.774,0,0,1,.813,1.97.815.815,0,0,0,.671.582l3.014.429v3.507l-3.014.43a.82.82,0,0,0-.671.582,9.929,9.929,0,0,1-.813,1.973.826.826,0,0,0,.065.889l1.823,2.431-2.476,2.479-2.431-1.832a.826.826,0,0,0-.888-.063,9.736,9.736,0,0,1-1.974.812.822.822,0,0,0-.582.671l-.427,3.017h-3.4v-3.473a9.137,9.137,0,0,0-.37-2.565,7.49,7.49,0,1,0-5.252-5.8c-.02-.006-.038-.015-.058-.023l-6.642-2.656v-1.265a9.112,9.112,0,0,0,2.857-2.289h2.07a2.463,2.463,0,0,0,2.466-2.464v-1.794a2.463,2.463,0,0,0,1.641-2.313v-2.464a2.462,2.462,0,0,0-1.641-2.312v-.972a11.5,11.5,0,1,0-23,0v.972a2.464,2.464,0,0,0-1.643,2.312v2.464a2.468,2.468,0,0,0,2.466,2.466h1.643c.052,0,.1-.009.153-.013a9.056,9.056,0,0,0,4.774,6.407v1.265l-6.642,2.656a8.992,8.992,0,0,0-5.68,8.39v7.581a.82.82,0,0,0,.821.819H149.81a.82.82,0,0,0,.821-.819v-2.465h4.106a.822.822,0,0,0,.814-.705l.457-3.209a11.223,11.223,0,0,0,1.315-.541l2.589,1.942a.825.825,0,0,0,1.075-.075l3.486-3.485a.827.827,0,0,0,.076-1.075l-1.944-2.589a11.634,11.634,0,0,0,.541-1.313l3.209-.46a.821.821,0,0,0,.7-.814v-4.927A.821.821,0,0,0,166.354,3251.3Zm-9.011-7.056c-.038-.02-.083-.029-.121-.049V3234.04h-1.639v6.514l-.007-.06a.823.823,0,0,0-.813-.7h-.822v-5.964a.817.817,0,0,0-.353-.673,4.931,4.931,0,0,1-1.228-6.861,4.843,4.843,0,0,1,.761-.859v3.68a.82.82,0,0,0,.563.779l2.463.822a.846.846,0,0,0,.518,0l2.466-.822a.823.823,0,0,0,.561-.779v-3.68a4.931,4.931,0,0,1-.468,7.723.82.82,0,0,0-.353.671v9.277Zm-10.8,10.333a5.791,5.791,0,1,1,2.739,4.88,9.038,9.038,0,0,0-2.143-2.364A5.6,5.6,0,0,1,146.547,3254.576ZM143.261,3248h-1a8.94,8.94,0,0,0,.84-2.477c.053,0,.105.013.156.013h.823v1.642A.821.821,0,0,1,143.261,3248Zm-1.641-9.037a2.473,2.473,0,0,1-1.972-.987l-1.48-1.971a.821.821,0,0,0-1.17-.147l-2.757,2.2a4.11,4.11,0,0,1-2.561.9h-4.846v-.82a7.393,7.393,0,1,1,14.786,0Zm4.107,4.107a.824.824,0,0,1-.823.822h-1.643v-4.107H144.9a.823.823,0,0,1,.823.821Zm-11.5-15.607a9.869,9.869,0,0,1,9.857,9.859v.821h-.823a9.035,9.035,0,1,0-18.071,0h-.823v-.821A9.87,9.87,0,0,1,134.226,3227.467Zm-10.68,16.43a.822.822,0,0,1-.821-.822v-2.464a.821.821,0,0,1,.821-.821h1.643v4.107Zm3.287,0v-3.287h4.846a5.782,5.782,0,0,0,3.591-1.259l2.1-1.677.965,1.293a4.129,4.129,0,0,0,3.287,1.643v3.287a7.371,7.371,0,0,1-1.25,4.107h-6.143v1.642h4.635a7.385,7.385,0,0,1-12.028-5.75Zm7.393,9.035a8.935,8.935,0,0,0,2.464-.35v1.172a2.465,2.465,0,0,1-4.93,0v-1.172A8.949,8.949,0,0,0,134.226,3252.932ZM149.013,3271h-4.929v-9.035H142.44V3271h-16.43v-9.035h-1.643V3271H119.44v-6.759a7.353,7.353,0,0,1,4.647-6.865l6.211-2.486a4.082,4.082,0,0,0,7.854,0l6.211,2.486a7.357,7.357,0,0,1,4.649,6.865Z" transform="translate(-117.772 -3223.098)" fill="#2d2d2d"/>
  <rect id="Rectángulo_559" data-name="Rectángulo 559" width="1.643" height="1.643" transform="translate(33.704 19.977)" fill="#2d2d2d"/>
  <rect id="Rectángulo_560" data-name="Rectángulo 560" width="1.643" height="1.641" transform="translate(33.704 41.336)" fill="#2d2d2d"/>
  <rect id="Rectángulo_561" data-name="Rectángulo 561" width="1.643" height="1.643" transform="matrix(0.707, -0.707, 0.707, 0.707, 40.914, 39.029)" fill="#2d2d2d"/>
  <rect id="Rectángulo_562" data-name="Rectángulo 562" width="1.641" height="1.643" transform="translate(44.384 30.657)" fill="#2d2d2d"/>
  <rect id="Rectángulo_563" data-name="Rectángulo 563" width="1.643" height="1.643" transform="translate(40.915 23.925) rotate(-44.952)" fill="#2d2d2d"/>
</svg>
