<svg xmlns="http://www.w3.org/2000/svg" width="73.257" height="73.257" viewBox="0 0 73.257 73.257">
  <g id="administracion" transform="translate(0 0)">
    <path id="Trazado_5379" data-name="Trazado 5379" d="M80.4,50.062V40.333A1.431,1.431,0,0,0,78.965,38.9H73.611a28.913,28.913,0,0,0-3.869-9.346l3.784-3.784a1.43,1.43,0,0,0,0-2.023l-6.88-6.88a1.43,1.43,0,0,0-2.023,0l-3.784,3.784a28.914,28.914,0,0,0-9.346-3.869V11.431A1.431,1.431,0,0,0,50.062,10H40.333A1.431,1.431,0,0,0,38.9,11.431v5.362a28.918,28.918,0,0,0-9.332,3.875l-3.8-3.8a1.43,1.43,0,0,0-2.023,0l-6.88,6.88a1.43,1.43,0,0,0,0,2.023l3.806,3.806A28.91,28.91,0,0,0,16.821,38.9h-5.39A1.431,1.431,0,0,0,10,40.333v9.729a1.431,1.431,0,0,0,1.431,1.431h5.4A28.921,28.921,0,0,0,20.69,60.8l-3.82,3.82a1.43,1.43,0,0,0,0,2.023l6.88,6.88a1.43,1.43,0,0,0,2.023,0l3.82-3.82a28.921,28.921,0,0,0,9.31,3.861v5.4A1.431,1.431,0,0,0,40.333,80.4h9.729a1.431,1.431,0,0,0,1.431-1.431v-5.39a28.9,28.9,0,0,0,9.323-3.855l3.807,3.806a1.43,1.43,0,0,0,2.023,0l6.88-6.88a1.43,1.43,0,0,0,0-2.023l-3.8-3.8A28.91,28.91,0,0,0,73.6,51.493h5.362A1.431,1.431,0,0,0,80.4,50.062Zm0,0" transform="translate(-8.569 -8.569)" fill="#79b2ff"/>
    <path id="Trazado_5380" data-name="Trazado 5380" d="M41.493,73.257H31.764A2.865,2.865,0,0,1,28.9,70.4V66.124a30.228,30.228,0,0,1-7.664-3.178l-3.023,3.023a2.865,2.865,0,0,1-4.047,0l-6.88-6.88a2.865,2.865,0,0,1,0-4.047l3.023-3.024a30.227,30.227,0,0,1-3.178-7.664H2.862A2.865,2.865,0,0,1,0,41.493V31.764A2.865,2.865,0,0,1,2.862,28.9H7.124A30.227,30.227,0,0,1,10.3,21.225l-3.01-3.01a2.865,2.865,0,0,1,0-4.046l6.88-6.88a2.865,2.865,0,0,1,4.047,0l3,3A30.227,30.227,0,0,1,28.9,7.1V2.861A2.865,2.865,0,0,1,31.764,0h9.729a2.865,2.865,0,0,1,2.862,2.862V7.087a30.241,30.241,0,0,1,7.7,3.187l2.987-2.987a2.865,2.865,0,0,1,4.046,0l6.88,6.88a2.865,2.865,0,0,1,0,4.047L62.982,21.2a30.241,30.241,0,0,1,3.187,7.7H70.4a2.865,2.865,0,0,1,2.862,2.862v9.729A2.865,2.865,0,0,1,70.4,44.355H66.16a30.247,30.247,0,0,1-3.191,7.687l3,3a2.865,2.865,0,0,1,0,4.047l-6.88,6.88a2.865,2.865,0,0,1-4.047,0l-3.01-3.01a30.243,30.243,0,0,1-7.677,3.175V70.4a2.865,2.865,0,0,1-2.862,2.862ZM21.024,59.706a1.429,1.429,0,0,1,.77.225,27.4,27.4,0,0,0,8.849,3.67A1.431,1.431,0,0,1,31.764,65v5.4h9.729v-5.39a1.43,1.43,0,0,1,1.123-1.4,27.417,27.417,0,0,0,8.862-3.664,1.431,1.431,0,0,1,1.781.2l3.806,3.806,6.88-6.88-3.8-3.8a1.431,1.431,0,0,1-.193-1.783,27.415,27.415,0,0,0,3.683-8.87,1.43,1.43,0,0,1,1.4-1.122H70.4V31.764H65.042a1.43,1.43,0,0,1-1.4-1.123,27.4,27.4,0,0,0-3.678-8.883,1.432,1.432,0,0,1,.194-1.782l3.784-3.784-6.88-6.88L53.282,13.1a1.432,1.432,0,0,1-1.782.195,27.411,27.411,0,0,0-8.883-3.678,1.43,1.43,0,0,1-1.123-1.4V2.862H31.764V8.223a1.431,1.431,0,0,1-1.121,1.4,27.411,27.411,0,0,0-8.87,3.683,1.43,1.43,0,0,1-1.782-.193l-3.8-3.8-6.88,6.88L13.118,20a1.43,1.43,0,0,1,.2,1.78A27.418,27.418,0,0,0,9.649,30.64a1.43,1.43,0,0,1-1.4,1.123H2.862v9.729h5.4a1.431,1.431,0,0,1,1.4,1.122,27.4,27.4,0,0,0,3.67,8.849,1.431,1.431,0,0,1-.195,1.782l-3.82,3.82,6.88,6.88,3.82-3.821a1.431,1.431,0,0,1,1.012-.419Zm0,0"/>
    <path id="Trazado_5381" data-name="Trazado 5381" d="M158.918,139.459A19.459,19.459,0,1,1,139.459,120,19.459,19.459,0,0,1,158.918,139.459Zm0,0" transform="translate(-102.83 -102.83)" fill="#fff"/>
    <path id="Trazado_5382" data-name="Trazado 5382" d="M130.948,151.786a20.886,20.886,0,1,1,10.211-39.11,1.431,1.431,0,1,1-1.4,2.5,18.028,18.028,0,1,0,7.322,7.678,1.431,1.431,0,1,1,2.56-1.279,20.882,20.882,0,0,1-18.694,30.215Zm0,0" transform="translate(-94.319 -94.278)"/>
    <path id="Trazado_5383" data-name="Trazado 5383" d="M345.783,154.874a1.432,1.432,0,1,1,1.012-.42A1.439,1.439,0,0,1,345.783,154.874Zm0,0" transform="translate(-295.082 -130.262)"/>
    <path id="Trazado_5384" data-name="Trazado 5384" d="M195.651,192.332l-7.955,7.955-3.916-3.916-5.132,5.132,3.916,3.916,5.132,5.132,13.087-13.087Zm0,0" transform="translate(-153.087 -164.813)" fill="#cbe558"/>
    <path id="Trazado_5385" data-name="Trazado 5385" d="M179.128,203.413a1.431,1.431,0,0,1-1.012-.419l-9.048-9.049a1.43,1.43,0,0,1,0-2.023l5.132-5.132a1.432,1.432,0,0,1,2.024,0l2.9,2.9,6.943-6.943a1.43,1.43,0,0,1,2.023,0l5.132,5.132a1.431,1.431,0,0,1,0,2.023L180.14,202.994a1.433,1.433,0,0,1-1.012.419Zm-7.025-10.48,7.025,7.025L190.191,188.9l-3.109-3.109-6.943,6.943a1.431,1.431,0,0,1-2.024,0l-2.9-2.9Zm0,0" transform="translate(-144.518 -156.244)"/>
  </g>
</svg>
