<svg xmlns="http://www.w3.org/2000/svg" width="97.998" height="82.163" viewBox="0 0 97.998 82.163">
  <g id="ambulancia" transform="translate(0 -41.366)">
    <g id="Grupo_1648" data-name="Grupo 1648" transform="translate(66.76 55.058)">
      <path id="Trazado_4973" data-name="Trazado 4973" d="M348.792,118.025V124.3H359.03v-6.278a5.119,5.119,0,1,0-10.238,0Z" transform="translate(-348.792 -112.903)" fill="#ffe58a" fill-rule="evenodd"/>
    </g>
    <g id="Grupo_1649" data-name="Grupo 1649" transform="translate(69.815 55.058)">
      <path id="Trazado_4974" data-name="Trazado 4974" d="M367.807,122.387h4.129v-4.362a5.138,5.138,0,0,0-5.122-5.122,5.055,5.055,0,0,0-2.062.439,5.134,5.134,0,0,1,3.055,4.682Z" transform="translate(-364.752 -112.903)" fill="#ffd772" fill-rule="evenodd"/>
    </g>
    <g id="Grupo_1650" data-name="Grupo 1650" transform="translate(55.127 64.543)">
      <path id="Trazado_4975" data-name="Trazado 4975" d="M288.017,189.507v15.008h12.148a10.125,10.125,0,0,1,14.047,0h6.028V192.5a.816.816,0,0,1,.814-.814H327.1V186.2a5.151,5.151,0,0,0-.06-1.318l-15.615-5.426,7.737-9.311-3.2-5.936c-.95-1.763-.624-1.758-2.626-1.758H288.017v27.053Z" transform="translate(-288.017 -162.454)" fill="#f9f7f8" fill-rule="evenodd"/>
    </g>
    <g id="Grupo_1651" data-name="Grupo 1651" transform="translate(3.459 53.404)">
      <path id="Trazado_4976" data-name="Trazado 4976" d="M18.073,105.239v37.476H71.656V105.239a.99.99,0,0,0-.987-.982H19.055a.985.985,0,0,0-.982.982Z" transform="translate(-18.073 -104.257)" fill="#f9f7f8" fill-rule="evenodd"/>
    </g>
    <g id="Grupo_1652" data-name="Grupo 1652" transform="translate(19.676 61.521)">
      <path id="Trazado_4977" data-name="Trazado 4977" d="M102.8,158.753a2.093,2.093,0,0,0,2.089,2.089h4.878v4.878a2.092,2.092,0,0,0,2.083,2.089h3.044a2.092,2.092,0,0,0,2.083-2.089v-4.878h4.883a2.092,2.092,0,0,0,2.083-2.089v-3.039a2.092,2.092,0,0,0-2.083-2.089h-4.883v-4.878a2.091,2.091,0,0,0-2.083-2.083h-3.044a2.091,2.091,0,0,0-2.083,2.083v4.878H104.89a2.093,2.093,0,0,0-2.089,2.089Z" transform="translate(-102.801 -146.665)" fill="#f37c7c" fill-rule="evenodd"/>
    </g>
    <g id="Grupo_1653" data-name="Grupo 1653" transform="translate(3.459 93.771)">
      <path id="Trazado_4978" data-name="Trazado 4978" d="M18.073,315.161v12.832H31.284a10.132,10.132,0,0,1,14.052,0h26.32V315.161Z" transform="translate(-18.073 -315.161)" fill="#f9f7f8" fill-rule="evenodd"/>
    </g>
    <g id="Grupo_1654" data-name="Grupo 1654" transform="translate(1.436 104.688)">
      <path id="Trazado_4979" data-name="Trazado 4979" d="M7.5,373.84v4.368a1.645,1.645,0,0,0,1.639,1.644H21.563c-.005-.125-.005,1.123-.005-.369a13.068,13.068,0,0,1,3.093-7.287H9.139A1.645,1.645,0,0,0,7.5,373.84Z" transform="translate(-7.5 -372.196)" fill="#e0dfe1" fill-rule="evenodd"/>
    </g>
    <g id="Grupo_1655" data-name="Grupo 1655" transform="translate(79.407 104.688)">
      <path id="Trazado_4980" data-name="Trazado 4980" d="M414.868,372.2a13.08,13.08,0,0,1,3.1,7.287c0,1.492-.005.244-.005.369H430.38a1.646,1.646,0,0,0,1.644-1.644V373.84a1.646,1.646,0,0,0-1.644-1.644H414.868Z" transform="translate(-414.868 -372.196)" fill="#e0dfe1" fill-rule="evenodd"/>
    </g>
    <g id="Grupo_1656" data-name="Grupo 1656" transform="translate(50.06 53.404)">
      <path id="Trazado_4981" data-name="Trazado 4981" d="M268.525,140.8v-35.56a.99.99,0,0,0-.987-.982h-6a.99.99,0,0,1,.987.982V140.8Z" transform="translate(-261.542 -104.257)" fill="#f0f0f0" fill-rule="evenodd"/>
    </g>
    <g id="Grupo_1657" data-name="Grupo 1657" transform="translate(51.047 95.686)">
      <path id="Trazado_4982" data-name="Trazado 4982" d="M266.7,325.167h6v9h-6Z" transform="translate(-266.701 -325.167)" fill="#f0f0f0" fill-rule="evenodd"/>
    </g>
    <g id="Grupo_1658" data-name="Grupo 1658" transform="translate(85.516 93.771)">
      <path id="Trazado_4983" data-name="Trazado 4983" d="M446.786,315.975v10.1h8.692V315.161h-7.883A.815.815,0,0,0,446.786,315.975Z" transform="translate(-446.786 -315.161)" fill="#ffe58a" fill-rule="evenodd"/>
    </g>
    <g id="Grupo_1659" data-name="Grupo 1659" transform="translate(72.902 72.236)">
      <path id="Trazado_4984" data-name="Trazado 4984" d="M380.881,204.767v10.5A2.128,2.128,0,0,0,383,217.387h19.125a5.458,5.458,0,0,0-.477-1l-7.4-13.738H383a2.127,2.127,0,0,0-2.121,2.116Z" transform="translate(-380.881 -202.651)" fill="#edf4ff" fill-rule="evenodd"/>
    </g>
    <g id="Grupo_1660" data-name="Grupo 1660" transform="translate(91.778 104.688)">
      <path id="Trazado_4985" data-name="Trazado 4985" d="M484.284,378.207v-4.368a1.646,1.646,0,0,0-1.644-1.644H479.5a1.645,1.645,0,0,1,1.639,1.644v4.368a1.645,1.645,0,0,1-1.639,1.644h3.142A1.646,1.646,0,0,0,484.284,378.207Z" transform="translate(-479.499 -372.195)" fill="#d3cfd2" fill-rule="evenodd"/>
    </g>
    <g id="Grupo_1661" data-name="Grupo 1661" transform="translate(76.83 64.542)">
      <path id="Trazado_4986" data-name="Trazado 4986" d="M406.547,170.147h4.3l-3.2-5.936c-.95-1.763-.624-1.758-2.626-1.758H401.4c.971,0,1.443.819,1.948,1.758Z" transform="translate(-401.403 -162.453)" fill="#f0f0f0" fill-rule="evenodd"/>
    </g>
    <g id="Grupo_1662" data-name="Grupo 1662" transform="translate(81.973 72.236)">
      <path id="Trazado_4987" data-name="Trazado 4987" d="M436.508,217.387h3.944a5.459,5.459,0,0,0-.477-1l-7.4-13.738h-4.3Z" transform="translate(-428.277 -202.651)" fill="#dbeaff" fill-rule="evenodd"/>
    </g>
    <g id="Grupo_1663" data-name="Grupo 1663" transform="translate(90.204 86.973)">
      <path id="Trazado_4988" data-name="Trazado 4988" d="M471.343,286.44h3.939v-5.48a5.15,5.15,0,0,0-.06-1.318h-3.944a4.837,4.837,0,0,1,.065,1.318Z" transform="translate(-471.278 -279.642)" fill="#f0f0f0" fill-rule="evenodd"/>
    </g>
    <g id="Grupo_1664" data-name="Grupo 1664" transform="translate(3.459 89.946)">
      <path id="Trazado_4989" data-name="Trazado 4989" d="M18.073,295.176v5.74H71.656v-5.74Z" transform="translate(-18.073 -295.176)" fill="#ff8086" fill-rule="evenodd"/>
    </g>
    <g id="Grupo_1665" data-name="Grupo 1665" transform="translate(51.047 89.946)">
      <path id="Trazado_4990" data-name="Trazado 4990" d="M272.7,300.916v-5.74h-6v5.74Z" transform="translate(-266.701 -295.176)" fill="#ee6161" fill-rule="evenodd"/>
    </g>
    <g id="Grupo_1666" data-name="Grupo 1666" transform="translate(28.808 104.688)">
      <path id="Trazado_4991" data-name="Trazado 4991" d="M150.508,372.2a13.081,13.081,0,0,1,3.1,7.287c0,1.492-.005.244-.011.369h34.2c-.005-.125-.005,1.123-.005-.369a13.107,13.107,0,0,1,3.093-7.287H150.508Z" transform="translate(-150.508 -372.196)" fill="#e0dfe1" fill-rule="evenodd"/>
    </g>
    <g id="Grupo_1667" data-name="Grupo 1667" transform="translate(64.177 101.856)">
      <path id="Trazado_4992" data-name="Trazado 4992" d="M338.4,360.231a10.1,10.1,0,0,0-3.1,7.287c0,.125,0,.244.005.369a10.12,10.12,0,0,0,20.227,0c.005-.125.011-.244.011-.369a10.122,10.122,0,0,0-17.145-7.287Z" transform="translate(-335.299 -357.399)" fill="#7e707d" fill-rule="evenodd"/>
    </g>
    <g id="Grupo_1668" data-name="Grupo 1668" transform="translate(70.525 108.198)">
      <path id="Trazado_4993" data-name="Trazado 4993" d="M368.481,394.681a3.775,3.775,0,0,0,7.514,0c.011-.125.016-.244.016-.369a3.774,3.774,0,1,0-7.547,0C368.465,394.437,368.47,394.557,368.481,394.681Z" transform="translate(-368.465 -390.536)" fill="#f9f7f8" fill-rule="evenodd"/>
    </g>
    <g id="Grupo_1669" data-name="Grupo 1669" transform="translate(13.578 101.855)">
      <path id="Trazado_4994" data-name="Trazado 4994" d="M81.058,357.4a10.11,10.11,0,0,0-10.119,10.119c0,.125,0,.244.005.369a10.12,10.12,0,0,0,20.227,0c.005-.125.005-.244.005-.369A10.11,10.11,0,0,0,81.058,357.4Zm0,6.343a3.779,3.779,0,0,1,3.776,3.776c0,.125-.005.244-.016.369a3.775,3.775,0,0,1-7.514,0c-.011-.125-.022-.244-.022-.369A3.779,3.779,0,0,1,81.058,363.741Z" transform="translate(-70.939 -357.398)" fill="#7e707d" fill-rule="evenodd"/>
    </g>
    <g id="Grupo_1670" data-name="Grupo 1670" transform="translate(19.921 108.198)">
      <path id="Trazado_4995" data-name="Trazado 4995" d="M107.853,390.536a3.779,3.779,0,0,0-3.776,3.776c0,.125.011.244.022.369a3.775,3.775,0,0,0,7.514,0c.011-.125.016-.244.016-.369A3.779,3.779,0,0,0,107.853,390.536Z" transform="translate(-104.077 -390.536)" fill="#f9f7f8" fill-rule="evenodd"/>
    </g>
    <g id="Grupo_1671" data-name="Grupo 1671" transform="translate(20.886 101.856)">
      <path id="Trazado_4996" data-name="Trazado 4996" d="M111.932,377.637a10.116,10.116,0,0,0,10.113-9.75c.005-.125.005-.244.005-.369a10.126,10.126,0,0,0-12.929-9.723,10.047,10.047,0,0,1,5.865,2.436c.136.119.271.244.4.369a10.092,10.092,0,0,1,3.1,7.287c0,.125-.005.244-.011.369a10.123,10.123,0,0,1-7.3,9.354C111.427,377.626,111.677,377.637,111.932,377.637Z" transform="translate(-109.121 -357.399)" fill="#6a5d6a" fill-rule="evenodd"/>
    </g>
    <g id="Grupo_1672" data-name="Grupo 1672" transform="translate(71.486 101.856)">
      <path id="Trazado_4997" data-name="Trazado 4997" d="M376.293,377.637a10.113,10.113,0,0,0,10.113-9.75c.005-.125.011-.244.011-.369a10.13,10.13,0,0,0-12.935-9.723,10.047,10.047,0,0,1,5.865,2.436c.136.119.271.244.4.369a10.092,10.092,0,0,1,3.1,7.287c0,.125-.005.244-.005.369a10.135,10.135,0,0,1-7.3,9.354C375.788,377.626,376.037,377.637,376.293,377.637Z" transform="translate(-373.482 -357.399)" fill="#6a5d6a" fill-rule="evenodd"/>
    </g>
    <g id="Grupo_1673" data-name="Grupo 1673" transform="translate(90.269 93.771)">
      <path id="Trazado_4998" data-name="Trazado 4998" d="M471.618,315.161h3.939v10.917h-3.939Z" transform="translate(-471.618 -315.161)" fill="#ffd772" fill-rule="evenodd"/>
    </g>
    <g id="Grupo_1674" data-name="Grupo 1674" transform="translate(0 41.366)">
      <path id="Trazado_4999" data-name="Trazado 4999" d="M101.789,383.036A5.212,5.212,0,1,0,107,388.248,5.218,5.218,0,0,0,101.789,383.036Zm0,7.553a2.341,2.341,0,1,1,2.341-2.341A2.343,2.343,0,0,1,101.789,390.589Z" transform="translate(-78.092 -317.639)"/>
      <path id="Trazado_5000" data-name="Trazado 5000" d="M366.171,383.036a5.212,5.212,0,1,0,5.212,5.212A5.215,5.215,0,0,0,366.171,383.036Zm0,7.553a2.341,2.341,0,1,1,2.341-2.341A2.341,2.341,0,0,1,366.171,390.589Z" transform="translate(-291.875 -317.639)"/>
      <path id="Trazado_5001" data-name="Trazado 5001" d="M98.825,156.213h3.442v3.442a3.526,3.526,0,0,0,3.519,3.525h3.044a3.526,3.526,0,0,0,3.519-3.525v-3.442H115.8a3.526,3.526,0,0,0,3.519-3.525V149.65a3.526,3.526,0,0,0-3.519-3.525h-3.448v-3.442a3.523,3.523,0,0,0-3.519-3.519h-3.044a3.523,3.523,0,0,0-3.519,3.519v3.442H98.825a3.528,3.528,0,0,0-3.524,3.524v3.039A3.528,3.528,0,0,0,98.825,156.213Zm-.653-6.563a.654.654,0,0,1,.653-.653H103.7a1.435,1.435,0,0,0,1.436-1.436v-4.878a.657.657,0,0,1,.648-.648h3.044a.657.657,0,0,1,.648.648v4.878A1.435,1.435,0,0,0,110.914,149H115.8a.659.659,0,0,1,.648.653v3.039a.659.659,0,0,1-.648.653h-4.883a1.435,1.435,0,0,0-1.436,1.436v4.878a.66.66,0,0,1-.648.653h-3.044a.659.659,0,0,1-.648-.653v-4.878a1.435,1.435,0,0,0-1.436-1.436H98.825a.654.654,0,0,1-.653-.653Z" transform="translate(-77.06 -120.446)"/>
      <path id="Trazado_5002" data-name="Trazado 5002" d="M52.006,135.69a1.435,1.435,0,0,0,1.436-1.436v-2.442a1.436,1.436,0,0,0-2.871,0v2.442A1.436,1.436,0,0,0,52.006,135.69Z" transform="translate(-40.891 -113.34)"/>
      <path id="Trazado_5003" data-name="Trazado 5003" d="M251.962,135.69a1.435,1.435,0,0,0,1.436-1.436v-2.442a1.436,1.436,0,0,0-2.871,0v2.442A1.436,1.436,0,0,0,251.962,135.69Z" transform="translate(-202.575 -113.34)"/>
      <path id="Trazado_5004" data-name="Trazado 5004" d="M95.644,148.132s0-15.339,0-15.456a3.966,3.966,0,0,0-.711-2.592S84.111,109.976,84.023,109.8c-.88-1.73-1.46-1.906-3.574-1.906H78.434V104.97a6.555,6.555,0,1,0-13.109,0V107.9H58.478V99.176a2.423,2.423,0,0,0-2.423-2.418H4.441a2.42,2.42,0,0,0-2.418,2.418v49.056A3.081,3.081,0,0,0,0,151.122v4.368a3.08,3.08,0,0,0,3.074,3.079h9.21a11.554,11.554,0,0,0,22.825,0h11a1.436,1.436,0,1,0,0-2.871H35.2a11.481,11.481,0,0,0-1.547-4.785H64.339a11.472,11.472,0,0,0-1.546,4.785H52.713a1.436,1.436,0,1,0,0,2.871H62.883a11.557,11.557,0,0,0,22.83,0h9.2A3.083,3.083,0,0,0,98,155.49v-4.368a3.081,3.081,0,0,0-2.354-2.99ZM12.226,155.4c-.009.075-.019.15-.027.226,0,.025-.007.049-.009.073H3.074a.211.211,0,0,1-.2-.208v-4.368a.211.211,0,0,1,.2-.208H13.728A11.408,11.408,0,0,0,12.226,155.4ZM23.7,165.448a8.684,8.684,0,1,1,8.683-8.684,8.693,8.693,0,0,1-8.683,8.684Zm31.91-17.406H31.262a11.52,11.52,0,0,0-15.13,0H4.895v-6.13H55.607Zm0-38.71V133.3H32.931a1.436,1.436,0,1,0,0,2.871H55.607v2.87H4.895v-2.87H26.3a1.436,1.436,0,1,0,0-2.871H4.895V99.629H55.607Zm29.807,9.129,6.391,11.865H75.023a.7.7,0,0,1-.686-.686v-10.5a.692.692,0,0,1,.686-.68ZM68.2,104.97a3.684,3.684,0,1,1,7.367,0V107.9H68.2Zm14.784,52c0,.034,0,.068,0,.106,0,.018,0,.035,0,.053a8.643,8.643,0,1,1,.009-.36c0,.068,0,.134-.005.2Zm1.1-8.923H81.865a11.525,11.525,0,0,0-15.134,0H58.478V110.768s22.3,0,22.449,0a.606.606,0,0,1,.536.332l0,0c.1.19,2.4,4.486,2.4,4.486H75.023a3.558,3.558,0,0,0-3.557,3.551v10.5a3.557,3.557,0,0,0,3.557,3.557H92.772v3.927H86.325a2.249,2.249,0,0,0-2.244,2.249ZM92.772,140v8.046H86.952V140Zm2.355,15.493a.211.211,0,0,1-.208.208H85.808c0-.025-.006-.049-.009-.074-.007-.074-.017-.148-.026-.222a11.413,11.413,0,0,0-1.5-4.489H94.919a.211.211,0,0,1,.208.208v4.368Z" transform="translate(0 -86.156)"/>
      <path id="Trazado_5005" data-name="Trazado 5005" d="M369.459,47.731a1.435,1.435,0,0,0,1.436-1.436V42.8a1.436,1.436,0,1,0-2.871,0V46.3A1.436,1.436,0,0,0,369.459,47.731Z" transform="translate(-297.582 -41.366)"/>
      <path id="Trazado_5006" data-name="Trazado 5006" d="M323.5,67.09a1.436,1.436,0,1,0,2.377-1.61l-2.371-3.5a1.436,1.436,0,1,0-2.377,1.61Z" transform="translate(-259.465 -57.525)"/>
      <path id="Trazado_5007" data-name="Trazado 5007" d="M403.435,67.475a1.435,1.435,0,0,0,1.993-.383l2.371-3.5a1.435,1.435,0,1,0-2.377-1.61l-2.371,3.5A1.436,1.436,0,0,0,403.435,67.475Z" transform="translate(-325.706 -57.526)"/>
    </g>
  </g>
</svg>
