<svg xmlns="http://www.w3.org/2000/svg" width="112" height="112" viewBox="0 0 112 112">
  <g id="analitica_1_" data-name="analitica (1)" transform="translate(0)">
    <path id="Trazado_5118" data-name="Trazado 5118" d="M205.6,34.133h-9.334v5.6a1.867,1.867,0,0,0,1.867,1.866H211.2a1.866,1.866,0,0,0,1.866-1.866V36a1.867,1.867,0,0,0-1.866-1.867Zm0,0" transform="translate(-153.333 -26.666)" fill="#c81e1e"/>
    <path id="Trazado_5119" data-name="Trazado 5119" d="M164,8.535h13.066a1.867,1.867,0,0,1,1.867,1.866v3.733A1.867,1.867,0,0,1,177.066,16H162.133V10.4A1.867,1.867,0,0,1,164,8.535Zm0,0" transform="translate(-126.666 -6.668)" fill="#f44335"/>
    <path id="Trazado_5120" data-name="Trazado 5120" d="M88.8,102.4a20.534,20.534,0,0,0-20.534,20.534H92.19a28.064,28.064,0,0,1,15.166-8.747A20.516,20.516,0,0,0,88.8,102.4Zm0,0" transform="translate(-53.333 -79.998)" fill="#fff"/>
    <g id="Grupo_1708" data-name="Grupo 1708" transform="translate(11.2 22.4)">
      <path id="Trazado_5121" data-name="Trazado 5121" d="M119.465,230.4h10.267v18.667H119.465Zm0,0" transform="translate(-104.532 -202.398)" fill="#ededed"/>
      <path id="Trazado_5122" data-name="Trazado 5122" d="M51.2,230.4h7.467v18.667H51.2Zm0,0" transform="translate(-51.199 -202.398)" fill="#ededed"/>
      <path id="Trazado_5123" data-name="Trazado 5123" d="M132.846,117.1c-.9-6.07-3.453-14.7-10.713-14.7-11.2,0-11.2,20.534-11.2,20.534h21.913Zm0,0" transform="translate(-97.866 -102.398)" fill="#fff"/>
    </g>
    <path id="Trazado_5124" data-name="Trazado 5124" d="M59.406,315.734H36a1.867,1.867,0,0,0-1.867,1.866v3.733A1.867,1.867,0,0,0,36,323.2H62.71a27.812,27.812,0,0,1-3.3-7.467Zm0,0" transform="translate(-26.666 -246.667)" fill="#ededed"/>
    <path id="Trazado_5125" data-name="Trazado 5125" d="M65.524,196.266H36a1.867,1.867,0,0,0-1.867,1.867v3.733A1.867,1.867,0,0,0,36,203.733H60.73a27.869,27.869,0,0,1,4.794-7.467Zm0,0" transform="translate(-26.666 -153.333)" fill="#fff"/>
    <path id="Trazado_5126" data-name="Trazado 5126" d="M85.332,230.4H92.8v18.667H85.332Zm0,0" transform="translate(-66.666 -179.998)" fill="#fff"/>
    <path id="Trazado_5127" data-name="Trazado 5127" d="M43.867,345.065h-42a1.867,1.867,0,1,1,0-3.733h42a1.867,1.867,0,0,1,0,3.733Zm0,0" transform="translate(0 -266.665)" fill="#4c8056"/>
    <path id="Trazado_5128" data-name="Trazado 5128" d="M201.063,181.6a28.011,28.011,0,0,1-28,28,22.137,22.137,0,0,1-2.744-.15c-.038,0-.075.019-.112,0a28,28,0,0,1,0-55.7c.037-.018.074,0,.112,0a22.136,22.136,0,0,1,2.744-.149,28.01,28.01,0,0,1,28,28Zm0,0" transform="translate(-113.33 -119.999)" fill="#283593"/>
    <path id="Trazado_5129" data-name="Trazado 5129" d="M195.464,182.1a28.021,28.021,0,0,1-25.143,27.85c-.038,0-.075.019-.112,0a28,28,0,0,1,0-55.7c.037-.018.074,0,.112,0A28.021,28.021,0,0,1,195.464,182.1Zm0,0" transform="translate(-113.331 -120.504)" fill="#3f51b5"/>
    <path id="Trazado_5130" data-name="Trazado 5130" d="M220.267,208.266A20.521,20.521,0,0,1,199.733,228.8a17.26,17.26,0,0,1-2.8-.205,20.518,20.518,0,0,1,0-40.656,17.357,17.357,0,0,1,2.8-.205,20.521,20.521,0,0,1,20.533,20.534Zm0,0" transform="translate(-140 -146.666)" fill="#0377bc"/>
    <path id="Trazado_5131" data-name="Trazado 5131" d="M214.666,209c0-11.227-7.939-20.328-17.733-20.328S179.2,197.774,179.2,209s7.94,20.328,17.733,20.328S214.666,220.227,214.666,209Zm0,0" transform="translate(-139.999 -147.4)" fill="#02a9f4"/>
    <path id="Trazado_5132" data-name="Trazado 5132" d="M409.368,401.452l-7.915,7.915-3.957-3.958a1.859,1.859,0,0,1,0-2.632l5.282-5.282a1.859,1.859,0,0,1,2.632,0Zm0,0" transform="translate(-310.117 -310.116)" fill="#545c60"/>
    <path id="Trazado_5133" data-name="Trazado 5133" d="M404.757,414.813l-4.237,4.237-3.024-3.024a1.859,1.859,0,0,1,0-2.632l2.856-2.856a1.517,1.517,0,0,1,.449.317Zm0,0" transform="translate(-310.117 -320.733)" fill="#7f8e94"/>
    <path id="Trazado_5134" data-name="Trazado 5134" d="M434.69,434.69a5.6,5.6,0,0,1-7.914,0l-9.241-9.24,7.915-7.915,9.24,9.241a5.6,5.6,0,0,1,0,7.914Zm0,0" transform="translate(-326.199 -326.199)" fill="#283593"/>
    <path id="Trazado_5135" data-name="Trazado 5135" d="M431.815,449.288a5.574,5.574,0,0,1-5.04-1.53l-9.24-9.24,4.256-4.256,8.848,8.848A5.589,5.589,0,0,1,431.815,449.288Zm0,0" transform="translate(-326.199 -339.267)" fill="#3f51b5"/>
    <path id="Trazado_5136" data-name="Trazado 5136" d="M375.289,380.569l5.28-5.28,5.28,5.28-5.28,5.28Zm0,0" transform="translate(-293.194 -293.195)" fill="#cfd8dc"/>
    <path id="Trazado_5137" data-name="Trazado 5137" d="M359.884,350.426l-3.549-3.582a28.05,28.05,0,0,1-7.523,8.3l3.152,3.2a1.867,1.867,0,0,0,2.64,0l5.279-5.28a1.867,1.867,0,0,0,0-2.64Zm0,0" transform="translate(-272.51 -270.972)" fill="#545c60"/>
    <path id="Trazado_5138" data-name="Trazado 5138" d="M351.733,8.535H381.6a1.866,1.866,0,0,1,1.866,1.866V36.535A1.866,1.866,0,0,1,381.6,38.4H351.733a1.866,1.866,0,0,1-1.866-1.866V10.4A1.866,1.866,0,0,1,351.733,8.535Zm0,0" transform="translate(-273.333 -6.668)" fill="#fec108"/>
    <path id="Trazado_5139" data-name="Trazado 5139" d="M351.733,8.535H376a1.867,1.867,0,0,1,1.867,1.866V36.535A1.867,1.867,0,0,1,376,38.4H351.733a1.866,1.866,0,0,1-1.866-1.866V10.4A1.866,1.866,0,0,1,351.733,8.535Zm0,0" transform="translate(-273.333 -6.668)" fill="#ffdc00"/>
    <path id="Trazado_5140" data-name="Trazado 5140" d="M249.068,231.2a9.336,9.336,0,0,1-9.334,9.333,9.962,9.962,0,0,1-2.8-.41,9.36,9.36,0,0,1,0-17.846,9.962,9.962,0,0,1,2.8-.41A9.337,9.337,0,0,1,249.068,231.2Zm0,0" transform="translate(-180.001 -173.333)" fill="#dfc49c"/>
    <path id="Trazado_5141" data-name="Trazado 5141" d="M243.466,232.665c0-4.928-2.925-8.923-6.533-8.923s-6.533,4-6.533,8.923,2.926,8.923,6.533,8.923S243.466,237.593,243.466,232.665Zm0,0" transform="translate(-179.999 -174.798)" fill="#ffe0b2"/>
    <path id="Trazado_5142" data-name="Trazado 5142" d="M234.619,302.322a20.4,20.4,0,0,1-8.923,5.563,20.119,20.119,0,0,1-6.029.914,20.467,20.467,0,0,1-14.952-6.477l.019-4.723a7.514,7.514,0,0,1,2.184-5.283c.131-.131.279-.261.429-.392a7.44,7.44,0,0,1,4.854-1.792,8.712,8.712,0,0,0,1.754,1.755,9.26,9.26,0,0,0,12.843-1.363,3.129,3.129,0,0,0,.336-.392A7.464,7.464,0,0,1,234.6,297.6Zm0,0" transform="translate(-159.933 -226.666)" fill="#00695c"/>
    <path id="Trazado_5143" data-name="Trazado 5143" d="M229.373,305.683a26.84,26.84,0,0,1-3.678,3.6,20.119,20.119,0,0,1-6.029.914,20.467,20.467,0,0,1-14.952-6.477l.019-4.723a7.514,7.514,0,0,1,2.184-5.282c.131-.131.279-.261.429-.392a10.345,10.345,0,0,0,3.229.523,10.687,10.687,0,0,0,3.379-.56,9.26,9.26,0,0,0,12.843-1.363,11.042,11.042,0,0,1,2.539,7.15Zm0,0" transform="translate(-159.933 -228.067)" fill="#009688"/>
    <path id="Trazado_5144" data-name="Trazado 5144" d="M34.668,397.067A13.057,13.057,0,0,1,21.6,410.133a13.654,13.654,0,0,1-2.8-.3,13.073,13.073,0,0,1,0-25.536,13.715,13.715,0,0,1,2.8-.3,13.058,13.058,0,0,1,13.067,13.067Zm0,0" transform="translate(-6.668 -300)" fill="#6a1b9a"/>
    <path id="Trazado_5145" data-name="Trazado 5145" d="M29.067,398.135A13.071,13.071,0,0,1,18.8,410.9a13.073,13.073,0,0,1,0-25.536A13.07,13.07,0,0,1,29.067,398.135Zm0,0" transform="translate(-6.668 -301.068)" fill="#9d27b0"/>
    <path id="Trazado_5146" data-name="Trazado 5146" d="M81.333,397.066a12.991,12.991,0,0,1-3.826,9.24l-9.241-9.24V384a13.058,13.058,0,0,1,13.067,13.067Zm0,0" transform="translate(-53.333 -299.999)" fill="#bb193b"/>
    <path id="Trazado_5147" data-name="Trazado 5147" d="M75.732,401.6a12.989,12.989,0,0,1-1.456,6.011L68.265,401.6V389.8a13.013,13.013,0,0,1,7.467,11.8Zm0,0" transform="translate(-53.332 -304.531)" fill="#ef314c"/>
    <path id="Trazado_5148" data-name="Trazado 5148" d="M52,244.267H44.534a1.866,1.866,0,0,1-1.866-1.866V223.734a1.866,1.866,0,0,1,1.866-1.866H52a1.867,1.867,0,0,1,1.867,1.866V242.4A1.867,1.867,0,0,1,52,244.267Zm-5.6-3.733h3.733V225.6H46.4Zm0,0" transform="translate(-33.334 -173.334)"/>
    <path id="Trazado_5149" data-name="Trazado 5149" d="M112.8,244.267a1.866,1.866,0,0,1-1.866-1.866V223.734a1.867,1.867,0,0,1,3.733,0V242.4A1.867,1.867,0,0,1,112.8,244.267Zm0,0" transform="translate(-86.667 -173.334)"/>
    <path id="Trazado_5150" data-name="Trazado 5150" d="M172.268,11.2h-16.8A1.866,1.866,0,0,1,153.6,9.334V1.867A1.867,1.867,0,0,1,155.468,0h16.8a1.867,1.867,0,0,1,1.866,1.867V9.334A1.866,1.866,0,0,1,172.268,11.2ZM157.335,7.467H170.4V3.733H157.335Zm0,0" transform="translate(-120.002)"/>
    <path id="Trazado_5151" data-name="Trazado 5151" d="M206.4,36.8H189.6a1.867,1.867,0,0,1-1.866-1.867v-5.6a1.867,1.867,0,0,1,1.866-1.867h7.467a1.867,1.867,0,0,1,1.867-1.866H206.4a1.867,1.867,0,0,1,1.867,1.866v7.467A1.867,1.867,0,0,1,206.4,36.8Zm-14.933-3.733h13.067V29.335H200.8a1.866,1.866,0,0,1-1.866,1.866h-7.467Zm0,0" transform="translate(-146.667 -20.001)"/>
    <path id="Trazado_5152" data-name="Trazado 5152" d="M155.468,50.933a1.867,1.867,0,0,1-1.866-1.867V36a1.867,1.867,0,1,1,3.733,0V49.066A1.867,1.867,0,0,1,155.468,50.933Zm0,0" transform="translate(-120.001 -26.667)"/>
    <path id="Trazado_5153" data-name="Trazado 5153" d="M104.266,118.135a1.867,1.867,0,0,1-1.867-1.867c0-.914.148-22.4,13.067-22.4a1.867,1.867,0,1,1,0,3.733c-9.08,0-9.334,18.48-9.334,18.666a1.867,1.867,0,0,1-1.866,1.867Zm0,0" transform="translate(-79.999 -73.334)"/>
    <path id="Trazado_5154" data-name="Trazado 5154" d="M166.177,112.3a1.866,1.866,0,0,1-1.844-1.594c-.724-4.895-2.836-13.1-8.865-13.1a1.867,1.867,0,0,1,0-3.733c6.546,0,11.007,5.787,12.559,16.289a1.867,1.867,0,0,1-1.573,2.12,2.131,2.131,0,0,1-.276.021Zm0,0" transform="translate(-120.001 -73.334)"/>
    <path id="Trazado_5155" data-name="Trazado 5155" d="M155.468,118.134a1.867,1.867,0,0,1-1.866-1.867V95.734a1.867,1.867,0,0,1,3.733,0v20.534A1.867,1.867,0,0,1,155.468,118.134Zm0,0" transform="translate(-120.001 -73.334)"/>
    <path id="Trazado_5156" data-name="Trazado 5156" d="M36.045,345.065H1.867a1.867,1.867,0,1,1,0-3.733H36.045a1.867,1.867,0,1,1,0,3.733Zm0,0" transform="translate(0 -266.665)"/>
    <path id="Trazado_5157" data-name="Trazado 5157" d="M166.4,204.8a29.867,29.867,0,1,1,29.867-29.866A29.866,29.866,0,0,1,166.4,204.8Zm0-56a26.133,26.133,0,1,0,26.134,26.134A26.133,26.133,0,0,0,166.4,148.8Zm0,0" transform="translate(-106.668 -113.334)"/>
    <path id="Trazado_5158" data-name="Trazado 5158" d="M193.068,224a22.4,22.4,0,1,1,22.4-22.4A22.4,22.4,0,0,1,193.068,224Zm0-41.067A18.667,18.667,0,1,0,211.734,201.6a18.667,18.667,0,0,0-18.666-18.667Zm0,0" transform="translate(-133.334 -140)"/>
    <path id="Trazado_5159" data-name="Trazado 5159" d="M407.963,415.43a7.409,7.409,0,0,1-5.279-2.187l-13.2-13.2a3.732,3.732,0,0,1,0-5.279l5.279-5.279a3.711,3.711,0,0,1,2.64-1.094h0a3.7,3.7,0,0,1,2.638,1.1l13.2,13.2a7.467,7.467,0,0,1-5.278,12.746ZM397.4,392.124l-5.28,5.28,13.2,13.2a3.821,3.821,0,0,0,5.279,0,3.732,3.732,0,0,0,0-5.279Zm0,0" transform="translate(-303.43 -303.43)"/>
    <path id="Trazado_5160" data-name="Trazado 5160" d="M373.9,381.049a1.86,1.86,0,0,1-1.32-.546l-5.279-5.28a1.866,1.866,0,0,1,0-2.64l5.279-5.279a1.866,1.866,0,0,1,2.64,0l5.28,5.279a1.868,1.868,0,0,1,0,2.64l-5.28,5.28A1.859,1.859,0,0,1,373.9,381.049Zm-2.64-7.145,2.64,2.64,2.64-2.64-2.64-2.64Zm0,0" transform="translate(-286.53 -286.529)"/>
    <path id="Trazado_5161" data-name="Trazado 5161" d="M410.857,420.717a1.866,1.866,0,0,1-1.319-3.186l7.92-7.92a1.867,1.867,0,0,1,2.64,2.64l-7.92,7.92a1.857,1.857,0,0,1-1.32.547Zm0,0" transform="translate(-319.524 -319.596)"/>
    <path id="Trazado_5162" data-name="Trazado 5162" d="M346.612,354.095a3.721,3.721,0,0,1-2.64-1.092l-3.162-3.215a1.865,1.865,0,0,1,.227-2.815,26.051,26.051,0,0,0,7.022-7.746,1.866,1.866,0,0,1,2.929-.361l3.55,3.582a3.738,3.738,0,0,1-.006,5.276L349.253,353a3.725,3.725,0,0,1-2.641,1.092Zm-1.68-5.441,1.692,1.721,5.27-5.29-.005-.007-1.92-1.938a29.56,29.56,0,0,1-5.037,5.513Zm0,0" transform="translate(-265.838 -264.308)"/>
    <path id="Trazado_5163" data-name="Trazado 5163" d="M56.046,318.4H29.335a3.738,3.738,0,0,1-3.733-3.733v-3.733a3.738,3.738,0,0,1,3.733-3.733H52.741a1.865,1.865,0,0,1,1.8,1.369,26.025,26.025,0,0,0,3.083,6.968,1.866,1.866,0,0,1-1.577,2.863Zm-26.711-7.467v3.733H52.87a29.765,29.765,0,0,1-1.515-3.733Zm0,0" transform="translate(-20.001 -239.999)"/>
    <path id="Trazado_5164" data-name="Trazado 5164" d="M54.064,198.935H29.335A3.738,3.738,0,0,1,25.6,195.2v-3.733a3.738,3.738,0,0,1,3.733-3.733H58.859a1.867,1.867,0,0,1,1.389,3.114,25.976,25.976,0,0,0-4.473,6.966,1.867,1.867,0,0,1-1.711,1.12Zm-24.729-7.467V195.2H52.87a29.87,29.87,0,0,1,2.162-3.733Zm0,0" transform="translate(-20.001 -146.668)"/>
    <path id="Trazado_5165" data-name="Trazado 5165" d="M85.525,118.128H61.6a1.867,1.867,0,0,1-1.866-1.867,22.387,22.387,0,0,1,42.644-9.543,1.869,1.869,0,0,1-1.309,2.625,26.328,26.328,0,0,0-14.155,8.166,1.87,1.87,0,0,1-1.389.62Zm-21.964-3.733H84.708a30.169,30.169,0,0,1,13.186-8.1,18.65,18.65,0,0,0-34.333,8.1Zm0,0" transform="translate(-46.668 -73.327)"/>
    <path id="Trazado_5166" data-name="Trazado 5166" d="M374.933,33.6H345.066a3.74,3.74,0,0,1-3.733-3.733V3.733A3.739,3.739,0,0,1,345.066,0h29.867a3.738,3.738,0,0,1,3.733,3.733V29.867A3.739,3.739,0,0,1,374.933,33.6ZM345.066,3.734V29.867h29.871l0-26.134Zm0,0" transform="translate(-266.666 0)"/>
    <path id="Trazado_5167" data-name="Trazado 5167" d="M390,160.59a1.866,1.866,0,0,1-1.121-3.36l2.987-2.239a1.867,1.867,0,1,1,2.239,2.986l-2.988,2.239A1.86,1.86,0,0,1,390,160.59Zm8.959-6.72a1.867,1.867,0,0,1-1.121-3.361l1.712-1.283a1.865,1.865,0,0,0,.52-.6,1.866,1.866,0,1,1,3.274,1.794,5.562,5.562,0,0,1-1.56,1.8l-1.706,1.278a1.864,1.864,0,0,1-1.118.375Zm3.2-9.869a1.867,1.867,0,0,1-1.866-1.867V138.4a1.867,1.867,0,0,1,3.733,0v3.733A1.867,1.867,0,0,1,402.158,144Zm0,0" transform="translate(-303.225 -106.668)"/>
    <path id="Trazado_5168" data-name="Trazado 5168" d="M390.4,37.866H377.332a1.867,1.867,0,1,1,0-3.733H390.4a1.867,1.867,0,0,1,0,3.733Zm0,0" transform="translate(-293.332 -26.666)"/>
    <path id="Trazado_5169" data-name="Trazado 5169" d="M396,72H377.332a1.867,1.867,0,1,1,0-3.733H396A1.867,1.867,0,1,1,396,72Zm0,0" transform="translate(-293.332 -53.332)"/>
    <path id="Trazado_5170" data-name="Trazado 5170" d="M384.8,106.132h-7.467a1.867,1.867,0,1,1,0-3.733H384.8a1.867,1.867,0,1,1,0,3.733Zm0,0" transform="translate(-293.332 -79.999)"/>
    <path id="Trazado_5171" data-name="Trazado 5171" d="M233.067,235.732a11.2,11.2,0,1,1,11.2-11.2A11.2,11.2,0,0,1,233.067,235.732Zm0-18.667a7.467,7.467,0,1,0,7.467,7.467A7.467,7.467,0,0,0,233.067,217.065Zm0,0" transform="translate(-173.333 -166.665)"/>
    <path id="Trazado_5172" data-name="Trazado 5172" d="M266.4,309.868A1.867,1.867,0,0,1,264.535,308v-7.467a1.867,1.867,0,0,1,3.733,0V308A1.867,1.867,0,0,1,266.4,309.868Zm0,0" transform="translate(-206.668 -233.334)"/>
    <path id="Trazado_5173" data-name="Trazado 5173" d="M212.974,304a22.505,22.505,0,0,1-16.317-7.056,1.863,1.863,0,0,1-.509-1.29l.026-4.731a9.342,9.342,0,0,1,9.334-9.322,1.866,1.866,0,0,1,1.489.742,7.467,7.467,0,0,0,11.954,0,1.866,1.866,0,0,1,1.489-.742,9.343,9.343,0,0,1,9.334,9.328l.027,4.724a1.859,1.859,0,0,1-.508,1.291A22.522,22.522,0,0,1,212.974,304Zm-13.088-9.094a18.661,18.661,0,0,0,26.179,0l-.024-3.961v-.011a5.608,5.608,0,0,0-4.779-5.54,11.188,11.188,0,0,1-16.577,0,5.609,5.609,0,0,0-4.777,5.54Zm0,0" transform="translate(-153.241 -220.001)"/>
    <path id="Trazado_5174" data-name="Trazado 5174" d="M148.684,412.267h-3.733a1.867,1.867,0,1,1,0-3.733h3.733a1.867,1.867,0,1,1,0,3.733Zm-11.2,0h-3.733a1.867,1.867,0,1,1,0-3.733h3.733a1.867,1.867,0,0,1,0,3.733Zm-11.2,0h-3.733a1.867,1.867,0,1,1,0-3.733h3.733a1.867,1.867,0,0,1,0,3.733Zm27.733-3.733a1.866,1.866,0,0,1-1.866-1.866v-3.733a1.867,1.867,0,1,1,3.733,0v3.733A1.867,1.867,0,0,1,154.018,408.533Zm0,0" transform="translate(-94.284 -313.333)"/>
    <path id="Trazado_5175" data-name="Trazado 5175" d="M14.933,405.332A14.934,14.934,0,1,1,29.867,390.4a14.933,14.933,0,0,1-14.934,14.933Zm0-26.133a11.2,11.2,0,1,0,11.2,11.2,11.2,11.2,0,0,0-11.2-11.2Zm0,0" transform="translate(0 -293.332)"/>
    <path id="Trazado_5176" data-name="Trazado 5176" d="M70.839,401.5a1.859,1.859,0,0,1-1.319-.547l-9.239-9.239a1.864,1.864,0,0,1-.547-1.319V377.332a1.867,1.867,0,1,1,3.733,0v12.294l8.691,8.692a1.866,1.866,0,0,1-1.319,3.186Zm0,0" transform="translate(-46.668 -293.332)"/>
  </g>
</svg>
