<svg xmlns="http://www.w3.org/2000/svg" width="66.934" height="66.68" viewBox="0 0 66.934 66.68">
  <g id="anuncio_1_" data-name="anuncio (1)" transform="translate(-0.764 -1)">
    <path id="Trazado_5101" data-name="Trazado 5101" d="M29.057,7.764v7.528l-4.3,1.075L14,19.057V4Z" transform="translate(0.999 0.226)" fill="#e6e9ed"/>
    <path id="Trazado_5102" data-name="Trazado 5102" d="M28,15.028V7.5l4.366,1.086a2.762,2.762,0,0,1,0,5.356l-2.215.548Z" transform="translate(2.056 0.491)" fill="#fcd770"/>
    <path id="Trazado_5103" data-name="Trazado 5103" d="M14.3,4.151V19.208a2.151,2.151,0,1,1-4.3,0V4.151A2.167,2.167,0,0,1,12.151,2,2.157,2.157,0,0,1,14.3,4.151Z" transform="translate(0.697 0.075)" fill="#fcd770"/>
    <path id="Trazado_5104" data-name="Trazado 5104" d="M30.453,23.679v1.075a3.226,3.226,0,0,1-6.453,0V15.613l4.3-1.075L30.453,14v9.679Z" transform="translate(1.754 0.981)" fill="#aab2bd"/>
    <path id="Trazado_5105" data-name="Trazado 5105" d="M44.944,31.226v6.453H15.906v3.226L3,34.453,15.906,28v3.226Z" transform="translate(0.169 2.038)" fill="#ccd1d9"/>
    <path id="Trazado_5106" data-name="Trazado 5106" d="M47.717,47.226v6.453H21.906v3.226L9,50.453,21.906,44v3.226Z" transform="translate(0.622 3.246)" fill="#ccd1d9"/>
    <path id="Trazado_5107" data-name="Trazado 5107" d="M57.453,40.377V60.812a3.226,3.226,0,0,1-6.453,0V35h6.453Z" transform="translate(3.792 2.566)" fill="#cf9e76"/>
    <path id="Trazado_5108" data-name="Trazado 5108" d="M51.453,35V60.812a3.226,3.226,0,0,1-6.453,0V35Z" transform="translate(3.339 2.566)" fill="#cf9e76"/>
    <path id="Trazado_5109" data-name="Trazado 5109" d="M59.038,36.283H46.132V25.528a2.157,2.157,0,0,0-2.151-2.151H30V18H51.37l-.936,10.755,2.151,2.151,2.151-2.151L53.8,18h2.011a8.6,8.6,0,0,1,8.6,8.6V37.359a4.3,4.3,0,0,1-4.3,4.3H59.038Z" transform="translate(2.207 1.283)" fill="#b4dd7f"/>
    <path id="Trazado_5110" data-name="Trazado 5110" d="M52.366,18,53.3,28.755l-2.151,2.151L49,28.755,49.936,18h2.431Z" transform="translate(3.641 1.283)" fill="#ff826e"/>
    <circle id="Elipse_30" data-name="Elipse 30" cx="6.453" cy="6.453" r="6.453" transform="translate(48.339 6.377)" fill="#f0d0b4"/>
    <path id="Trazado_5111" data-name="Trazado 5111" d="M59.4,18.387a7.525,7.525,0,1,0-10.319-.18H32.829V15.821l1.4-.35a3.831,3.831,0,0,0,0-7.433L15.486,3.353a3.218,3.218,0,0,0-6.317.873V19.283a3.218,3.218,0,0,0,6.317.873l8.739-2.185v7.765a4.3,4.3,0,1,0,8.6,0H45.735a1.076,1.076,0,0,1,1.075,1.075V49.4H23.15V45.506L6.764,53.7,23.15,61.892V58H46.811v5.377a4.284,4.284,0,0,0,7.528,2.816,4.284,4.284,0,0,0,7.528-2.816V44.019a5.384,5.384,0,0,0,5.377-5.377V27.887a9.692,9.692,0,0,0-7.845-9.5ZM55.375,29.633l-1.036,1.036L53.3,29.633l.811-9.274h.448Zm-6.413-16.8a5.377,5.377,0,1,1,5.377,5.377,5.384,5.384,0,0,1-5.377-5.377Zm-33.34,5.076V5.6L28.527,8.83V14.68ZM34.98,11.755a1.679,1.679,0,0,1-1.272,1.63l-3.03.757V9.367l3.03.757a1.679,1.679,0,0,1,1.272,1.63Zm-21.51,7.528a1.075,1.075,0,1,1-2.151,0V4.226a1.075,1.075,0,0,1,2.151,0Zm15.057,8.6a2.153,2.153,0,0,1-2.151-2.151v-8.3l4.3-1.075v9.378a2.153,2.153,0,0,1-2.151,2.151ZM21,55.85v2.562L11.574,53.7,21,48.986v2.562H46.811v4.3Zm30.114,9.679a2.153,2.153,0,0,1-2.151-2.151V38.642h4.3V63.378A2.153,2.153,0,0,1,51.113,65.529Zm6.453,0a2.153,2.153,0,0,1-2.151-2.151V38.642h4.3V63.378A2.153,2.153,0,0,1,57.566,65.529Zm7.528-26.887a3.23,3.23,0,0,1-3.226,3.226V25.736H59.716V36.491H48.962V26.812a3.23,3.23,0,0,0-3.226-3.226H32.829V20.359H51.956l-.883,10.085,3.266,3.266,3.266-3.266-.883-10.085h.843a7.538,7.538,0,0,1,7.528,7.528Z" transform="translate(0.453 0)"/>
    <path id="Trazado_5112" data-name="Trazado 5112" d="M1,10H7.453v2.151H1Z" transform="translate(0.018 0.679)"/>
    <path id="Trazado_5113" data-name="Trazado 5113" d="M0,0H6.453V2.151H0Z" transform="matrix(0.866, -0.5, 0.5, 0.866, 2.066, 16.736)"/>
    <path id="Trazado_5114" data-name="Trazado 5114" d="M0,0H2.151V6.453H0Z" transform="matrix(0.5, -0.866, 0.866, 0.5, 2.065, 6.771)"/>
    <path id="Trazado_5115" data-name="Trazado 5115" d="M17.15,38.877H45.113V36.726H15v2.562L5.574,34.575,15,29.862v2.562H34.358V30.273H17.15V26.382L.764,34.575,17.15,42.768Z" transform="translate(0 1.916)"/>
    <path id="Trazado_5116" data-name="Trazado 5116" d="M34,30h2.151v2.151H34Z" transform="translate(2.509 2.189)"/>
    <path id="Trazado_5117" data-name="Trazado 5117" d="M38,30h2.151v2.151H38Z" transform="translate(2.811 2.189)"/>
  </g>
</svg>
