<svg xmlns="http://www.w3.org/2000/svg" width="66.594" height="66.594" viewBox="0 0 66.594 66.594">
  <g id="apoyo-tecnico" transform="translate(0 0)">
    <path id="Trazado_5324" data-name="Trazado 5324" d="M398.273,46.213a4.162,4.162,0,1,1-4.162-4.162A4.162,4.162,0,0,1,398.273,46.213Zm0,0" transform="translate(-339.23 -36.582)" fill="#f5737f"/>
    <path id="Trazado_5325" data-name="Trazado 5325" d="M66.375,410.111a4.162,4.162,0,1,1-4.162-4.162A4.162,4.162,0,0,1,66.375,410.111Zm0,0" transform="translate(-50.501 -353.149)" fill="#d8ec84"/>
    <path id="Trazado_5326" data-name="Trazado 5326" d="M125.193,102.294a19.169,19.169,0,0,0-2.643-6.378l2.492-2.493-5.753-5.748-2.49,2.49a19.17,19.17,0,0,0-6.378-2.643V84h-8.133v3.521a19.168,19.168,0,0,0-6.378,2.643l-2.49-2.49-5.753,5.748,2.492,2.493a19.17,19.17,0,0,0-2.643,6.378H83.985l0,8.133h3.536a19.147,19.147,0,0,0,2.643,6.378l-2.5,2.5,5.749,5.753,2.5-2.5a19.147,19.147,0,0,0,6.378,2.643v3.545h8.133V125.2a19.155,19.155,0,0,0,6.378-2.643l2.5,2.5,5.748-5.753-2.5-2.5a19.147,19.147,0,0,0,2.643-6.378h3.536v-8.133Zm-18.838,13.525a9.447,9.447,0,1,1,9.447-9.447A9.446,9.446,0,0,1,106.355,115.818Zm0,0" transform="translate(-73.058 -73.075)" fill="#91def5"/>
    <path id="Trazado_5327" data-name="Trazado 5327" d="M11.712,51.5a5.43,5.43,0,0,0-2.624.67A30.71,30.71,0,0,1,39.41,3.209a1.3,1.3,0,0,0,.515-2.55A33.545,33.545,0,0,0,33.3,0,33.3,33.3,0,0,0,7.165,53.932,5.465,5.465,0,1,0,11.712,51.5Zm2.023,7.486a2.861,2.861,0,1,1,.838-2.023A2.842,2.842,0,0,1,13.735,58.985Zm0,0" transform="translate(0 0)"/>
    <path id="Trazado_5328" data-name="Trazado 5328" d="M231.225,40.542a5.451,5.451,0,1,0-1.923,1.765A30.71,30.71,0,0,1,199.04,91.278a1.3,1.3,0,0,0-.511,2.551,33.568,33.568,0,0,0,6.565.647,33.3,33.3,0,0,0,26.131-53.934Zm-6.569-1a2.862,2.862,0,1,1,2.023.838A2.843,2.843,0,0,1,224.656,39.537Zm0,0" transform="translate(-171.798 -27.882)"/>
    <path id="Trazado_5329" data-name="Trazado 5329" d="M92.291,120.044a1.3,1.3,0,0,0,1.3,1.3h8.133a1.3,1.3,0,0,0,1.3-1.3v-2.522a20.368,20.368,0,0,0,4.882-2.023l1.78,1.78a1.3,1.3,0,0,0,1.84,0l5.748-5.752a1.3,1.3,0,0,0,0-1.839l-1.778-1.778a20.367,20.367,0,0,0,2.023-4.882h2.512a1.3,1.3,0,0,0,1.3-1.3V93.594a1.3,1.3,0,0,0-1.3-1.3h-2.512a20.371,20.371,0,0,0-2.023-4.881l1.769-1.769a1.3,1.3,0,0,0,0-1.84l-5.753-5.748a1.3,1.3,0,0,0-1.839,0l-1.766,1.767a20.368,20.368,0,0,0-4.882-2.023V75.3a1.3,1.3,0,0,0-1.3-1.3H93.592a1.3,1.3,0,0,0-1.3,1.3v2.5a20.351,20.351,0,0,0-4.881,2.023l-1.767-1.767a1.3,1.3,0,0,0-1.839,0L78.052,83.8a1.3,1.3,0,0,0,0,1.84l1.769,1.769A20.365,20.365,0,0,0,77.8,92.293H75.289a1.3,1.3,0,0,0-1.3,1.3l0,8.133a1.3,1.3,0,0,0,1.3,1.3H77.8a20.368,20.368,0,0,0,2.023,4.882l-1.778,1.778a1.3,1.3,0,0,0,0,1.839l5.748,5.752a1.3,1.3,0,0,0,.92.382h0a1.3,1.3,0,0,0,.92-.381l1.78-1.78a20.385,20.385,0,0,0,4.882,2.023Zm-4.371-7.28a1.3,1.3,0,0,0-1.626.173L84.71,114.52l-3.91-3.913,1.582-1.583a1.3,1.3,0,0,0,.173-1.625,17.8,17.8,0,0,1-2.464-5.946,1.3,1.3,0,0,0-1.272-1.027H76.586l0-5.531H78.82a1.3,1.3,0,0,0,1.272-1.027,17.8,17.8,0,0,1,2.464-5.945,1.3,1.3,0,0,0-.173-1.625l-1.572-1.572,3.913-3.91,1.57,1.571a1.3,1.3,0,0,0,1.626.173,17.8,17.8,0,0,1,5.945-2.464,1.3,1.3,0,0,0,1.027-1.272V76.6h5.531v2.221a1.3,1.3,0,0,0,1.027,1.272,17.811,17.811,0,0,1,5.945,2.464,1.3,1.3,0,0,0,1.625-.173l1.571-1.57,3.913,3.91L112.933,86.3a1.3,1.3,0,0,0-.173,1.626,17.815,17.815,0,0,1,2.464,5.945,1.3,1.3,0,0,0,1.272,1.027h2.235v5.531H116.5a1.3,1.3,0,0,0-1.272,1.027,17.8,17.8,0,0,1-2.464,5.945,1.3,1.3,0,0,0,.173,1.626l1.582,1.582-3.91,3.913-1.584-1.583a1.3,1.3,0,0,0-1.626-.173,17.815,17.815,0,0,1-5.945,2.464,1.3,1.3,0,0,0-1.027,1.272v2.244H94.892V116.5a1.3,1.3,0,0,0-1.027-1.272,17.8,17.8,0,0,1-5.945-2.464Zm0,0" transform="translate(-64.362 -64.376)"/>
    <path id="Trazado_5330" data-name="Trazado 5330" d="M194.866,184.118a10.747,10.747,0,1,0-10.747,10.747A10.759,10.759,0,0,0,194.866,184.118Zm-18.893,0a8.146,8.146,0,1,1,8.146,8.146A8.155,8.155,0,0,1,175.972,184.118Zm0,0" transform="translate(-150.822 -150.822)"/>
    <path id="Trazado_5331" data-name="Trazado 5331" d="M339.379,20.411a1.3,1.3,0,1,0-.919-.381A1.31,1.31,0,0,0,339.379,20.411Zm0,0" transform="translate(-294.106 -15.493)"/>
    <path id="Trazado_5332" data-name="Trazado 5332" d="M155.66,474.359a1.3,1.3,0,1,0,.92.381A1.311,1.311,0,0,0,155.66,474.359Zm0,0" transform="translate(-134.282 -412.661)"/>
  </g>
</svg>
