<svg xmlns="http://www.w3.org/2000/svg" width="62" height="62.003" viewBox="0 0 62 62.003">
  <g id="control-inteligente" transform="translate(-1 -1)">
    <g id="Grupo_1722" data-name="Grupo 1722">
      <g id="Grupo_1712" data-name="Grupo 1712">
        <path id="Trazado_5240" data-name="Trazado 5240" d="M42,62H6a4,4,0,0,1-4-4V6A4,4,0,0,1,6,2H38a4,4,0,0,1,4,4Z" fill="#969faa"/>
      </g>
      <g id="Grupo_1713" data-name="Grupo 1713">
        <path id="Trazado_5241" data-name="Trazado 5241" d="M18,2h8V6a4,4,0,0,1-8,0Z" fill="#fcd770"/>
      </g>
      <g id="Grupo_1714" data-name="Grupo 1714">
        <path id="Trazado_5242" data-name="Trazado 5242" d="M39.34,44.63,38.17,42.3a1.622,1.622,0,0,1-.17-.72,1.416,1.416,0,0,1,.1-.55L38,41V26.75c-1.19-.97-2-1.93-2-2.75l.85-8c.3-2.26.62-4.48.85-6H7a1,1,0,0,0-1,1V49a1,1,0,0,0,1,1H40V47.44A6.374,6.374,0,0,0,39.34,44.63Z" fill="#69d6f4"/>
      </g>
      <g id="Grupo_1715" data-name="Grupo 1715">
        <path id="Trazado_5243" data-name="Trazado 5243" d="M14,56l-1.71,1.71a1.009,1.009,0,0,1-.7.29H11a1,1,0,0,1-1-1V55a1,1,0,0,1,1-1h.59a1.009,1.009,0,0,1,.7.29Z" fill="#e6e9ed"/>
      </g>
      <g id="Grupo_1716" data-name="Grupo 1716">
        <path id="Trazado_5244" data-name="Trazado 5244" d="M24,55v2a1,1,0,0,1-1,1H21a1,1,0,0,1-1-1V55a1,1,0,0,1,1-1h2A1,1,0,0,1,24,55Z" fill="#e6e9ed"/>
      </g>
      <g id="Grupo_1717" data-name="Grupo 1717">
        <path id="Trazado_5245" data-name="Trazado 5245" d="M34,57a1,1,0,0,1-1,1h-.59a1.009,1.009,0,0,1-.7-.29L30,56l1.71-1.71a1.009,1.009,0,0,1,.7-.29H33a1,1,0,0,1,1,1Z" fill="#e6e9ed"/>
      </g>
      <g id="Grupo_1718" data-name="Grupo 1718">
        <path id="Trazado_5246" data-name="Trazado 5246" d="M28,38v6a2.006,2.006,0,0,1-2,2H18a2.006,2.006,0,0,1-2-2V38a2.006,2.006,0,0,1,2-2h8A2.006,2.006,0,0,1,28,38Z" fill="#ff826e"/>
      </g>
      <g id="Grupo_1719" data-name="Grupo 1719">
        <path id="Trazado_5247" data-name="Trazado 5247" d="M12,24V16H36.85c-.45,3.29-.85,6.65-.85,8Z" fill="#ffeaa7"/>
      </g>
      <g id="Grupo_1720" data-name="Grupo 1720">
        <path id="Trazado_5248" data-name="Trazado 5248" d="M58,8s2,13,2,16c0,2.44-7.29,6.21-10,7.53V28a2.015,2.015,0,0,0-2-2,2.006,2.006,0,0,0-2,2v3.53c-.95-.46-2.45-1.22-4-2.11a32.329,32.329,0,0,1-4-2.67c-1.19-.97-2-1.93-2-2.75,0-1.35.4-4.71.85-8,.3-2.26.62-4.48.85-6,.18-1.22.3-2,.3-2h.34A13.582,13.582,0,0,0,42,7.5,13.6,13.6,0,0,0,48,4a13.653,13.653,0,0,0,9.66,4Z" fill="#fcd770"/>
      </g>
      <g id="Grupo_1721" data-name="Grupo 1721">
        <path id="Trazado_5249" data-name="Trazado 5249" d="M58,42a2.006,2.006,0,0,1,2-2,2.015,2.015,0,0,1,2,2V53a5.992,5.992,0,0,1-1.2,3.6L59,59v3l-16-.04V59l-2.37-4.78A5.891,5.891,0,0,1,40,51.55V47.44a6.374,6.374,0,0,0-.66-2.81L38.17,42.3a1.622,1.622,0,0,1-.17-.72,1.416,1.416,0,0,1,.1-.55,1.6,1.6,0,0,1,1.52-1.07h.09A6.285,6.285,0,0,1,46,46.24V28a2.006,2.006,0,0,1,2-2,2.015,2.015,0,0,1,2,2V40a2.006,2.006,0,0,1,2-2,2.015,2.015,0,0,1,2,2,2.006,2.006,0,0,1,2-2,2.015,2.015,0,0,1,2,2Z" fill="#f0d0b4"/>
      </g>
    </g>
    <g id="Grupo_1723" data-name="Grupo 1723">
      <path id="Trazado_5250" data-name="Trazado 5250" d="M60,39a2.984,2.984,0,0,0-1.116.22A2.973,2.973,0,0,0,54,37.78a2.908,2.908,0,0,0-3-.6V32.145C57.63,28.87,61,26.129,61,24c0-3.042-1.93-15.618-2.012-16.152L58.858,7h-1.2a12.571,12.571,0,0,1-8.95-3.707L48,2.586l-.707.707A12.613,12.613,0,0,1,43,6.111V6a5.006,5.006,0,0,0-5-5H6A5.006,5.006,0,0,0,1,6V58a5.006,5.006,0,0,0,5,5H43.839v-.04L60,63v-3.67L61.6,57.2A7.038,7.038,0,0,0,63,53V42a3,3,0,0,0-3-3ZM48,5.37a14.539,14.539,0,0,0,9.139,3.621C57.578,11.906,59,21.544,59,24c0,.763-2.167,2.921-8,5.908V28a3,3,0,0,0-6,0v1.908c-5.833-2.99-8-5.146-8-5.908,0-2.456,1.422-12.094,1.861-15.009A14.539,14.539,0,0,0,48,5.37ZM37.276,42.747l1.166,2.331A5.318,5.318,0,0,1,39,47.442V49H7V11H36.541c-.171,1.168-.37,2.557-.568,4H11V25H35.236A6.777,6.777,0,0,0,37,27.2V41h.069a2.609,2.609,0,0,0-.069.576A2.642,2.642,0,0,0,37.276,42.747ZM19,6V3h6V6a3,3,0,0,1-6,0ZM35.042,23H13V17H35.705c-.3,2.314-.565,4.547-.663,6ZM39,28.741c.6.41,1.265.831,2,1.264v9.084a7.554,7.554,0,0,0-1.381-.131A2.587,2.587,0,0,0,39,39.04Zm4,2.381c.628.335,1.3.676,2,1.023v9.112a7.358,7.358,0,0,0-2-1.491ZM41,6v.715A12.742,12.742,0,0,1,38.343,7h-1.2l-.13.848c-.014.088-.078.507-.175,1.152H25.974A4.948,4.948,0,0,0,27,6V3H38A3,3,0,0,1,41,6ZM3,58V6A3,3,0,0,1,6,3H17V6a4.948,4.948,0,0,0,1.026,3H7a2,2,0,0,0-2,2V49a2,2,0,0,0,2,2H39v.551a7.029,7.029,0,0,0,.73,3.112L42,59.234V61H6a3,3,0,0,1-3-3Zm58-5a5.028,5.028,0,0,1-1,3l-2,2.667V61l-14-.036V58.766l-2.479-4.991A5.038,5.038,0,0,1,41,51.551V47.443a7.328,7.328,0,0,0-.769-3.259l-1.166-2.331A.615.615,0,0,1,39,41.577a.647.647,0,0,1,.714-.619A5.294,5.294,0,0,1,45,46.245v3.713h2V28a1,1,0,1,1,2,0V44h2V40a1,1,0,0,1,2,0v4h2V40a1,1,0,0,1,2,0v4h2V42a1,1,0,0,1,2,0Z"/>
      <path id="Trazado_5251" data-name="Trazado 5251" d="M11.586,53H11a2,2,0,0,0-2,2v2a2,2,0,0,0,2,2h.586A1.986,1.986,0,0,0,13,58.414L15.414,56,13,53.586A1.986,1.986,0,0,0,11.586,53Zm0,4H11V55h.586l1,1Z"/>
      <path id="Trazado_5252" data-name="Trazado 5252" d="M23,53H21a2,2,0,0,0-2,2v2a2,2,0,0,0,2,2h2a2,2,0,0,0,2-2V55A2,2,0,0,0,23,53Zm-2,4V55h2v2Z"/>
      <path id="Trazado_5253" data-name="Trazado 5253" d="M33,53h-.586A1.986,1.986,0,0,0,31,53.586L28.586,56,31,58.414A1.986,1.986,0,0,0,32.414,59H33a2,2,0,0,0,2-2V55A2,2,0,0,0,33,53Zm-.586,4-1-1,1-1H33v2Z"/>
      <circle id="Elipse_34" data-name="Elipse 34" cx="1" cy="1" r="1" transform="translate(21 5)"/>
      <path id="Trazado_5254" data-name="Trazado 5254" d="M55.707,12.707l-1.414-1.414L45,20.586l-3.293-3.293-1.414,1.414L45,23.414Z"/>
      <path id="Trazado_5255" data-name="Trazado 5255" d="M23,19h2v2H23Z"/>
      <path id="Trazado_5256" data-name="Trazado 5256" d="M31,19h2v2H31Z"/>
      <path id="Trazado_5257" data-name="Trazado 5257" d="M15,19h2v2H15Z"/>
      <path id="Trazado_5258" data-name="Trazado 5258" d="M27,19h2v2H27Z"/>
      <path id="Trazado_5259" data-name="Trazado 5259" d="M19,19h2v2H19Z"/>
      <path id="Trazado_5260" data-name="Trazado 5260" d="M27,35.184V32a5,5,0,1,0-10,0v3.184A3,3,0,0,0,15,38v6a3,3,0,0,0,3,3h8a3,3,0,0,0,3-3V38A3,3,0,0,0,27,35.184ZM22,29a3,3,0,0,1,3,3v3H19V32a3,3,0,0,1,3-3Zm5,15a1,1,0,0,1-1,1H18a1,1,0,0,1-1-1V38a1,1,0,0,1,1-1h8a1,1,0,0,1,1,1Z"/>
    </g>
  </g>
</svg>
