<svg xmlns="http://www.w3.org/2000/svg" width="62" height="62" viewBox="0 0 62 62">
  <g id="empleo" transform="translate(-1 -1)">
    <g id="Grupo_1748" data-name="Grupo 1748">
      <g id="Grupo_1724" data-name="Grupo 1724">
        <circle id="Elipse_38" data-name="Elipse 38" cx="7" cy="7" r="7" transform="translate(2 42)" fill="#e6e9ed"/>
      </g>
      <g id="Grupo_1725" data-name="Grupo 1725">
        <path id="Trazado_5271" data-name="Trazado 5271" d="M14.26,50.79a5.545,5.545,0,0,0-10.52,0l-.65,1.95a6.987,6.987,0,0,0,11.82,0Z" fill="#5cd6b3"/>
      </g>
      <g id="Grupo_1726" data-name="Grupo 1726">
        <circle id="Elipse_39" data-name="Elipse 39" cx="13" cy="13" r="13" transform="translate(36 8)" fill="#e6e9ed"/>
      </g>
      <g id="Grupo_1727" data-name="Grupo 1727">
        <circle id="Elipse_40" data-name="Elipse 40" cx="13" cy="13" r="13" transform="translate(2 8)" fill="#e6e9ed"/>
      </g>
      <g id="Grupo_1728" data-name="Grupo 1728">
        <path id="Trazado_5272" data-name="Trazado 5272" d="M42.11,22.2,49,34a12.972,12.972,0,0,1-10-4.69V27.54a6.139,6.139,0,0,1,1.8-4.34,6.4,6.4,0,0,1,1.31-1Z" fill="#fcd770"/>
      </g>
      <g id="Grupo_1729" data-name="Grupo 1729">
        <path id="Trazado_5273" data-name="Trazado 5273" d="M59,27.54v1.71a13,13,0,0,1-9.47,4.74c-.18.01-.35.01-.53.01l6.89-11.8a6.4,6.4,0,0,1,1.31,1A6.139,6.139,0,0,1,59,27.54Z" fill="#fcd770"/>
      </g>
      <g id="Grupo_1730" data-name="Grupo 1730">
        <path id="Trazado_5274" data-name="Trazado 5274" d="M54.35,21.59a6.035,6.035,0,0,1,1.54.61L49,34V23a3.21,3.21,0,0,0,2.89-1.79L52,21Z" fill="#ffeaa7"/>
      </g>
      <g id="Grupo_1731" data-name="Grupo 1731">
        <path id="Trazado_5275" data-name="Trazado 5275" d="M46.11,21.21A3.21,3.21,0,0,0,49,23V34L42.11,22.2a6.035,6.035,0,0,1,1.54-.61L46,21Z" fill="#ffeaa7"/>
      </g>
      <g id="Grupo_1732" data-name="Grupo 1732">
        <path id="Trazado_5276" data-name="Trazado 5276" d="M15,30v4a13.037,13.037,0,0,1-6-1.46,13.214,13.214,0,0,1-4-3.23V27.54a6.127,6.127,0,0,1,1-3.36,6.23,6.23,0,0,1,.8-.98,6.148,6.148,0,0,1,2.85-1.61l.59-.15L12.22,25Z" fill="#ff826e"/>
      </g>
      <g id="Grupo_1733" data-name="Grupo 1733">
        <path id="Trazado_5277" data-name="Trazado 5277" d="M25,29.3v.01A12.972,12.972,0,0,1,15,34V30l2.78-5,1.98-3.56.59.15A6.148,6.148,0,0,1,23.2,23.2a5.913,5.913,0,0,1,.81,1v.01A6.126,6.126,0,0,1,25,27.54Z" fill="#ff826e"/>
      </g>
      <g id="Grupo_1734" data-name="Grupo 1734">
        <path id="Trazado_5278" data-name="Trazado 5278" d="M17.78,25,15,30l-2.78-5Z" fill="#ccd1d9"/>
      </g>
      <g id="Grupo_1735" data-name="Grupo 1735">
        <path id="Trazado_5279" data-name="Trazado 5279" d="M15,8a11.877,11.877,0,0,1-4.68,2.89L10,11v3a4.987,4.987,0,0,0,2.65,4.41L12,21l-1.76.44-.59.15A6.148,6.148,0,0,0,6.8,23.2a6.23,6.23,0,0,0-.8.98V11a9,9,0,0,1,18,0v.62l.01,12.58a5.913,5.913,0,0,0-.81-1,6.148,6.148,0,0,0-2.85-1.61l-.59-.15L18,21l-.65-2.59a4.857,4.857,0,0,0,1.19-.87A5.022,5.022,0,0,0,20,14V11l-.32-.11A11.877,11.877,0,0,1,15,8Z" fill="#656d78"/>
      </g>
      <g id="Grupo_1736" data-name="Grupo 1736">
        <path id="Trazado_5280" data-name="Trazado 5280" d="M47.7,8.07l-.01.01-.66.16A4.009,4.009,0,0,0,44,12.12V14a4.712,4.712,0,0,0,.1,1l-.71-.68a7.719,7.719,0,0,1-2-3.14c-.07-.2-.12-.4-.17-.6A7.512,7.512,0,0,1,41,8.75V8a6,6,0,0,1,6-6h8a2.006,2.006,0,0,1,2,2V8.75a7.512,7.512,0,0,1-.22,1.83c-.05.2-.1.4-.17.6a7.719,7.719,0,0,1-2,3.14L53.9,15a4.712,4.712,0,0,0,.1-1V11.73a2.01,2.01,0,0,0-1.72-1.98l-2.31-.33A3.416,3.416,0,0,1,47.7,8.07Z" fill="#b27946"/>
      </g>
      <g id="Grupo_1737" data-name="Grupo 1737">
        <path id="Trazado_5281" data-name="Trazado 5281" d="M26,62H20V58a8,8,0,0,1,8-8H42V44h6v8a4,4,0,0,1-4,4H38v6Z" fill="#4fc1e9"/>
      </g>
      <g id="Grupo_1738" data-name="Grupo 1738">
        <path id="Trazado_5282" data-name="Trazado 5282" d="M38,34v6a5.989,5.989,0,0,1-4.08,5.68,5.92,5.92,0,0,1-3.84,0A5.989,5.989,0,0,1,26,40V37a5,5,0,0,1,5-5h5A2.006,2.006,0,0,1,38,34Z" fill="#656d78"/>
      </g>
      <g id="Grupo_1739" data-name="Grupo 1739">
        <path id="Trazado_5283" data-name="Trazado 5283" d="M52,46H62v4H52Z" fill="#fcd770"/>
      </g>
      <g id="Grupo_1740" data-name="Grupo 1740">
        <path id="Trazado_5284" data-name="Trazado 5284" d="M52,38H62v4H52Z" fill="#fcd770"/>
      </g>
      <g id="Grupo_1741" data-name="Grupo 1741">
        <path id="Trazado_5285" data-name="Trazado 5285" d="M48,41v3H42V41a3,3,0,0,1,6,0Z" fill="#f0d0b4"/>
      </g>
      <g id="Grupo_1742" data-name="Grupo 1742">
        <path id="Trazado_5286" data-name="Trazado 5286" d="M33.92,45.69,35,50H29l1.08-4.31v-.01a5.92,5.92,0,0,0,3.84,0Z" fill="#f0d0b4"/>
      </g>
      <g id="Grupo_1743" data-name="Grupo 1743">
        <path id="Trazado_5287" data-name="Trazado 5287" d="M9,39a4,4,0,0,1,4,4,2.09,2.09,0,0,1-.01.25,4,4,0,0,1-7.98,0A2.09,2.09,0,0,1,5,43,4,4,0,0,1,9,39Z" fill="#f0d0b4"/>
      </g>
      <g id="Grupo_1744" data-name="Grupo 1744">
        <path id="Trazado_5288" data-name="Trazado 5288" d="M19.76,21.44,17.78,25H12.22l-1.98-3.56L12,21l.65-2.59a4.975,4.975,0,0,0,4.7,0L18,21Z" fill="#f0d0b4"/>
      </g>
      <g id="Grupo_1745" data-name="Grupo 1745">
        <path id="Trazado_5289" data-name="Trazado 5289" d="M20,11v3a5.022,5.022,0,0,1-1.46,3.54,5,5,0,0,1-5.89.87A4.987,4.987,0,0,1,10,14V11l.32-.11A11.877,11.877,0,0,0,15,8a11.877,11.877,0,0,0,4.68,2.89Z" fill="#f0d0b4"/>
      </g>
      <g id="Grupo_1746" data-name="Grupo 1746">
        <path id="Trazado_5290" data-name="Trazado 5290" d="M46.65,18.41,49,19a4.905,4.905,0,0,0,2.35-.59L52,21l-.11.21a3.228,3.228,0,0,1-5.78,0L46,21Z" fill="#f0d0b4"/>
      </g>
      <g id="Grupo_1747" data-name="Grupo 1747">
        <path id="Trazado_5291" data-name="Trazado 5291" d="M47.03,8.24l.66-.16.01-.01a3.416,3.416,0,0,0,2.27,1.35l2.31.33A2.01,2.01,0,0,1,54,11.73V14a4.712,4.712,0,0,1-.1,1,4.983,4.983,0,0,1-2.55,3.41A4.905,4.905,0,0,1,49,19l-2.35-.59a4.857,4.857,0,0,1-1.19-.87A5,5,0,0,1,44.1,15a4.712,4.712,0,0,1-.1-1V12.12a4.009,4.009,0,0,1,3.03-3.88Z" fill="#f0d0b4"/>
      </g>
    </g>
    <g id="Grupo_1749" data-name="Grupo 1749">
      <path id="Trazado_5292" data-name="Trazado 5292" d="M62.975,21.85a13.975,13.975,0,0,0-5.1-11.647A8.675,8.675,0,0,0,58,8.752V4a3,3,0,0,0-3-3H47a7.008,7.008,0,0,0-7,7v.752a8.658,8.658,0,0,0,.126,1.448A13.834,13.834,0,0,0,35.058,20H28.95A13.837,13.837,0,0,0,25,11.224V11A10,10,0,0,0,5,11v.224A13.959,13.959,0,0,0,8,33.106V38.1a5,5,0,0,0-3.975,4.652,8,8,0,1,0,9.95,0A5,5,0,0,0,10,38.1v-4.04A13.95,13.95,0,0,0,28.949,22h6.1A13.973,13.973,0,0,0,48.993,35c.192,0,.386,0,.58-.012a14.106,14.106,0,0,0,13.4-13.138ZM4.465,45.076a5.007,5.007,0,0,0,1.363,1.757,6.516,6.516,0,0,0-2.765,2.992A6.08,6.08,0,0,1,3,49,6,6,0,0,1,4.465,45.076Zm-.27,7.5.489-1.467A4.534,4.534,0,0,1,8,48.124v6.785a5.992,5.992,0,0,1-3.805-2.331ZM10,54.91V48.125a4.534,4.534,0,0,1,3.316,2.987l.489,1.467A6,6,0,0,1,10,54.91ZM15,49a6.08,6.08,0,0,1-.063.825,6.521,6.521,0,0,0-2.765-2.992,5,5,0,0,0,1.363-1.757A6,6,0,0,1,15,49Zm-3-6a3,3,0,1,1-3-3A3,3,0,0,1,12,43ZM60.979,21.732a11.736,11.736,0,0,1-1.128,4.357,7.136,7.136,0,0,0-5.257-5.47l-1.769-.442-.328-1.31a6.011,6.011,0,0,0,2.3-3.337l.508-.484a8.732,8.732,0,0,0,1.935-2.761,11.989,11.989,0,0,1,3.741,9.447ZM49,18a4,4,0,0,1-4-4V12.123a3,3,0,0,1,2.272-2.91l.083-.021a4.434,4.434,0,0,0,2.473,1.222l2.313.331a1,1,0,0,1,.859.989V14A4,4,0,0,1,49,18Zm0,2a5.94,5.94,0,0,0,1.659-.239l.275,1.1a2.21,2.21,0,0,1-3.868,0l.275-1.1A5.977,5.977,0,0,0,49,20Zm-3.5,2.155A4.193,4.193,0,0,0,48,23.873v6.432l-4.459-7.634c.117-.038.231-.083.351-.113ZM50,23.873a4.192,4.192,0,0,0,2.5-1.719l1.612.4c.12.03.234.075.351.113L50,30.306ZM42,8a5.006,5.006,0,0,1,5-5h8a1,1,0,0,1,1,1V8.752a6.6,6.6,0,0,1-1,3.508v-.526a3.013,3.013,0,0,0-2.576-2.969l-2.313-.331A2.471,2.471,0,0,1,48,6H46a4.391,4.391,0,0,0,.243,1.442A4.992,4.992,0,0,0,43,12.123v.137a6.6,6.6,0,0,1-1-3.508ZM15,3a8.01,8.01,0,0,1,8,8l.012,10.747a7.123,7.123,0,0,0-2.418-1.13l-1.769-.442-.328-1.31A5.992,5.992,0,0,0,21,14V10.279l-1-.333a11.037,11.037,0,0,1-4-2.392V5H14V7.553a11.028,11.028,0,0,1-4,2.392L9,10.28V14a5.992,5.992,0,0,0,2.5,4.866l-.328,1.31-1.768.442A7.118,7.118,0,0,0,7,21.74V11a8.009,8.009,0,0,1,8-8Zm0,24.941L13.922,26h2.156ZM17.189,24H12.81l-1.059-1.907,1.073-.268.516-2.063a5.893,5.893,0,0,0,3.319,0l.516,2.063,1.073.268ZM15,9.363a13.088,13.088,0,0,0,4,2.352V14a4,4,0,0,1-8,0V11.714a13.069,13.069,0,0,0,4-2.351ZM5,14.373V23.91a7.066,7.066,0,0,0-.851,2.181A11.925,11.925,0,0,1,5,14.373ZM6,28.91V27.542a5.111,5.111,0,0,1,3.748-4.937L14,30.259v2.69A11.96,11.96,0,0,1,6,28.91Zm10,4.039v-2.69l4.252-7.654A5.114,5.114,0,0,1,24,27.542V28.91a11.964,11.964,0,0,1-8,4.039Zm9.851-6.858a7.062,7.062,0,0,0-.837-2.158L25,14.378a11.927,11.927,0,0,1,.847,11.713ZM40.759,12.277A8.711,8.711,0,0,0,42.7,15.045l.508.484a6.013,6.013,0,0,0,2.3,3.338l-.328,1.31-1.768.442A7.139,7.139,0,0,0,38.146,26.1a11.981,11.981,0,0,1,2.613-13.828ZM40,28.925V27.542a5.1,5.1,0,0,1,1.505-3.633c.092-.092.195-.172.294-.256l5.377,9.2a11.9,11.9,0,0,1-6.488-3.2C40.444,29.421,40.22,29.174,40,28.925Zm10.828,3.927,5.373-9.2c.1.085.2.164.294.256A5.108,5.108,0,0,1,58,27.542v1.341A12.062,12.062,0,0,1,50.828,32.852Z"/>
      <path id="Trazado_5293" data-name="Trazado 5293" d="M45,37a4,4,0,0,0-4,4v8H35.781L35.1,46.268A7,7,0,0,0,39,40V34a3,3,0,0,0-3-3H31a6.006,6.006,0,0,0-6,6v3a7,7,0,0,0,3.9,6.268L28.219,49H28a9.01,9.01,0,0,0-9,9v5H39V57h5a5.006,5.006,0,0,0,5-5V41A4,4,0,0,0,45,37Zm0,2a2,2,0,0,1,2,2v2H43V41A2,2,0,0,1,45,39ZM27,40V37a4,4,0,0,1,4-4h5a1,1,0,0,1,1,1v6a5,5,0,0,1-10,0Zm3.808,6.891a6.572,6.572,0,0,0,2.384,0L33.719,49H30.281ZM44,55H37v6H27V55H25v6H21V58a7.008,7.008,0,0,1,7-7H43V45h4v7A3,3,0,0,1,44,55Z"/>
      <path id="Trazado_5294" data-name="Trazado 5294" d="M51,37v6H63V37Zm10,4H53V39h8Z"/>
      <path id="Trazado_5295" data-name="Trazado 5295" d="M51,51H63V45H51Zm2-4h8v2H53Z"/>
      <path id="Trazado_5296" data-name="Trazado 5296" d="M51,53H63v2H51Z"/>
      <path id="Trazado_5297" data-name="Trazado 5297" d="M51,57H63v2H51Z"/>
      <path id="Trazado_5298" data-name="Trazado 5298" d="M51,61h2v2H51Z"/>
      <path id="Trazado_5299" data-name="Trazado 5299" d="M55,61h2v2H55Z"/>
      <path id="Trazado_5300" data-name="Trazado 5300" d="M59,61h2v2H59Z"/>
    </g>
  </g>
</svg>
