<svg xmlns="http://www.w3.org/2000/svg" width="82" height="77.122" viewBox="0 0 82 77.122">
  <g id="inmigracion" transform="translate(-10 -24.634)">
    <path id="Trazado_5051" data-name="Trazado 5051" d="M53.673,376.359A7.267,7.267,0,0,0,49.8,371.3l-8.5-3.627v-.222a15.129,15.129,0,0,1-12.815,0v.222l-8.5,3.627a7.269,7.269,0,0,0-4,5.9v9.237h37.8V377.2A6.737,6.737,0,0,0,53.673,376.359Z" transform="translate(-5 -285.685)" fill="#50a6ea"/>
    <path id="Trazado_5052" data-name="Trazado 5052" d="M25,371.3l6.558-2.8a15.1,15.1,0,0,1-3.063-1.049v.222L20,371.3a7.269,7.269,0,0,0-4,5.9v9.237h5V377.2a7.269,7.269,0,0,1,4-5.9Z" transform="translate(-5 -285.684)" fill="#72bcef"/>
    <path id="Trazado_5053" data-name="Trazado 5053" d="M237.692,52.38v55.305a3.332,3.332,0,0,1-3.333,3.333H195.365a7.267,7.267,0,0,0-3.873-5.055l-5.46-2.33v-9.8l0,0a13.481,13.481,0,0,0,3.69-9.285V82.837a3.472,3.472,0,0,0,2.768-4.247,2.611,2.611,0,0,0-2.337-1.99h-.327V71.325a13.768,13.768,0,0,0-3.793-9.507V52.38a3.333,3.333,0,0,1,3.333-3.333H197.6v2.662h30.19V49.047h6.568A3.333,3.333,0,0,1,237.692,52.38Z" transform="translate(-146.692 -20.344)" fill="#e5f5fd"/>
    <path id="Trazado_5079" data-name="Trazado 5079" d="M10,0A10,10,0,1,1,0,10,10,10,0,0,1,10,0Z" transform="translate(46.312 39.181)" fill="#cd3934"/>
    <path id="Trazado_5054" data-name="Trazado 5054" d="M231.172,121.915a10,10,0,0,1,8.333-9.859,10,10,0,1,0,0,19.718A10,10,0,0,1,231.172,121.915Z" transform="translate(-181.527 -72.734)" fill="#8a1b17"/>
    <path id="Trazado_5055" data-name="Trazado 5055" d="M70.7,118.942v.153s-11.8,2.08-19.715-4.972a41.652,41.652,0,0,1-4.887.123l-.368,6.045a.279.279,0,0,1-.407.227l-1.633-.838a1.131,1.131,0,0,1-.61-.925v-5.088a13.81,13.81,0,0,1,27.62,0Z" transform="translate(-27.567 -62.686)" fill="#4a5160"/>
    <path id="Trazado_5056" data-name="Trazado 5056" d="M50.458,103.9a13.767,13.767,0,0,1,8.11-3.943A13.813,13.813,0,0,0,43.08,113.666v5.089a1.131,1.131,0,0,0,.61.925l1.633.838a.28.28,0,0,0,.407-.227S45.012,109.347,50.458,103.9Z" transform="translate(-27.567 -62.686)" fill="#58606d"/>
    <path id="Trazado_5057" data-name="Trazado 5057" d="M103.755,332.247v5.868a15.13,15.13,0,0,1-12.815,0v-5.432A13.547,13.547,0,0,0,103.755,332.247Z" transform="translate(-67.45 -256.344)" fill="#efc597"/>
    <path id="Trazado_5058" data-name="Trazado 5058" d="M94.273,340.3V336a13.45,13.45,0,0,1-3.333-1.137V340.3a15.127,15.127,0,0,0,8.074,1.332,15.116,15.116,0,0,1-4.741-1.332Z" transform="translate(-67.45 -258.527)" fill="#d8ad82"/>
    <path id="Trazado_5059" data-name="Trazado 5059" d="M51.755,209.922a13.533,13.533,0,0,1-20.347-11.7v-1.713a3.479,3.479,0,0,1-2.77-4.247,2.613,2.613,0,0,1,2.338-1.99l.015,0a1.129,1.129,0,0,0,.582.742l1.633.838a.28.28,0,0,0,.407-.227l.368-6.045a41.652,41.652,0,0,0,4.887-.123c7.913,7.052,19.715,4.972,19.715,4.972v-.153h.327a2.611,2.611,0,0,1,2.337,1.99,3.472,3.472,0,0,1-2.768,4.247v1.713a13.481,13.481,0,0,1-3.69,9.285c-.088.1-.182.192-.275.285a13.546,13.546,0,0,1-2.758,2.127Z" transform="translate(-15.45 -134.019)" fill="#ffd8b7"/>
    <path id="Trazado_5060" data-name="Trazado 5060" d="M42.266,234.436A13.534,13.534,0,0,1,34.734,222.3V220.59a3.479,3.479,0,0,1-2.77-4.247,2.627,2.627,0,0,1,.378-.853l-.776-.4a1.129,1.129,0,0,1-.582-.742l-.015,0a2.613,2.613,0,0,0-2.338,1.99,3.473,3.473,0,0,0,2.77,4.247V222.3a13.528,13.528,0,0,0,13.535,13.535,13.671,13.671,0,0,0,1.664-.1,13.455,13.455,0,0,1-4.334-1.3Z" transform="translate(-15.443 -158.097)" fill="#e8bc9e"/>
    <path id="Trazado_5061" data-name="Trazado 5061" d="M255.45,30.637h30.19v5.73H255.45Z" transform="translate(-204.542 -5.003)" fill="#475673"/>
    <g id="Grupo_1695" data-name="Grupo 1695" transform="translate(10 24.634)">
      <path id="Trazado_5062" data-name="Trazado 5062" d="M87.667,27.7H82.1V25.634a1,1,0,0,0-1-1H50.909a1,1,0,0,0-1,1V27.7H42.673a4.338,4.338,0,0,0-4.333,4.333v7.205A14.8,14.8,0,0,0,14.514,50.981v4.482a3.576,3.576,0,0,0-2.3,2.545,4.477,4.477,0,0,0,2.741,5.242v.956A14.546,14.546,0,0,0,22.491,76.94v4.393L14.6,84.7l-.054.025A8.32,8.32,0,0,0,10,91.436c0,.027,0,.055,0,.083v9.237a1,1,0,0,0,1,1H48.795a1,1,0,0,0,1-1V91.675H87.667A4.338,4.338,0,0,0,92,87.341v-55.3A4.338,4.338,0,0,0,87.667,27.7ZM51.909,26.634H80.1v3.731H51.909Zm-35.4,24.347a12.809,12.809,0,0,1,25.619,0v4.553c-2.478.268-10.042.672-16.117-3.356,4.174-.556,9.261-1.838,13.035-4.732a1,1,0,1,0-1.217-1.587c-6.864,5.265-19.128,4.71-19.25,4.7a1,1,0,0,0-1.05.938l-.3,4.939-.653-.335a.127.127,0,0,1-.067-.086Zm.444,13.225V62.493a1,1,0,0,0-.828-.985,2.475,2.475,0,0,1-1.971-3.024,1.558,1.558,0,0,1,.891-1.082,2.111,2.111,0,0,0,.617.481l1.633.838a1.279,1.279,0,0,0,1.86-1.036c0-.006,0-.012,0-.019l.309-5.081c.817.008,2.08-.006,3.615-.113,8.168,6.948,19.726,5.008,20.221,4.921a1,1,0,0,0,.3-.1,1.584,1.584,0,0,1,1.224,1.194,2.474,2.474,0,0,1-1.971,3.024,1,1,0,0,0-.827.985v1.714a12.535,12.535,0,1,1-25.07,0ZM38.34,75.73v6.045L37.3,81.333V76.459Q37.839,76.117,38.34,75.73Zm-3.036,1.8v3.59a14.233,14.233,0,0,1-10.814,0V77.854A14.532,14.532,0,0,0,35.3,77.528ZM47.795,99.757H12v-8.2a6.31,6.31,0,0,1,3.417-5.035l8.327-3.554a16.225,16.225,0,0,0,12.309,0l8.327,3.554a6.309,6.309,0,0,1,3.415,5.035ZM90,87.342a2.336,2.336,0,0,1-2.333,2.333H49.442a8.324,8.324,0,0,0-4.195-4.95l-.054-.025L40.34,82.628V73.87a14.476,14.476,0,0,0,3.688-9.664V63.25a4.477,4.477,0,0,0,2.741-5.242,3.583,3.583,0,0,0-2.636-2.65V50.981A14.751,14.751,0,0,0,40.34,41.1V32.036A2.336,2.336,0,0,1,42.674,29.7h7.236v1.661a1,1,0,0,0,1,1H81.1a1,1,0,0,0,1-1V29.7h5.569A2.335,2.335,0,0,1,90,32.037Z" transform="translate(-10 -24.634)"/>
      <path id="Trazado_5063" data-name="Trazado 5063" d="M405.029,221.686h-7.311a1,1,0,0,0,0,2h7.311a1,1,0,0,0,0-2Z" transform="translate(-332.265 -188.844)" fill="#284268"/>
      <path id="Trazado_5064" data-name="Trazado 5064" d="M357.157,223.686h2.452a1,1,0,0,0,0-2h-2.452a1,1,0,0,0,0,2Z" transform="translate(-298.464 -188.844)" fill="#284268"/>
      <path id="Trazado_5065" data-name="Trazado 5065" d="M429.172,286.582h-2.483a1,1,0,1,0,0,2h2.483a1,1,0,0,0,0-2Z" transform="translate(-356.408 -242.924)" fill="#284268"/>
      <path id="Trazado_5066" data-name="Trazado 5066" d="M339.721,288.582a1,1,0,0,0,0-2H326.478a1,1,0,0,0,0,2Z" transform="translate(-272.898 -242.924)" fill="#284268"/>
      <path id="Trazado_5067" data-name="Trazado 5067" d="M300.97,286.582h-.893a1,1,0,0,0,0,2h.893a1,1,0,0,0,0-2Z" transform="translate(-250.897 -242.924)" fill="#284268"/>
      <path id="Trazado_5068" data-name="Trazado 5068" d="M240.212,286.582a1,1,0,1,0,0,2h5.67a1,1,0,0,0,0-2Z" transform="translate(-201.01 -242.924)" fill="#284268"/>
      <path id="Trazado_5069" data-name="Trazado 5069" d="M412.972,346.563h-5.723a1,1,0,0,0,0,2h5.723a1,1,0,0,0,0-2Z" transform="translate(-340.208 -292.908)" fill="#284268"/>
      <path id="Trazado_5070" data-name="Trazado 5070" d="M382.119,346.563H381.4a1,1,0,0,0,0,2h.719a1,1,0,0,0,0-2Z" transform="translate(-318.667 -292.908)" fill="#284268"/>
      <path id="Trazado_5071" data-name="Trazado 5071" d="M337.336,346.563H331.9a1,1,0,0,0,0,2h5.436a1,1,0,0,0,0-2Z" transform="translate(-277.417 -292.908)" fill="#284268"/>
      <path id="Trazado_5072" data-name="Trazado 5072" d="M251.083,346.563H240.212a1,1,0,1,0,0,2h10.871a1,1,0,0,0,0-2Z" transform="translate(-201.01 -292.908)" fill="#284268"/>
      <path id="Trazado_5073" data-name="Trazado 5073" d="M438.357,170.6h-.645a1,1,0,0,0,0,2h.645a1,1,0,0,0,0-2Z" transform="translate(-365.593 -146.272)" fill="#284268"/>
      <path id="Trazado_5074" data-name="Trazado 5074" d="M369.339,172.6h7.088a1,1,0,0,0,0-2h-7.088a1,1,0,0,0,0,2Z" transform="translate(-308.616 -146.272)" fill="#284268"/>
      <path id="Trazado_5075" data-name="Trazado 5075" d="M405.862,120.6h-7.145a1,1,0,1,0,0,2h7.145a1,1,0,0,0,0-2Z" transform="translate(-333.097 -104.606)" fill="#284268"/>
      <path id="Trazado_5076" data-name="Trazado 5076" d="M369.339,122.6h.589a1,1,0,0,0,0-2h-.589a1,1,0,0,0,0,2Z" transform="translate(-308.616 -104.606)" fill="#284268"/>
      <path id="Trazado_5077" data-name="Trazado 5077" d="M232.875,127.92a11,11,0,1,0-11-11,11,11,0,0,0,11,11Zm0-20a9,9,0,1,1-9,9,9,9,0,0,1,9-9Z" transform="translate(-186.562 -92.372)"/>
    </g>
  </g>
</svg>
