<svg xmlns="http://www.w3.org/2000/svg" width="103.76" height="86.161" viewBox="0 0 103.76 86.161">
  <g id="Grupo_1706" data-name="Grupo 1706" transform="translate(879 -133.646)">
    <g id="Grupo_1703" data-name="Grupo 1703" transform="translate(-823.667 189.388)">
      <g id="Grupo_1702" data-name="Grupo 1702" transform="translate(0 0)">
        <g id="Grupo_1700" data-name="Grupo 1700" transform="translate(34.272)">
          <path id="Trazado_5086" data-name="Trazado 5086" d="M445.185,373.152,450.7,371.7l-2.65-9.264a.811.811,0,0,0-1-.558l-4.848,1.343Z" transform="translate(-442.208 -361.846)" fill="#e2dee2"/>
        </g>
        <g id="Grupo_1701" data-name="Grupo 1701" transform="translate(0 18.718)">
          <path id="Trazado_5087" data-name="Trazado 5087" d="M273.074,455.644l.369.89,8.778-2.315Z" transform="translate(-273.074 -454.219)" fill="#e2dee2"/>
        </g>
      </g>
    </g>
    <g id="Grupo_1704" data-name="Grupo 1704" transform="translate(-785.83 196.432)">
      <path id="Trazado_5095" data-name="Trazado 5095" d="M468.772,398.881a3.046,3.046,0,0,0-3.706-2.178l-5.26,1.344a3.406,3.406,0,0,1,3.449,2.354,3.017,3.017,0,0,1-1.452,3.385l4.779-1.221A3.024,3.024,0,0,0,468.772,398.881Z" transform="translate(-459.806 -396.608)" fill="#fd4755"/>
    </g>
    <g id="Grupo_1705" data-name="Grupo 1705" transform="translate(-879 133.646)">
      <path id="Trazado_5080" data-name="Trazado 5080" d="M235.813,289.419l-3.272-1.79a1.057,1.057,0,0,1-.42-.42l-1.79-3.272a1.058,1.058,0,0,0-1.856,0l-1.79,3.272a1.057,1.057,0,0,1-.42.42l-3.272,1.79a1.058,1.058,0,0,0,0,1.856l3.272,1.79a1.057,1.057,0,0,1,.42.421l1.79,3.272a1.058,1.058,0,0,0,1.856,0l1.79-3.272a1.057,1.057,0,0,1,.42-.421l3.272-1.79A1.058,1.058,0,0,0,235.813,289.419Z" transform="translate(-177.369 -243.542)" fill="#fec165"/>
      <path id="Trazado_5081" data-name="Trazado 5081" d="M418.3,39.448l-3.39-1.854a1.1,1.1,0,0,1-.435-.435l-1.854-3.39a1.1,1.1,0,0,0-1.923,0l-1.854,3.39a1.1,1.1,0,0,1-.435.435l-3.39,1.854a1.1,1.1,0,0,0,0,1.923l3.39,1.854a1.1,1.1,0,0,1,.435.435l1.854,3.39a1.1,1.1,0,0,0,1.923,0l1.854-3.39a1.1,1.1,0,0,1,.435-.435l3.39-1.854A1.1,1.1,0,0,0,418.3,39.448Z" transform="translate(-350.662 -31.69)" fill="#fec165"/>
      <path id="Trazado_5082" data-name="Trazado 5082" d="M49.114,162.272l-3.274-1.791a1.058,1.058,0,0,1-.421-.421l-1.791-3.274a1.058,1.058,0,0,0-1.857,0L39.98,160.06a1.058,1.058,0,0,1-.421.421l-3.274,1.791a1.058,1.058,0,0,0,0,1.857l3.274,1.791a1.058,1.058,0,0,1,.421.421l1.791,3.274a1.058,1.058,0,0,0,1.857,0l1.791-3.274a1.058,1.058,0,0,1,.421-.421l3.274-1.791a1.058,1.058,0,0,0,0-1.857Z" transform="translate(-7.623 -139.521)" fill="#fec165"/>
      <path id="Trazado_5083" data-name="Trazado 5083" d="M27.94,371.7l2.65-9.264a.811.811,0,0,1,1-.558l42.573,11.791-3.822,9.212Z" transform="translate(-22.278 -306.103)" fill="#f3f0f3"/>
      <g id="Grupo_1699" data-name="Grupo 1699" transform="translate(42.579 66.053)">
        <g id="Grupo_1698" data-name="Grupo 1698">
          <g id="Grupo_1697" data-name="Grupo 1697">
            <path id="Trazado_5084" data-name="Trazado 5084" d="M213.979,412.73l-3.849,9.277,5.479,1.445,3.822-9.212Z" transform="translate(-210.13 -412.73)" fill="#e2dee2"/>
          </g>
        </g>
      </g>
      <path id="Trazado_5085" data-name="Trazado 5085" d="M302.251,371.7l-2.65-9.264a.811.811,0,0,0-1-.558l-42.573,11.791,3.822,9.212Z" transform="translate(-204.153 -306.103)" fill="#f3f0f3"/>
      <path id="Trazado_5094" data-name="Trazado 5094" d="M108.144,398.881a3.046,3.046,0,0,0-3.706-2.178L62.2,407.492a3.029,3.029,0,0,0-2.286,2.931,2.03,2.03,0,0,1-4.059,0,3.029,3.029,0,0,0-2.286-2.931L11.336,396.7a3.027,3.027,0,1,0-1.516,5.861l40.328,10.3a8.135,8.135,0,0,0,15.476,0l40.328-10.3A3.024,3.024,0,0,0,108.144,398.881Z" transform="translate(-6.007 -333.821)" fill="#cd3934"/>
      <path id="Trazado_5097" data-name="Trazado 5097" d="M227.447,280.42l-1.725-3.153a2.587,2.587,0,0,0-4.523,0l-1.725,3.153-3.153,1.725a2.586,2.586,0,0,0,0,4.522l3.153,1.725,1.725,3.154a2.587,2.587,0,0,0,4.522,0l1.725-3.154,3.153-1.725a2.586,2.586,0,0,0,0-4.522Zm-1.578,5.371a2.575,2.575,0,0,0-1.024,1.024l-1.384,2.531-1.384-2.531a2.574,2.574,0,0,0-1.025-1.025l-2.531-1.384,2.532-1.385A2.574,2.574,0,0,0,222.077,282l1.384-2.531L224.845,282a2.574,2.574,0,0,0,1.025,1.025l2.531,1.384Z" transform="translate(-171.428 -237.601)"/>
      <path id="Trazado_5098" data-name="Trazado 5098" d="M398.347,36.764l3.281,1.794,1.794,3.281a2.624,2.624,0,0,0,4.589,0l1.794-3.281,3.281-1.794a2.624,2.624,0,0,0,0-4.589L409.8,30.38,408.01,27.1a2.624,2.624,0,0,0-4.589,0l-1.794,3.281-3.281,1.794a2.625,2.625,0,0,0,0,4.589Zm4.848-3.776a2.611,2.611,0,0,0,1.04-1.04l1.482-2.709,1.482,2.709a2.61,2.61,0,0,0,1.04,1.04l2.709,1.482-2.709,1.482a2.61,2.61,0,0,0-1.04,1.04L405.716,39.7l-1.482-2.709a2.612,2.612,0,0,0-1.039-1.04l-2.709-1.482Z" transform="translate(-344.718 -25.749)"/>
      <path id="Trazado_5099" data-name="Trazado 5099" d="M29.62,159.481l3.156,1.726,1.726,3.156a2.587,2.587,0,0,0,4.523,0l1.726-3.156,3.156-1.726a2.588,2.588,0,0,0,0-4.524h0l-3.156-1.726-1.726-3.156a2.578,2.578,0,0,0-4.524,0l-1.726,3.156-3.156,1.726a2.587,2.587,0,0,0,0,4.524Zm4.733-3.648a2.573,2.573,0,0,0,1.024-1.025l1.386-2.534,1.386,2.534a2.573,2.573,0,0,0,1.025,1.026l2.534,1.386-2.534,1.386a2.574,2.574,0,0,0-1.025,1.025l-1.386,2.534-1.386-2.534a2.575,2.575,0,0,0-1.025-1.025l-2.534-1.386Z" transform="translate(-1.685 -133.541)"/>
      <path id="Trazado_5100" data-name="Trazado 5100" d="M103.606,319.961a4.571,4.571,0,0,0-5.15-3.353l-1.549-5.414a2.336,2.336,0,0,0-2.862-1.6l-5.07,1.4a1.52,1.52,0,1,0,.811,2.929l4.393-1.217,1.326,4.636L55.819,327.48c-.112.029-.222.063-.33.1l-1.547-3.729,29.012-8.035a1.52,1.52,0,1,0-.811-2.929l-14.681,4.066,23.576-11.473a1.52,1.52,0,0,0-1.33-2.733l-24.96,12.146L83.31,300.84a1.52,1.52,0,1,0-1.835-2.423l-29.6,22.405-29.6-22.405a1.52,1.52,0,1,0-1.835,2.423l18.562,14.052-24.96-12.147a1.52,1.52,0,0,0-1.33,2.733L36.3,316.952,9.713,309.589a2.337,2.337,0,0,0-2.862,1.605L5.3,316.608A4.545,4.545,0,0,0,3.438,325.5l3.606.921a1.52,1.52,0,1,0,.752-2.945l-3.606-.921a1.513,1.513,0,0,1-.935-.7,1.482,1.482,0,0,1-.16-1.132,1.527,1.527,0,0,1,1.859-1.086l42.233,10.788a1.51,1.51,0,0,1,1.143,1.458,3.549,3.549,0,0,0,7.1,0,1.509,1.509,0,0,1,1.143-1.458L98.8,319.636a1.527,1.527,0,0,1,1.859,1.086,1.482,1.482,0,0,1-.16,1.132,1.512,1.512,0,0,1-.935.7l-40.328,10.3a1.52,1.52,0,0,0-1.071,1.009,6.625,6.625,0,0,1-12.581,0,1.52,1.52,0,0,0-1.071-1.009l-29.754-7.6a1.52,1.52,0,0,0-.752,2.945L43,335.6a9.678,9.678,0,0,0,17.769,0l39.557-10.1a4.566,4.566,0,0,0,3.286-5.537ZM8.253,317.342l1.326-4.636L49.817,323.85l-1.547,3.729c-.108-.036-.218-.071-.33-.1ZM51.879,332.38a.5.5,0,0,1-.51-.5,4.518,4.518,0,0,0-.637-2.309l1.146-2.763,1.146,2.763a4.518,4.518,0,0,0-.637,2.31A.5.5,0,0,1,51.879,332.38Z" transform="translate(0.001 -255.281)"/>
    </g>
  </g>
</svg>
