<svg xmlns="http://www.w3.org/2000/svg" width="63.732" height="63.721" viewBox="0 0 63.732 63.721">
  <g id="lupa_1_" data-name="lupa (1)" transform="translate(-0.001 -0.045)">
    <path id="Trazado_5261" data-name="Trazado 5261" d="M0,0H7.235V9.511H0Z" transform="translate(32.172 37.329) rotate(-45)" fill="#9c9c9c"/>
    <path id="Trazado_5262" data-name="Trazado 5262" d="M267.042,261.887a22.139,22.139,0,0,1-5.112,5.12l-3.419-3.419,5.117-5.115Z" transform="translate(-226.332 -226.26)" fill="#838383"/>
    <path id="Trazado_5263" data-name="Trazado 5263" d="M326.726,326.682a5.6,5.6,0,0,1-7.915,0L303.5,311.369a.608.608,0,0,1,0-.86l7.055-7.055a.608.608,0,0,1,.86,0l15.313,15.313a5.6,5.6,0,0,1,0,7.915Z" transform="translate(-265.562 -265.485)" fill="#ac5e2e"/>
    <path id="Trazado_5264" data-name="Trazado 5264" d="M365.384,326.685a5.578,5.578,0,0,1-2.655,1.487,5.6,5.6,0,0,0-.1-7.818l-15.159-15.16,1.737-1.737a.608.608,0,0,1,.861,0l15.313,15.313A5.6,5.6,0,0,1,365.384,326.685Z" transform="translate(-304.22 -265.488)" fill="#9e5528"/>
    <circle id="Elipse_35" data-name="Elipse 35" cx="20.702" cy="20.702" r="20.702" transform="translate(0.924 0.978)" fill="#5a5a5a"/>
    <circle id="Elipse_36" data-name="Elipse 36" cx="15.864" cy="15.864" r="15.864" transform="translate(5.761 5.816)" fill="#8ac9fe"/>
    <path id="Trazado_5265" data-name="Trazado 5265" d="M117.622,231.758h-7.977v15.131a1.156,1.156,0,0,0,1.569,1.08l5.994-2.292a1.156,1.156,0,0,1,.826,0l5.994,2.292a1.156,1.156,0,0,0,1.569-1.08V231.758Z" transform="translate(-95.996 -202.87)" fill="#fb2b3a"/>
    <path id="Trazado_5266" data-name="Trazado 5266" d="M209.29,231.76v15.131a1.157,1.157,0,0,1-1.57,1.08l-2.484-.951a1.116,1.116,0,0,0,.123-.516V231.76Z" transform="translate(-179.688 -202.872)" fill="#e41f2d"/>
    <circle id="Elipse_37" data-name="Elipse 37" cx="11.899" cy="11.899" r="11.899" transform="translate(9.727 9.781)" fill="#fec165"/>
    <path id="Trazado_5267" data-name="Trazado 5267" d="M128.312,118.55l1.268,2.569a.571.571,0,0,0,.43.312l2.835.412a1.183,1.183,0,0,1,.655,2.017l-2.052,2a.571.571,0,0,0-.164.506l.484,2.824a1.183,1.183,0,0,1-1.716,1.247l-2.536-1.333a.571.571,0,0,0-.532,0l-2.536,1.333a1.183,1.183,0,0,1-1.716-1.247l.484-2.824a.571.571,0,0,0-.164-.506l-2.052-2a1.183,1.183,0,0,1,.655-2.017l2.835-.412a.571.571,0,0,0,.43-.312l1.268-2.569A1.183,1.183,0,0,1,128.312,118.55Z" transform="translate(-105.626 -103.176)" fill="#fe9901"/>
    <path id="Trazado_5268" data-name="Trazado 5268" d="M146.027,152.993a.566.566,0,0,0-.164.5l.483,2.825a1.182,1.182,0,0,1-1.716,1.245l-2.536-1.333a.568.568,0,0,0-.531,0l-2.536,1.333a1.182,1.182,0,0,1-1.716-1.245l.11-.644a1.081,1.081,0,0,0,.174-.074l1.119-.589a15,15,0,0,1,1.72-.82,4.88,4.88,0,0,1,1.526-.273c.559-.021,1.384.366,1.73-.277a2.317,2.317,0,0,0,.111-.689,4.812,4.812,0,0,1,1.482-2.59c.461-.439.905-.894,1.361-1.339a1.092,1.092,0,0,0,.128-.148l.65.1a1.182,1.182,0,0,1,.654,2.017Z" transform="translate(-120.203 -130.309)" fill="#fb8801"/>
    <path id="Trazado_5269" data-name="Trazado 5269" d="M61.824,52.622,46.51,37.309a1.543,1.543,0,0,0-2.18,0l-.31.31L39.806,33.4a21.634,21.634,0,0,0-.1-23.614.933.933,0,1,0-1.558,1.027,19.775,19.775,0,0,1-7.612,28.511v-3.41a16.8,16.8,0,1,0-17.819,0v3.408A19.769,19.769,0,0,1,21.562,1.911h.065A19.643,19.643,0,0,1,35.506,7.6a.933.933,0,0,0,1.31-1.328A21.5,21.5,0,0,0,21.627.045h-.072A21.635,21.635,0,0,0,6.327,36.978a21.522,21.522,0,0,0,6.389,4.416v2.625a2.089,2.089,0,0,0,2.835,1.952l.951-.364a.933.933,0,0,0-.666-1.743l-.951.364a.224.224,0,0,1-.3-.209V32.4a12.8,12.8,0,0,0,14.088,0V44.019a.224.224,0,0,1-.3.209l-5.994-2.292a2.088,2.088,0,0,0-1.492,0l-1.049.4a.933.933,0,1,0,.666,1.743l1.049-.4a.222.222,0,0,1,.16,0L27.7,45.97a2.089,2.089,0,0,0,2.835-1.952V41.394a21.509,21.509,0,0,0,2.842-1.549l4.208,4.208-.31.31a1.541,1.541,0,0,0,0,2.18L52.589,61.857a6.53,6.53,0,0,0,9.235-9.234ZM12.716,33.66a14.934,14.934,0,1,1,17.819,0V30.9a12.831,12.831,0,1,0-17.819,0Zm8.91-1.014A10.966,10.966,0,1,1,32.591,21.68,10.978,10.978,0,0,1,21.626,32.646ZM38.9,42.735l-3.986-3.986a21.508,21.508,0,0,0,3.793-3.8L42.7,38.938l-2,2Zm21.6,17.8a4.669,4.669,0,0,1-6.6,0L38.825,45.454l6.6-6.6L60.5,53.942a4.669,4.669,0,0,1,0,6.6Z" transform="translate(0 0)"/>
    <path id="Trazado_5270" data-name="Trazado 5270" d="M126.416,114.359l-2.647-.385-1.184-2.4a2.115,2.115,0,0,0-3.794,0l-1.184,2.4-2.647.385a2.116,2.116,0,0,0-1.172,3.608l1.915,1.867-.452,2.636a2.115,2.115,0,0,0,3.069,2.23l2.367-1.245,2.367,1.245a2.116,2.116,0,0,0,3.069-2.23l-.452-2.636,1.915-1.867a2.116,2.116,0,0,0-1.172-3.608Zm-.13,2.272-2.051,2a1.5,1.5,0,0,0-.433,1.332l.484,2.824a.25.25,0,0,1-.362.263l-2.536-1.333a1.5,1.5,0,0,0-1.4,0l-2.536,1.333a.25.25,0,0,1-.362-.263l.484-2.824a1.5,1.5,0,0,0-.433-1.331l-2.052-2a.25.25,0,0,1,.138-.426l2.835-.412a1.5,1.5,0,0,0,1.132-.823l1.268-2.569a.25.25,0,0,1,.448,0h0l1.268,2.569a1.5,1.5,0,0,0,1.133.823l2.835.412a.25.25,0,0,1,.138.426Z" transform="translate(-99.062 -96.616)"/>
  </g>
</svg>
