<svg xmlns="http://www.w3.org/2000/svg" width="84.645" height="84.645" viewBox="0 0 84.645 84.645">
  <g id="no-fumar_1_" data-name="no-fumar (1)" transform="translate(0)">
    <g id="Grupo_1779" data-name="Grupo 1779" transform="translate(1.222 1.222)">
      <path id="Trazado_5386" data-name="Trazado 5386" d="M48.491,7.39a41.1,41.1,0,1,0,41.1,41.1,41.1,41.1,0,0,0-41.1-41.1ZM21.942,68.541a33.27,33.27,0,0,1,46.6-46.6.741.741,0,0,1,.078,1.113L23.054,68.619A.741.741,0,0,1,21.942,68.541ZM48.491,81.758A33.117,33.117,0,0,1,28.44,75.04a.741.741,0,0,1-.078-1.113L73.927,28.363a.741.741,0,0,1,1.113.078A33.27,33.27,0,0,1,48.491,81.758Z" transform="translate(-7.39 -7.39)" fill="#fe646f"/>
    </g>
    <g id="Grupo_1780" data-name="Grupo 1780" transform="translate(26.648 3.116)">
      <path id="Trazado_5387" data-name="Trazado 5387" d="M189.232,18.85A41.111,41.111,0,0,1,161.19,96.06a41.11,41.11,0,1,0,28.042-77.21Z" transform="translate(-161.19 -18.85)" fill="#fd4755"/>
    </g>
    <g id="Grupo_1788" data-name="Grupo 1788" transform="translate(20.238 6.761)">
      <g id="Grupo_1783" data-name="Grupo 1783" transform="translate(0 24.293)">
        <g id="Grupo_1781" data-name="Grupo 1781">
          <path id="Trazado_5388" data-name="Trazado 5388" d="M136.438,193.438h-13.4a.623.623,0,0,1-.622-.622v-4.352a.623.623,0,0,1,.622-.622h13.4Z" transform="translate(-122.414 -187.841)" fill="#fdb441"/>
        </g>
        <g id="Grupo_1782" data-name="Grupo 1782" transform="translate(0.001 2.176)">
          <path id="Trazado_5389" data-name="Trazado 5389" d="M136.441,201.625v2.8h-13.4a.621.621,0,0,1-.622-.622V201a.623.623,0,0,0,.622.624h13.4Z" transform="translate(-122.418 -201.001)" fill="#fea613"/>
        </g>
      </g>
      <g id="Grupo_1787" data-name="Grupo 1787" transform="translate(9.298)">
        <g id="Grupo_1784" data-name="Grupo 1784" transform="translate(0 0)">
          <path id="Trazado_5390" data-name="Trazado 5390" d="M188.176,48.535a2.18,2.18,0,0,1,2.18-2.181h2.759a2.726,2.726,0,0,0,0-5.453H185.53a6.876,6.876,0,0,0-6.876,6.876,7.552,7.552,0,0,0,7.552,7.552H208.27a1.26,1.26,0,0,1,1.26,1.26,2.306,2.306,0,1,0,4.613,0V55.119a4.4,4.4,0,0,0-4.4-4.4H190.357a2.181,2.181,0,0,1-2.181-2.18Z" transform="translate(-178.654 -40.901)" fill="#c5d3dd"/>
        </g>
        <g id="Grupo_1785" data-name="Grupo 1785" transform="translate(4.963)">
          <path id="Trazado_5391" data-name="Trazado 5391" d="M220.1,41.7a2.726,2.726,0,0,1-1.928,4.654h-2.759a2.181,2.181,0,0,0,0,4.363h-4.56a2.181,2.181,0,0,1,0-4.363h2.759a2.726,2.726,0,0,0,0-5.452h4.558a2.717,2.717,0,0,1,1.928.8Z" transform="translate(-208.676 -40.899)" fill="#b6c4cf"/>
        </g>
        <g id="Grupo_1786" data-name="Grupo 1786" transform="translate(28.059 9.815)">
          <path id="Trazado_5392" data-name="Trazado 5392" d="M355.808,104.67v1.47a2.307,2.307,0,0,1-3.82,1.741c.04-.035.081-.071.119-.11a2.3,2.3,0,0,0,.675-1.631v-1.47a4.4,4.4,0,0,0-4.4-4.4h3.026A4.4,4.4,0,0,1,355.808,104.67Z" transform="translate(-348.379 -100.267)" fill="#b6c4cf"/>
        </g>
      </g>
    </g>
    <g id="Grupo_1789" data-name="Grupo 1789" transform="translate(17.183 24.988)">
      <path id="Trazado_5393" data-name="Trazado 5393" d="M114.6,156.054a3.326,3.326,0,0,1,3.33-3.34,3.267,3.267,0,0,1,3.2,3.267v-1.49a3.326,3.326,0,0,1,3.33-3.34,3.267,3.267,0,0,1,3.2,3.267v14.972a2.959,2.959,0,0,1,3.067-2.957,3.005,3.005,0,0,1,2.851,3.028v1.851a2.959,2.959,0,0,1,5.917,0v13.953a4.86,4.86,0,0,1-2.266,4.138,4.912,4.912,0,0,0-2.321,4.173v7.291H113.941v-6.976c0-1.521-.1-2.144-.743-2.975a25.663,25.663,0,0,1-1.979-2.909c-1.91-3.313-5.692-9.882-7.071-12.34a1.636,1.636,0,0,1,.538-2.173,4.423,4.423,0,0,1,5.689.75l4.223,4.682Z" transform="translate(-103.939 -151.15)" fill="#ffcebf"/>
    </g>
    <g id="Grupo_1790" data-name="Grupo 1790" transform="translate(29.771 26.552)">
      <path id="Trazado_5394" data-name="Trazado 5394" d="M184.686,163.875V183.9h-.026a2.679,2.679,0,0,1-2.679-2.679V163.875a3.265,3.265,0,0,0-1.9-2.967,3.148,3.148,0,0,1,1.4-.3A3.268,3.268,0,0,1,184.686,163.875Z" transform="translate(-180.08 -160.609)" fill="#ffb09e"/>
    </g>
    <g id="Grupo_1791" data-name="Grupo 1791" transform="translate(36.318 24.989)">
      <path id="Trazado_5395" data-name="Trazado 5395" d="M224.275,154.418V175.93a2.679,2.679,0,0,1-2.679-2.679V154.418a3.263,3.263,0,0,0-1.914-2.973,3.133,3.133,0,0,1,1.389-.293,3.267,3.267,0,0,1,3.2,3.266Z" transform="translate(-219.682 -151.152)" fill="#ffb09e"/>
    </g>
    <g id="Grupo_1792" data-name="Grupo 1792" transform="translate(42.5 40.268)">
      <path id="Trazado_5396" data-name="Trazado 5396" d="M261.4,246.6v6.47h-.047a2.679,2.679,0,0,1-2.679-2.679v-3.79a3.055,3.055,0,0,0-1.6-2.693,2.939,2.939,0,0,1,1.441-.336A3.042,3.042,0,0,1,261.4,246.6Z" transform="translate(-257.075 -243.576)" fill="#ffb09e"/>
    </g>
    <g id="Grupo_1793" data-name="Grupo 1793" transform="translate(45.455 42.191)">
      <path id="Trazado_5397" data-name="Trazado 5397" d="M282.241,258.163v13.953a4.863,4.863,0,0,1-2.265,4.138,4.91,4.91,0,0,0-2.321,4.172v7.291h-2.7v-7.291a6.109,6.109,0,0,1,2.321-4.827,4.863,4.863,0,0,0,2.265-4.138v-13.3a2.96,2.96,0,0,0-1.607-2.632,2.959,2.959,0,0,1,4.312,2.632Z" transform="translate(-274.95 -255.204)" fill="#ffb09e"/>
    </g>
    <g id="Grupo_1799" data-name="Grupo 1799" transform="translate(0)">
      <g id="Grupo_1794" data-name="Grupo 1794" transform="translate(34.38 31.08)">
        <path id="Trazado_5398" data-name="Trazado 5398" d="M232.165,193.592H207.958v-5.6h24.207a.623.623,0,0,1,.622.622v4.352A.622.622,0,0,1,232.165,193.592Z" transform="translate(-207.958 -187.995)" fill="#f8f6f6"/>
      </g>
      <g id="Grupo_1795" data-name="Grupo 1795" transform="translate(34.381 33.255)">
        <path id="Trazado_5399" data-name="Trazado 5399" d="M232.79,201.155v2.8a.622.622,0,0,1-.622.622H207.962v-3.421a.623.623,0,0,0,.622.624h23.584A.623.623,0,0,0,232.79,201.155Z" transform="translate(-207.962 -201.155)" fill="#ebebeb"/>
      </g>
      <g id="Grupo_1796" data-name="Grupo 1796" transform="translate(53.777 31.08)">
        <path id="Trazado_5400" data-name="Trazado 5400" d="M330.1,193.592h-4.809v-5.6H330.1a.623.623,0,0,1,.622.622v4.352A.622.622,0,0,1,330.1,193.592Z" transform="translate(-325.289 -187.995)" fill="#fe7d43"/>
      </g>
      <g id="Grupo_1797" data-name="Grupo 1797" transform="translate(53.778 33.255)">
        <path id="Trazado_5401" data-name="Trazado 5401" d="M330.721,201.155v2.8a.621.621,0,0,1-.622.622H325.29v-2.8H330.1A.623.623,0,0,0,330.721,201.155Z" transform="translate(-325.29 -201.155)" fill="#fd6930"/>
      </g>
      <g id="Grupo_1798" data-name="Grupo 1798">
        <path id="Trazado_5402" data-name="Trazado 5402" d="M55.688,298.314a1.24,1.24,0,0,0-2.406.6,34.2,34.2,0,0,0,5.946,12.418,1.24,1.24,0,0,0,1.978-1.5A31.727,31.727,0,0,1,55.688,298.314Z" transform="translate(-44.442 -248.211)"/>
        <path id="Trazado_5403" data-name="Trazado 5403" d="M334,127.712a1.24,1.24,0,1,0-1.978,1.5,31.741,31.741,0,0,1,6.468,19.3,32.15,32.15,0,0,1-21.213,30.143,1.24,1.24,0,1,0,.841,2.333,34.636,34.636,0,0,0,22.851-32.476A34.2,34.2,0,0,0,334,127.712Z" transform="translate(-264.143 -106.187)"/>
        <path id="Trazado_5404" data-name="Trazado 5404" d="M72.249,12.4A42.323,42.323,0,0,0,12.4,72.249,42.323,42.323,0,0,0,72.249,12.4ZM70.5,70.5A39.843,39.843,0,0,1,14.149,14.149,39.843,39.843,0,0,1,70.5,70.5Z" transform="translate(0)"/>
        <path id="Trazado_5405" data-name="Trazado 5405" d="M48.681,73.814a1.24,1.24,0,0,0,1.149-1.324c-.053-.756-.08-1.525-.08-2.287a31.8,31.8,0,0,1,9.4-22.629,32.2,32.2,0,0,1,8.6-6.163c0,.036,0,.071,0,.106a8.8,8.8,0,0,0,8.792,8.791H98.607a.02.02,0,0,1,.02.02,3.546,3.546,0,1,0,7.093,0V48.859a5.65,5.65,0,0,0-5.643-5.643H94.62a1.24,1.24,0,1,0,0,2.48h5.456a3.167,3.167,0,0,1,3.164,3.164v1.469a1.066,1.066,0,1,1-2.133,0,2.5,2.5,0,0,0-2.5-2.5H76.542a6.319,6.319,0,0,1-6.312-6.312,5.642,5.642,0,0,1,5.636-5.636h7.585a1.486,1.486,0,0,1,0,2.973H80.693a3.421,3.421,0,0,0,0,6.842h8.268a1.24,1.24,0,1,0,0-2.48H80.694a.941.941,0,0,1,0-1.882h2.759a3.973,3.973,0,0,0,3.756-2.7,31.94,31.94,0,0,1,9.677,3.315,1.24,1.24,0,0,0,1.171-2.186,34.445,34.445,0,0,0-10.837-3.64A3.973,3.973,0,0,0,83.452,33.4H75.866a8.128,8.128,0,0,0-7.493,5,34.672,34.672,0,0,0-21.1,31.8c0,.82.029,1.649.086,2.462a1.24,1.24,0,0,0,1.236,1.153c.029,0,.059,0,.089,0Z" transform="translate(-39.455 -27.879)"/>
        <path id="Trazado_5406" data-name="Trazado 5406" d="M134.49,165.05a4.2,4.2,0,0,0-6.3-3.636,4.19,4.19,0,0,0-5.539-2.12v-1.477H139.09a1.864,1.864,0,0,0,1.862-1.862V151.6a1.865,1.865,0,0,0-1.862-1.862H122.655v-1.584a4.529,4.529,0,0,0-4.42-4.506,4.418,4.418,0,0,0-3.208,1.289,4.618,4.618,0,0,0-.826,1.1,4.442,4.442,0,0,0-5.708.464,4.641,4.641,0,0,0-1.384,3.213h-5.745a1.865,1.865,0,0,0-1.863,1.862v4.352a1.865,1.865,0,0,0,1.863,1.862h5.742v11.646l-2.063-2.287a5.64,5.64,0,0,0-7.284-.96,2.881,2.881,0,0,0-.945,3.82c1.363,2.43,5.02,8.783,7.078,12.353a26.744,26.744,0,0,0,2.073,3.05c.385.5.483.778.483,2.215V194.6a1.24,1.24,0,0,0,1.24,1.24h20.974a1.24,1.24,0,0,0,1.24-1.24v-7.291a3.65,3.65,0,0,1,1.735-3.119A6.137,6.137,0,0,0,134.49,179Zm1.031-12.83h2.952v3.117h-2.952Zm-19.4-4.047a2,2,0,0,1,2.064-2.044,2.037,2.037,0,0,1,1.987,2.027v1.584h-4.052s0-1.564,0-1.567Zm0,4.047h16.918v3.117H116.123Zm-14.142,3.092v-3.117h5.125v3.117ZM132.01,179a3.64,3.64,0,0,1-1.68,3.085,6.114,6.114,0,0,0-2.907,5.226v6.051H108.929v-5.736a5.187,5.187,0,0,0-1-3.735,24.33,24.33,0,0,1-1.884-2.767c-2.056-3.566-5.707-9.909-7.064-12.328a.4.4,0,0,1,.13-.526,3.17,3.17,0,0,1,4.094.54l4.223,4.682a1.24,1.24,0,0,0,2.161-.83V149.793a2.147,2.147,0,0,1,.643-1.521,1.975,1.975,0,0,1,1.424-.58,2.037,2.037,0,0,1,1.988,2.027c0,.228,0,19.949,0,19.949a1.24,1.24,0,0,0,2.48,0V157.817h4.052v11.851a1.24,1.24,0,0,0,2.48,0v-6.56a1.718,1.718,0,0,1,1.782-1.7,1.77,1.77,0,0,1,1.655,1.789v6.469a1.24,1.24,0,1,0,2.48,0V165.05a1.719,1.719,0,0,1,3.438,0V179Z" transform="translate(-80.504 -119.9)"/>
      </g>
    </g>
  </g>
</svg>
