<svg xmlns="http://www.w3.org/2000/svg" width="55.457" height="75.278" viewBox="0 0 55.457 75.278">
  <g id="obediente" transform="translate(-67.407)">
    <path id="Trazado_5301" data-name="Trazado 5301" d="M216.8,61.927a4.277,4.277,0,0,1-2.347-.7V65.08h4.695V61.229A4.28,4.28,0,0,1,216.8,61.927Z" transform="translate(-125.425 -52.227)" fill="#e8b800"/>
    <g id="Grupo_1750" data-name="Grupo 1750" transform="translate(68.51 14.59)">
      <path id="Trazado_5302" data-name="Trazado 5302" d="M119.1,135.808a.441.441,0,0,0-.542,0l-3.52,2.742a.441.441,0,0,1-.712-.348V125.987a9.555,9.555,0,0,1,6.308-17.812V99.967a.735.735,0,0,0-.735-.735H109.153v5.38a.589.589,0,0,1-.588.588H86.977a.589.589,0,0,1-.588-.588v-5.38H75.642a.735.735,0,0,0-.735.735v58.115a.735.735,0,0,0,.735.735H119.9a.735.735,0,0,0,.735-.735V137Z" transform="translate(-74.907 -99.232)" fill="#f6a96c"/>
    </g>
    <path id="Trazado_5303" data-name="Trazado 5303" d="M81.207,158.083V155H79.166a.441.441,0,0,1-.441-.441V103.492a.441.441,0,0,1,.441-.441h2.041V99.968a.735.735,0,0,1,.735-.735h-6.3a.735.735,0,0,0-.735.735v58.115a.735.735,0,0,0,.735.735h6.3A.735.735,0,0,1,81.207,158.083Z" transform="translate(-6.397 -84.643)" fill="#ea9b58"/>
    <path id="Trazado_5304" data-name="Trazado 5304" d="M137.191,160.7a.441.441,0,0,1-.712-.348V148.136a9.554,9.554,0,0,1,2.489-17.767v-4.726a.441.441,0,0,0-.441-.441H131.3v1.562a.589.589,0,0,1-.588.588H109.128a.589.589,0,0,1-.588-.588V125.2h-7.223a.441.441,0,0,0-.441.441V176.71a.441.441,0,0,0,.441.441h37.21a.441.441,0,0,0,.441-.441V159.318Z" transform="translate(-28.548 -106.794)" fill="#dff6fd"/>
    <g id="Grupo_1751" data-name="Grupo 1751" transform="translate(72.328 18.408)">
      <path id="Trazado_5305" data-name="Trazado 5305" d="M105.287,176.71V125.643a.441.441,0,0,1,.441-.441h-4.411a.441.441,0,0,0-.441.441V176.71a.441.441,0,0,0,.441.441h4.411A.441.441,0,0,1,105.287,176.71Z" transform="translate(-100.876 -125.202)" fill="#c8effe"/>
    </g>
    <g id="Grupo_1752" data-name="Grupo 1752" transform="translate(79.845 12.853)">
      <path id="Trazado_5306" data-name="Trazado 5306" d="M174.325,95.27H152.737a.735.735,0,0,1-.735-.735V88.153a.735.735,0,0,1,.735-.735h21.588a.735.735,0,0,1,.735.735v6.382A.735.735,0,0,1,174.325,95.27Z" transform="translate(-152.002 -87.418)" fill="#fac600"/>
    </g>
    <g id="Grupo_1753" data-name="Grupo 1753" transform="translate(79.845 12.853)">
      <path id="Trazado_5307" data-name="Trazado 5307" d="M155.792,94.535V88.153a.735.735,0,0,1,.735-.735h-3.79a.735.735,0,0,0-.735.735v6.382a.735.735,0,0,0,.735.735h3.79A.735.735,0,0,1,155.792,94.535Z" transform="translate(-152.002 -87.418)" fill="#e8b800"/>
    </g>
    <path id="Trazado_5308" data-name="Trazado 5308" d="M347.528,282.334a9.51,9.51,0,0,1-4.5-1.127v12.215a.441.441,0,0,0,.712.348l3.52-2.742a.441.441,0,0,1,.542,0l3.52,2.742a.441.441,0,0,0,.712-.348V281.207a9.512,9.512,0,0,1-4.5,1.127Z" transform="translate(-235.095 -239.862)" fill="#fb2b3a"/>
    <path id="Trazado_5309" data-name="Trazado 5309" d="M343.025,281.207v12.215a.441.441,0,0,0,.712.348l3.036-2.364v-9.1A9.5,9.5,0,0,1,343.025,281.207Z" transform="translate(-235.095 -239.862)" fill="#e41f2d"/>
    <g id="Grupo_1756" data-name="Grupo 1756" transform="translate(102.878 23.361)">
      <g id="Grupo_1754" data-name="Grupo 1754" transform="translate(0 0)">
        <circle id="Elipse_41" data-name="Elipse 41" cx="9.556" cy="9.556" r="9.556" fill="#4fc123"/>
      </g>
      <g id="Grupo_1755" data-name="Grupo 1755">
        <path id="Trazado_5310" data-name="Trazado 5310" d="M313.534,168.445a9.559,9.559,0,0,1,7.12-9.241,9.556,9.556,0,1,0,0,18.483A9.559,9.559,0,0,1,313.534,168.445Z" transform="translate(-308.663 -158.889)" fill="#47a920"/>
      </g>
    </g>
    <g id="Grupo_1757" data-name="Grupo 1757" transform="translate(87.075 1.103)">
      <circle id="Elipse_42" data-name="Elipse 42" cx="4.299" cy="4.299" r="4.299" transform="translate(0)" fill="#fac600"/>
    </g>
    <g id="Grupo_1758" data-name="Grupo 1758" transform="translate(87.075 1.103)">
      <path id="Trazado_5311" data-name="Trazado 5311" d="M204.873,11.8a4.3,4.3,0,0,1,2.452-3.883,4.3,4.3,0,1,0,0,7.765A4.3,4.3,0,0,1,204.873,11.8Z" transform="translate(-201.179 -7.5)" fill="#e8b800"/>
    </g>
    <g id="Grupo_1759" data-name="Grupo 1759" transform="translate(67.407 0)">
      <path id="Trazado_5312" data-name="Trazado 5312" d="M141.91,185.478l-2.5,2.5-1.335-1.335a1.1,1.1,0,0,0-1.559,1.559l2.115,2.115a1.1,1.1,0,0,0,1.559,0l3.279-3.279a1.1,1.1,0,1,0-1.56-1.559Z" transform="translate(-126.08 -157.932)"/>
      <path id="Trazado_5313" data-name="Trazado 5313" d="M141.91,254.922l-2.5,2.5-1.335-1.335a1.1,1.1,0,0,0-1.559,1.559l2.115,2.115a1.1,1.1,0,0,0,1.559,0l3.279-3.279a1.1,1.1,0,0,0-1.56-1.56Z" transform="translate(-126.08 -217.166)"/>
      <path id="Trazado_5314" data-name="Trazado 5314" d="M203.353,280.345h15.789a1.1,1.1,0,0,0,0-2.205H203.353a1.1,1.1,0,0,0,0,2.205Z" transform="translate(-182.424 -237.246)"/>
      <path id="Trazado_5315" data-name="Trazado 5315" d="M141.91,324.365l-2.5,2.5-1.335-1.335a1.1,1.1,0,1,0-1.559,1.559l2.115,2.115a1.1,1.1,0,0,0,1.559,0l3.279-3.279a1.1,1.1,0,0,0-1.56-1.56Z" transform="translate(-126.08 -276.399)"/>
      <path id="Trazado_5316" data-name="Trazado 5316" d="M219.142,322.8H203.353a1.1,1.1,0,0,0,0,2.205h15.789a1.1,1.1,0,0,0,0-2.205Z" transform="translate(-182.424 -275.339)"/>
      <path id="Trazado_5317" data-name="Trazado 5317" d="M219.142,347.583H203.353a1.1,1.1,0,0,0,0,2.205h15.789a1.1,1.1,0,0,0,0-2.205Z" transform="translate(-182.424 -296.479)"/>
      <path id="Trazado_5318" data-name="Trazado 5318" d="M141.91,393.807l-2.5,2.5-1.335-1.336a1.1,1.1,0,1,0-1.559,1.559l2.115,2.115a1.1,1.1,0,0,0,1.559,0l3.279-3.279a1.1,1.1,0,0,0-1.56-1.56Z" transform="translate(-126.08 -335.631)"/>
      <path id="Trazado_5319" data-name="Trazado 5319" d="M219.142,392.243H203.353a1.1,1.1,0,0,0,0,2.205h15.789a1.1,1.1,0,0,0,0-2.205Z" transform="translate(-182.424 -334.572)"/>
      <path id="Trazado_5320" data-name="Trazado 5320" d="M220.245,418.128a1.1,1.1,0,0,0-1.1-1.1H203.353a1.1,1.1,0,1,0,0,2.205h15.789A1.1,1.1,0,0,0,220.245,418.128Z" transform="translate(-182.424 -355.711)"/>
      <path id="Trazado_5321" data-name="Trazado 5321" d="M122,33.916a1.1,1.1,0,0,0-1.315.838,8.452,8.452,0,1,1-.246-4.553,1.1,1.1,0,1,0,2.089-.709,10.654,10.654,0,0,0-7.186-6.831V15.325a1.84,1.84,0,0,0-1.838-1.838H104a1.838,1.838,0,0,0-1.833-1.737H94.824v-2.2a5.4,5.4,0,1,0-6.9,0v2.2H80.58a1.838,1.838,0,0,0-1.833,1.737h-9.5a1.84,1.84,0,0,0-1.838,1.838V73.44a1.84,1.84,0,0,0,1.838,1.838H113.5a1.84,1.84,0,0,0,1.838-1.838V54.617l.207.161a1.544,1.544,0,0,0,2.492-1.218V41.98a10.58,10.58,0,0,0,1.109-.788,10.7,10.7,0,0,0,3.688-5.962A1.1,1.1,0,0,0,122,33.916Zm-8.864-11.633c-.232-.015-.466-.025-.7-.025-.307,0-.611.016-.911.042V18.849a1.545,1.545,0,0,0-1.544-1.544h-5.973V15.693h9.13ZM91.374,2.205a3.2,3.2,0,1,1-3.2,3.2,3.2,3.2,0,0,1,3.2-3.2Zm-1.245,8.451a5.367,5.367,0,0,0,2.489,0V11.75H90.129V10.657Zm23.006,62.416H69.612V15.693h9.13v1.613H72.769a1.545,1.545,0,0,0-1.544,1.544V69.916a1.545,1.545,0,0,0,1.544,1.544H99.66a1.1,1.1,0,0,0,0-2.205H73.431V19.511h5.312v.459a1.84,1.84,0,0,0,1.838,1.838h3.937a1.1,1.1,0,0,0,0-2.205H80.947V13.956H101.8V19.6H89.663a1.1,1.1,0,0,0,0,2.205h12.505a1.84,1.84,0,0,0,1.838-1.838v-.459h5.312v3.213a10.7,10.7,0,0,0-5.769,4.316H88.335a1.1,1.1,0,0,0,0,2.205h14.092a10.566,10.566,0,0,0-.415,1.438H88.335a1.1,1.1,0,0,0,0,2.205h13.441c0,.009,0,.018,0,.027a10.592,10.592,0,0,0,.925,4.334H88.335a1.1,1.1,0,0,0,0,2.205h15.691a10.738,10.738,0,0,0,2.8,2.52V53.56a1.542,1.542,0,0,0,2.489,1.22V69.254h-4.511a1.1,1.1,0,1,0,0,2.205h5.172a1.545,1.545,0,0,0,1.544-1.544V53.063l.911-.71.7.546V73.073Zm2.7-20.867-2.452-1.91a1.542,1.542,0,0,0-1.9,0l-2.452,1.91V43.015a10.6,10.6,0,0,0,6.8,0Z" transform="translate(-67.407 0)"/>
      <path id="Trazado_5322" data-name="Trazado 5322" d="M349.763,202.241l-4.09,4.09-2.362-2.362a1.1,1.1,0,1,0-1.559,1.559l3.142,3.142a1.1,1.1,0,0,0,1.559,0l4.87-4.87a1.1,1.1,0,0,0-1.56-1.559Z" transform="translate(-301.14 -172.23)"/>
      <path id="Trazado_5323" data-name="Trazado 5323" d="M199.895,107.725a1.1,1.1,0,0,0-1.1-1.1H188.284a1.1,1.1,0,0,0,0,2.205h10.508A1.1,1.1,0,0,0,199.895,107.725Z" transform="translate(-169.571 -90.946)"/>
    </g>
  </g>
</svg>
