<svg xmlns="http://www.w3.org/2000/svg" width="67.443" height="71.198" viewBox="0 0 67.443 71.198">
  <g id="personas" transform="translate(0 0.001)">
    <g id="Grupo_1675" data-name="Grupo 1675" transform="translate(1.389 1.388)">
      <path id="Trazado_5008" data-name="Trazado 5008" d="M101.293,234.414H86.939a21.747,21.747,0,0,0,2.475,13.576,11.864,11.864,0,0,1,8.227,4.987h3a3.092,3.092,0,1,0,0-6.184,3.094,3.094,0,0,1,0-6.189h.65a3.095,3.095,0,0,0,0-6.189Zm0,0" transform="translate(-76.048 -203.206)" fill="#cbe558" fill-rule="evenodd"/>
      <path id="Trazado_5009" data-name="Trazado 5009" d="M65.344,59.036a4.593,4.593,0,0,0,4.579-4.592q0-.16-.012-.319a4.594,4.594,0,1,0-5.6,4.8,4.662,4.662,0,0,0,1,.111h.032Zm0,0" transform="translate(-53.678 -44.305)" fill="#ffddcf" fill-rule="evenodd"/>
      <path id="Trazado_5010" data-name="Trazado 5010" d="M45.231,115.922h0Zm6.493,3.2a8.18,8.18,0,0,0-6.478-3.2h-.032a8.365,8.365,0,0,0-1.186.091,8.189,8.189,0,0,0-6.639,5.759,11.963,11.963,0,0,0,1.915,1.439,11.8,11.8,0,0,0,6.135,1.711,12.36,12.36,0,0,0,1.627-.11,11.862,11.862,0,0,0,6.088-2.744v0a8.258,8.258,0,0,0-1.43-2.937Zm0,0" transform="translate(-33.58 -101.191)" fill="#f46370" fill-rule="evenodd"/>
      <path id="Trazado_5011" data-name="Trazado 5011" d="M26.234,20.127a4.592,4.592,0,0,1-4.575,4.592,8.185,8.185,0,0,1,7.9,6.142v0a11.859,11.859,0,1,0-15.764-.3,8.189,8.189,0,0,1,6.639-5.759,8.309,8.309,0,0,1,1.182-.091,4.653,4.653,0,0,1-1-.11,4.6,4.6,0,1,1,5.6-4.8q.012.16.012.319Zm0,0" transform="translate(-9.989 -9.988)" fill="#bdd9ff" fill-rule="evenodd"/>
      <path id="Trazado_5012" data-name="Trazado 5012" d="M339.661,115.922a8.18,8.18,0,0,0-6.316,3.008,8.124,8.124,0,0,0-1.509,2.842,11.837,11.837,0,0,0,6.4,3.035,12.052,12.052,0,0,0,1.655.115,11.85,11.85,0,0,0,7.714-2.854v0a8.193,8.193,0,0,0-6.257-5.968,8.36,8.36,0,0,0-1.651-.174h-.031Zm0,0" transform="translate(-287.08 -101.191)" fill="#ffbd5a" fill-rule="evenodd"/>
      <path id="Trazado_5013" data-name="Trazado 5013" d="M359.778,59.036h0Zm-4.594-4.592a4.593,4.593,0,0,0,4.579,4.592h.035a4.424,4.424,0,0,0,1.316-.2,4.595,4.595,0,1,0-5.895-4.956,4.47,4.47,0,0,0-.035.56Zm0,0" transform="translate(-307.182 -44.305)" fill="#ffddcf" fill-rule="evenodd"/>
      <path id="Trazado_5014" data-name="Trazado 5014" d="M320.683,20.127a4.592,4.592,0,0,1-3.259,4.4,4.421,4.421,0,0,1-1.316.2,8.393,8.393,0,0,1,1.647.174,8.194,8.194,0,0,1,6.257,5.968v0a11.862,11.862,0,1,0-17.364-2.112,12.357,12.357,0,0,0,1.6,1.817,8.123,8.123,0,0,1,1.509-2.842,8.172,8.172,0,0,1,6.316-3.008,4.594,4.594,0,0,1-4.579-4.592,4.361,4.361,0,0,1,.036-.56,4.593,4.593,0,0,1,9.153.56Zm0,0" transform="translate(-263.492 -9.988)" fill="#bdd9ff" fill-rule="evenodd"/>
      <path id="Trazado_5015" data-name="Trazado 5015" d="M339.664,437.293a8.189,8.189,0,0,0-7.825,5.846,11.851,11.851,0,0,0,15.764.3v0a8.188,8.188,0,0,0-7.908-6.141h-.031Zm0,0" transform="translate(-287.084 -377.873)" fill="#579fff" fill-rule="evenodd"/>
      <path id="Trazado_5016" data-name="Trazado 5016" d="M359.778,380.407h0Zm-3.2-1.3a4.58,4.58,0,0,0,3.187,1.3h.035a4.595,4.595,0,1,0-3.223-1.3Zm0,0" transform="translate(-307.182 -320.987)" fill="#ffddcf" fill-rule="evenodd"/>
      <path id="Trazado_5017" data-name="Trazado 5017" d="M320.683,341.5a4.59,4.59,0,0,1-4.575,4.592,8.192,8.192,0,0,1,7.9,6.141v0A11.862,11.862,0,0,0,316.3,331.36a11.491,11.491,0,0,0-1.532.1,11.876,11.876,0,0,0-10.067,9.275,12.065,12.065,0,0,0-.26,2.491,11.852,11.852,0,0,0,3.81,8.712,8.187,8.187,0,0,1,7.825-5.846,4.592,4.592,0,1,1,4.61-4.592Zm0,0" transform="translate(-263.492 -286.671)" fill="#bdd9ff" fill-rule="evenodd"/>
      <path id="Trazado_5018" data-name="Trazado 5018" d="M45.215,437.293a8.186,8.186,0,0,0-7.825,5.846,11.851,11.851,0,0,0,15.764.3v0a8.188,8.188,0,0,0-7.908-6.141h-.032Zm0,0" transform="translate(-33.58 -377.873)" fill="#e2f1a1" fill-rule="evenodd"/>
      <path id="Trazado_5019" data-name="Trazado 5019" d="M65.332,380.4h0Zm-4.594-4.592a4.592,4.592,0,0,0,4.574,4.592h.039a4.593,4.593,0,1,0-4.613-4.592Zm0,0" transform="translate(-53.681 -320.983)" fill="#ffddcf" fill-rule="evenodd"/>
      <path id="Trazado_5020" data-name="Trazado 5020" d="M25.012,344.624a4.582,4.582,0,0,1-3.349,1.467,8.192,8.192,0,0,1,7.9,6.141v0a11.859,11.859,0,0,0-7.714-20.876,11.865,11.865,0,0,0-8.05,20.577,8.185,8.185,0,0,1,7.821-5.846,4.588,4.588,0,1,1,3.388-1.467Zm0,0" transform="translate(-9.992 -286.67)" fill="#bdd9ff" fill-rule="evenodd"/>
      <path id="Trazado_5021" data-name="Trazado 5021" d="M273.531,157.3a3.094,3.094,0,0,0,0,6.189h14.448a21.882,21.882,0,0,0,.212-3.023,21.572,21.572,0,0,0-2.821-10.691,11.833,11.833,0,0,1-6.395-3.035,12.3,12.3,0,0,1-1.6-1.817h-3.192a3.094,3.094,0,0,0,0,6.189,3.094,3.094,0,0,1,0,6.189h-.654Zm0,0" transform="translate(-234.22 -126.159)" fill="#cbe558" fill-rule="evenodd"/>
      <path id="Trazado_5022" data-name="Trazado 5022" d="M114.286,110.166a3.1,3.1,0,0,1,3.093-3.095h3.192a11.81,11.81,0,0,1-1.9-4.19,21.726,21.726,0,0,0-17.848-.012,11.867,11.867,0,0,1-9.921,9.059,21.463,21.463,0,0,0-2.6,7.588h14.354a3.094,3.094,0,0,1,0,6.189h-.65a3.094,3.094,0,0,0,0,6.189,3.092,3.092,0,1,1,0,6.185h-3a11.886,11.886,0,0,1,1.868,4.3,21.7,21.7,0,0,0,17.75-.012,11.868,11.868,0,0,1,10.059-9.276,21.45,21.45,0,0,0,2.49-7.458H116.725a3.094,3.094,0,0,1,0-6.189h.654a3.094,3.094,0,0,0,0-6.189,3.1,3.1,0,0,1-3.093-3.094Zm0,0" transform="translate(-77.415 -88.307)" fill="#579fff" fill-rule="evenodd"/>
    </g>
    <path id="Trazado_5023" data-name="Trazado 5023" d="M62.1,47.317a30.473,30.473,0,0,0,1.7-5.647,1.389,1.389,0,1,0-2.726-.536,27.648,27.648,0,0,1-1.39,4.749,13.15,13.15,0,0,0-4.774-1.175A23.1,23.1,0,0,0,56.508,39a1.256,1.256,0,0,0,.022-.152,22.965,22.965,0,0,0-1.7-12.354,13.163,13.163,0,0,0,4.788-1.148,27.917,27.917,0,0,1,1.443,4.838,1.389,1.389,0,0,0,1.36,1.115,1.407,1.407,0,0,0,.276-.028,1.389,1.389,0,0,0,1.087-1.637,30.7,30.7,0,0,0-1.746-5.707c.235-.173.463-.355.685-.543a1.325,1.325,0,0,0,.171-.146A13.247,13.247,0,1,0,42.858,6.4,30.757,30.757,0,0,0,24.58,6.391,13.247,13.247,0,1,0,4.154,22.883a1.357,1.357,0,0,0,.212.2q.486.44,1.015.831a30.709,30.709,0,0,0-1.708,5.522,1.39,1.39,0,0,0,1.078,1.643,1.407,1.407,0,0,0,.284.029A1.389,1.389,0,0,0,6.394,30,27.908,27.908,0,0,1,7.8,25.335a13.16,13.16,0,0,0,4.784,1.157,23.069,23.069,0,0,0-1.66,5.8,1.383,1.383,0,0,0-.029.2A23.028,23.028,0,0,0,12.5,44.71a13.148,13.148,0,0,0-4.768,1.183,27.813,27.813,0,0,1-1.449-5.042,1.389,1.389,0,0,0-2.731.512,30.6,30.6,0,0,0,1.764,5.969A13.241,13.241,0,0,0,4.176,67.593a1.41,1.41,0,0,0,.164.153,13.22,13.22,0,0,0,17.454.317,1.437,1.437,0,0,0,.162-.141,13.37,13.37,0,0,0,2.522-2.953,30.72,30.72,0,0,0,18.482-.006,13.356,13.356,0,0,0,2.153,2.621,1.368,1.368,0,0,0,.184.171,13.216,13.216,0,0,0,17.443.309,1.443,1.443,0,0,0,.152-.13A13.242,13.242,0,0,0,62.1,47.317ZM54.194,23.73a10.411,10.411,0,0,1-6.406-2.2,6.789,6.789,0,0,1,12.5.234,10.4,10.4,0,0,1-6.093,1.965Zm-3.413-12.2a3.2,3.2,0,1,1,3.2,3.2A3.209,3.209,0,0,1,50.78,11.527Zm3.413-8.749A10.468,10.468,0,0,1,62.4,19.745a9.57,9.57,0,0,0-4.163-4.017,5.983,5.983,0,1,0-8.5.012,9.7,9.7,0,0,0-3.991,3.7,10.47,10.47,0,0,1,8.444-16.66ZM43.863,21.541a13.377,13.377,0,0,0,1.222,1.325,1.366,1.366,0,0,0,.252.232,13.213,13.213,0,0,0,6.308,3.162A20.312,20.312,0,0,1,53.971,35.7c0,.546-.024,1.091-.068,1.634H40.7a1.705,1.705,0,0,1,0-3.41h.654a4.484,4.484,0,0,0,0-8.967,1.705,1.705,0,0,1,0-3.411ZM33.709,7.784A27.807,27.807,0,0,1,41.666,8.94a13.207,13.207,0,0,0-.721,4.314c0,.186,0,.372.012.556A23.212,23.212,0,0,0,26.485,13.8c.008-.182.012-.364.012-.548a13.2,13.2,0,0,0-.724-4.321,27.89,27.89,0,0,1,7.935-1.149ZM4.8,19.437a10.471,10.471,0,1,1,16.654.307A9.566,9.566,0,0,0,17.3,15.727a5.983,5.983,0,1,0-8.5.011,9.684,9.684,0,0,0-3.991,3.7Zm11.441-7.91a3.2,3.2,0,1,1-3.2-3.207A3.207,3.207,0,0,1,16.245,11.527Zm-9.4,10a6.791,6.791,0,0,1,12.5.234,10.433,10.433,0,0,1-12.5-.234Zm0,44.688a6.792,6.792,0,0,1,12.5.235,10.432,10.432,0,0,1-12.5-.235Zm2.994-10a3.2,3.2,0,1,1,3.2,3.2A3.209,3.209,0,0,1,9.835,56.216Zm11.623,8.217A9.567,9.567,0,0,0,17.3,60.416a5.983,5.983,0,1,0-8.5.011,9.681,9.681,0,0,0-3.992,3.7,10.471,10.471,0,1,1,16.655.309ZM23.672,49.77a13.26,13.26,0,0,0-8.016-4.862A20.322,20.322,0,0,1,13.448,35.7c0-.572.027-1.142.074-1.709H26.633a1.705,1.705,0,0,1,0,3.41h-.65a4.484,4.484,0,0,0,0,8.968,1.7,1.7,0,1,1,0,3.406ZM33.709,63.61a27.835,27.835,0,0,1-8-1.17,13.2,13.2,0,0,0,.785-4.5q0-.175,0-.35a23.154,23.154,0,0,0,14.457-.01c0,.12-.005.24-.005.361a13.2,13.2,0,0,0,.784,4.491,27.811,27.811,0,0,1-8.019,1.175Zm7.7-9.162a20.308,20.308,0,0,1-15.381.011,13.2,13.2,0,0,0-.683-1.912h.633a4.482,4.482,0,1,0,0-8.963,1.705,1.705,0,0,1,0-3.41h.65a4.484,4.484,0,0,0,0-8.967H13.95a20.171,20.171,0,0,1,1.819-4.941,13.21,13.21,0,0,0,6.025-2.893,1.448,1.448,0,0,0,.152-.13,13.285,13.285,0,0,0,4.025-6.287,20.344,20.344,0,0,1,15.5.012,13.15,13.15,0,0,0,.669,1.795h-.791a4.484,4.484,0,0,0,0,8.967,1.705,1.705,0,0,1,0,3.41H40.7a4.484,4.484,0,0,0,0,8.967H53.484a20.186,20.186,0,0,1-1.73,4.807,13.293,13.293,0,0,0-10.341,9.534Zm6.373,11.771a6.791,6.791,0,0,1,12.5.235,10.432,10.432,0,0,1-12.5-.235Zm2.994-10a3.2,3.2,0,1,1,3.2,3.2A3.209,3.209,0,0,1,50.78,56.216ZM62.4,64.434a9.567,9.567,0,0,0-4.163-4.018,5.983,5.983,0,1,0-8.5.012,9.692,9.692,0,0,0-3.991,3.7,10.471,10.471,0,1,1,16.654.307Zm0,0" transform="translate(0)"/>
    <path id="Trazado_5024" data-name="Trazado 5024" d="M443.031,248.092v.028a1.389,1.389,0,0,0,2.778,0v-.028a1.389,1.389,0,1,0-2.778,0Zm0,0" transform="translate(-381.424 -212.397)"/>
    <path id="Trazado_5025" data-name="Trazado 5025" d="M24.6,247.948v-.024a1.389,1.389,0,0,0-2.779,0v.024a1.389,1.389,0,0,0,2.779,0Zm0,0" transform="translate(-18.783 -212.253)"/>
  </g>
</svg>
