<svg xmlns="http://www.w3.org/2000/svg" width="53.973" height="59.818" viewBox="0 0 53.973 59.818">
  <g id="plan_1_" data-name="plan (1)" transform="translate(-0.5 0)">
    <path id="Trazado_5199" data-name="Trazado 5199" d="M146.012,8.668v56.9h28.8a7.3,7.3,0,0,0,7.3-7.3V8.668A1.168,1.168,0,0,0,180.94,7.5H147.18a1.168,1.168,0,0,0-1.168,1.168Zm0,0" transform="translate(-128.512 -6.624)" fill="#e3f4ff"/>
    <path id="Trazado_5200" data-name="Trazado 5200" d="M374.467,8.668v49.6a7.3,7.3,0,0,1-7.3,7.3h-3.354a7.3,7.3,0,0,0,7.3-7.3V8.668A1.169,1.169,0,0,0,369.945,7.5H373.3A1.169,1.169,0,0,1,374.467,8.668Zm0,0" transform="translate(-320.87 -6.624)" fill="#bddff4"/>
    <path id="Trazado_5201" data-name="Trazado 5201" d="M52.068,416.645a1.168,1.168,0,0,1,1.168,1.168v1.8a7.3,7.3,0,0,0,7.3,7.3h-36.1a7.3,7.3,0,0,1-7.3-7.3v-1.8a1.168,1.168,0,0,1,1.168-1.168Zm0,0" transform="translate(-14.693 -367.968)" fill="#9cc6db"/>
    <g id="Grupo_1710" data-name="Grupo 1710" transform="translate(23.342 18.472)">
      <path id="Trazado_5202" data-name="Trazado 5202" d="M200.256,160.228a2.122,2.122,0,1,1-2.122-2.122A2.122,2.122,0,0,1,200.256,160.228Zm0,0" transform="translate(-196.012 -158.106)" fill="#f9b200"/>
      <path id="Trazado_5203" data-name="Trazado 5203" d="M200.256,239.454a2.122,2.122,0,1,1-2.122-2.122A2.122,2.122,0,0,1,200.256,239.454Zm0,0" transform="translate(-196.012 -228.076)" fill="#f9b200"/>
      <path id="Trazado_5204" data-name="Trazado 5204" d="M200.256,318.681a2.122,2.122,0,1,1-2.122-2.122A2.122,2.122,0,0,1,200.256,318.681Zm0,0" transform="translate(-196.012 -298.047)" fill="#f9b200"/>
    </g>
    <path id="Trazado_5205" data-name="Trazado 5205" d="M199.258,54.785h23.655v5.082H199.258Zm0,0" transform="translate(-175.537 -48.385)" fill="#fd6096"/>
    <path id="Trazado_5206" data-name="Trazado 5206" d="M146.043,266.2l3.762,1.87a.518.518,0,0,0,.716-.643l-1.458-3.941Zm0,0" transform="translate(-128.539 -232.701)" fill="#4e7693"/>
    <path id="Trazado_5207" data-name="Trazado 5207" d="M23.31,130.471l-15.1-16.81a.862.862,0,0,1,.065-1.218l2.4-2.158a.862.862,0,0,1,1.218.065L27,127.16a.862.862,0,0,1-.065,1.219l-2.4,2.158a.862.862,0,0,1-1.218-.065Zm0,0" transform="translate(-6.615 -97.206)" fill="#c0ff66"/>
    <path id="Trazado_5208" data-name="Trazado 5208" d="M23.31,140.3l-15.1-16.81a.862.862,0,0,1,.065-1.218l1.2-1.079L25.73,139.284l-1.2,1.079a.862.862,0,0,1-1.218-.065Zm0,0" transform="translate(-6.615 -107.032)" fill="#9be058"/>
    <path id="Trazado_5209" data-name="Trazado 5209" d="M9.849,115.483l-1.636-1.821a.863.863,0,0,1,.065-1.218l2.4-2.158a.862.862,0,0,1,1.218.065l1.636,1.82Zm0,0" transform="translate(-6.617 -97.206)" fill="#fd82ac"/>
    <path id="Trazado_5210" data-name="Trazado 5210" d="M52.429,0H18.669a2.047,2.047,0,0,0-2.045,2.045V24.46L5.935,12.559a1.739,1.739,0,0,0-2.456-.131l-2.4,2.159a1.741,1.741,0,0,0-.131,2.456l15.1,16.809a1.733,1.733,0,0,0,.581.424V47.8H13.218a.876.876,0,0,0,0,1.752H37.375a.292.292,0,0,1,.292.292v1.8a8.161,8.161,0,0,0,3.12,6.418H9.739A6.426,6.426,0,0,1,3.32,51.646v-1.8a.292.292,0,0,1,.292-.292H9.4a.876.876,0,0,0,0-1.752H3.612a2.047,2.047,0,0,0-2.045,2.045v1.8a8.181,8.181,0,0,0,8.172,8.171H46.3a8.181,8.181,0,0,0,8.172-8.171V27.8a.876.876,0,1,0-1.752,0V51.646A6.427,6.427,0,0,1,46.3,58.065h-.463a6.426,6.426,0,0,1-6.419-6.419v-1.8A2.047,2.047,0,0,0,37.375,47.8h-19V34.909l2.5,1.243A1.394,1.394,0,0,0,22.8,34.42L21.46,30.786c.008-.054.014-.108.016-.162a1.727,1.727,0,0,0-.443-1.255l-2.657-2.958V2.044a.292.292,0,0,1,.292-.292h33.76a.292.292,0,0,1,.292.292V13.471a.876.876,0,1,0,1.752,0V2.044A2.047,2.047,0,0,0,52.429,0ZM4.64,13.74,5.681,14.9,3.3,17.04,2.257,15.881Zm-.172,4.6.54-.485L17.878,32.186l-.539.485ZM19.195,33.358l1.012-.909.64,1.73Zm-.013-2.344L6.312,16.688l.539-.485L19.721,30.53Zm0,0" transform="translate(0 0)"/>
    <path id="Trazado_5211" data-name="Trazado 5211" d="M448.349,140.469a.876.876,0,0,0-.876.876v6.7a.876.876,0,0,0,1.753,0v-6.7A.876.876,0,0,0,448.349,140.469Zm0,0" transform="translate(-394.752 -124.058)"/>
    <path id="Trazado_5212" data-name="Trazado 5212" d="M191.51,150.6a3,3,0,1,0,3,3A3,3,0,0,0,191.51,150.6Zm0,4.244a1.246,1.246,0,1,1,1.246-1.245A1.247,1.247,0,0,1,191.51,154.849Zm0,0" transform="translate(-166.046 -133.01)"/>
    <path id="Trazado_5213" data-name="Trazado 5213" d="M255.774,172.132h4.294a.876.876,0,1,0,0-1.753h-4.294a.876.876,0,0,0,0,1.753Zm0,0" transform="translate(-224.676 -150.474)"/>
    <path id="Trazado_5214" data-name="Trazado 5214" d="M270.742,188.355H255.775a.876.876,0,0,0,0,1.752h14.967a.876.876,0,1,0,0-1.752Zm0,0" transform="translate(-224.677 -166.349)"/>
    <path id="Trazado_5215" data-name="Trazado 5215" d="M255.783,150.937h.006a.876.876,0,0,0-.005-1.752h-.015a.876.876,0,0,0,.014,1.752Zm0,0" transform="translate(-224.68 -131.755)"/>
    <path id="Trazado_5216" data-name="Trazado 5216" d="M191.51,229.832a3,3,0,1,0,3,3A3,3,0,0,0,191.51,229.832Zm0,4.244a1.246,1.246,0,1,1,1.246-1.246A1.247,1.247,0,0,1,191.51,234.076Zm0,0" transform="translate(-166.046 -202.981)"/>
    <path id="Trazado_5217" data-name="Trazado 5217" d="M255.774,251.358h4.294a.876.876,0,1,0,0-1.753h-4.294a.876.876,0,0,0,0,1.753Zm0,0" transform="translate(-224.676 -220.443)"/>
    <path id="Trazado_5218" data-name="Trazado 5218" d="M270.742,267.582H255.775a.876.876,0,0,0,0,1.753h14.967a.876.876,0,0,0,0-1.753Zm0,0" transform="translate(-224.677 -236.32)"/>
    <path id="Trazado_5219" data-name="Trazado 5219" d="M255.783,230.158h.006a.876.876,0,0,0-.005-1.752h-.015a.876.876,0,0,0,.014,1.752Zm0,0" transform="translate(-224.68 -201.721)"/>
    <path id="Trazado_5220" data-name="Trazado 5220" d="M191.51,309.059a3,3,0,1,0,3,3A3,3,0,0,0,191.51,309.059Zm0,4.244a1.246,1.246,0,1,1,1.246-1.245A1.247,1.247,0,0,1,191.51,313.3Zm0,0" transform="translate(-166.046 -272.951)"/>
    <path id="Trazado_5221" data-name="Trazado 5221" d="M255.774,330.585h4.294a.876.876,0,0,0,0-1.753h-4.294a.876.876,0,0,0,0,1.753Zm0,0" transform="translate(-224.676 -290.414)"/>
    <path id="Trazado_5222" data-name="Trazado 5222" d="M255.774,348.561h14.967a.876.876,0,0,0,0-1.752H255.774a.876.876,0,0,0,0,1.752Zm0,0" transform="translate(-224.676 -306.291)"/>
    <path id="Trazado_5223" data-name="Trazado 5223" d="M255.783,309.389h.006a.876.876,0,0,0-.005-1.752h-.015a.876.876,0,0,0,.014,1.752Zm0,0" transform="translate(-224.68 -271.695)"/>
    <path id="Trazado_5224" data-name="Trazado 5224" d="M217.165,53.243V48.161a.876.876,0,0,0-.876-.876H192.633a.876.876,0,0,0-.876.876v5.082a.876.876,0,0,0,.876.876h23.655A.876.876,0,0,0,217.165,53.243Zm-1.752-.876h-21.9V49.038h21.9Zm0,0" transform="translate(-168.912 -41.761)"/>
  </g>
</svg>
