<svg xmlns="http://www.w3.org/2000/svg" width="48" height="60" viewBox="0 0 48 60">
  <g id="posicion" transform="translate(-64 -16)">
    <path id="Trazado_5177" data-name="Trazado 5177" d="M72,200h46v36H72Z" transform="translate(-7 -161)" fill="#519a73"/>
    <path id="Trazado_5178" data-name="Trazado 5178" d="M72,392H86v12H72Z" transform="translate(-7 -329)" fill="#3abf70"/>
    <path id="Trazado_5179" data-name="Trazado 5179" d="M328,392h14v12H328Z" transform="translate(-231 -329)" fill="#3abf70"/>
    <path id="Trazado_5180" data-name="Trazado 5180" d="M72,200H86v12H72Z" transform="translate(-7 -161)" fill="#6ddc9c"/>
    <path id="Trazado_5181" data-name="Trazado 5181" d="M328,200h14v12H328Z" transform="translate(-231 -161)" fill="#6ddc9c"/>
    <g id="Grupo_1709" data-name="Grupo 1709" transform="translate(68 34)">
      <path id="Trazado_5182" data-name="Trazado 5182" d="M224,352h4v11a2,2,0,0,1-4,0Z" transform="translate(-208 -328)" fill="#2582c6"/>
      <path id="Trazado_5183" data-name="Trazado 5183" d="M256,352h4v11a2,2,0,0,1-4,0Z" transform="translate(-236 -328)" fill="#2582c6"/>
      <path id="Trazado_5184" data-name="Trazado 5184" d="M96,160h4v11a2,2,0,0,1-4,0Z" transform="translate(-96 -160)" fill="#2582c6"/>
      <path id="Trazado_5185" data-name="Trazado 5185" d="M128,160h4v11a2,2,0,0,1-4,0Z" transform="translate(-124 -160)" fill="#2582c6"/>
      <path id="Trazado_5186" data-name="Trazado 5186" d="M352,160h4v11a2,2,0,0,1-4,0Z" transform="translate(-320 -160)" fill="#2582c6"/>
      <path id="Trazado_5187" data-name="Trazado 5187" d="M384,160h4v11a2,2,0,0,1-4,0Z" transform="translate(-348 -160)" fill="#2582c6"/>
    </g>
    <circle id="Elipse_31" data-name="Elipse 31" cx="3" cy="3" r="3" transform="translate(85 41)" fill="#54baf1"/>
    <path id="Trazado_5188" data-name="Trazado 5188" d="M217.929,280h6.142A1.929,1.929,0,0,1,226,281.929V290H216v-8.071A1.929,1.929,0,0,1,217.929,280Z" transform="translate(-133 -231)" fill="#2ea8ed"/>
    <path id="Trazado_5189" data-name="Trazado 5189" d="M224.071,280h-6.142A1.929,1.929,0,0,0,216,281.929V282h6.071A1.929,1.929,0,0,1,224,283.929V290h2v-8.071A1.929,1.929,0,0,0,224.071,280Z" transform="translate(-133 -231)" fill="#54baf1"/>
    <circle id="Elipse_32" data-name="Elipse 32" cx="3" cy="3" r="3" transform="translate(69 17)" fill="#54baf1"/>
    <path id="Trazado_5190" data-name="Trazado 5190" d="M89.988,88h6.025A1.988,1.988,0,0,1,98,89.988V98H88V89.988A1.988,1.988,0,0,1,89.988,88Z" transform="translate(-21 -63)" fill="#2ea8ed"/>
    <path id="Trazado_5191" data-name="Trazado 5191" d="M96.013,88H89.988A1.988,1.988,0,0,0,88,89.988V90h6.012A1.987,1.987,0,0,1,96,91.988V98h2V89.988A1.988,1.988,0,0,0,96.013,88Z" transform="translate(-21 -63)" fill="#54baf1"/>
    <circle id="Elipse_33" data-name="Elipse 33" cx="3" cy="3" r="3" transform="translate(101 17)" fill="#54baf1"/>
    <path id="Trazado_5192" data-name="Trazado 5192" d="M345.988,88h6.025A1.988,1.988,0,0,1,354,89.988V98H344V89.988A1.988,1.988,0,0,1,345.988,88Z" transform="translate(-245 -63)" fill="#2ea8ed"/>
    <path id="Trazado_5193" data-name="Trazado 5193" d="M352.013,88h-6.025A1.987,1.987,0,0,0,344,89.988V90h6.013A1.987,1.987,0,0,1,352,91.988V98h2V89.988A1.988,1.988,0,0,0,352.013,88Z" transform="translate(-245 -63)" fill="#54baf1"/>
    <path id="Trazado_5194" data-name="Trazado 5194" d="M224,212a4,4,0,1,0,4-4A4,4,0,0,0,224,212Zm4-2a2,2,0,1,1-2,2A2,2,0,0,1,228,210Z" transform="translate(-140 -168)"/>
    <path id="Trazado_5195" data-name="Trazado 5195" d="M208,274.929V283h1v10a3,3,0,0,0,5,2.234A3,3,0,0,0,219,293V283h1v-8.071A2.933,2.933,0,0,0,217.071,272h-6.142A2.932,2.932,0,0,0,208,274.929Zm9.071-.929a.93.93,0,0,1,.929.929V283h-1v10a1,1,0,0,1-2,0V283h-2v10a1,1,0,0,1-2,0V283h-1v-8.071a.93.93,0,0,1,.929-.929Z" transform="translate(-126 -224)"/>
    <path id="Trazado_5196" data-name="Trazado 5196" d="M104,20a4,4,0,1,0-4,4A4,4,0,0,0,104,20Zm-4,2a2,2,0,1,1,2-2A2,2,0,0,1,100,22Z" transform="translate(-28)"/>
    <path id="Trazado_5197" data-name="Trazado 5197" d="M360,20a4,4,0,1,0-4,4A4,4,0,0,0,360,20Zm-4,2a2,2,0,1,1,2-2A2,2,0,0,1,356,22Z" transform="translate(-252)"/>
    <path id="Trazado_5198" data-name="Trazado 5198" d="M112,131V95a1,1,0,0,0-1-1h-2V91h1V82.987A2.992,2.992,0,0,0,107.013,80h-6.025A2.992,2.992,0,0,0,98,82.987V91h1v3H77V91h1V82.987A2.992,2.992,0,0,0,75.013,80H68.988A2.991,2.991,0,0,0,66,82.987V91h1v3H65a1,1,0,0,0-1,1v36a1,1,0,0,0,1,1h46A1,1,0,0,0,112,131ZM100,82.987a.989.989,0,0,1,.988-.988h6.025a.989.989,0,0,1,.988.988V91h-1v10a1,1,0,0,1-2,0V91h-2v10a1,1,0,0,1-2,0V91h-1Zm-32,0A.989.989,0,0,1,68.988,82h6.025a.989.989,0,0,1,.988.988V91H75v10a1,1,0,0,1-2,0V91H71v10a1,1,0,0,1-2,0V91H68ZM66,96h1v5a3,3,0,0,0,5,2.234A3,3,0,0,0,77,101V96h1v10H66Zm44,34H98V120h12Zm0-12H97a1,1,0,0,0-1,1v11H80V119a1,1,0,0,0-1-1H74v2h4v10H66V120h6v-2H66V108H79a1,1,0,0,0,1-1V96H96v11a1,1,0,0,0,1,1h13Zm0-12H98V96h1v5a3,3,0,0,0,5,2.234A3,3,0,0,0,109,101V96h1Z" transform="translate(0 -56)"/>
  </g>
</svg>
