<svg xmlns="http://www.w3.org/2000/svg" width="74.295" height="74.455" viewBox="0 0 74.295 74.455">
  <g id="presupuesto_1_" data-name="presupuesto (1)" transform="translate(-0.549)">
    <path id="Trazado_5333" data-name="Trazado 5333" d="M149.758,20.649V64.585c0,.088,0,.175-.006.263a5.673,5.673,0,0,1-5.667,5.408H112.2a5.672,5.672,0,0,1-5.673-5.671V13.717A5.664,5.664,0,0,1,112.2,8.044h25.331a5.654,5.654,0,0,1,2.464.564c1.532.738,1.964,1.67,4.718,4.485,3.168,3.44,3.925,3.793,4.57,5.282A5.61,5.61,0,0,1,149.758,20.649Z" transform="translate(-90.563 -6.874)" fill="#ffc477"/>
    <path id="Trazado_5334" data-name="Trazado 5334" d="M175.534,20.649V64.584c0,.088,0,.175-.006.263a5.69,5.69,0,0,1-1.281.145h-31.89a5.672,5.672,0,0,1-5.673-5.671V8.452c0-.089,0-.177.006-.265a5.7,5.7,0,0,1,1.281-.145H163.3a5.681,5.681,0,0,1,4.145,1.8l3.037,3.249,3.477,3.638a5.708,5.708,0,0,1,1.573,3.918Z" transform="translate(-116.339 -6.873)" fill="#ffdaaa"/>
    <path id="Trazado_5335" data-name="Trazado 5335" d="M287.278,182.912v31.893a8.017,8.017,0,0,1-8.016,8.016H258.43a8.017,8.017,0,0,1-8.016-8.016V182.912a8.013,8.013,0,0,1,8.016-8.016h20.831A8.016,8.016,0,0,1,287.278,182.912Z" transform="translate(-213.529 -149.463)" fill="#4cba68"/>
    <path id="Trazado_5336" data-name="Trazado 5336" d="M306.755,182.912v31.893a7.974,7.974,0,0,1-1.553,4.741,7.983,7.983,0,0,1-3.149.643H281.222a8.017,8.017,0,0,1-8.016-8.016V180.281a7.974,7.974,0,0,1,1.553-4.741,7.983,7.983,0,0,1,3.149-.643h20.831A8.016,8.016,0,0,1,306.755,182.912Z" transform="translate(-233.007 -149.463)" fill="#7ccc92"/>
    <path id="Trazado_5337" data-name="Trazado 5337" d="M362.182,367.168v3.746a1.2,1.2,0,0,1-1.2,1.2h-3.747a1.2,1.2,0,0,1-1.2-1.2v-3.746a1.2,1.2,0,0,1,1.2-1.2h3.747A1.2,1.2,0,0,1,362.182,367.168Z" transform="translate(-303.794 -312.75)" fill="#2c733f"/>
    <path id="Trazado_5338" data-name="Trazado 5338" d="M314.143,209.663v4.013a2.585,2.585,0,0,1-2.585,2.585H290.882a2.586,2.586,0,0,1-2.585-2.585v-4.013a2.586,2.586,0,0,1,2.585-2.585h20.676A2.585,2.585,0,0,1,314.143,209.663Z" transform="translate(-245.903 -176.965)" fill="#1e81ce"/>
    <path id="Trazado_5339" data-name="Trazado 5339" d="M339.918,209.663v4.013a2.585,2.585,0,0,1-2.585,2.585h-16.29a2.586,2.586,0,0,1-2.585-2.585v-4.013a2.586,2.586,0,0,1,2.585-2.585h16.29A2.585,2.585,0,0,1,339.918,209.663Z" transform="translate(-271.678 -176.965)" fill="#3d9ae2"/>
    <g id="Grupo_1760" data-name="Grupo 1760" transform="translate(42.394 43.424)">
      <path id="Trazado_5340" data-name="Trazado 5340" d="M294.442,367.168v3.746a1.2,1.2,0,0,1-1.2,1.2H289.5a1.2,1.2,0,0,1-1.2-1.2v-3.746a1.2,1.2,0,0,1,1.2-1.2h3.747A1.2,1.2,0,0,1,294.442,367.168Z" transform="translate(-288.297 -356.173)" fill="#2c733f"/>
      <path id="Trazado_5341" data-name="Trazado 5341" d="M362.182,299.807v3.746a1.2,1.2,0,0,1-1.2,1.2h-3.747a1.2,1.2,0,0,1-1.2-1.2v-3.746a1.2,1.2,0,0,1,1.2-1.2h3.747A1.2,1.2,0,0,1,362.182,299.807Z" transform="translate(-346.188 -298.608)" fill="#2c733f"/>
    </g>
    <path id="Trazado_5342" data-name="Trazado 5342" d="M430.739,299.807v3.746a1.2,1.2,0,0,1-1.2,1.2h-3.746a1.2,1.2,0,0,1-1.2-1.2v-3.746a1.2,1.2,0,0,1,1.2-1.2h3.746A1.2,1.2,0,0,1,430.739,299.807Z" transform="translate(-362.382 -255.184)" fill="#ee8700"/>
    <g id="Grupo_1761" data-name="Grupo 1761" transform="translate(42.394 43.424)">
      <path id="Trazado_5343" data-name="Trazado 5343" d="M294.442,299.807v3.746a1.2,1.2,0,0,1-1.2,1.2H289.5a1.2,1.2,0,0,1-1.2-1.2v-3.746a1.2,1.2,0,0,1,1.2-1.2h3.747A1.2,1.2,0,0,1,294.442,299.807Z" transform="translate(-288.297 -298.608)" fill="#2c733f"/>
      <path id="Trazado_5344" data-name="Trazado 5344" d="M362.182,431.228v3.747a1.2,1.2,0,0,1-1.2,1.2h-3.747a1.2,1.2,0,0,1-1.2-1.2v-3.747a1.2,1.2,0,0,1,1.2-1.2h3.747A1.2,1.2,0,0,1,362.182,431.228Z" transform="translate(-346.188 -410.919)" fill="#2c733f"/>
      <path id="Trazado_5345" data-name="Trazado 5345" d="M294.442,431.228v3.747a1.2,1.2,0,0,1-1.2,1.2H289.5a1.2,1.2,0,0,1-1.2-1.2v-3.747a1.2,1.2,0,0,1,1.2-1.2h3.747A1.2,1.2,0,0,1,294.442,431.228Z" transform="translate(-288.297 -410.919)" fill="#2c733f"/>
    </g>
    <path id="Trazado_5346" data-name="Trazado 5346" d="M430.739,367.749v11.633a2.044,2.044,0,0,1-2.044,2.045H426.64a2.044,2.044,0,0,1-2.044-2.045V367.749a1.781,1.781,0,0,1,1.781-1.781h2.582A1.78,1.78,0,0,1,430.739,367.749Z" transform="translate(-362.382 -312.749)" fill="#ee8700"/>
    <g id="Grupo_1762" data-name="Grupo 1762" transform="translate(42.394 43.424)">
      <path id="Trazado_5347" data-name="Trazado 5347" d="M362.182,367.168v1.114a1.2,1.2,0,0,1-1.2,1.2h-3.747a1.2,1.2,0,0,1-1.2-1.2v-1.114a1.2,1.2,0,0,1,1.2-1.2h3.747A1.2,1.2,0,0,1,362.182,367.168Z" transform="translate(-346.188 -356.173)" fill="#317f46"/>
      <path id="Trazado_5348" data-name="Trazado 5348" d="M294.442,367.168v1.114a1.2,1.2,0,0,1-1.2,1.2H289.5a1.2,1.2,0,0,1-1.2-1.2v-1.114a1.2,1.2,0,0,1,1.2-1.2h3.747A1.2,1.2,0,0,1,294.442,367.168Z" transform="translate(-288.297 -356.173)" fill="#317f46"/>
      <path id="Trazado_5349" data-name="Trazado 5349" d="M362.182,299.807v1.114a1.2,1.2,0,0,1-1.2,1.2h-3.747a1.2,1.2,0,0,1-1.2-1.2v-1.114a1.2,1.2,0,0,1,1.2-1.2h3.747A1.2,1.2,0,0,1,362.182,299.807Z" transform="translate(-346.188 -298.608)" fill="#317f46"/>
    </g>
    <path id="Trazado_5350" data-name="Trazado 5350" d="M430.739,299.807v1.114a1.2,1.2,0,0,1-1.2,1.2h-3.746a1.2,1.2,0,0,1-1.2-1.2v-1.114a1.2,1.2,0,0,1,1.2-1.2h3.746A1.2,1.2,0,0,1,430.739,299.807Z" transform="translate(-362.382 -255.184)" fill="#ff9811"/>
    <g id="Grupo_1763" data-name="Grupo 1763" transform="translate(42.394 43.424)">
      <path id="Trazado_5351" data-name="Trazado 5351" d="M294.442,299.807v1.114a1.2,1.2,0,0,1-1.2,1.2H289.5a1.2,1.2,0,0,1-1.2-1.2v-1.114a1.2,1.2,0,0,1,1.2-1.2h3.747A1.2,1.2,0,0,1,294.442,299.807Z" transform="translate(-288.297 -298.608)" fill="#317f46"/>
      <path id="Trazado_5352" data-name="Trazado 5352" d="M362.182,431.228v1.116a1.2,1.2,0,0,1-1.2,1.2h-3.747a1.2,1.2,0,0,1-1.2-1.2v-1.116a1.2,1.2,0,0,1,1.2-1.2h3.747A1.2,1.2,0,0,1,362.182,431.228Z" transform="translate(-346.188 -410.919)" fill="#317f46"/>
      <path id="Trazado_5353" data-name="Trazado 5353" d="M294.442,431.228v1.116a1.2,1.2,0,0,1-1.2,1.2H289.5a1.2,1.2,0,0,1-1.2-1.2v-1.116a1.2,1.2,0,0,1,1.2-1.2h3.747A1.2,1.2,0,0,1,294.442,431.228Z" transform="translate(-288.297 -410.919)" fill="#317f46"/>
    </g>
    <path id="Trazado_5354" data-name="Trazado 5354" d="M430.739,367.749v9A2.044,2.044,0,0,1,428.7,378.8H426.64a2.044,2.044,0,0,1-2.044-2.045v-9a1.781,1.781,0,0,1,1.781-1.781h2.582A1.78,1.78,0,0,1,430.739,367.749Z" transform="translate(-362.382 -312.749)" fill="#ff9811"/>
    <path id="Trazado_5355" data-name="Trazado 5355" d="M345.95,21.692h-7.108a2.181,2.181,0,0,1-2.181-2.181V11.924a5.665,5.665,0,0,1,1.681,1.236l3.038,3.249,3.476,3.638A5.617,5.617,0,0,1,345.95,21.692Z" transform="translate(-287.234 -10.19)" fill="#ffb655"/>
    <path id="Trazado_5356" data-name="Trazado 5356" d="M92.03,464.429a2.785,2.785,0,0,1-2.778,2.778H72.234a2.778,2.778,0,0,1,0-5.556H89.252A2.786,2.786,0,0,1,92.03,464.429Z" transform="translate(-58.886 -394.517)" fill="#aa6100"/>
    <path id="Trazado_5357" data-name="Trazado 5357" d="M92.03,426.224A2.785,2.785,0,0,1,89.252,429H72.234a2.778,2.778,0,0,1,0-5.556H89.252A2.786,2.786,0,0,1,92.03,426.224Z" transform="translate(-58.886 -361.868)" fill="#cc7400"/>
    <path id="Trazado_5358" data-name="Trazado 5358" d="M92.03,388.02a2.785,2.785,0,0,1-2.778,2.778H72.234a2.778,2.778,0,0,1,0-5.556H89.252A2.786,2.786,0,0,1,92.03,388.02Z" transform="translate(-58.886 -329.22)" fill="#ee8700"/>
    <path id="Trazado_5359" data-name="Trazado 5359" d="M92.03,349.814a2.785,2.785,0,0,1-2.778,2.778H72.234a2.786,2.786,0,0,1-2.778-2.778,2.785,2.785,0,0,1,2.778-2.778H89.252A2.786,2.786,0,0,1,92.03,349.814Z" transform="translate(-58.886 -296.57)" fill="#ff9811"/>
    <path id="Trazado_5360" data-name="Trazado 5360" d="M89.251,314.39H72.234a2.786,2.786,0,0,1-2.778-2.778h0a2.786,2.786,0,0,1,2.778-2.778H89.251a2.786,2.786,0,0,1,2.778,2.778h0A2.786,2.786,0,0,1,89.251,314.39Z" transform="translate(-58.886 -263.923)" fill="#ffa733"/>
    <path id="Trazado_5361" data-name="Trazado 5361" d="M30.27,386.282a9.038,9.038,0,0,0-9.419-8.655H17.309a9.05,9.05,0,0,0,.774,18.084H20.85v0c.253.01.507.013.764,0a9.2,9.2,0,0,0,1.681-.229A9.051,9.051,0,0,0,30.271,387v-.01C30.28,386.753,30.28,386.519,30.27,386.282Z" transform="translate(-6.899 -322.705)" fill="#cc7400"/>
    <path id="Trazado_5362" data-name="Trazado 5362" d="M75.511,388.384v.01a9.051,9.051,0,0,1-6.975,8.484,9.054,9.054,0,0,1-6.967-8.424c0-.021,0-.039,0-.06v-.01a9.054,9.054,0,0,1,6.974-9.129,9.053,9.053,0,0,1,6.969,8.426C75.52,387.917,75.52,388.151,75.511,388.384Z" transform="translate(-52.139 -324.104)" fill="#ee8700"/>
    <path id="Trazado_5363" data-name="Trazado 5363" d="M65.732,24.337H60.365V13.775a6.859,6.859,0,0,0-1.9-4.727L55,5.42C52.057,2.387,51.686,1.531,49.933.68A6.858,6.858,0,0,0,46.964,0H21.633A6.85,6.85,0,0,0,14.79,6.842v36.9H13.347a3.945,3.945,0,0,0-2.8,6.725A3.933,3.933,0,0,0,9.4,53.244a4.05,4.05,0,0,0,.078.781A9.951,9.951,0,0,0,10.9,73.866l19.465-.007a3.945,3.945,0,0,0,2.8-6.725,3.927,3.927,0,0,0,1.14-2.582h1.481v.791A9.123,9.123,0,0,0,44.9,74.455H65.732a9.123,9.123,0,0,0,9.113-9.113V33.45A9.123,9.123,0,0,0,65.732,24.337ZM50.6,4.136c4.594,4.855,5.629,5.95,5.823,6.157,0,0,0,0,0,0h0a.032.032,0,0,0,.006.007h0a.025.025,0,0,0,.009.009l0,.006s0,0,0,0,0,0,0,0,0,0,.006.006H50.6v-6.2ZM13.347,46.08H30.365a1.608,1.608,0,1,1,0,3.216H13.347a1.608,1.608,0,1,1,0-3.216Zm0,5.556H30.365a1.608,1.608,0,1,1,0,3.216H18.611a9.525,9.525,0,0,0-1.481-.535,9.86,9.86,0,0,0-2.339-.344c-.229-.006-.459,0-.689.006H11.919a1.581,1.581,0,0,1-.18-.735A1.611,1.611,0,0,1,13.347,51.636ZM31.974,58.8a1.61,1.61,0,0,1-1.608,1.608H23.82a9.839,9.839,0,0,0-1.985-3.216h8.531A1.611,1.611,0,0,1,31.974,58.8ZM7.657,56.7a10.092,10.092,0,0,0-1.842,2.363H4.452A7.724,7.724,0,0,1,7.657,56.7ZM3.208,61.256h1.7a10.1,10.1,0,0,0-.319,1.753h-1.8A7.686,7.686,0,0,1,3.208,61.256Zm.189,5.8a7.673,7.673,0,0,1-.55-1.851H4.634a8.826,8.826,0,0,0,.418,1.851Zm1.459,2.193c.718,0,1.135,0,1.232,0a9.877,9.877,0,0,0,1.573,1.9A7.727,7.727,0,0,1,4.856,69.246Zm9.98,2.429a7.759,7.759,0,1,1,4.915-13.467A7.752,7.752,0,0,1,14.836,71.675Zm15.53-.155h-9.44A10.019,10.019,0,0,0,23.438,68.3h6.927a1.608,1.608,0,1,1,0,3.216Zm1.6-6.968a1.609,1.609,0,0,1-1.6,1.412h-6.12a10.049,10.049,0,0,0,.142-3.216h5.978A1.61,1.61,0,0,1,31.96,64.552Zm3.827-2.339H33.677a3.881,3.881,0,0,0-.51-.634,3.939,3.939,0,0,0,0-5.556,3.939,3.939,0,0,0,0-5.556,3.951,3.951,0,0,0-2.8-6.725H17.129V6.842a4.509,4.509,0,0,1,4.5-4.5H48.258V11.5a1.169,1.169,0,0,0,1.17,1.17h8.459c.244.947.094.634.139,11.665H44.9a9.123,9.123,0,0,0-9.113,9.113V62.212Zm36.864,3.13a6.927,6.927,0,0,1-6.92,6.92H44.9a6.928,6.928,0,0,1-6.92-6.92V33.45a6.928,6.928,0,0,1,6.92-6.92H65.732a6.927,6.927,0,0,1,6.92,6.92V65.343Z"/>
    <path id="Trazado_5364" data-name="Trazado 5364" d="M288.416,208.721h-3.978a1.493,1.493,0,0,1-1.488-1.488v-4.013a1.493,1.493,0,0,1,1.488-1.488h20.676a1.49,1.49,0,0,1,1.488,1.488v4.013a1.49,1.49,0,0,1-1.488,1.488h-11.97a1.1,1.1,0,0,0,0,2.193h11.97a3.685,3.685,0,0,0,3.681-3.681v-4.013a3.685,3.685,0,0,0-3.681-3.681H284.438a3.681,3.681,0,0,0-3.681,3.681v4.013a3.681,3.681,0,0,0,3.681,3.681h3.978a1.1,1.1,0,0,0,0-2.193Z" transform="translate(-239.46 -170.521)"/>
    <path id="Trazado_5365" data-name="Trazado 5365" d="M283.052,366.765H286.8a2.3,2.3,0,0,0,2.3-2.3v-3.746a2.3,2.3,0,0,0-2.3-2.3h-3.747a2.3,2.3,0,0,0-2.3,2.3v3.746A2.3,2.3,0,0,0,283.052,366.765Zm-.1-6.041a.1.1,0,0,1,.1-.1H286.8a.1.1,0,0,1,.1.1v3.746a.1.1,0,0,1-.1.1h-3.747a.1.1,0,0,1-.1-.1Z" transform="translate(-239.46 -306.306)"/>
    <path id="Trazado_5366" data-name="Trazado 5366" d="M423.1,291.068h-3.746a2.3,2.3,0,0,0-2.3,2.3v3.746a2.3,2.3,0,0,0,2.3,2.3H423.1a2.3,2.3,0,0,0,2.3-2.3v-3.746A2.3,2.3,0,0,0,423.1,291.068Zm.1,6.041a.1.1,0,0,1-.1.1h-3.746a.1.1,0,0,1-.1-.1c.045-3.706-.1-3.848.1-3.848H423.1a.1.1,0,0,1,.1.1Z" transform="translate(-355.938 -248.741)"/>
    <path id="Trazado_5367" data-name="Trazado 5367" d="M283.052,299.4H286.8a2.3,2.3,0,0,0,2.3-2.3v-3.746a2.3,2.3,0,0,0-2.3-2.3h-3.747a2.3,2.3,0,0,0-2.3,2.3v3.746A2.3,2.3,0,0,0,283.052,299.4Zm-.1-6.041a.1.1,0,0,1,.1-.1H286.8a.1.1,0,0,1,.1.1v3.746a.1.1,0,0,1-.1.1h-3.747a.1.1,0,0,1-.1-.1Z" transform="translate(-239.46 -248.741)"/>
    <path id="Trazado_5368" data-name="Trazado 5368" d="M288.494,423.264a2.294,2.294,0,0,0-1.718-.773h-3.747a2.288,2.288,0,0,0-1.716.773,3.136,3.136,0,0,0-.579,2.339v2.928a2.3,2.3,0,0,0,2.3,2.3h3.747a2.3,2.3,0,0,0,2.3-2.3V425.6A3.162,3.162,0,0,0,288.494,423.264Zm-1.718,5.37c-3.7-.045-3.85.095-3.85-.1,0-3.966-.044-3.848.1-3.848h3.747c.18,0,.069.25.1.92A15.593,15.593,0,0,1,286.777,428.634Z" transform="translate(-239.437 -361.052)"/>
    <path id="Trazado_5369" data-name="Trazado 5369" d="M422.514,358.428h-2.582a2.881,2.881,0,0,0-2.877,2.877v11.633a3.145,3.145,0,0,0,3.141,3.142h2.056a3.144,3.144,0,0,0,3.14-3.142V361.305A2.88,2.88,0,0,0,422.514,358.428Zm.684,14.511a.949.949,0,0,1-.947.949H420.2a.949.949,0,0,1-.947-.949V361.305a.685.685,0,0,1,.684-.684h2.582a.685.685,0,0,1,.684.684v11.633Z" transform="translate(-355.937 -306.305)"/>
    <path id="Trazado_5370" data-name="Trazado 5370" d="M167.352,174.812h0c-1.337-.491-2.3-.846-2.3-2.085,0-1.129.75-1.7,2.228-1.7,1.57,0,1.992.691,2.545.691a1.053,1.053,0,0,0,.935-1.08c0-.914-1.49-1.367-2.822-1.486v-.824a1.039,1.039,0,0,0-2.078,0v.955a3.4,3.4,0,0,0-2.822,3.555c0,2.552,1.879,3.258,3.389,3.826,1.478.556,2.646.994,2.646,2.682,0,1.394-.774,2.1-2.3,2.1-2.235,0-2.256-1.509-3.108-1.509a1.1,1.1,0,0,0-.953,1.08c0,.864,1.287,2,3.15,2.295v.8a1.039,1.039,0,0,0,2.078,0v-.817a3.754,3.754,0,0,0,3.15-4.055C171.084,176.183,169.015,175.423,167.352,174.812Z" transform="translate(-138.577 -142.961)"/>
    <path id="Trazado_5371" data-name="Trazado 5371" d="M354.52,422.491h-3.747a2.294,2.294,0,0,0-1.718.773,3.149,3.149,0,0,0-.577,2.339v2.928a2.3,2.3,0,0,0,2.3,2.3h3.747a2.3,2.3,0,0,0,2.294-2.3v-3.747a2.3,2.3,0,0,0-2.294-2.294Zm0,6.143c-3.7-.045-3.85.095-3.85-.1v-3.747a.1.1,0,0,1,.1-.1h3.747a.1.1,0,0,1,.1.1C354.577,428.5,354.715,428.634,354.52,428.634Z" transform="translate(-297.33 -361.052)"/>
    <path id="Trazado_5372" data-name="Trazado 5372" d="M354.542,291.068h-3.747a2.3,2.3,0,0,0-2.3,2.3v3.746a2.3,2.3,0,0,0,2.3,2.3h3.747a2.261,2.261,0,0,0,.835-.158,2.3,2.3,0,0,0,1.459-2.138v-3.746A2.3,2.3,0,0,0,354.542,291.068Zm.1,6.041a.1.1,0,0,1-.1.1h-3.747a.1.1,0,0,1-.1-.1v-3.746c0-.2.136-.058,3.85-.1a.1.1,0,0,1,.1.1v3.746Z" transform="translate(-297.351 -248.741)"/>
    <path id="Trazado_5373" data-name="Trazado 5373" d="M355.376,358.586a2.261,2.261,0,0,0-.835-.158h-3.747a2.3,2.3,0,0,0-2.3,2.3v3.746a2.3,2.3,0,0,0,2.3,2.3h3.747a2.3,2.3,0,0,0,2.294-2.3v-3.746A2.3,2.3,0,0,0,355.376,358.586Zm-.734,5.883a.1.1,0,0,1-.1.1h-3.747a.1.1,0,0,1-.1-.1v-3.746a.1.1,0,0,1,.1-.1h3.747a.1.1,0,0,1,.1.1Z" transform="translate(-297.351 -306.305)"/>
    <path id="Trazado_5374" data-name="Trazado 5374" d="M321.143,105.235H323.9a1.1,1.1,0,0,0,0-2.193h-2.754a1.1,1.1,0,1,0,0,2.193Z" transform="translate(-273.036 -88.058)"/>
    <path id="Trazado_5375" data-name="Trazado 5375" d="M157.266,105.235h19.445a1.1,1.1,0,1,0,0-2.193H157.266a1.1,1.1,0,0,0,0,2.193Z" transform="translate(-132.99 -88.058)"/>
    <path id="Trazado_5376" data-name="Trazado 5376" d="M160.752,142.665a1.1,1.1,0,0,0,0-2.193h-3.485a1.1,1.1,0,0,0,0,2.193Z" transform="translate(-132.99 -120.045)"/>
    <path id="Trazado_5377" data-name="Trazado 5377" d="M231.206,141.568a1.1,1.1,0,0,0-1.1-1.1H211.4a1.1,1.1,0,1,0,0,2.193h18.714A1.1,1.1,0,0,0,231.206,141.568Z" transform="translate(-179.248 -120.044)"/>
    <path id="Trazado_5378" data-name="Trazado 5378" d="M79.75,402.1c0-.276.1-.355.2-.407a1.884,1.884,0,0,1,1.59.107,1.254,1.254,0,0,0,.593.18c1.081,0,1.937-2.01-.647-2.454v-.069a1.111,1.111,0,1,0-2.222,0v.211a2.493,2.493,0,0,0-1.695,2.5c0,1.87,1.359,2.381,2.351,2.753.946.356,1.273.511,1.273,1.155,0,.4-.108.775-.895.775-1.146,0-1.009-.906-1.867-.906a1.146,1.146,0,0,0-1.06,1.136c0,.76.79,1.481,1.892,1.773v.083a1.111,1.111,0,0,0,2.222,0v-.112A2.747,2.747,0,0,0,83.374,406C83.375,402.672,79.75,403.172,79.75,402.1Z" transform="translate(-65.649 -340.415)"/>
  </g>
</svg>
