<svg xmlns="http://www.w3.org/2000/svg" width="66.633" height="61.907" viewBox="0 0 66.633 61.907">
  <g id="punto-de-interes" transform="translate(-0.583 -4.512)">
    <path id="Trazado_5225" data-name="Trazado 5225" d="M.583,44.727Z" transform="translate(0 0)" fill="#efefef"/>
    <path id="Trazado_5226" data-name="Trazado 5226" d="M20.3,21.75l-4.05,3.564V40.843h8.1V25.314Z" transform="translate(20.591 25.576)" fill="#f3f3f1"/>
    <path id="Trazado_5227" data-name="Trazado 5227" d="M11.75,46.445V8.75H40.679v37.7a2.316,2.316,0,0,1-3.844,1.738l-10.62-9.347-10.62,9.347a2.316,2.316,0,0,1-3.844-1.738Z" transform="translate(14.677 8.49)" fill="#2fdf84"/>
    <path id="Trazado_5228" data-name="Trazado 5228" d="M22.9,24.041,20.3,21.75l-4.05,3.564V40.843h5.207V25.314Z" transform="translate(20.591 25.576)" fill="#d5dbe1"/>
    <path id="Trazado_5229" data-name="Trazado 5229" d="M21.729,21.75l-2.6,2.291L27.142,31.1a2.3,2.3,0,0,0,3.772-1.261Z" transform="translate(24.369 25.576)" fill="#00b871"/>
    <path id="Trazado_5230" data-name="Trazado 5230" d="M16.957,46.445V8.75H11.75v37.7a2.315,2.315,0,0,0,3.844,1.738l1.435-1.261A2.3,2.3,0,0,1,16.957,46.445Z" transform="translate(14.677 8.49)" fill="#00b871"/>
    <path id="Trazado_5231" data-name="Trazado 5231" d="M15.064,51.488a4.1,4.1,0,0,1-1.682-.366A4.009,4.009,0,0,1,11,47.431V9.736A1.736,1.736,0,0,1,12.736,8H41.664A1.736,1.736,0,0,1,43.4,9.736v37.7a4.05,4.05,0,0,1-6.725,3.041L27.2,42.133l-9.477,8.338a4.012,4.012,0,0,1-2.659,1.016Zm-.592-40.016V47.431a.577.577,0,0,0,.958.435l10.625-9.347a1.734,1.734,0,0,1,2.291,0l10.623,9.347a.562.562,0,0,0,.623.093.551.551,0,0,0,.338-.528V11.471Z" transform="translate(13.691 7.505)"/>
    <path id="Trazado_5232" data-name="Trazado 5232" d="M9,8H50.657v3.471H9Z" transform="translate(11.062 7.505)"/>
    <path id="Trazado_5233" data-name="Trazado 5233" d="M26.164,14.1H22.693V11.207a1.736,1.736,0,0,0-3.471,0V14.1H15.75V11.207a5.207,5.207,0,1,1,10.414,0Z" transform="translate(19.934 4.876)"/>
    <path id="Trazado_5234" data-name="Trazado 5234" d="M15.5,22.98h3.471V39.226H15.5Z" transform="translate(19.605 27.193)"/>
    <path id="Trazado_5235" data-name="Trazado 5235" d="M19,22.98h3.471V39.226H19Z" transform="translate(24.205 27.193)"/>
    <g id="Grupo_1711" data-name="Grupo 1711" transform="translate(13.409 4.512)">
      <path id="Trazado_5236" data-name="Trazado 5236" d="M9.625,3.25h2.314V7.879H9.625Z" transform="translate(-1.525 -3.25)" fill="#a4afc1"/>
      <path id="Trazado_5237" data-name="Trazado 5237" d="M6.125,6.25h4.629V8.564H6.125Z" transform="translate(-6.125 0.693)" fill="#a4afc1"/>
      <path id="Trazado_5238" data-name="Trazado 5238" d="M11.875,6.25H16.5V8.564H11.875Z" transform="translate(1.432 0.693)" fill="#a4afc1"/>
      <path id="Trazado_5239" data-name="Trazado 5239" d="M29.846,19.943a3.471,3.471,0,1,1,3.471-3.471A3.476,3.476,0,0,1,29.846,19.943Zm0-4.629A1.157,1.157,0,1,0,31,16.471,1.159,1.159,0,0,0,29.846,15.314Z" transform="translate(20.489 9.564)" fill="#a4afc1"/>
    </g>
  </g>
</svg>
