<svg xmlns="http://www.w3.org/2000/svg" width="68" height="68" viewBox="0 0 68 68">
  <g id="sistema" transform="translate(-1 -1)">
    <g id="Grupo_1693" data-name="Grupo 1693" transform="translate(2.097 2.097)">
      <g id="Grupo_1676" data-name="Grupo 1676" transform="translate(2.194 17.548)">
        <path id="Trazado_5026" data-name="Trazado 5026" d="M63.105,18H4V44.4h.011A14.255,14.255,0,0,1,29.939,55.29h28.9l4.387,1.645L66.582,58.2a1.575,1.575,0,0,1,1.031,1.481V18Z" transform="translate(-4 -18)" fill="#f0d0b4"/>
      </g>
      <g id="Grupo_1677" data-name="Grupo 1677" transform="translate(2.194 4.387)">
        <path id="Trazado_5027" data-name="Trazado 5027" d="M37.123,6a15.352,15.352,0,0,0-4.606,10.968,17.6,17.6,0,0,0,.132,2.194H4V7.1A1.1,1.1,0,0,1,5.1,6Z" transform="translate(-4 -6)" fill="#b4dd7f"/>
      </g>
      <g id="Grupo_1678" data-name="Grupo 1678" transform="translate(56.813 4.387)">
        <path id="Trazado_5028" data-name="Trazado 5028" d="M62.794,19.161H58.275a17.6,17.6,0,0,0,.132-2.194A15.352,15.352,0,0,0,53.8,6h7.9a1.1,1.1,0,0,1,1.1,1.1Z" transform="translate(-53.8 -6)" fill="#b4dd7f"/>
      </g>
      <g id="Grupo_1679" data-name="Grupo 1679" transform="translate(57.032 54.839)">
        <path id="Trazado_5029" data-name="Trazado 5029" d="M61.743,54.906l-3.356-1.261L54,52v8.774l4.387-1.645,3.356-1.261a1.579,1.579,0,0,0,0-2.961Z" transform="translate(-54 -52)" fill="#aab2bd"/>
      </g>
      <g id="Grupo_1680" data-name="Grupo 1680" transform="translate(21.859 59.226)">
        <path id="Trazado_5030" data-name="Trazado 5030" d="M26.35,56H57.1v4.387H21.93v-.011a13.728,13.728,0,0,0,2.106-1.612A14.281,14.281,0,0,0,26.339,56Z" transform="translate(-21.93 -56)" fill="#ff826e"/>
      </g>
      <g id="Grupo_1681" data-name="Grupo 1681" transform="translate(26.268 54.839)">
        <path id="Trazado_5031" data-name="Trazado 5031" d="M56.715,52v4.387H25.95v-.011A14,14,0,0,0,27.815,52Z" transform="translate(-25.95 -52)" fill="#4fc1e9"/>
      </g>
      <g id="Grupo_1682" data-name="Grupo 1682" transform="translate(0 37.29)">
        <path id="Trazado_5032" data-name="Trazado 5032" d="M28.268,57.935a14.281,14.281,0,0,1-2.3,2.764l-.055-.614a9.706,9.706,0,0,0-9.652-8.73,5.484,5.484,0,1,0-5.484-5.484,5.486,5.486,0,0,0,5.484,5.484,9.734,9.734,0,0,0-6.5,2.5,9.749,9.749,0,0,0-3.148,6.23l-.055.614a14.255,14.255,0,1,1,23.581-7.151,14,14,0,0,1-1.865,4.376Z" transform="translate(-2 -36)" fill="#e6e9ed"/>
      </g>
      <g id="Grupo_1683" data-name="Grupo 1683" transform="translate(4.552 53.117)">
        <path id="Trazado_5033" data-name="Trazado 5033" d="M12.873,50.43l1.886,2.819-2.117,9.509A14.188,14.188,0,0,1,6.15,59.3l.055-.614a9.749,9.749,0,0,1,3.148-6.23,9.583,9.583,0,0,1,3.521-2.029Z" transform="translate(-6.15 -50.43)" fill="#b4dd7f"/>
      </g>
      <g id="Grupo_1684" data-name="Grupo 1684" transform="translate(15.355 53.117)">
        <path id="Trazado_5034" data-name="Trazado 5034" d="M24.555,58.689l.055.614A13.729,13.729,0,0,1,22.5,60.915a14.272,14.272,0,0,1-4.387,1.843L16,53.249l1.886-2.819a9.694,9.694,0,0,1,6.668,8.259Z" transform="translate(-16 -50.43)" fill="#b4dd7f"/>
      </g>
      <g id="Grupo_1685" data-name="Grupo 1685" transform="translate(11.045 55.935)">
        <path id="Trazado_5035" data-name="Trazado 5035" d="M16.38,53,18.5,62.509a14.447,14.447,0,0,1-6.427,0L14.187,53Z" transform="translate(-12.07 -53)" fill="#fcd770"/>
      </g>
      <g id="Grupo_1686" data-name="Grupo 1686" transform="translate(11.275 52.645)">
        <path id="Trazado_5036" data-name="Trazado 5036" d="M15.263,50a9.6,9.6,0,0,1,2.983.472L16.36,53.29H14.166L12.28,50.472A9.6,9.6,0,0,1,15.263,50Z" transform="translate(-12.28 -50)" fill="#ffc729"/>
      </g>
      <g id="Grupo_1687" data-name="Grupo 1687" transform="translate(8.774 41.677)">
        <circle id="Elipse_29" data-name="Elipse 29" cx="5.5" cy="5.5" r="5.5" transform="translate(0.129 0.226)" fill="#f0d0b4"/>
      </g>
      <g id="Grupo_1688" data-name="Grupo 1688" transform="translate(41.677 43.871)">
        <path id="Trazado_5037" data-name="Trazado 5037" d="M40,42h8.774A4.387,4.387,0,0,1,40,42Z" transform="translate(-40 -42)" fill="#aab2bd"/>
      </g>
      <g id="Grupo_1689" data-name="Grupo 1689" transform="translate(39.484 39.484)">
        <path id="Trazado_5038" data-name="Trazado 5038" d="M51.161,38v3.29a1.1,1.1,0,0,1-1.1,1.1H39.1a1.1,1.1,0,0,1-1.1-1.1V38Z" transform="translate(-38 -38)" fill="#ccd1d9"/>
      </g>
      <g id="Grupo_1690" data-name="Grupo 1690" transform="translate(39.484 35.097)">
        <path id="Trazado_5039" data-name="Trazado 5039" d="M51.161,35.1v3.29H38V35.1A1.1,1.1,0,0,1,39.1,34H50.065A1.1,1.1,0,0,1,51.161,35.1Z" transform="translate(-38 -34)" fill="#ccd1d9"/>
      </g>
      <g id="Grupo_1691" data-name="Grupo 1691" transform="translate(30.71)">
        <path id="Trazado_5040" data-name="Trazado 5040" d="M60.71,17.355a17.6,17.6,0,0,1-.132,2.194C59.525,28.794,51.859,32,50.839,37.1H39.871c-1.02-5.1-8.686-8.3-9.739-17.548A17.6,17.6,0,0,1,30,17.355a15.355,15.355,0,1,1,30.71,0Z" transform="translate(-30 -2)" fill="#ffeaa7"/>
      </g>
      <g id="Grupo_1692" data-name="Grupo 1692" transform="translate(6.581 8.774)">
        <path id="Trazado_5041" data-name="Trazado 5041" d="M8,10H21.161v4.387H8Z" transform="translate(-8 -10)" fill="#e6e9ed"/>
      </g>
    </g>
    <g id="Grupo_1694" data-name="Grupo 1694" transform="translate(1 1)">
      <path id="Trazado_5042" data-name="Trazado 5042" d="M43.387,28.825v2.3h2.194V28.935h4.387V23.452a5.49,5.49,0,0,0-5.484-5.484,3.294,3.294,0,0,1-3.29-3.29v-3.29h3.29a3.294,3.294,0,0,1,3.29,3.29v3.29h2.194v-3.29A5.494,5.494,0,0,0,45.581,9.3V7H43.387V9.194H39v5.484a5.49,5.49,0,0,0,5.484,5.484,3.294,3.294,0,0,1,3.29,3.29v3.29h-3.29a3.294,3.294,0,0,1-3.29-3.29v-3.29H39v3.29A5.494,5.494,0,0,0,43.387,28.825Z" transform="translate(2.677 -0.419)"/>
      <path id="Trazado_5043" data-name="Trazado 5043" d="M66.806,5.387h-7.5a16.354,16.354,0,0,0-22.293,0H5.387A2.2,2.2,0,0,0,3.194,7.581v38.2a15.323,15.323,0,0,0,21.03,21.03h35.1l7.933-2.974A2.691,2.691,0,0,0,69,61.323V7.581A2.2,2.2,0,0,0,66.806,5.387Zm0,13.161H64.579c.019-.359.034-.722.034-1.1a16.338,16.338,0,0,0-3.322-9.871h5.516ZM48.161,3.194A14.275,14.275,0,0,1,62.419,17.452c0,6.358-3.129,9.959-5.89,13.134A17.453,17.453,0,0,0,52.806,36.1h-9.29a17.472,17.472,0,0,0-3.724-5.511C37.032,27.41,33.9,23.81,33.9,17.452A14.275,14.275,0,0,1,48.161,3.194Zm5.485,41.677H42.677V42.677H53.646Zm0-6.581v2.194H42.677V38.29Zm-2.4,8.774a3.271,3.271,0,0,1-6.177,0ZM35.032,7.581a16.338,16.338,0,0,0-3.322,9.871c0,.375.015.738.034,1.1H5.387V7.581ZM5.387,20.742h26.6c.882,5.205,3.756,8.53,6.15,11.283a16.942,16.942,0,0,1,3.208,4.535,2.185,2.185,0,0,0-.861,1.731v6.581a2.2,2.2,0,0,0,2.194,2.194h.111a5.484,5.484,0,0,0,10.746,0h.111a2.2,2.2,0,0,0,2.194-2.194V38.29a2.182,2.182,0,0,0-.861-1.73,16.925,16.925,0,0,1,3.208-4.535c2.393-2.754,5.268-6.077,6.15-11.283h2.471v37.9l-7.479-2.806H31.534A15.331,15.331,0,0,0,5.387,42.92Zm25.675,37.29h26.97v2.194H30.207A15.205,15.205,0,0,0,31.063,58.032Zm29.163.486,2.194.823V63.3l-2.194.823ZM3.194,53.645a13.161,13.161,0,1,1,23.581,8.01,10.739,10.739,0,0,0-6.366-7.223,6.581,6.581,0,1,0-8.107,0,10.739,10.739,0,0,0-6.366,7.223A13.079,13.079,0,0,1,3.194,53.645Zm8.774-4.387a4.387,4.387,0,1,1,4.387,4.387A4.392,4.392,0,0,1,11.968,49.258Zm.981,7.286,1.138,1.708L12.327,66.17A13.145,13.145,0,0,1,7.8,63.623l0-.039A8.561,8.561,0,0,1,12.948,56.544Zm2.9.392-.671-1.008a7.9,7.9,0,0,1,2.362,0l-.671,1.008Zm3.918-.392a8.564,8.564,0,0,1,5.148,7.038l0,.039a13.125,13.125,0,0,1-4.532,2.548l-1.759-7.919Zm-5.3,10.111,1.673-7.526h.434l1.673,7.526a13.269,13.269,0,0,1-1.89.151A13.269,13.269,0,0,1,14.465,66.655Zm14.473-4.236H58.032v2.194H27.08A15.451,15.451,0,0,0,28.938,62.419Zm37.552-.642-1.878.7V60.163l1.879.7a.486.486,0,0,1,0,.91Z" transform="translate(-1 -1)"/>
      <path id="Trazado_5044" data-name="Trazado 5044" d="M22.355,9H7v6.581H22.355Zm-6.581,2.194v2.194H13.581V11.194Zm-6.581,0h2.194v2.194H9.194Zm10.968,2.194H17.968V11.194h2.194Z" transform="translate(-0.419 -0.226)"/>
      <path id="Trazado_5045" data-name="Trazado 5045" d="M31.129,27.581H28.935V23.194H26.742v4.387H24.548V21H22.355v6.581H20.161V25.387H17.968v2.194H15.774V23.194H13.581v4.387H11.387V25.387H9.194v2.194H7v2.194H31.129Z" transform="translate(-0.419 0.935)"/>
      <path id="Trazado_5046" data-name="Trazado 5046" d="M7,31h4.387v2.194H7Z" transform="translate(-0.419 1.903)"/>
      <path id="Trazado_5047" data-name="Trazado 5047" d="M13,31H30.548v2.194H13Z" transform="translate(0.161 1.903)"/>
      <path id="Trazado_5048" data-name="Trazado 5048" d="M25,35h2.194v2.194H25Z" transform="translate(1.323 2.29)"/>
      <path id="Trazado_5049" data-name="Trazado 5049" d="M29,35h2.194v2.194H29Z" transform="translate(1.71 2.29)"/>
      <path id="Trazado_5050" data-name="Trazado 5050" d="M33,35h2.194v2.194H33Z" transform="translate(2.097 2.29)"/>
    </g>
  </g>
</svg>
