<svg xmlns="http://www.w3.org/2000/svg" width="49.519" height="49.52" viewBox="0 0 49.519 49.52">
  <g id="Grupo_870" data-name="Grupo 870" transform="translate(0 0)">
    <path id="Trazado_1991" data-name="Trazado 1991" d="M457.352,965.162H436.586a3.193,3.193,0,0,1,3.2-3.2h14.374A3.2,3.2,0,0,1,457.352,965.162Z" transform="translate(-413.424 -916.44)" fill="#969faa"/>
    <path id="Trazado_1992" data-name="Trazado 1992" d="M441.23,957.321h11.183v4.792H441.23Z" transform="translate(-413.277 -916.587)" fill="#aab2bd"/>
    <path id="Trazado_1993" data-name="Trazado 1993" d="M462.292,952.676v1.6a3.193,3.193,0,0,1-3.2,3.194H435.135a3.194,3.194,0,0,1-3.2-3.194v-1.6Z" transform="translate(-413.572 -916.734)" fill="#ccd1d9"/>
    <path id="Trazado_1994" data-name="Trazado 1994" d="M431.939,953.166v-6.39h11.183v-9.584H459.1a3.194,3.194,0,0,1,3.2,3.195v12.779Z" transform="translate(-413.572 -917.224)" fill="#edcd1f"/>
    <path id="Trazado_1995" data-name="Trazado 1995" d="M445.877,940.289h12.779v9.584H445.877Z" transform="translate(-413.13 -917.126)" fill="#cd3934"/>
    <path id="Trazado_1996" data-name="Trazado 1996" d="M423.6,962.963a2.8,2.8,0,0,1-2.795,2.8,2.809,2.809,0,0,1-2.795-2.8V943.122a4.788,4.788,0,0,0,1.6.271h6.391v3.2h3.194v16.374a2.809,2.809,0,0,1-2.8,2.8A2.8,2.8,0,0,1,423.6,962.963Z" transform="translate(-414.013 -917.037)" fill="#ce7a3c"/>
    <path id="Trazado_1997" data-name="Trazado 1997" d="M418.9,938.236h-3.994v-2.4a6.389,6.389,0,0,1,6.39-6.39h4.793a6.4,6.4,0,0,1,6.19,4.792h-6.19v5.592H420.5A1.6,1.6,0,0,1,418.9,938.236Z" transform="translate(-414.111 -917.469)" fill="#090"/>
    <path id="Trazado_1998" data-name="Trazado 1998" d="M443.318,946.66h-17.57v-3.2h4.391a2,2,0,0,0,2-2,1.938,1.938,0,0,0-.094-.605,3.577,3.577,0,0,0,2.492,1.007,3.626,3.626,0,0,0,2.452-.967Z" transform="translate(-413.768 -917.108)" fill="#ccd1d9"/>
    <path id="Trazado_1999" data-name="Trazado 1999" d="M442.973,937.29v9.584l-6.332-5.758c.07-.073.142-.146.216-.224l6.117-6.8Z" transform="translate(-413.423 -917.323)" fill="#aab2bd"/>
    <path id="Trazado_2000" data-name="Trazado 2000" d="M425.748,934.094l5.175,5.751a2,2,0,0,0-.784-.16h-4.391Z" transform="translate(-413.768 -917.323)" fill="#aab2bd"/>
    <path id="Trazado_2001" data-name="Trazado 2001" d="M443.318,934.094l-6.117,6.8c-.073.078-.145.151-.216.224a3.627,3.627,0,0,1-2.452.967,3.576,3.576,0,0,1-2.492-1.007,1.953,1.953,0,0,0-.488-.807,1.886,1.886,0,0,0-.63-.424l-5.175-5.751h17.57Z" transform="translate(-413.768 -917.323)" fill="#e6e9ed"/>
    <path id="Trazado_2002" data-name="Trazado 2002" d="M432.384,940.954a1.937,1.937,0,0,1,.094.605,2,2,0,0,1-2,2H419.7a4.784,4.784,0,0,1-4.792-4.792v-.8H418.9a1.6,1.6,0,0,0,1.6,1.6h9.984a2,2,0,0,1,.784.16,1.886,1.886,0,0,1,.63.424,1.952,1.952,0,0,1,.488.807Z" transform="translate(-414.111 -917.2)" fill="#f0d0b4"/>
    <path id="Trazado_2003" data-name="Trazado 2003" d="M423.6,918.611a5.591,5.591,0,1,1-5.59,5.591A5.591,5.591,0,0,1,423.6,918.611Z" transform="translate(-414.013 -917.813)" fill="#f0d0b4"/>
    <path id="Trazado_2004" data-name="Trazado 2004" d="M459.661,937.005H444.486v-3.194H432.894a7.181,7.181,0,0,0-5.178-4.606,6.391,6.391,0,1,0-7.993,0,7.2,7.2,0,0,0-5.587,7V939.4a5.591,5.591,0,0,0,3.193,5.045v19.317a3.579,3.579,0,0,0,6.39,2.231,3.579,3.579,0,0,0,6.389-2.231V948.187h1.6v7.189a4,4,0,0,0,3.994,3.994h5.592v3.194h-.8a4,4,0,0,0-4,3.995v.8h22.365v-.8a4,4,0,0,0-4-3.995h-.8V959.37h5.592a4,4,0,0,0,3.994-3.994V941A4,4,0,0,0,459.661,937.005Zm-32.748,7.988h3.593a2.789,2.789,0,0,0,2.656-1.964,4.334,4.334,0,0,0,4.145-.36l4.311,3.921H426.913Zm11.572-3.412,4.4-4.89v8.892Zm-1.513-.707a2.864,2.864,0,0,1-3.89.231,2.809,2.809,0,0,0-1.279-1.372l-3.9-4.327h13.986Zm-10.059-4.183,2.441,2.71h-2.441Zm-7.987-12.465a4.793,4.793,0,1,1,4.792,4.792A4.8,4.8,0,0,1,418.926,924.226Zm2.4,6.39h4.793a5.584,5.584,0,0,1,5.044,3.2h-5.843v5.59h-4.794a.8.8,0,0,1-.8-.8v-3.995h-1.6v3.2h-2.4v-1.6A5.6,5.6,0,0,1,421.323,930.616Zm-5.591,8.785h2.542a2.4,2.4,0,0,0,2.249,1.6h9.984a1.2,1.2,0,1,1,0,2.4H419.725A4,4,0,0,1,415.731,939.4Zm12.78,24.362a2,2,0,0,1-4,0V948.187h-1.6v15.576a2,2,0,0,1-3.994,0V944.928a5.527,5.527,0,0,0,.8.065h5.591v3.194h3.2Zm15.975-15.576V938.6h15.175a2.4,2.4,0,0,1,2.4,2.4V952.98H433.3v-4.793Zm12.642,17.572h-18.9a2.4,2.4,0,0,1,2.261-1.6h14.374a2.4,2.4,0,0,1,2.261,1.6Zm-4.657-3.195h-9.583V959.37h9.583Zm7.19-4.792H435.7a2.4,2.4,0,0,1-2.4-2.4v-.8h28.753v.8A2.4,2.4,0,0,1,459.661,957.772Z" transform="translate(-414.135 -917.837)" fill="#2d2d2d"/>
    <path id="Trazado_2005" data-name="Trazado 2005" d="M459.478,939.514H445.1V950.7h14.376Zm-1.6,9.584H446.7v-7.985h11.183Z" transform="translate(-413.155 -917.151)" fill="#2d2d2d"/>
    <path id="Trazado_2006" data-name="Trazado 2006" d="M434.264,948.8h1.6v1.6h-1.6Z" transform="translate(-413.498 -916.857)" fill="#2d2d2d"/>
    <path id="Trazado_2007" data-name="Trazado 2007" d="M437.361,948.8h1.6v1.6h-1.6Z" transform="translate(-413.4 -916.857)" fill="#2d2d2d"/>
    <path id="Trazado_2008" data-name="Trazado 2008" d="M440.457,948.8h1.6v1.6h-1.6Z" transform="translate(-413.302 -916.857)" fill="#2d2d2d"/>
    <path id="Trazado_2009" data-name="Trazado 2009" d="M448.2,942.611h7.987v1.6H448.2Z" transform="translate(-413.057 -917.053)" fill="#2d2d2d"/>
    <path id="Trazado_2010" data-name="Trazado 2010" d="M448.2,945.708h7.987v1.6H448.2Z" transform="translate(-413.057 -916.955)" fill="#2d2d2d"/>
  </g>
</svg>
