<svg id="Grupo_606" data-name="Grupo 606" xmlns="http://www.w3.org/2000/svg" width="33.036" height="27.765" viewBox="0 0 33.036 27.765">
  <path id="Trazado_1541" data-name="Trazado 1541" d="M376.022,5424.559h-2.44c-.537,0-.97-2.212-.97-3.037v-1.912c0-.827.434-1.5.97-1.5h2.44c.536,0,.969.669.969,1.5v1.912C376.991,5422.347,376.558,5424.559,376.022,5424.559Z" transform="translate(-366.157 -5403.506)" fill="#ffc5b2"/>
  <path id="Trazado_1542" data-name="Trazado 1542" d="M375.948,5418.113h-.933c.534,0,.966.664.966,1.489v1.927c0,.82-.433,3.029-.966,3.029h.933c.533,0,.965-2.209.965-3.029V5419.6C376.914,5418.777,376.481,5418.113,375.948,5418.113Z" transform="translate(-366.079 -5403.506)" fill="#ffae92"/>
  <path id="Trazado_1543" data-name="Trazado 1543" d="M391.406,5424.559h-2.441c-.535,0-.969-2.212-.969-3.037v-1.912c0-.827.435-1.5.969-1.5h2.441c.536,0,.97.669.97,1.5v1.912C392.376,5422.347,391.942,5424.559,391.406,5424.559Z" transform="translate(-365.658 -5403.506)" fill="#bc663b"/>
  <path id="Trazado_1544" data-name="Trazado 1544" d="M391.332,5418.113H390.4c.533,0,.966.664.966,1.489v1.927c0,.82-.434,3.029-.966,3.029h.932c.534,0,.966-2.209.966-3.029V5419.6C392.3,5418.777,391.866,5418.113,391.332,5418.113Z" transform="translate(-365.58 -5403.506)" fill="#ad5731"/>
  <path id="Trazado_1545" data-name="Trazado 1545" d="M377.111,5406.885a2.472,2.472,0,1,1-2.473-2.473A2.473,2.473,0,0,1,377.111,5406.885Z" transform="translate(-366.171 -5403.949)" fill="#d2d2dd"/>
  <path id="Trazado_1546" data-name="Trazado 1546" d="M374.587,5404.412a2.486,2.486,0,0,0-.824.143,2.472,2.472,0,0,1,0,4.66,2.511,2.511,0,0,0,.824.143,2.473,2.473,0,0,0,0-4.945Z" transform="translate(-366.119 -5403.949)" fill="#aeaeb4"/>
  <path id="Trazado_1547" data-name="Trazado 1547" d="M368.419,5416.581v-3.59a6.1,6.1,0,0,1,6.1-6.1H375a6.1,6.1,0,0,1,6.1,6.1v3.59Z" transform="translate(-366.292 -5403.869)" fill="#aeaeb4"/>
  <path id="Trazado_1548" data-name="Trazado 1548" d="M374.842,5406.892h-.486a5.887,5.887,0,0,0-.937.073,6.1,6.1,0,0,1,5.162,6.026v3.59h2.361v-3.59A6.1,6.1,0,0,0,374.842,5406.892Z" transform="translate(-366.13 -5403.869)" fill="#919191"/>
  <path id="Trazado_1549" data-name="Trazado 1549" d="M381.081,5414.8h-.764v-.753a4.277,4.277,0,0,0-4.276-4.276h-2.492a4.277,4.277,0,0,0-4.276,4.276v.753h-.764a1.123,1.123,0,0,0-1.123,1.124v.557a1.431,1.431,0,0,0,1.43,1.432,1.547,1.547,0,0,0,.462-.024,4.278,4.278,0,0,0,4.271,4.056h2.492a4.277,4.277,0,0,0,4.27-4.056,1.552,1.552,0,0,0,.464.024,1.43,1.43,0,0,0,1.428-1.432v-.557A1.122,1.122,0,0,0,381.081,5414.8Z" transform="translate(-366.326 -5403.776)" fill="#ffc5b2"/>
  <path id="Trazado_1550" data-name="Trazado 1550" d="M383.974,5415.927v-3.349a4.93,4.93,0,0,1,4.93-4.932h2.824a4.93,4.93,0,0,1,4.931,4.932v3.349Z" transform="translate(-365.789 -5403.845)" fill="#aeaeb4"/>
  <path id="Trazado_1551" data-name="Trazado 1551" d="M391.558,5407.646H389.2a4.931,4.931,0,0,1,4.93,4.932v3.349h2.36v-3.349A4.93,4.93,0,0,0,391.558,5407.646Z" transform="translate(-365.619 -5403.845)" fill="#919191"/>
  <path id="Trazado_1552" data-name="Trazado 1552" d="M374.608,5419.776a1.512,1.512,0,0,1-1.463-.975.464.464,0,1,1,.883-.283.671.671,0,0,0,1.16,0,.464.464,0,1,1,.884.283A1.512,1.512,0,0,1,374.608,5419.776Z" transform="translate(-366.14 -5403.504)" fill="#ff75ac"/>
  <path id="Trazado_1553" data-name="Trazado 1553" d="M396.637,5414.8h-.765v-.753a4.277,4.277,0,0,0-4.276-4.276H389.1a4.277,4.277,0,0,0-4.276,4.276v.753h-.765a1.122,1.122,0,0,0-1.121,1.124v.557a1.43,1.43,0,0,0,1.429,1.432,1.545,1.545,0,0,0,.463-.024,4.278,4.278,0,0,0,4.271,4.056H391.6a4.278,4.278,0,0,0,4.271-4.056,1.55,1.55,0,0,0,.464.024,1.43,1.43,0,0,0,1.428-1.432v-.557A1.122,1.122,0,0,0,396.637,5414.8Z" transform="translate(-365.822 -5403.776)" fill="#bc663b"/>
  <path id="Trazado_1554" data-name="Trazado 1554" d="M393.478,5415.579a.79.79,0,1,1-.792-.791A.792.792,0,0,1,393.478,5415.579Z" transform="translate(-365.532 -5403.614)" fill="#603813"/>
  <path id="Trazado_1555" data-name="Trazado 1555" d="M388.388,5415.579a.79.79,0,1,1-.79-.791A.79.79,0,0,1,388.388,5415.579Z" transform="translate(-365.697 -5403.614)" fill="#603813"/>
  <path id="Trazado_1556" data-name="Trazado 1556" d="M387.946,5414.446H386.9a.735.735,0,0,1,0-1.469h1.042a.735.735,0,0,1,0,1.469Z" transform="translate(-365.717 -5403.672)" fill="#e8e8ed"/>
  <path id="Trazado_1557" data-name="Trazado 1557" d="M387.916,5412.977H387.1a.735.735,0,1,1,0,1.469h.815a.735.735,0,0,0,0-1.469Z" transform="translate(-365.687 -5403.672)" fill="#d2d2dd"/>
  <path id="Trazado_1558" data-name="Trazado 1558" d="M380.864,5414.8H380.1v-.772a4.256,4.256,0,0,0-4.258-4.258h-1.784a4.26,4.26,0,0,1,4.259,4.258v3.66a4.26,4.26,0,0,1-4.259,4.256h1.784a4.258,4.258,0,0,0,4.252-4.056,1.545,1.545,0,0,0,.463.024,1.43,1.43,0,0,0,1.428-1.432v-.557A1.122,1.122,0,0,0,380.864,5414.8Z" transform="translate(-366.11 -5403.776)" fill="#ffae92"/>
  <path id="Trazado_1559" data-name="Trazado 1559" d="M377.341,5413.5a2.249,2.249,0,0,0-2.2,1.782h-.858a2.245,2.245,0,1,0,0,.927h.858a2.246,2.246,0,1,0,2.2-2.708Zm-5.254,3.564a1.319,1.319,0,1,1,1.318-1.318A1.32,1.32,0,0,1,372.087,5417.062Zm5.254,0a1.319,1.319,0,1,1,1.319-1.318A1.319,1.319,0,0,1,377.341,5417.062Z" transform="translate(-366.246 -5403.657)" fill="#5c5c5c"/>
  <path id="Trazado_1560" data-name="Trazado 1560" d="M377.734,5415.692a.609.609,0,1,1-.609-.608A.608.608,0,0,1,377.734,5415.692Z" transform="translate(-366.03 -5403.604)" fill="#257edf"/>
  <path id="Trazado_1561" data-name="Trazado 1561" d="M396.421,5414.8h-.765v-.772a4.257,4.257,0,0,0-4.258-4.258h-1.784a4.256,4.256,0,0,1,4.257,4.258v3.66a4.257,4.257,0,0,1-4.257,4.256H391.4a4.259,4.259,0,0,0,4.253-4.056,1.534,1.534,0,0,0,.46.024,1.43,1.43,0,0,0,1.43-1.432v-.557A1.122,1.122,0,0,0,396.421,5414.8Z" transform="translate(-365.606 -5403.776)" fill="#ad5731"/>
  <path id="Trazado_1562" data-name="Trazado 1562" d="M391.4,5417.793c.318,0,.487.463.262.732a1.946,1.946,0,0,1-2.98,0c-.225-.27-.056-.732.263-.732Z" transform="translate(-365.64 -5403.517)" fill="#dd5298"/>
  <path id="Trazado_1563" data-name="Trazado 1563" d="M391.358,5417.793h-1.619v.023a1.793,1.793,0,0,0,.633,1.379l.009.01a1.944,1.944,0,0,0,1.239-.68C391.845,5418.256,391.676,5417.793,391.358,5417.793Z" transform="translate(-365.602 -5403.517)" fill="#c93f84"/>
  <path id="Trazado_1564" data-name="Trazado 1564" d="M391.746,5416.926h-3.027a2.168,2.168,0,0,0-2.167,2.167.367.367,0,0,0,.367.366h1.38a2.026,2.026,0,0,1,3.866,0h1.381a.367.367,0,0,0,.367-.366A2.169,2.169,0,0,0,391.746,5416.926Z" transform="translate(-365.705 -5403.545)" fill="#e8e8ed"/>
  <path id="Trazado_1565" data-name="Trazado 1565" d="M391.626,5416.926h-1.367a2.168,2.168,0,0,1,2.167,2.167.365.365,0,0,1-.366.366h1.368a.366.366,0,0,0,.365-.366A2.167,2.167,0,0,0,391.626,5416.926Z" transform="translate(-365.585 -5403.545)" fill="#d2d2dd"/>
  <path id="Trazado_1566" data-name="Trazado 1566" d="M393.56,5414.446h-1.041a.735.735,0,1,1,0-1.469h1.041a.735.735,0,1,1,0,1.469Z" transform="translate(-365.536 -5403.672)" fill="#e8e8ed"/>
  <path id="Trazado_1567" data-name="Trazado 1567" d="M393.529,5412.977h-.812a.735.735,0,1,1,0,1.469h.812a.735.735,0,1,0,0-1.469Z" transform="translate(-365.505 -5403.672)" fill="#d2d2dd"/>
  <path id="Trazado_1568" data-name="Trazado 1568" d="M372.644,5415.692a.608.608,0,1,1-.608-.608A.609.609,0,0,1,372.644,5415.692Z" transform="translate(-366.195 -5403.604)" fill="#2d2d2d"/>
  <path id="Trazado_1569" data-name="Trazado 1569" d="M389.038,5409.358h2.528a4.725,4.725,0,0,1,4.613,3.717v-.514a4.469,4.469,0,0,0-4.466-4.465h-2.824a4.469,4.469,0,0,0-4.464,4.465v.514A4.726,4.726,0,0,1,389.038,5409.358Z" transform="translate(-365.774 -5403.832)" fill="none"/>
  <path id="Trazado_1570" data-name="Trazado 1570" d="M391.738,5422a3.4,3.4,0,0,0,.388-.052,4.562,4.562,0,0,1-.717.063h-2.125A21.321,21.321,0,0,0,391.738,5422Z" transform="translate(-365.617 -5403.382)" fill="none"/>
  <path id="Trazado_1571" data-name="Trazado 1571" d="M383.391,5415.744v.572a.961.961,0,0,0,.958.959v-2.186h-.306A.654.654,0,0,0,383.391,5415.744Z" transform="translate(-365.807 -5403.604)" fill="none"/>
  <path id="Trazado_1572" data-name="Trazado 1572" d="M396.567,5415.246h-.3v.42a.464.464,0,0,1-.927,0v-1.654a3.8,3.8,0,0,0-3.795-3.792h-2.528a3.8,3.8,0,0,0-3.8,3.792v3.659a3.8,3.8,0,0,0,3.8,3.791h2.528a3.8,3.8,0,0,0,3.795-3.791v-.166a.464.464,0,0,1,.921-.074h.006a.958.958,0,0,0,.957-.958v-.572A.654.654,0,0,0,396.567,5415.246Z" transform="translate(-365.748 -5403.762)" fill="none"/>
  <path id="Trazado_1573" data-name="Trazado 1573" d="M388.4,5421.542l.005.019h.022A.249.249,0,0,0,388.4,5421.542Z" transform="translate(-365.645 -5403.395)"/>
  <path id="Trazado_1574" data-name="Trazado 1574" d="M391.651,5421.542l-.028.019h.023Z" transform="translate(-365.541 -5403.395)"/>
  <path id="Trazado_1575" data-name="Trazado 1575" d="M394.063,5424.126l-1.78-.737a2.309,2.309,0,0,1-2.016,1.57,2.445,2.445,0,0,1-2.161-1.97l-2.826.866a3.294,3.294,0,0,0-2.028,2.693l-.615,3.54h1.891l.332-2.649.763.169-.312,2.48h9.91l-.313-2.48.765-.169.33,2.649h.762l-.328-2.391A4.4,4.4,0,0,0,394.063,5424.126Z" transform="translate(-365.832 -5403.349)" fill="#39c2fb"/>
  <path id="Trazado_1576" data-name="Trazado 1576" d="M396.979,5426.548a3.291,3.291,0,0,0-2.027-2.693l-2.827-.866a3.392,3.392,0,0,1-.145.4l1.78.737a4.4,4.4,0,0,1,2.376,3.571l.328,2.391h1.129Z" transform="translate(-365.529 -5403.349)" fill="#148bdf"/>
  <path id="Trazado_1577" data-name="Trazado 1577" d="M391.374,5424.949h-.982c-.041,0-.083.01-.125.01s-.073-.009-.111-.01h-1c-.359,0-.8-.97-1.1-1.946l-2.784.852a3.294,3.294,0,0,0-2.028,2.693l-.615,3.54h1.891l.332-2.649.763.169-.312,2.48h9.91l-.313-2.48.765-.169.33,2.649H397.9l-.615-3.54a3.291,3.291,0,0,0-2.027-2.693l-2.827-.866a3.387,3.387,0,0,1-.145.4c-.03.071-.066.136-.1.2C391.953,5424.334,391.66,5424.949,391.374,5424.949Z" transform="translate(-365.832 -5403.349)" fill="none"/>
  <path id="Trazado_1578" data-name="Trazado 1578" d="M390.156,5424.887h-.235c.037,0,.073.011.111.011S390.115,5424.889,390.156,5424.887Z" transform="translate(-365.596 -5403.288)"/>
  <g id="Grupo_603" data-name="Grupo 603" transform="translate(15.835 3.337)">
    <path id="Trazado_1579" data-name="Trazado 1579" d="M390.247,5419.725a2.323,2.323,0,0,0,.712-.107,2.469,2.469,0,0,0,1.221.319h1.381a.831.831,0,0,0,.829-.831,2.632,2.632,0,0,0-2.631-2.628h-3.027a2.632,2.632,0,0,0-2.629,2.628.83.83,0,0,0,.83.831h1.38a2.466,2.466,0,0,0,1.22-.319A2.323,2.323,0,0,0,390.247,5419.725Zm-1.933-.715h-1.28a1.7,1.7,0,0,1,1.7-1.605h3.027a1.7,1.7,0,0,1,1.7,1.605h-1.28a1.7,1.7,0,0,1-.924-.3,1.565,1.565,0,0,1-.567-.793.463.463,0,0,0-.885,0,1.56,1.56,0,0,1-.568.793A1.688,1.688,0,0,1,388.314,5419.01Z" transform="translate(-381.554 -5406.896)" fill="#2d2d2d"/>
    <path id="Trazado_1580" data-name="Trazado 1580" d="M387.319,5414.925a.791.791,0,1,0,.625,0h.017a1.2,1.2,0,0,0,0-2.4h-1.042a1.2,1.2,0,0,0,0,2.4Zm-.671-1.2a.273.273,0,0,1,.272-.273h1.041a.271.271,0,0,1,0,.543h-1.042A.271.271,0,0,1,386.648,5413.727Z" transform="translate(-381.567 -5407.023)" fill="#2d2d2d"/>
    <path id="Trazado_1581" data-name="Trazado 1581" d="M392.41,5414.919a.79.79,0,1,0,.609.006h.555a1.2,1.2,0,0,0,0-2.4h-1.041a1.2,1.2,0,0,0-.124,2.392Zm.124-1.466h1.041a.271.271,0,0,1,0,.543h-1.041a.271.271,0,0,1,0-.543Z" transform="translate(-381.385 -5407.023)" fill="#2d2d2d"/>
    <path id="Trazado_1582" data-name="Trazado 1582" d="M385.137,5423.365a4.239,4.239,0,0,0-2.607,3.463l-.833,4.8h17.2l-.833-4.8a4.239,4.239,0,0,0-2.607-3.463,16.3,16.3,0,0,0-1.816-.554c-.219-.034-.728-.107-1.079-.158.017-.1.03-.188.043-.277a5.236,5.236,0,0,0,2.437-1.342,4.7,4.7,0,0,0,1.281-2.577h.051a1.889,1.889,0,0,0,1.886-1.887V5416a1.583,1.583,0,0,0-1.067-1.5v-1.913a5.4,5.4,0,0,0-5.393-5.4h-2.826a5.4,5.4,0,0,0-5.393,5.4v1.913a1.583,1.583,0,0,0-1.066,1.5v.571a1.889,1.889,0,0,0,1.886,1.887h.052a4.736,4.736,0,0,0,2.095,3.263,2.442,2.442,0,0,0,1.254.541c.016.112.037.23.063.358-.313.072-.716.162-.915.192A16.3,16.3,0,0,0,385.137,5423.365Zm-.733-5.835a.961.961,0,0,1-.958-.959V5416a.655.655,0,0,1,.653-.656h.306Zm.109-4.938a4.47,4.47,0,0,1,4.464-4.467H391.8a4.47,4.47,0,0,1,4.466,4.467v.515a4.726,4.726,0,0,0-4.613-3.719h-2.528a4.726,4.726,0,0,0-4.613,3.719Zm.818,5.177v-3.659a3.8,3.8,0,0,1,3.795-3.792h2.528a3.8,3.8,0,0,1,3.8,3.792v1.654a.464.464,0,0,0,.927,0v-.42h.3a.655.655,0,0,1,.652.656v.571a.959.959,0,0,1-.957.959h-.006a.464.464,0,0,0-.921.072v.166a3.8,3.8,0,0,1-3.8,3.791h-2.528A3.8,3.8,0,0,1,385.331,5417.768Zm6.572,4.708c-.022.167-.046.356-.074.558a3.6,3.6,0,0,1-.279.55,1.466,1.466,0,0,1-1.252.86,1.756,1.756,0,0,1-1.49-1.117c-.05-.333-.09-.657-.125-.913.253.031.534.057.847.074h2.125C391.739,5422.487,391.821,5422.481,391.9,5422.476Zm-3.807,1.039.041-.014a2.483,2.483,0,0,0,2.05,1.959h.235a2.278,2.278,0,0,0,1.792-1.355c.033-.068.069-.133.1-.2a3.3,3.3,0,0,0,.145-.4l2.827.865a3.3,3.3,0,0,1,2.027,2.694l.615,3.539h-1.891l-.33-2.649-.765.169.313,2.48h-9.91l.312-2.48-.763-.169-.332,2.649h-1.891l.615-3.539a3.3,3.3,0,0,1,2.028-2.694Z" transform="translate(-381.697 -5407.196)" fill="#2d2d2d"/>
  </g>
  <path id="Trazado_1583" data-name="Trazado 1583" d="M378.726,5424.109l-1.779-.74a2.308,2.308,0,0,1-2.016,1.57,2.445,2.445,0,0,1-2.162-1.97l-2.826.867a3.3,3.3,0,0,0-2.029,2.691l-.614,3.541h1.891l.332-2.65.763.168-.311,2.482h9.908l-.312-2.482.764-.168.331,2.65h.761l-.326-2.391A4.391,4.391,0,0,0,378.726,5424.109Z" transform="translate(-366.328 -5403.349)" fill="#f9f953"/>
  <path id="Trazado_1584" data-name="Trazado 1584" d="M381.642,5426.528a3.287,3.287,0,0,0-2.028-2.691l-2.826-.867a3.242,3.242,0,0,1-.144.4l1.779.74a4.391,4.391,0,0,1,2.377,3.569l.326,2.391h1.13Z" transform="translate(-366.026 -5403.349)" fill="#ddce17"/>
  <path id="Trazado_1585" data-name="Trazado 1585" d="M375.988,5424.949h-2.212c-.36,0-.8-.972-1.1-1.951l-2.734.839a3.3,3.3,0,0,0-2.029,2.691l-.614,3.541h1.891l.332-2.65.763.168-.311,2.482h9.908l-.312-2.482.764-.168.331,2.65h1.891l-.615-3.541a3.287,3.287,0,0,0-2.028-2.691l-2.826-.867a3.354,3.354,0,0,1-.352.8C376.518,5424.433,376.25,5424.949,375.988,5424.949Z" transform="translate(-366.328 -5403.349)" fill="none"/>
  <path id="Trazado_1586" data-name="Trazado 1586" d="M373.481,5409.463h2.53a4.727,4.727,0,0,1,4.613,3.718v-.126a5.666,5.666,0,0,0-5.5-5.632.463.463,0,0,1,.01-.927h.011a6.7,6.7,0,0,1,1.6.235,2.007,2.007,0,0,0-4,0c.05-.011.1-.026.148-.037a.463.463,0,1,1,.227.9,5.627,5.627,0,0,0-4.25,5.462v.126A4.728,4.728,0,0,1,373.481,5409.463Z" transform="translate(-366.278 -5403.935)" fill="none"/>
  <path id="Trazado_1587" data-name="Trazado 1587" d="M381.012,5415.246h-.3v.42a.464.464,0,0,1-.928,0v-1.654a3.8,3.8,0,0,0-3.794-3.792h-2.53a3.8,3.8,0,0,0-3.793,3.792v3.659a3.8,3.8,0,0,0,3.793,3.791h2.53a3.8,3.8,0,0,0,3.794-3.791v-.166a.464.464,0,0,1,.921-.074h.006a.96.96,0,0,0,.959-.958v-.572A.655.655,0,0,0,381.012,5415.246Z" transform="translate(-366.252 -5403.762)" fill="none"/>
  <g id="Grupo_605" data-name="Grupo 605">
    <g id="Grupo_604" data-name="Grupo 604">
      <path id="Trazado_1588" data-name="Trazado 1588" d="M371.617,5422.894a16.807,16.807,0,0,0-1.817.556,4.236,4.236,0,0,0-2.606,3.461l-.835,4.8h17.2l-.833-4.8a4.241,4.241,0,0,0-2.607-3.461,16.84,16.84,0,0,0-1.816-.556c-.229-.034-.772-.113-1.124-.162.019-.108.034-.211.049-.308a4.892,4.892,0,0,0,2.265-1.285,4.72,4.72,0,0,0,1.268-2.578h.051a1.888,1.888,0,0,0,1.886-1.886v-.571a1.583,1.583,0,0,0-1.068-1.5v-1.523a6.563,6.563,0,0,0-3.877-5.989c0-.066.007-.131.007-.2a2.935,2.935,0,1,0-5.87,0c0,.064,0,.129.007.2a6.55,6.55,0,0,0-3.878,5.989v1.523a1.583,1.583,0,0,0-1.067,1.5v.571a1.889,1.889,0,0,0,1.887,1.886h.05a4.711,4.711,0,0,0,1.534,2.826,11.044,11.044,0,0,0,1.975.831c.017.15.043.315.079.5C372.174,5422.783,371.8,5422.866,371.617,5422.894Zm-2.776-5.26a.959.959,0,0,1-.958-.959v-.571a.656.656,0,0,1,.653-.656h.3Zm11.106,6.817a3.29,3.29,0,0,1,2.028,2.691l.615,3.541H380.7l-.331-2.65-.764.168.312,2.482h-9.908l.311-2.482-.763-.168-.332,2.65h-1.891l.614-3.541a3.3,3.3,0,0,1,2.029-2.691l2.734-.838.092-.027a2.444,2.444,0,0,0,2.162,1.968,2.164,2.164,0,0,0,1.808-1.166,3.292,3.292,0,0,0,.208-.4,3.348,3.348,0,0,0,.144-.4Zm-11-11.366a5.628,5.628,0,0,1,4.25-5.463.463.463,0,1,0-.227-.9c-.05.01-.1.025-.148.037a2.007,2.007,0,0,1,4,0,6.75,6.75,0,0,0-1.6-.235h-.011a.464.464,0,0,0-.01.928,5.666,5.666,0,0,1,5.5,5.632v.125a4.727,4.727,0,0,0-4.613-3.718h-2.53a4.729,4.729,0,0,0-4.613,3.718Zm.82,4.788v-3.658a3.794,3.794,0,0,1,3.793-3.791h2.53a3.8,3.8,0,0,1,3.794,3.791v1.654a.464.464,0,0,0,.928,0v-.42h.3a.655.655,0,0,1,.654.656v.571a.96.96,0,0,1-.959.959h-.006a.463.463,0,0,0-.921.072v.166a3.8,3.8,0,0,1-3.794,3.791h-2.53A3.8,3.8,0,0,1,369.769,5417.873Zm5.274,4.7c.45-.039.942,0,1.48-.046a7.435,7.435,0,0,1-.311,1.137,1.466,1.466,0,0,1-1.251.859,1.8,1.8,0,0,1-1.572-1.317c-.04-.286-.073-.552-.1-.762A6.308,6.308,0,0,0,375.043,5422.576Z" transform="translate(-366.359 -5403.965)" fill="#2d2d2d"/>
      <path id="Trazado_1589" data-name="Trazado 1589" d="M374.608,5419.776a1.512,1.512,0,0,0,1.464-.975.464.464,0,1,0-.884-.283.671.671,0,0,1-1.16,0,.464.464,0,1,0-.883.283A1.512,1.512,0,0,0,374.608,5419.776Z" transform="translate(-366.14 -5403.504)" fill="#2d2d2d"/>
      <path id="Trazado_1590" data-name="Trazado 1590" d="M374.285,5416.207h.858a2.245,2.245,0,1,0,0-.927h-.858a2.245,2.245,0,1,0,0,.927Zm3.056-1.782a1.319,1.319,0,1,1-1.317,1.319A1.321,1.321,0,0,1,377.341,5414.424Zm-5.254,2.638a1.319,1.319,0,1,1,1.318-1.318A1.32,1.32,0,0,1,372.087,5417.062Z" transform="translate(-366.246 -5403.657)" fill="#2d2d2d"/>
      <path id="Trazado_1591" data-name="Trazado 1591" d="M377.125,5416.3a.609.609,0,1,0-.608-.609A.608.608,0,0,0,377.125,5416.3Z" transform="translate(-366.03 -5403.604)" fill="#2d2d2d"/>
    </g>
  </g>
</svg>
