<svg xmlns="http://www.w3.org/2000/svg" width="30.85" height="34.597" viewBox="0 0 30.85 34.597">
  <g id="Grupo_1487" data-name="Grupo 1487" transform="translate(-6061.282 -2212.762)">
    <path id="Trazado_1501" data-name="Trazado 1501" d="M571.556,5410.188l24.209,13.977-.544.94-24.209-13.978Z" transform="translate(5493.318 -3187.585)" fill="#b2b2b2" fill-rule="evenodd"/>
    <path id="Trazado_1502" data-name="Trazado 1502" d="M583.667,5403.423l6.051,3.5h0l6.325,3.65v14.6l-12.651,7.3h0v-1.255h0l11.56-6.673v-13.353l-5.78-3.336h0l-5.781-3.337h0v-1.25h0Zm-.273,29.052-6.323-3.652h0l-6.323-3.651v-7.3h0v-7.3l6.325-3.65h0l6.319-3.65v1.25l-5.779,3.336h0l-5.78,3.336v6.676h0v6.676l5.778,3.335h0l5.779,3.337Z" transform="translate(5493.31 -3187.809)" fill="#b2b2b2" fill-rule="evenodd"/>
    <path id="Trazado_1503" data-name="Trazado 1503" d="M571.338,5426.241a2,2,0,1,0-2-2,2,2,0,0,0,2,2" transform="translate(5493.264 -3187.194)" fill="#108d06" fill-rule="evenodd"/>
    <path id="Trazado_1504" data-name="Trazado 1504" d="M571.379,5426.184a1.9,1.9,0,1,0-1.342-.558,1.9,1.9,0,0,0,1.342.558m2.35.451a3.328,3.328,0,1,1,.971-2.348,3.309,3.309,0,0,1-.971,2.348" transform="translate(5493.223 -3187.235)" fill="#fff" fill-rule="evenodd"/>
    <path id="Trazado_1505" data-name="Trazado 1505" d="M571.338,5412.7a2,2,0,1,0-2-2,2,2,0,0,0,2,2" transform="translate(5493.264 -3187.633)" fill="#bc0000" fill-rule="evenodd"/>
    <path id="Trazado_1506" data-name="Trazado 1506" d="M571.379,5412.645a1.9,1.9,0,1,0-1.342-.556,1.893,1.893,0,0,0,1.342.556m2.35.452a3.321,3.321,0,1,1,.973-2.347,3.311,3.311,0,0,1-.973,2.347" transform="translate(5493.223 -3187.674)" fill="#fff" fill-rule="evenodd"/>
    <path id="Trazado_1507" data-name="Trazado 1507" d="M583.063,5405.934a2,2,0,1,0-2-2,2,2,0,0,0,2,2" transform="translate(5493.644 -3187.851)" fill="#bc0000" fill-rule="evenodd"/>
    <path id="Trazado_1508" data-name="Trazado 1508" d="M583.1,5405.876a1.9,1.9,0,1,0-1.343-.557,1.9,1.9,0,0,0,1.343.557m2.349.45a3.322,3.322,0,1,1,.972-2.348,3.306,3.306,0,0,1-.972,2.348" transform="translate(5493.602 -3187.893)" fill="#fff" fill-rule="evenodd"/>
    <path id="Trazado_1509" data-name="Trazado 1509" d="M594.788,5412.7a2,2,0,1,0-2-2,2,2,0,0,0,2,2" transform="translate(5494.023 -3187.633)" fill="#bc0000" fill-rule="evenodd"/>
    <path id="Trazado_1510" data-name="Trazado 1510" d="M594.829,5412.645a1.9,1.9,0,1,0-1.343-.556,1.893,1.893,0,0,0,1.343.556m2.349.452a3.326,3.326,0,1,1,.971-2.347,3.31,3.31,0,0,1-.971,2.347" transform="translate(5493.982 -3187.674)" fill="#fff" fill-rule="evenodd"/>
    <path id="Trazado_1511" data-name="Trazado 1511" d="M594.788,5426.241a2,2,0,1,0-2-2,2,2,0,0,0,2,2" transform="translate(5494.023 -3187.194)" fill="#ff0" fill-rule="evenodd"/>
    <path id="Trazado_1512" data-name="Trazado 1512" d="M583.063,5433.012a2,2,0,1,0-2-2,2,2,0,0,0,2,2" transform="translate(5493.644 -3186.975)" fill="#ff0" fill-rule="evenodd"/>
    <path id="Trazado_1513" data-name="Trazado 1513" d="M583.063,5419.473a2,2,0,1,0-2-2,2,2,0,0,0,2,2" transform="translate(5493.644 -3187.413)" fill="#ff0" fill-rule="evenodd"/>
    <path id="Trazado_1514" data-name="Trazado 1514" d="M594.829,5426.184a1.9,1.9,0,1,0-1.343-.558,1.9,1.9,0,0,0,1.343.558m2.349.451a3.328,3.328,0,1,1,.971-2.348,3.308,3.308,0,0,1-.971,2.348" transform="translate(5493.982 -3187.235)" fill="#fff" fill-rule="evenodd"/>
    <path id="Trazado_1515" data-name="Trazado 1515" d="M583.1,5432.953a1.895,1.895,0,1,0-1.343-.556,1.9,1.9,0,0,0,1.343.556m2.349.452a3.323,3.323,0,1,1,.972-2.349,3.312,3.312,0,0,1-.972,2.349" transform="translate(5493.602 -3187.017)" fill="#fff" fill-rule="evenodd"/>
    <path id="Trazado_1516" data-name="Trazado 1516" d="M583.1,5419.414a1.894,1.894,0,1,0-1.343-.555,1.9,1.9,0,0,0,1.343.555m2.349.452a3.322,3.322,0,1,1,.972-2.349,3.309,3.309,0,0,1-.972,2.349" transform="translate(5493.602 -3187.455)" fill="#fff" fill-rule="evenodd"/>
  </g>
</svg>
