<svg xmlns="http://www.w3.org/2000/svg" width="33.036" height="28.616" viewBox="0 0 33.036 28.616">
  <g id="Grupo_1490" data-name="Grupo 1490" transform="translate(-6679.729 -2215.755)">
    <path id="Trazado_1485" data-name="Trazado 1485" d="M1176.1,5403.554h7.528v0h8.257l4.13,7.149,0,0,4.129,7.156-8.261,14.308h-8.257v0h-8.255l-4.13-7.151h0l-4.131-7.154,8.263-14.308Zm7.528,2.527v0h-6.8l-6.8,11.776,3.4,5.888v.005l3.4,5.889h6.8v-.007h6.8l6.8-11.775-3.4-5.887v-.006l-3.4-5.888Z" transform="translate(5512.622 -3187.799)" fill-rule="evenodd"/>
    <path id="Trazado_1486" data-name="Trazado 1486" d="M1176.051,5404.778h15.06l3.765,6.521,3.764,6.522-3.764,6.521-3.765,6.522h-15.06l-3.765-6.522-3.766-6.521,3.766-6.522Z" transform="translate(5512.668 -3187.76)" fill="#ffcb00" fill-rule="evenodd"/>
    <path id="Trazado_1487" data-name="Trazado 1487" d="M1176.911,5406.473l-3.839,6.652h20.723l-3.841-6.652Zm-3.839,15.936,3.839,6.652h13.042l3.841-6.651Z" transform="translate(5512.815 -3187.705)" fill-rule="evenodd"/>
    <path id="Trazado_1488" data-name="Trazado 1488" d="M1177.981,5416.231a1.971,1.971,0,0,0-.461-.449,2.519,2.519,0,0,0-.547-.289,3.183,3.183,0,0,0-.578-.149,3.476,3.476,0,0,0-.556-.046h-2.416v.29l.518.2a.344.344,0,0,1,.089.055.148.148,0,0,1,.036.1v3.534a.155.155,0,0,1-.036.111.271.271,0,0,1-.089.058l-.518.2v.287h2.375a3.549,3.549,0,0,0,1.028-.144,2.36,2.36,0,0,0,.83-.441,2.008,2.008,0,0,0,.558-.753,2.59,2.59,0,0,0,.2-1.073,2.823,2.823,0,0,0-.119-.854A2.153,2.153,0,0,0,1177.981,5416.231Zm-.842,2.333a1.552,1.552,0,0,1-.249.551,1.049,1.049,0,0,1-.425.343,1.52,1.52,0,0,1-.613.115h-.669v-3.712h.494a1.462,1.462,0,0,1,.638.137,1.331,1.331,0,0,1,.487.389,1.856,1.856,0,0,1,.309.616,2.836,2.836,0,0,1,.109.82A3.226,3.226,0,0,1,1177.139,5418.564Z" transform="translate(5512.827 -3187.419)"/>
    <path id="Trazado_1489" data-name="Trazado 1489" d="M1183.351,5419.7a.237.237,0,0,1-.1-.072.417.417,0,0,1-.066-.111l-1.653-4.291h-.791l-.41.807-1.373,3.47a.332.332,0,0,1-.175.187l-.346.163v.287h1.693v-.287l-.573-.228.4-1.035h1.7l.426,1.059-.567.2v.287h2.194v-.287Zm-3.173-1.656.617-1.635h.058l.135.455.46,1.18Z" transform="translate(5512.989 -3187.421)"/>
    <path id="Trazado_1490" data-name="Trazado 1490" d="M1184.407,5419.848v.287h2.49v-.287l-.557-.2a.212.212,0,0,1-.089-.057.14.14,0,0,1-.042-.111v-3.624h.992a.122.122,0,0,1,.087.034.182.182,0,0,1,.057.093l.191.73h.446V5415.3h-4.658v1.413h.442l.2-.73a.177.177,0,0,1,.051-.095.117.117,0,0,1,.093-.033h.986v3.624a.164.164,0,0,1-.034.111.243.243,0,0,1-.1.057Z" transform="translate(5513.147 -3187.419)" fill-rule="evenodd"/>
    <path id="Trazado_1491" data-name="Trazado 1491" d="M1189.257,5419.848l.554-.2a.232.232,0,0,0,.1-.057.159.159,0,0,0,.035-.111v-3.624h-.986a.125.125,0,0,0-.1.033.2.2,0,0,0-.05.095l-.2.73h-.442V5415.3h4.657v1.413h-.445l-.192-.73a.194.194,0,0,0-.054-.093.131.131,0,0,0-.087-.034h-.994v3.624a.142.142,0,0,0,.04.111.226.226,0,0,0,.093.057l.556.2v.287h-2.492Z" transform="translate(5513.305 -3187.419)" fill-rule="evenodd"/>
  </g>
</svg>
