<svg xmlns="http://www.w3.org/2000/svg" width="33.037" height="30.792" viewBox="0 0 33.037 30.792">
  <g id="Grupo_1489" data-name="Grupo 1489" transform="translate(-6473.142 -2214.666)">
    <path id="Trazado_1493" data-name="Trazado 1493" d="M975.578,5413.086l1.331,3.979.424.659,9.838-7.205-1.177-.641,1.284-2.245-3.529-5.133h-.643l-1.7,2.465-2.146,2.347,1.284,2.245-2.246,1.282-1.282-1.6-2.244,1.283,1.282,1.925Z" transform="translate(5506.394 -3187.834)" fill="#c84c19" fill-rule="evenodd"/>
    <path id="Trazado_1494" data-name="Trazado 1494" d="M984.957,5428.971h1.668l2.351,2.78,4.065,1.067.321-2.887v-3.208l-2.246-.642.641-2.245,2.246.64.962-2.884-1.924-1.459-4.412-3.016Z" transform="translate(5506.724 -3187.361)" fill="#0088b1" fill-rule="evenodd"/>
    <path id="Trazado_1495" data-name="Trazado 1495" d="M974.7,5424.27l5.079-.1-2.194-6.745-.423-.659-1.331-3.979-1.454.642-1.282-1.6L967,5413.745l3.206,5.13,2.559-.374.329,2.3-1.924.642.641,2.566,2.355-.121Z" transform="translate(5506.142 -3187.532)" fill="#168077" fill-rule="evenodd"/>
    <path id="Trazado_1496" data-name="Trazado 1496" d="M986.911,5410.308l-4.132,3.024,10.33,7.064.643-1.429,2.244.642,1.8-2.694,1.73-2.758-6.077-1.973-1.3,1.651-1.924-1.283,1.282-1.925-2.565-1.6-.962,1.6Z" transform="translate(5506.653 -3187.622)" fill="#d29d1b" fill-rule="evenodd"/>
    <path id="Trazado_1497" data-name="Trazado 1497" d="M974.517,5423.887l.32,1.662-2.246.643.321,6.415,6.1-3.847h2.565V5431h2.887v-2.244h.9l1.585-5.118Z" transform="translate(5506.323 -3187.149)" fill="#00556e" fill-rule="evenodd"/>
  </g>
</svg>
