<svg xmlns="http://www.w3.org/2000/svg" width="25.004" height="33.036" viewBox="0 0 25.004 33.036">
  <g id="Grupo_1488" data-name="Grupo 1488" transform="translate(-6270.68 -2213.543)">
    <path id="Trazado_1532" data-name="Trazado 1532" d="M778.484,5410.925a3.418,3.418,0,0,1,1,1.781c.43.519,2.41,4.338,3.726,4.167,1.293-.167,3.1-3.776,3.579-4.283a6.3,6.3,0,0,1,.921-1.757c.164-.99.755-1.968.928-3.186a5.557,5.557,0,1,0-10.963.424,10.662,10.662,0,0,0,.434,1.5c.169.5.53,1.065.371,1.357" transform="translate(5500.008 -3187.87)" fill="#e6302a" fill-rule="evenodd"/>
    <path id="Trazado_1533" data-name="Trazado 1533" d="M779.617,5412.355c-.73.318-5.854,3.384-5.974,3.829-.266.96.933,1.342,1.544,1.726.675.425,7.642,4.931,8.279,4.862.313-.033,7.108-4.241,8.241-4.954,2.319-1.462,1.7-1.67-.634-3.089-1.381-.84-2.74-1.682-4.151-2.488-.486.505-2.287,4.115-3.581,4.281-1.314.171-3.294-3.649-3.724-4.167" transform="translate(5499.879 -3187.518)" fill="#fdfdfd" fill-rule="evenodd"/>
    <path id="Trazado_1534" data-name="Trazado 1534" d="M786.986,5412.3c1.411.8,2.77,1.649,4.151,2.486,2.331,1.417,2.953,1.627.634,3.089-1.133.716-7.929,4.922-8.241,4.955-.637.069-7.6-4.437-8.279-4.861-.611-.384-1.811-.766-1.544-1.727.121-.444,5.244-3.51,5.974-3.83a3.425,3.425,0,0,0-1-1.78l-5.154,3.1c-.9.573-1.646.97-1.853,2.274a2.8,2.8,0,0,0,1.24,2.9l7.694,4.743c.863.517,1.73,1.325,3.089,1.206,1.214-.1,6.534-3.63,7.884-4.481,1.646-1.034,4.214-1.938,3.551-4.569-.325-1.289-1-1.6-2.041-2.206-.865-.5-4.662-2.946-5.181-3.059a6.3,6.3,0,0,0-.921,1.759" transform="translate(5499.815 -3187.573)" fill="#8d1815" fill-rule="evenodd"/>
    <path id="Trazado_1535" data-name="Trazado 1535" d="M770.889,5425.666v.413a2.548,2.548,0,0,0,1.338,1.145l4.785,2.779c.944.53,5.824,3.283,6.262,3.686h.354c.767-.756,11.569-6.5,12.266-7.322v-.972c-1.094-.941-1.558-.308-3.349.712l-6.17,3.572c-.553.329-.964.576-1.533.905-1.893,1.094-1,1.017-4.641-1.077l-6.167-3.579c-1.893-1.062-2.111-1.633-3.144-.262" transform="translate(5499.791 -3187.11)" fill="#e74142" fill-rule="evenodd"/>
    <path id="Trazado_1536" data-name="Trazado 1536" d="M770.889,5421.423v.415c.633.782.542.621,1.462,1.174l11.023,6.358c.311.038,8.132-4.576,9.473-5.378a23.887,23.887,0,0,0,3.047-1.9v-.959a1.132,1.132,0,0,0-1.682-.273c-2.666,1.5-8.564,5.149-10.757,6.223l-6.292-3.629c-1.083-.608-2.111-1.211-3.182-1.823-1.664-.951-2.156-1.722-3.091-.206" transform="translate(5499.791 -3187.248)" fill="#be1d20" fill-rule="evenodd"/>
    <path id="Trazado_1537" data-name="Trazado 1537" d="M782.449,5403.853c-3.958.91-2.551,6.82,1.432,5.833a3,3,0,0,0,2.129-3.7,2.934,2.934,0,0,0-3.561-2.136" transform="translate(5500.089 -3187.791)" fill="#fdfdfd" fill-rule="evenodd"/>
  </g>
</svg>
