<svg id="Grupo_600" data-name="Grupo 600" xmlns="http://www.w3.org/2000/svg" width="33.036" height="24.593" viewBox="0 0 33.036 24.593">
  <g id="Grupo_598" data-name="Grupo 598" transform="translate(0.486 0.487)">
    <path id="Trazado_1518" data-name="Trazado 1518" d="M167.448,5413.04c-.225.226-.443.453-.656.685a1.56,1.56,0,0,0,.055,2.153h0a1.558,1.558,0,0,0,2.251-.044q.271-.3.556-.583a18.081,18.081,0,0,1,25.529,0c.192.192.378.386.56.585a1.558,1.558,0,0,0,2.251.044h0a1.56,1.56,0,0,0,.054-2.154q-.319-.348-.657-.686A21.134,21.134,0,0,0,167.448,5413.04Z" transform="translate(-166.388 -5406.821)" fill="#6cb6de"/>
    <path id="Trazado_1519" data-name="Trazado 1519" d="M171.666,5417.323c-.211.211-.412.428-.607.649a1.561,1.561,0,0,0,.073,2.131h0a1.564,1.564,0,0,0,2.281-.075q.317-.363.67-.7a11.829,11.829,0,0,1,16.4,0c.234.228.458.461.67.7a1.564,1.564,0,0,0,2.281.075h0a1.562,1.562,0,0,0,.066-2.138q-.435-.5-.923-.961A14.954,14.954,0,0,0,171.666,5417.323Z" transform="translate(-166.249 -5406.624)" fill="#6cb6de"/>
    <path id="Trazado_1520" data-name="Trazado 1520" d="M176.123,5421.368a8.6,8.6,0,0,0-.832.924,1.553,1.553,0,0,0,.137,2.051h0a1.568,1.568,0,0,0,2.345-.153,5.226,5.226,0,0,1,.442-.5,5.56,5.56,0,0,1,7.855,0,5.369,5.369,0,0,1,.442.5,1.566,1.566,0,0,0,2.344.153h0a1.555,1.555,0,0,0,.137-2.051,8.827,8.827,0,0,0-.832-.925A8.7,8.7,0,0,0,176.123,5421.368Z" transform="translate(-166.11 -5406.429)" fill="#6cb6de"/>
    <path id="Trazado_1521" data-name="Trazado 1521" d="M181.993,5424.992a2.431,2.431,0,1,1-2.43,2.432A2.431,2.431,0,0,1,181.993,5424.992Z" transform="translate(-165.962 -5406.232)" fill="#6cb6de"/>
  </g>
  <g id="Grupo_599" data-name="Grupo 599" transform="translate(0.486 1.834)">
    <path id="Trazado_1522" data-name="Trazado 1522" d="M188.857,5422.5h0a1.568,1.568,0,0,1-2.344-.154,5.655,5.655,0,0,0-.442-.5,5.564,5.564,0,0,0-7.855,0,5.655,5.655,0,0,0-.442.5,1.569,1.569,0,0,1-2.345.154h0a1.644,1.644,0,0,1-.168-.2,1.554,1.554,0,0,0,.168,2.007h0a1.567,1.567,0,0,0,2.345-.154,5.558,5.558,0,0,1,8.739,0,1.566,1.566,0,0,0,2.344.154h0a1.554,1.554,0,0,0,.168-2.007A1.555,1.555,0,0,1,188.857,5422.5Z" transform="translate(-166.111 -5407.734)" fill="#61a3c7"/>
    <path id="Trazado_1523" data-name="Trazado 1523" d="M183.712,5427.289a2.43,2.43,0,0,1-3.438,0,2.456,2.456,0,0,1-.538-.816,2.431,2.431,0,1,0,4.515,0A2.443,2.443,0,0,1,183.712,5427.289Z" transform="translate(-165.962 -5407.532)" fill="#61a3c7"/>
    <path id="Trazado_1524" data-name="Trazado 1524" d="M193.431,5418.257h0a1.565,1.565,0,0,1-2.281-.077c-.212-.242-.436-.475-.67-.7a11.829,11.829,0,0,0-16.4,0c-.235.228-.458.46-.67.7a1.565,1.565,0,0,1-2.281.077h0a1.5,1.5,0,0,1-.169-.2,1.559,1.559,0,0,0,.169,2.008h0a1.563,1.563,0,0,0,2.281-.076q.318-.364.67-.7a11.829,11.829,0,0,1,16.4,0c.234.227.458.459.67.7a1.563,1.563,0,0,0,2.281.076h0a1.561,1.561,0,0,0,.168-2.007A1.588,1.588,0,0,1,193.431,5418.257Z" transform="translate(-166.25 -5407.929)" fill="#61a3c7"/>
    <path id="Trazado_1525" data-name="Trazado 1525" d="M197.993,5414.027h0a1.557,1.557,0,0,1-2.251-.043c-.182-.2-.368-.394-.56-.585a18.081,18.081,0,0,0-25.529,0q-.285.286-.556.583a1.559,1.559,0,0,1-2.251.043h0a1.49,1.49,0,0,1-.17-.2,1.56,1.56,0,0,0,.17,2.008h0a1.559,1.559,0,0,0,2.251-.043c.181-.2.367-.391.556-.584a18.083,18.083,0,0,1,25.529,0c.192.192.378.386.56.585a1.559,1.559,0,0,0,2.251.043h0a1.558,1.558,0,0,0,.169-2.008A1.559,1.559,0,0,1,197.993,5414.027Z" transform="translate(-166.388 -5408.125)" fill="#61a3c7"/>
  </g>
  <path id="Trazado_1526" data-name="Trazado 1526" d="M188.513,5421.034a9.167,9.167,0,0,0-13.588.976,2.039,2.039,0,0,0,.173,2.687l0,0a2.022,2.022,0,0,0,1.439.6,2.057,2.057,0,0,0,1.627-.795,5.128,5.128,0,0,1,.4-.453,5.078,5.078,0,0,1,7.172,0,5.308,5.308,0,0,1,.4.454,2.057,2.057,0,0,0,1.627.795h0a2.022,2.022,0,0,0,1.439-.6l0,0a2.039,2.039,0,0,0,.173-2.687A9.17,9.17,0,0,0,188.513,5421.034Zm.016,2.982,0,0a1.061,1.061,0,0,1-.752.311,1.1,1.1,0,0,1-.866-.426,6.587,6.587,0,0,0-.48-.541,6.052,6.052,0,0,0-8.541,0,6.3,6.3,0,0,0-.48.541,1.1,1.1,0,0,1-.866.426,1.065,1.065,0,0,1-.753-.311l0,0a1.071,1.071,0,0,1-.1-1.413,8.466,8.466,0,0,1,.787-.874,8.216,8.216,0,0,1,11.367,0,8.369,8.369,0,0,1,.787.874A1.071,1.071,0,0,1,188.529,5424.016Z" transform="translate(-165.639 -5405.958)" fill="#2d2d2d"/>
  <path id="Trazado_1527" data-name="Trazado 1527" d="M182.008,5424.524a2.915,2.915,0,1,0,2.062.854A2.9,2.9,0,0,0,182.008,5424.524Zm1.377,4.291a1.948,1.948,0,1,1,0-2.753A1.949,1.949,0,0,1,183.386,5428.815Z" transform="translate(-165.491 -5405.762)" fill="#2d2d2d"/>
  <path id="Trazado_1528" data-name="Trazado 1528" d="M198.42,5413.413c-.217-.237-.442-.473-.671-.7a21.622,21.622,0,0,0-23.986-4.546.484.484,0,1,0,.389.886,20.553,20.553,0,0,1,22.913,4.344c.219.22.435.443.642.671a1.079,1.079,0,0,1-.828,1.8,1.053,1.053,0,0,1-.763-.345c-.186-.2-.379-.405-.574-.6a18.4,18.4,0,0,0-13.106-5.415h0a18.408,18.408,0,0,0-13.106,5.416c-.2.2-.387.4-.572.6a1.053,1.053,0,0,1-.763.345,1.079,1.079,0,0,1-.828-1.8c.206-.227.422-.451.64-.669a20.845,20.845,0,0,1,4.749-3.561.484.484,0,0,0-.463-.851,21.754,21.754,0,0,0-4.97,3.727c-.228.228-.453.464-.669.7a2.048,2.048,0,0,0,1.517,3.422h.046a2.012,2.012,0,0,0,1.455-.659c.176-.19.358-.381.543-.568a17.444,17.444,0,0,1,12.422-5.132h0a17.443,17.443,0,0,1,12.422,5.131c.185.186.369.378.545.569a2.011,2.011,0,0,0,1.455.659,2.048,2.048,0,0,0,1.563-3.421Z" transform="translate(-165.917 -5406.35)" fill="#2d2d2d"/>
  <path id="Trazado_1529" data-name="Trazado 1529" d="M192.923,5416.669a15.392,15.392,0,0,0-9.7-4.212.484.484,0,0,0-.057.967,14.4,14.4,0,0,1,9.084,3.946c.312.3.612.609.894.929a1.082,1.082,0,0,1-.045,1.477,1.067,1.067,0,0,1-.794.315,1.078,1.078,0,0,1-.78-.37c-.222-.251-.455-.5-.7-.73a12.221,12.221,0,0,0-8.536-3.438h0a12.22,12.22,0,0,0-8.535,3.438c-.242.232-.476.479-.7.73a1.078,1.078,0,0,1-1.627-1.415c.189-.215.386-.427.587-.63a14.406,14.406,0,0,1,9.4-4.251.485.485,0,0,0-.058-.967A15.389,15.389,0,0,0,171.336,5417c-.214.217-.424.444-.626.671a2.048,2.048,0,0,0,.095,2.793,2.022,2.022,0,0,0,1.442.6h.067a2.064,2.064,0,0,0,1.476-.7c.2-.23.419-.458.643-.674a11.411,11.411,0,0,1,15.725,0c.222.215.438.443.642.674a2.063,2.063,0,0,0,1.475.7,2.021,2.021,0,0,0,1.51-.6,2.053,2.053,0,0,0,.088-2.8C193.575,5417.319,193.255,5416.985,192.923,5416.669Z" transform="translate(-165.778 -5406.151)" fill="#2d2d2d"/>
</svg>
