<svg xmlns="http://www.w3.org/2000/svg" xmlns:xlink="http://www.w3.org/1999/xlink" width="35.897" height="35.053" viewBox="0 0 35.897 35.053">
  <defs>
    <linearGradient id="linear-gradient" y1="0.5" x2="1" y2="0.5" gradientUnits="objectBoundingBox">
      <stop offset="0" stop-color="#ca1e17"/>
      <stop offset="0.4" stop-color="#e0ae3c"/>
      <stop offset="1" stop-color="#81a850"/>
    </linearGradient>
  </defs>
  <g id="Grupo_65" data-name="Grupo 65" transform="translate(-1015.348 -260.974)">
    <path id="Trazado_421" data-name="Trazado 421" d="M1049.672,274.485a1.983,1.983,0,0,0-2.377,1.545l-.979,4.386a1.961,1.961,0,0,0-.734-.086,1.908,1.908,0,0,0-1.324.661l-1.28,1.478c-.927,1.07-.927,1.07-1.894,1.327-.225.06-.506.134-.848.235-3.947,1.157-5.494,4.783-5.662,7.761a1.591,1.591,0,0,0-.9,1.431v1.218a1.589,1.589,0,0,0,1.588,1.586h6.429a1.589,1.589,0,0,0,1.588-1.586v-1.218a1.6,1.6,0,0,0-.228-.82l2.881-1.547.009,0c2.518-1.4,2.948-2.03,3.555-5.178a.7.7,0,0,0-1.377-.265c-.549,2.845-.795,3.068-2.853,4.215l-3.75,2.013h-5.522a6.78,6.78,0,0,1,4.639-6.261c.324-.1.584-.163.814-.226,1.229-.325,1.451-.444,2.594-1.765l1.277-1.475a.534.534,0,0,1,.754-.055c.276.238.129.63,0,.822-.666,1-1.32,1.955-1.955,2.876-.324.471-.646.942-.974,1.421a.7.7,0,1,0,1.158.788c.326-.476.648-.944.97-1.413.639-.927,1.3-1.884,1.969-2.893a2.126,2.126,0,0,0,.264-1.921l1.162-5.2a.58.58,0,0,1,.723-.479.528.528,0,0,1,.439.68l-.8,4.124a.7.7,0,0,0,1.377.264l.793-4.124A1.92,1.92,0,0,0,1049.672,274.485Zm-7.8,19.956a.189.189,0,0,1-.186.186h-6.429a.189.189,0,0,1-.186-.186v-1.218a.189.189,0,0,1,.186-.184h6.431a.187.187,0,0,1,.184.184Z" fill="#333"/>
    <path id="Trazado_422" data-name="Trazado 422" d="M1049.471,282.084a.7.7,0,0,0-.821.554l-.006.018a.706.706,0,0,0,.559.823.652.652,0,0,0,.133.012.7.7,0,0,0,.687-.569l0-.017A.7.7,0,0,0,1049.471,282.084Z" fill="#333"/>
    <path id="Trazado_423" data-name="Trazado 423" d="M1032.018,291.792c-.168-2.978-1.715-6.6-5.663-7.761-.339-.1-.621-.175-.847-.235-.967-.257-.967-.257-1.9-1.327l-1.277-1.478a1.952,1.952,0,0,0-2.059-.575l-.978-4.386a1.984,1.984,0,0,0-2.377-1.545,1.919,1.919,0,0,0-1.531,2.317.7.7,0,1,0,1.377-.264.527.527,0,0,1,.439-.68.58.58,0,0,1,.723.478l1.16,5.2a2.125,2.125,0,0,0,.263,1.921c.674,1.009,1.332,1.968,1.971,2.9.322.467.645.936.969,1.411a.7.7,0,1,0,1.158-.788c-.326-.479-.648-.948-.973-1.42-.634-.921-1.291-1.876-1.957-2.877-.128-.192-.273-.584,0-.822a.526.526,0,0,1,.389-.127.517.517,0,0,1,.365.182l1.278,1.475c1.142,1.319,1.365,1.437,2.593,1.765.231.063.491.131.815.226a6.785,6.785,0,0,1,4.641,6.261h-5.522l-3.75-2.013c-2.061-1.147-2.307-1.37-2.853-4.215l-.795-4.123a.7.7,0,0,0-1.377.266l.795,4.121c.605,3.149,1.037,3.78,3.554,5.178l.008,0,2.883,1.547a1.569,1.569,0,0,0-.229.82v1.218a1.586,1.586,0,0,0,1.586,1.585h6.43a1.587,1.587,0,0,0,1.588-1.585v-1.218A1.591,1.591,0,0,0,1032.018,291.792Zm-.5,2.649a.188.188,0,0,1-.186.186h-6.43a.189.189,0,0,1-.185-.186v-1.218a.189.189,0,0,1,.185-.184h6.43a.187.187,0,0,1,.186.184Z" fill="#333"/>
    <path id="Trazado_424" data-name="Trazado 424" d="M1016.744,280.129a.7.7,0,0,0,.557-.819l0-.019a.7.7,0,1,0-1.375.263l0,.019a.7.7,0,0,0,.687.569A.75.75,0,0,0,1016.744,280.129Z" fill="#333"/>
    <path id="Trazado_425" data-name="Trazado 425" d="M1035.4,284.793a2.108,2.108,0,0,0-1.4-1.982v-.849a9.076,9.076,0,0,0,5.477-2.4.714.714,0,0,0,.107-.1,9.075,9.075,0,0,0,2.82-6.572h1.25a2.1,2.1,0,1,0,0-1.4H1042.3a9.012,9.012,0,0,0-.8-2.573h1.809a.7.7,0,0,0,.5-.2l.726-.727h2.635a2.105,2.105,0,1,0,0-1.4h-2.924a.694.694,0,0,0-.5.207l-.728.725h-2.366a9.151,9.151,0,0,0-2.837-2.538l1.2-1.2h2.115a2.1,2.1,0,1,0,0-1.4h-2.406a.692.692,0,0,0-.5.206l-1.762,1.762a9.1,9.1,0,0,0-6.32,0l-1.764-1.763a.7.7,0,0,0-.494-.2h-2.406a2.1,2.1,0,1,0,0,1.4h2.115l1.2,1.2a9.15,9.15,0,0,0-2.84,2.538h-2.365l-.727-.727a.7.7,0,0,0-.5-.2h-2.924a2.1,2.1,0,1,0,0,1.4h2.635l.727.726a.694.694,0,0,0,.494.206h1.811a9.047,9.047,0,0,0-.805,2.573h-1.356a2.1,2.1,0,1,0,0,1.4h1.25a9.069,9.069,0,0,0,2.821,6.572.617.617,0,0,0,.1.1,9.063,9.063,0,0,0,5.479,2.4v.849a2.1,2.1,0,1,0,2.8,1.982Zm13.741-18.211a.7.7,0,1,1-.7.7A.7.7,0,0,1,1049.141,266.582Zm-6.038-4.206a.7.7,0,1,1-.7.7A.7.7,0,0,1,1043.1,262.376Zm-19.615,1.4a.7.7,0,1,1,.7-.7A.7.7,0,0,1,1023.488,263.778Zm-6.035,4.207a.7.7,0,1,1,.7-.7A.7.7,0,0,1,1017.453,267.985Zm10.807,10.723a5.082,5.082,0,0,1,2.666-3.985,3.978,3.978,0,0,0,4.74,0,5.088,5.088,0,0,1,2.666,3.987,7.691,7.691,0,0,1-10.072,0Zm2.445-7.85a3.36,3.36,0,0,0,.522.039,5.858,5.858,0,0,0,2.8-.854,3.056,3.056,0,0,0,1.86.654v.813a2.584,2.584,0,0,1-.772,1.846.523.523,0,0,0-.068.065,2.589,2.589,0,0,1-3.5,0,.709.709,0,0,0-.069-.065,2.588,2.588,0,0,1-.773-1.846v-.652Zm.037-1.427a2.591,2.591,0,0,1,5.08-.142,1.694,1.694,0,0,1-1.178-.587.7.7,0,0,0-.943-.117A4.141,4.141,0,0,1,1030.742,269.431Zm14.893,2.058a.7.7,0,1,1-.7.7A.7.7,0,0,1,1045.635,271.489Zm-24.678,1.4a.7.7,0,1,1,.7-.7A.7.7,0,0,1,1020.957,272.893Zm12.34-7.715a7.7,7.7,0,0,1,6.213,12.252,6.5,6.5,0,0,0-2.858-3.76,3.957,3.957,0,0,0,.637-2.16v-1.646a3.993,3.993,0,0,0-7.986,0v1.646a3.949,3.949,0,0,0,.638,2.16,6.5,6.5,0,0,0-2.859,3.76,7.7,7.7,0,0,1,6.215-12.252Zm0,20.317a.7.7,0,1,1,.7-.7A.7.7,0,0,1,1033.3,285.495Z" fill="url(#linear-gradient)"/>
  </g>
</svg>
