<svg xmlns="http://www.w3.org/2000/svg" width="115.789" height="30" viewBox="0 0 115.789 30">
  <g id="Grupo_225" data-name="Grupo 225" transform="translate(-98 -6.043)">
    <text id="GOV.CO" transform="translate(141.789 27.918)" fill="#fff" font-size="19" font-family="Montserrat-Regular, Montserrat"><tspan x="0" y="0" letter-spacing="-0.026em">G</tspan><tspan y="0" letter-spacing="-0.039em">O</tspan><tspan y="0" letter-spacing="-0.085em">V</tspan><tspan y="0" letter-spacing="-0.027em">.</tspan><tspan y="0" letter-spacing="-0.042em">C</tspan><tspan y="0">O</tspan></text>
    <path id="Trazado_1" data-name="Trazado 1" d="M111.539,30.094l.228,3.417Zm.228,3.418-.228-3.418Zm-1.179,0,0,.01h0v0h0l0-.015Zm3.581-21.669.116.062-.011-.055,0,0a.232.232,0,0,0-.1,0m-5.046,1.709a.007.007,0,0,0-.01.006,1.292,1.292,0,0,0,.057.559c-.022-.028-.047-.055-.071-.081a.007.007,0,0,0-.012,0,.854.854,0,0,0-.111.385,1.33,1.33,0,0,0,.05.483c.014.04.03.081.046.119l-.079-.035a4.119,4.119,0,0,0-1.842-.154c-1.762.465-2.821.711-3.338.269a.537.537,0,0,0,.066.048,1.691,1.691,0,0,0,.86.178,3.715,3.715,0,0,0,.485-.672c.014-.077.032-.154.048-.232a.534.534,0,0,1-.038.207.783.783,0,0,0-.018-.7,2.131,2.131,0,0,0-.41-.518.986.986,0,0,0-1.116-.253,1.021,1.021,0,0,1-1.334-.334l.047-.025.061-.029.077-.063.124-.005h.084l.083-.019.1-.083.069-.063.053-.024.091-.043.049-.041.043-.055h.159l.084.008h.076l.077-.008.06-.041.07-.014.057-.013.09.021.076-.05.056-.075.077-.076.055-.005.083-.05.042-.041.07-.026h.18l.1-.042.092-.068.069-.069.067-.075.05-.034.042-.009.091-.047.054-.062.05-.049.042-.026.034.013.056.026.056-.013.042-.021v.069l.054.014.084-.006.069-.029.014.078v.157l.014.206.061.061.187.082.112-.035.081-.032.078-.035.082-.015.118-.019.034-.041.071-.035.033-.055.049-.027.091.061.074-.04.043-.048.042-.021.034-.035.091.062.057.048h.067s-.014-.027.034-.027h.112l.083-.006s.119-.028.131.014.057.122.057.122l.041.089.049.09.033.1.083.069.084.055.09.089.091.03.076.06.1.054.068.029.1.005.064-.028,0-.094.018-.024.027.025.018.01a.563.563,0,0,0,.114.354.341.341,0,0,0,.128.09l.01,0a1.835,1.835,0,0,0,.151-.369l.038-.029.023-.079.011.026a1.176,1.176,0,0,0,.008.3h-.008a.842.842,0,0,0-.177.346,1.283,1.283,0,0,0-.042.468.59.59,0,0,0,.156.37.36.36,0,0,0,.14.076l.009,0a1.466,1.466,0,0,0,.122-.659c0-.029,0-.057-.008-.088a1.877,1.877,0,0,0,.2.262h.012a.188.188,0,0,0,.036-.028v.081a.608.608,0,0,0-.187-.115m.249-3.313,0,0-.008-.006-.01.049Zm.156.121c.033.036.064.069.092.105l.139.058,0-.05a.741.741,0,0,1-.15-.065.5.5,0,0,1-.079-.049m.319.133a.414.414,0,0,0,.122,0,.28.28,0,0,0,.128-.061l0-.009a1.344,1.344,0,0,0-.43-.436l-.013-.008.046,0a.814.814,0,0,1,.865.724l-.011-.014a.116.116,0,0,0-.039-.034.1.1,0,0,0-.031-.012l.02-.014a.053.053,0,0,0,.014-.045.1.1,0,0,0-.019-.045.135.135,0,0,0-.039-.039.079.079,0,0,0-.078-.013,1.008,1.008,0,0,0-.25.162l-.022-.005a1.145,1.145,0,0,0-.266-.144m1.341.194h0l-.005.009Zm.072-.159h0l0,0Zm.032-.179.025-.011a.1.1,0,0,1,.07-.023,1.362,1.362,0,0,1,.142.043l.013-.053.691.058.15.055.038-.1.071-.05.016-.092V10.1l-.038-.132-.066-.145-.022-.113,0-.025-.044-.078-.032-.038-.012-.041c-.091-.169-.177-.348-.257-.539l-.014-.2c-.15-.7.231-1.113.975-1.34l.286-.05.262.006.3-.012.226.005.358.045.244.043.264.025a14.38,14.38,0,0,1,6.889,4.637l.036.069.035.024.047.011.043.016.057.018.056.031.048.029.049.031.028.019.037.015.045.023.031.016.026.026.042.036.036.035.027.014.026.018.036.018.027.025.045.022.02.029.025.031.018.027.031.035.055.047.037.038.039.043.031.043.015.036.044.016.028.022.058.039.055.037.045.029.055.038.037.044.038.045.039.04.036.047.028.038.035.057.021.029.015.049.008.058.018.055.012.042.028.094.014.04-.1-.011-.073.021-.083.021-.092.005-.11,0-.072,0h-.007l-1.175,1.424-.719-.017-.047-.093.008.038.007.026h0a11.515,11.515,0,0,1,.262,2.293L119.16,18.9a17.679,17.679,0,0,0-.065-2.291c-.743.546-1.489,1.1-1.857,1.368v.008l.595-.434c.032,0-.033,2.14-.074,2.257l4-2.582.2-.6,2.058-.74-1.445,1.6-.721-.05-.054-.122.015.1-.008.005c.337,4.517.177,8.751-2.312,11.657-1.607,1.877-4.206,2.23-6.961.366a14.541,14.541,0,0,0,.56,1.351,14.909,14.909,0,0,0,.784,1.451.014.014,0,0,1-.01.021,3.378,3.378,0,0,1-.86.1l-.231.01c.128.35.245.687.173.8l-.009-.03,0,.03c-.115.168-.616.169-.926.22l.016.157.061.49a.284.284,0,0,0-.016-.088l.012.11c.064.544-1.866.488-1.814,0l.009-.079a.275.275,0,0,0-.009.067l.023-.2.05-.451c-.31-.06-.825-.054-.941-.224l0-.03-.011.03c-.07-.109.046-.446.174-.8l-.231-.01a3.378,3.378,0,0,1-.86-.1.015.015,0,0,1-.009-.021,14.672,14.672,0,0,0,.783-1.451c.188-.4.364-.81.524-1.248-2.7,1.746-5.23,1.373-6.805-.469-2.491-2.906-2.652-7.14-2.313-11.657l-.009-.005.016-.1v0l-.055.121-.72.05-1.444-1.6,2.057.74.2.595.008-.03.733.511,1.619,1.045h.01l-1.9-1.255a11.525,11.525,0,0,1,.263-2.29l0,0,.01-.032.008-.032-.047.094-.721.017L99.311,13.58l2.023.832.161.577,3.763,2.775c.005-.382.019-.759.033-1.13a2.8,2.8,0,0,1-.37-.032,1.592,1.592,0,0,1-1.271-1.684c.014.022.028.04.043.06-.088-.149.041-.279.245-.4a2.8,2.8,0,0,0,.709-.578,3.635,3.635,0,0,0-.4-.037c-.428.093-1.046.562-1.746.364a2.346,2.346,0,0,1-1.105-.988,3.32,3.32,0,0,0,.917.139,4.28,4.28,0,0,0-.045-.589l-.026-.012-.076-.028-.091,0-.1-.017-.064-.028-.018-.027-.016-.029-.013-.03-.019-.031-.02.005-.014.024-.021.038-.008.055-.069.007-.036.023-.053.015-.036.019-.034.025-.03.024-.054.023-.034.022-.07.005-.058.015-.053.008-.054.019-.047.022-.042.015-.059.018-.072.008-.069.011-.049.023-.061.013-.072.006-.077.036-.067.017-.064.024-.045.022-.037.01-.059.012-.06.009-.089.037-.028.014-.039.01-.047.022h-.082l-.072.008-.074.012h-.062l-.074-.009-.059-.032-.047-.039-.021-.022-.031.03-.069.024-.088.024-.049.026-.088.034-.1.026-.084.017-.065.026-.061.018-.085.011-.054.016-.055.031-.041.021-.039.027-.056.017-.071.021-.064.011-.073,0h-.108l-.092-.009-.083-.023-.072-.022-.1.008.014-.039.031-.093.015-.038.016-.061.01-.056.016-.048.02-.028.037-.056.031-.041.038-.044.039-.037L98.306,13l.041-.041.054-.037.047-.028.057-.035.058-.038.03-.019.045-.018.015-.035.032-.04.039-.043.038-.037.055-.044.033-.036.018-.027.027-.03.02-.027.045-.023.03-.024.035-.018.026-.016.028-.013.037-.032.043-.037.027-.024.028-.018.046-.021.039-.015.03-.017.048-.029.049-.028.057-.031.057-.017.042-.016.048-.008.036-.024.038-.069a14.366,14.366,0,0,1,7-4.473l.267-.019.242-.037.36-.037h.225l.3.018h.265l.283.055c.739.245,1.111.672.943,1.363l0,.044.1.023h.081l.07-.036.048-.031.092-.045.113-.024.09-.012.081.005.059.038.028.052.015.044v.056l-.021.049-.023.048-.005.008c.254.109.5.394.239.622a1.27,1.27,0,0,0-.268.13,1.056,1.056,0,0,1,.271-.127c.29-.029.346.433.737.656m3.087,1.509.1,0c.048,0,.033.028.033.028l.07,0,.057-.048.091-.061.034.036.042.024.041.047.073.043.092-.058.048.028.035.055.068.036.032.041.118.024.082.017.076.037.083.034.11.037.189-.077.064-.061.019-.2,0-.161.015-.073.068.028.083.01.055-.014,0-.067.042.022.056.014.056-.027.035-.012.041.029.047.049.055.064.089.05.042.008.046.036.069.078.068.067.088.071.1.043.074,0,.106,0,.068.028.041.041.081.051.056.009.074.077.054.077.076.049.091-.017.055.015.068.015.062.043.074.008.078,0,.083-.006.158,0,.041.056.048.042.089.043.056.028.067.064.1.086.083.023h.083l.123.009.076.066.06.027.064.036.047.057.049-.021.077-.025.09-.006.105-.01.065-.027.018-.029.015-.028.015-.03.019-.029.021,0,.014.024.019.039,0,.055.069.008.036.023.054.019.035.017.034.028.009.006a.983.983,0,0,1-1.23.224.984.984,0,0,0-1.116.251,2.143,2.143,0,0,0-.409.519.78.78,0,0,0-.019.7.563.563,0,0,1-.038-.207l.048.231a3.819,3.819,0,0,0,.473.663,4.612,4.612,0,0,1-.712-.1l-1.535-.382a3.793,3.793,0,0,0-1.386-.044l0-.016.013-.036v0l-.013.035.043-.016,0-.036.005-.051-.01-.035-.019-.035-.047-.028h-.044l-.047.015-.032.027-.019.043v.083l.015.063.059-.022.033-.01,0-.016.012.03v.006c-.076.012-.153.027-.229.041s-.149.043-.222.063l0-.005.014-.036v.017h.026l.023-.015v-.045l0-.056-.025-.055-.026-.027-.051-.012-.067,0-.028.019-.014.035-.028.042-.01.06v.066l.005.064.047-.015.028-.009.047-.019,0-.021-.011-.024-.02-.014V14.9h0l.01.022.015.029.016.04,0,0c-.127.041-.252.083-.372.131l.009-.029-.007-.053-.01-.015.01.008.02.026L113.142,15l-.027-.049-.044-.035-.07-.008-.024,0-.039.036v.058a.463.463,0,0,1,.012.071.227.227,0,0,0,.007.044l.013.04.055,0,.032-.019,0-.037.009.016.011.024a4.064,4.064,0,0,0-1.184.705l.019-.021.074-.066.02-.071V15.6l-.034-.149-.01-.14-.057-.128-.015-.088-.01-.075-.022-.05.079.005s.057.01.11.013a.54.54,0,0,0,.082,0h.069l.01,0,.422.36.057-.035.051-.03.076-.041.083-.032.059-.035-.3-.259-.123-.122-.016-.028.015-.05.014-.081,0-.075V14.27l.005-.073-.014-.151-.025-.075-.024-.076-.041-.067-.044-.057-.018-.05.02-.118.014-.14.015-.116.019-.13.044-.135.048-.185.02-.055.021.01.125.012.071-.018.012,0,.047-.015.011-.016.025-.014.042-.041.013.023.065.042.08.053.085-.005.088-.024.071-.042.039-.061.047-.031.073-.045v.005l.06.087.074.015.081-.008.141-.018.092-.065.1-.066.13-.086.078-.051.09-.09.064-.078.028-.074.047-.093.007-.186-.076-.019,0-.019Zm5.768,1.225a4.384,4.384,0,0,0-.028.462,3.308,3.308,0,0,0,.917-.139,2.37,2.37,0,0,1-1.1.99c-.7.2-1.319-.273-1.746-.364-.146.006-.279.019-.4.036a2.823,2.823,0,0,0,.709.579c.278.165.415.343.058.575a1.783,1.783,0,0,1-.493.159,1.241,1.241,0,0,0,.671-.236c-.161.843-.482,1.5-1.378,1.513l-.128,0c.011.361.014.722.014,1.084l3.736-2.753.162-.577,1.618-.664-.014-.008-.037-.023-.055-.032-.054-.018-.085-.013-.064-.018-.062-.026-.082-.022-.1-.027-.084-.036-.049-.027-.085-.025-.07-.029-.031-.031-.022.022-.047.039-.059.03-.078.01h-.057l-.078-.015-.071-.01s-.073,0-.082,0a.462.462,0,0,1-.047-.021l-.039-.013-.027-.013-.089-.038-.061-.013-.057-.012-.037-.01-.045-.022-.065-.027-.064-.019-.078-.038-.07-.008-.062-.015-.048-.023-.069-.014-.071-.009-.061-.017-.038-.016-.047-.023-.054-.022-.054-.01-.057-.016Zm-6.439,3.151,0,0v-.026l.012-.028.013-.025-.013.018-.012.03v0Zm.041-.118,0-.008v-.029a5.112,5.112,0,0,0-1.078.242c-.182.067-.359.143-.535.225a4.345,4.345,0,0,0,3.9-.121c-.136-.043-.269-.094-.4-.147a4.462,4.462,0,0,0-1.847-.2v0l0,.014.039.038.02.039v.045l-.031.063-.056.023h-.051l-.047-.027-.021-.054-.02-.027V16.11l.033-.008h.02l.047,0h.024Zm.046-.009.005.023.012.039v-.019l-.012-.028Zm.174-1.324v.008l.009.012,0-.005Zm-.405.077h0v0Zm-7.117,1.487a4.717,4.717,0,0,0,1.893.544.743.743,0,0,1,.088-.129.347.347,0,0,0,.069-.086,1.629,1.629,0,0,0,.073-.165l.047-.112.055-.123.079-.147.012-.063a4.865,4.865,0,0,0-2.316.281m5.345-.409-.048.032-.064.078-.062.065-.013.023a2.291,2.291,0,0,1,.187-.2M114.3,27.718c-.077.094-.157.182-.238.271l.24-.2q.066.106.135.2a1.224,1.224,0,0,1-.137-.276m-6.049.141-.094-.109a1.239,1.239,0,0,1-.126.249c.047-.07.091-.139.137-.209ZM105.257,18v-.008c-.358-.264-1.121-.828-1.883-1.385a17.679,17.679,0,0,0-.065,2.291l-.116-.075h0v0l-.054-.036h0v0l-.037-.022v.005l1.617,1.041c-.043-.117-.11-2.257-.073-2.257Zm14.3.877c-.51.329-1.029.663-1.466.95a13.287,13.287,0,0,1-3.072,8.779,2.916,2.916,0,0,1-.464-.44,3.348,3.348,0,0,0,1.561,1.164l.021-.024-.021-.01a11.473,11.473,0,0,0,.922-1.146l.01.017a14.514,14.514,0,0,0,2.509-9.291m-16.652,0a14.5,14.5,0,0,0,2.512,9.291l.009-.017a11.317,11.317,0,0,0,.922,1.146l-.022.01.022.024a3.361,3.361,0,0,0,1.56-1.164,2.782,2.782,0,0,1-.464.44,13.293,13.293,0,0,1-3.072-8.779c-.436-.286-.956-.621-1.466-.95m8.905,14.567h0v0Zm-1.241.029h0Zm-.061-.042,0,0Z" transform="translate(0 0.128)" fill="#fff" fill-rule="evenodd"/>
    <path id="Trazado_2" data-name="Trazado 2" d="M128.579,18.089l3.73-.037V6.043h-3.73Z" transform="translate(2.778)" fill="#ffd000" fill-rule="evenodd"/>
    <path id="Trazado_3" data-name="Trazado 3" d="M128.579,26.269l3.73-.04V17.006l-3.73.037Z" transform="translate(2.778 0.871)" fill="#0054a2" fill-rule="evenodd"/>
    <path id="Trazado_4" data-name="Trazado 4" d="M132.309,25.426l-3.73.04V34.5h3.73Z" transform="translate(2.778 1.543)" fill="#f2193d" fill-rule="evenodd"/>
  </g>
</svg>
