<svg xmlns="http://www.w3.org/2000/svg" width="88" height="97.948" viewBox="0 0 88 97.948">
  <g id="XMLID_1820_" transform="translate(-26)">
    <g id="XMLID_1988_" transform="translate(41.117 27.522)">
      <path id="XMLID_840_" d="M113.423,143.816h3.61v16.846h-3.61a8.423,8.423,0,0,1,0-16.846Z" transform="translate(-105 -143.816)" fill="#ff7d97"/>
    </g>
    <g id="XMLID_1904_" transform="translate(27.91 62.939)">
      <path id="XMLID_790_" d="M99.021,328.7a21.141,21.141,0,0,1,21.159,21.123V361.8H36V349.825A21.141,21.141,0,0,1,57.159,328.7H99.021Z" transform="translate(-36 -328.702)" fill="#a0e4a5"/>
    </g>
    <g id="XMLID_1902_" transform="translate(70.02 62.902)">
      <path id="Trazado_3996" data-name="Trazado 3996" d="M263.856,328.7h11.179l-11.93,15.583L256,337.18Z" transform="translate(-256 -328.703)" fill="#fff"/>
    </g>
    <g id="XMLID_1898_" transform="translate(50.944 62.902)">
      <path id="XMLID_5_" d="M167.512,328.7H156.333l11.93,15.583,7.106-7.106Z" transform="translate(-156.333 -328.703)" fill="#fff"/>
    </g>
    <g id="XMLID_1897_" transform="translate(62.144 53.813)">
      <path id="Trazado_3997" data-name="Trazado 3997" d="M230.579,281.194v9.694l-7.856,7.856-7.856-7.856v-9.694Z" transform="translate(-214.866 -281.194)" fill="#efb789"/>
    </g>
    <g id="XMLID_1504_" transform="translate(53.193 10.314)">
      <g id="XMLID_1505_" transform="translate(0 0)">
        <g id="XMLID_2237_">
          <path id="XMLID_8_" d="M184.807,54a16.808,16.808,0,0,1,16.807,16.807V84.278a16.808,16.808,0,0,1-33.615,0V70.807A16.808,16.808,0,0,1,184.807,54Z" transform="translate(-168 -54)" fill="#f3c9a6"/>
        </g>
      </g>
      <g id="XMLID_2236_" transform="translate(0.875)">
        <path id="XMLID_7_" d="M192.188,67.98a9.129,9.129,0,0,0,7.907,4.566h4.586v-2.5a16.049,16.049,0,1,0-32.1,0v2.5h6.606a17,17,0,0,0,12.037-4.995L193.773,65" transform="translate(-172.583 -53.999)" fill="#6d92ac"/>
      </g>
    </g>
    <g id="XMLID_2225_" transform="translate(66.052 41.771)">
      <path id="XMLID_402_" d="M244.491,222.136a3.82,3.82,0,0,0-3.82-3.82h-1.528a3.82,3.82,0,0,0,0,7.64h1.528A3.82,3.82,0,0,0,244.491,222.136Z" transform="translate(-235.323 -218.316)" fill="#ff7d97"/>
    </g>
    <g id="XMLID_2022_" transform="translate(86.85 27.522)">
      <path id="XMLID_391_" d="M347.61,143.816H344v16.846h3.61a8.423,8.423,0,0,0,0-16.846Z" transform="translate(-344 -143.816)" fill="#ff7d97"/>
    </g>
    <g id="XMLID_426_" transform="translate(26)">
      <path id="XMLID_789_" d="M90.93,60.969H79.782V56.622a18.814,18.814,0,0,0,8.1-10.324H90.45a10.343,10.343,0,0,0,6.715-18.216v-.917a27.165,27.165,0,0,0-54.33,0v.918A10.343,10.343,0,0,0,49.55,46.3h2.573a18.814,18.814,0,0,0,8.1,10.324v4.347H49.07A23.1,23.1,0,0,0,26,84.04v12a1.913,1.913,0,0,0,1.913,1.913H40.575a1.913,1.913,0,1,0,0-3.826H29.826V84.04A19.266,19.266,0,0,1,49.07,64.8h.918L61.363,79.654a1.913,1.913,0,0,0,1.393.746c.042,0,.084,0,.126,0a1.914,1.914,0,0,0,1.353-.56l3.852-3.852v18.13H57.792a1.913,1.913,0,1,0,0,3.826h54.295A1.913,1.913,0,0,0,114,96.035v-12a23.1,23.1,0,0,0-23.07-23.07ZM79.283,64.8h5.91l-8.266,10.8-4.221-4.221Zm-2.666-44.8a1.913,1.913,0,0,0-2.705,0l-2.55,2.557a15.014,15.014,0,0,1-10.7,4.441H55.082a14.918,14.918,0,0,1,29.835,0H81.6a7.252,7.252,0,0,1-6.029-3.242L76.62,22.7a1.913,1.913,0,0,0,0-2.705ZM90.45,42.473h-1.7V29.426h1.7a6.523,6.523,0,0,1,0,13.047ZM70,3.826A23.368,23.368,0,0,1,93.31,26a10.312,10.312,0,0,0-2.86-.4H88.682a18.747,18.747,0,0,0-37.364,0H49.55a10.32,10.32,0,0,0-2.86.4A23.368,23.368,0,0,1,70,3.826ZM51.252,42.473h-1.7a6.524,6.524,0,0,1,0-13.047h1.7Zm3.826-1.815V30.821h5.581a18.8,18.8,0,0,0,12.123-4.387A11.092,11.092,0,0,0,81.6,30.821h3.323v9.837a14.878,14.878,0,0,1-.309,3.02h-7.8a5.748,5.748,0,0,0-5.41-3.826H69.87a5.739,5.739,0,0,0,0,11.478H71.4a5.748,5.748,0,0,0,5.41-3.826h6.435a14.922,14.922,0,0,1-28.167-6.846Zm18.236,4.933A1.915,1.915,0,0,1,71.4,47.5H69.87a1.913,1.913,0,0,1,0-3.826H71.4A1.915,1.915,0,0,1,73.314,45.591ZM70,59.379a18.7,18.7,0,0,0,5.956-.969v4.3L70,68.668l-5.956-5.956v-4.3A18.7,18.7,0,0,0,70,59.379ZM63.074,75.594,54.807,64.8h5.91l6.578,6.578Zm47.1,18.528H71.913V75.992l3.852,3.852a1.914,1.914,0,0,0,1.353.56c.042,0,.084,0,.126,0a1.913,1.913,0,0,0,1.393-.746L90.012,64.8h.918A19.265,19.265,0,0,1,110.174,84.04Z" transform="translate(-26)"/>
      <path id="XMLID_841_" d="M348.744,438h-9.168a1.91,1.91,0,1,0,0,3.82h9.168a1.91,1.91,0,1,0,0-3.82Z" transform="translate(-278.027 -354.186)"/>
      <path id="XMLID_842_" d="M139.1,492a1.911,1.911,0,1,0,1.35.56A1.92,1.92,0,0,0,139.1,492Z" transform="translate(-115.917 -397.872)"/>
    </g>
  </g>
</svg>
