<svg id="apoyo" xmlns="http://www.w3.org/2000/svg" width="88.557" height="88.557" viewBox="0 0 88.557 88.557">
  <path id="Trazado_3976" data-name="Trazado 3976" d="M349.358,8.533H330.171a5.9,5.9,0,0,0-5.9,5.9V29.2a5.9,5.9,0,0,0,5.9,5.9H334.6v7.38l7.38-7.38h7.38a5.9,5.9,0,0,0,5.9-5.9V14.437A5.9,5.9,0,0,0,349.358,8.533Z" transform="translate(-268.181 -7.057)" fill="#f0e4d6"/>
  <path id="Trazado_3977" data-name="Trazado 3977" d="M362.128,13.466c-6.091,14.52-18.071,21.257-26.068,24.238a5.848,5.848,0,0,0,3.864,1.476h4.428v7.38l7.38-7.38h7.38a5.9,5.9,0,0,0,5.9-5.9V18.517A5.882,5.882,0,0,0,362.128,13.466Z" transform="translate(-277.934 -11.137)" fill="#ebdcca"/>
  <path id="Trazado_3978" data-name="Trazado 3978" d="M69.046,293.221l14.759-28.043H72l-7.38,13.283V266.654a8.855,8.855,0,0,0-8.856-8.856H46.907a4.428,4.428,0,0,1-4.428-4.428v-5.9H30.671v5.9a4.428,4.428,0,0,1-4.428,4.428H17.388a8.855,8.855,0,0,0-8.856,8.856v26.567Z" transform="translate(-7.056 -204.664)" fill="#fec9a3"/>
  <g id="Grupo_1446" data-name="Grupo 1446" transform="translate(7.38 66.279)">
    <path id="Trazado_3979" data-name="Trazado 3979" d="M48.521,405.476H45.569v-3.925a14.711,14.711,0,0,1-.61-16.653l1.079-1.7,2.493,1.582-1.079,1.7a11.758,11.758,0,0,0,.745,13.647,1.474,1.474,0,0,1,.323.922v4.428Z" transform="translate(-42.669 -383.198)" fill="#f5b789"/>
    <path id="Trazado_3980" data-name="Trazado 3980" d="M267.734,405.476h-2.952v-4.428a1.475,1.475,0,0,1,.323-.922,11.756,11.756,0,0,0,.745-13.645l-1.079-1.7,2.493-1.582,1.079,1.7a14.712,14.712,0,0,1-.61,16.653Z" transform="translate(-226.356 -383.198)" fill="#f5b789"/>
  </g>
  <path id="Trazado_3981" data-name="Trazado 3981" d="M92.526,43.956V29.2A20.663,20.663,0,0,0,71.863,8.533h0A20.663,20.663,0,0,0,51.2,29.2V43.956a8.855,8.855,0,0,0,8.856,8.856H83.671A8.855,8.855,0,0,0,92.526,43.956Z" transform="translate(-42.344 -7.057)" fill="#f9b44d"/>
  <path id="Trazado_3982" data-name="Trazado 3982" d="M142.438,8.533a20.666,20.666,0,0,0-5.9.866,20.665,20.665,0,0,1,14.759,19.8V43.956a8.855,8.855,0,0,1-8.856,8.856h11.808a8.855,8.855,0,0,0,8.856-8.856V29.2A20.663,20.663,0,0,0,142.438,8.533Z" transform="translate(-112.919 -7.057)" fill="#f7aa36"/>
  <path id="Trazado_3983" data-name="Trazado 3983" d="M388.75,307.523H375.467a8.855,8.855,0,0,1,8.856-8.856h13.284A8.855,8.855,0,0,1,388.75,307.523Z" transform="translate(-310.525 -247.009)" fill="#fec9a3"/>
  <g id="Grupo_1447" data-name="Grupo 1447" transform="translate(61.99 7.38)">
    <rect id="Rectángulo_1254" data-name="Rectángulo 1254" width="10.332" height="2.952" fill="#ccbfb0"/>
    <rect id="Rectángulo_1255" data-name="Rectángulo 1255" width="5.904" height="2.952" transform="translate(13.284)" fill="#ccbfb0"/>
    <rect id="Rectángulo_1256" data-name="Rectángulo 1256" width="19.187" height="2.952" transform="translate(0 5.904)" fill="#ccbfb0"/>
    <rect id="Rectángulo_1257" data-name="Rectángulo 1257" width="10.332" height="2.952" transform="translate(0 11.807)" fill="#ccbfb0"/>
  </g>
  <path id="Trazado_3984" data-name="Trazado 3984" d="M148.349,253.446v-5.979H136.534v5.979a13.176,13.176,0,0,0,11.822,0Z" transform="translate(-112.919 -204.664)" fill="#f7c097"/>
  <path id="Trazado_3985" data-name="Trazado 3985" d="M93.867,94.784v6.356a13.284,13.284,0,0,0,26.567,0V89.332a13.211,13.211,0,0,0-1.59-6.3Z" transform="translate(-77.632 -68.669)" fill="#fec9a3"/>
  <rect id="Rectángulo_1258" data-name="Rectángulo 1258" width="20.663" height="16.235" transform="translate(19.187 61.99)" fill="#e8594a"/>
  <path id="Trazado_3986" data-name="Trazado 3986" d="M72,314.58l-7.38,13.284V316.056a8.855,8.855,0,0,0-8.856-8.856H51.04L36.576,326.387,22.85,307.2H17.389a8.855,8.855,0,0,0-8.856,8.856v26.567H69.047L83.806,314.58Z" transform="translate(-7.057 -254.066)" fill="#4398d1"/>
  <path id="Trazado_3987" data-name="Trazado 3987" d="M190.084,314.848H178.276l-7.38,13.284V316.324a8.855,8.855,0,0,0-7.883-8.8c-2.657,20.617-15.041,30.582-25.976,35.367h38.287Z" transform="translate(-113.335 -254.334)" fill="#3f8fc4"/>
  <g id="Grupo_1448" data-name="Grupo 1448" transform="translate(7.38 66.279)">
    <path id="Trazado_3988" data-name="Trazado 3988" d="M48.521,405.476H45.569v-3.925a14.711,14.711,0,0,1-.61-16.653l1.079-1.7,2.493,1.582-1.079,1.7a11.758,11.758,0,0,0,.745,13.647,1.474,1.474,0,0,1,.323.922v4.428Z" transform="translate(-42.669 -383.198)" fill="#3685ba"/>
    <path id="Trazado_3989" data-name="Trazado 3989" d="M267.734,405.476h-2.952v-4.428a1.475,1.475,0,0,1,.323-.922,11.756,11.756,0,0,0,.745-13.645l-1.079-1.7,2.493-1.582,1.079,1.7a14.712,14.712,0,0,1-.61,16.653Z" transform="translate(-226.356 -383.198)" fill="#3685ba"/>
  </g>
  <path id="Trazado_3990" data-name="Trazado 3990" d="M183.951,101.139V89.331a13.212,13.212,0,0,0-1.59-6.3l-3.746,1.762a20.571,20.571,0,0,1,.908,6.016v14.759a8.855,8.855,0,0,1-8.856,8.856,13.283,13.283,0,0,0,13.284-13.284Z" transform="translate(-141.148 -68.668)" fill="#f7c097"/>
  <path id="Trazado_3991" data-name="Trazado 3991" d="M76.613,45.754H75.137v2.952h1.476A10.343,10.343,0,0,0,86.944,38.375V22.139a22.139,22.139,0,1,0-44.278,0V38.375A10.343,10.343,0,0,0,53,48.706h1.476V45.754H53a7.388,7.388,0,0,1-7.38-7.38V22.139a19.187,19.187,0,0,1,38.375,0V38.375A7.388,7.388,0,0,1,76.613,45.754Z" transform="translate(-35.286)"/>
  <path id="Trazado_3992" data-name="Trazado 3992" d="M48.53,384.78,46.037,383.2l-1.079,1.7a14.711,14.711,0,0,0,.61,16.653v3.925H48.52v-4.428a1.474,1.474,0,0,0-.323-.922,11.758,11.758,0,0,1-.745-13.647Z" transform="translate(-35.288 -316.919)"/>
  <path id="Trazado_3993" data-name="Trazado 3993" d="M342.3,0H323.113a7.388,7.388,0,0,0-7.38,7.38V22.139a7.388,7.388,0,0,0,7.38,7.38h2.952v5.9a1.476,1.476,0,0,0,.911,1.364,1.477,1.477,0,0,0,1.609-.32l6.947-6.947H342.3a7.389,7.389,0,0,0,7.38-7.38V7.38A7.388,7.388,0,0,0,342.3,0Zm4.428,22.139a4.428,4.428,0,0,1-4.428,4.428h-7.38a1.472,1.472,0,0,0-1.043.432l-4.86,4.86V28.043a1.476,1.476,0,0,0-1.476-1.476h-4.428a4.428,4.428,0,0,1-4.428-4.428V7.38a4.428,4.428,0,0,1,4.428-4.428H342.3a4.428,4.428,0,0,1,4.428,4.428Z" transform="translate(-261.123)"/>
  <rect id="Rectángulo_1259" data-name="Rectángulo 1259" width="10.332" height="2.952" transform="translate(61.99 7.38)"/>
  <rect id="Rectángulo_1260" data-name="Rectángulo 1260" width="5.904" height="2.952" transform="translate(75.273 7.38)"/>
  <rect id="Rectángulo_1261" data-name="Rectángulo 1261" width="19.187" height="2.952" transform="translate(61.99 13.284)"/>
  <rect id="Rectángulo_1262" data-name="Rectángulo 1262" width="10.332" height="2.952" transform="translate(61.99 19.187)"/>
  <path id="Trazado_3994" data-name="Trazado 3994" d="M264.782,401.048v4.428h2.952v-3.925a14.712,14.712,0,0,0,.61-16.653l-1.079-1.7-2.493,1.582,1.079,1.7a11.756,11.756,0,0,1-.745,13.645A1.475,1.475,0,0,0,264.782,401.048Z" transform="translate(-218.976 -316.919)"/>
  <path id="Trazado_3995" data-name="Trazado 3995" d="M2.952,123.607a7.388,7.388,0,0,1,7.38-7.38h4.7L28.319,134.8a1.473,1.473,0,0,0,1.181.617h.019a1.475,1.475,0,0,0,1.181-.59l14.022-18.6h3.985a7.388,7.388,0,0,1,7.38,7.38v11.808a1.476,1.476,0,0,0,2.766.716l6.958-12.523h8.462l-14.39,26.567h3.358l14.4-26.567h.59a10.343,10.343,0,0,0,10.332-10.332,1.476,1.476,0,0,0-1.476-1.476H73.8a10.331,10.331,0,0,0-10.311,9.911l-4.448,8.008v-6.112a10.343,10.343,0,0,0-10.332-10.332H43.312l-.04-.031-.027.031h-3.4a2.951,2.951,0,0,1-2.952-2.952v-3.473a14.76,14.76,0,0,0,7.38-12.763V82.281a14.784,14.784,0,0,0-1.771-7,1.476,1.476,0,0,0-1.919-.635L15.607,86.4a1.478,1.478,0,0,0-.847,1.336v6.357a14.76,14.76,0,0,0,7.38,12.763v3.473a2.951,2.951,0,0,1-2.952,2.952H10.332A10.343,10.343,0,0,0,0,123.607v26.567H2.952ZM73.8,114.752h11.66a7.392,7.392,0,0,1-7.232,5.9H66.565A7.392,7.392,0,0,1,73.8,114.752Zm-44.247,16.7L25,125.083h9.352ZM17.711,94.088v-5.42L40.5,77.945a11.814,11.814,0,0,1,.825,4.336V94.089a11.808,11.808,0,1,1-23.615,0Zm1.476,22.139a5.9,5.9,0,0,0,5.9-5.9v-2.156a14.74,14.74,0,0,0,8.856,0v2.156a5.9,5.9,0,0,0,5.9,5.9h1.181l-4.452,5.9h-13.7l-4.226-5.9Z" transform="translate(0 -61.618)"/>
</svg>
