<svg xmlns="http://www.w3.org/2000/svg" width="88.045" height="88.51" viewBox="0 0 88.045 88.51">
  <g id="Grupo_1449" data-name="Grupo 1449" transform="translate(-487 -696.826)">
    <g id="Consult-Talk" transform="translate(487 696.826)">
      <path id="Trazado_1176" data-name="Trazado 1176" d="M180.935,3270.367a18.278,18.278,0,0,1-1.571,3.813l4.024,5.357-6.223,6.225-5.357-4.025a18.336,18.336,0,0,1-3.813,1.571l-.955,6.647h-8.805l-.955-6.647a18.3,18.3,0,0,1-3.813-1.571l-5.355,4.025-6.223-6.225,4.022-5.357a18.279,18.279,0,0,1-1.569-3.812l-6.65-.959v-8.8l6.65-.956a18.306,18.306,0,0,1,1.569-3.809l-4.022-5.359,6.223-6.218,3.227,2.418,2.128,1.6a19.722,19.722,0,0,1,1.833-.876,18.367,18.367,0,0,1,1.98-.687l.955-6.652h8.805l.955,6.652a18.229,18.229,0,0,1,1.981.688q.935.391,1.833.876l4.035-3.02,1.322-.994,6.223,6.218-4.024,5.359a18.3,18.3,0,0,1,1.571,3.809l6.648.956v8.8Z" transform="translate(-100.961 -3208.779)" fill="#ff9811"/>
      <path id="Trazado_1177" data-name="Trazado 1177" d="M163.929,3249.807a11.765,11.765,0,0,0-5.869-2.5,12.441,12.441,0,0,0-1.47-.087,11.739,11.739,0,0,0,0,23.478,12.162,12.162,0,0,0,2.936-.368,11.738,11.738,0,0,0,4.4-20.527Z" transform="translate(-94.916 -3202.735)" fill="#ffd422"/>
      <path id="Trazado_1178" data-name="Trazado 1178" d="M159.9,3261.049a17.716,17.716,0,0,0-1.98-.688l-.955-6.651h-2.934v-12.12a10.262,10.262,0,0,1,1.466-17.7v9.278l4.4,1.466,4.4-1.466v-9.278a10.259,10.259,0,0,1,1.466,17.7v17.315l-4.035,3.019Q160.838,3261.441,159.9,3261.049Z" transform="translate(-90.887 -3222.427)" fill="#c6c5ca"/>
      <path id="Trazado_1179" data-name="Trazado 1179" d="M157.884,3247.4v8.454a11.764,11.764,0,0,0-5.869-2.5v-13.3h2.934l.955,6.652A18.23,18.23,0,0,1,157.884,3247.4Z" transform="translate(-88.871 -3208.779)" fill="#ff9811"/>
      <path id="Trazado_1180" data-name="Trazado 1180" d="M146.09,3238.471h-2.936a2.973,2.973,0,0,0-1.466.394v8.412c0,.348-.015.7-.042,1.039a1.189,1.189,0,0,0,.277.147,2.915,2.915,0,0,0,1.232.28h2.936a2.86,2.86,0,0,0,1.909-.719,2.891,2.891,0,0,0,1.025-2.217v-4.4A2.938,2.938,0,0,0,146.09,3238.471Z" transform="translate(-97.622 -3210.123)" fill="#ee8700"/>
      <path id="Trazado_1181" data-name="Trazado 1181" d="M172.314,3264.064a14.569,14.569,0,0,0-7.193-6.148l-11.313-4.533-1.464-.587a5.871,5.871,0,0,1-11.743,0l-12.781,5.12a14.641,14.641,0,0,0-9.227,13.619v13.544h55.759v-13.544A14.662,14.662,0,0,0,172.314,3264.064Z" transform="translate(-117.079 -3198.033)" fill="#39c2fb"/>
      <path id="Trazado_1182" data-name="Trazado 1182" d="M159.274,3271.534a14.627,14.627,0,0,0-9.231-13.619l-11.313-4.533-1.464-.587a5.829,5.829,0,0,1-.808,2.92l7.715,3.089a14.629,14.629,0,0,1,9.229,13.619v12.655h5.871Z" transform="translate(-102.001 -3198.033)" fill="#148bdf"/>
      <path id="Trazado_1183" data-name="Trazado 1183" d="M133.131,3259.553a5.815,5.815,0,0,0,3.671-1.324,5.862,5.862,0,0,1-3.671-5.433l-5.687,2.279A5.859,5.859,0,0,0,133.131,3259.553Z" transform="translate(-109.609 -3198.033)" fill="#39c2fb"/>
      <path id="Trazado_1184" data-name="Trazado 1184" d="M142.271,3250.535v4.171a5.871,5.871,0,0,1-11.743,0v-4.171A14.589,14.589,0,0,0,142.271,3250.535Z" transform="translate(-107.006 -3199.942)" fill="#f8dfa5"/>
      <path id="Trazado_1185" data-name="Trazado 1185" d="M129.111,3247.277c0,.348.015.7.046,1.039a2.783,2.783,0,0,1-1.512.427H124.71a2.945,2.945,0,0,1-2.936-2.936v-4.4a2.941,2.941,0,0,1,2.936-2.934h2.936a2.973,2.973,0,0,1,1.466.394Z" transform="translate(-114.394 -3210.123)" fill="#ee8700"/>
      <path id="Trazado_1186" data-name="Trazado 1186" d="M142.271,3250.535v2.938a14.633,14.633,0,0,1-11.743,0v-2.938A14.589,14.589,0,0,0,142.271,3250.535Z" transform="translate(-107.006 -3199.942)" fill="#e9bc8b"/>
      <path id="Trazado_1187" data-name="Trazado 1187" d="M155.1,3246.252v1.074h-1.466a5.866,5.866,0,0,1-4.7-2.349l-2.639-3.521-4.935,3.946a8.767,8.767,0,0,1-5.486,1.924H125.753v-2.934a14.675,14.675,0,1,1,29.349,0Z" transform="translate(-111.036 -3217.51)" fill="#57565c"/>
      <path id="Trazado_1188" data-name="Trazado 1188" d="M153.636,3241.954a5.864,5.864,0,0,1-4.7-2.348l-2.639-3.522-4.935,3.947a8.769,8.769,0,0,1-5.486,1.923H125.753v7.338c0,.348.015.7.046,1.04a14.66,14.66,0,0,0,26.353,7.762,12.416,12.416,0,0,0,1.366-2.185,14.462,14.462,0,0,0,1.512-5.124v-.011c.015-.15.029-.294.029-.442.028-.337.042-.692.042-1.04v-7.338Z" transform="translate(-111.036 -3212.137)" fill="#f8dfa5"/>
      <path id="Trazado_1189" data-name="Trazado 1189" d="M147.4,3241.954a5.864,5.864,0,0,1-4.7-2.348l-2.639-3.522-1.377,1.1,1.82,2.424a5.854,5.854,0,0,0,4.693,2.348h1.47v7.338c0,.348-.015.7-.044,1.04a4,4,0,0,1-.031.442v.011a14.421,14.421,0,0,1-1.51,5.124,12.4,12.4,0,0,1-1.365,2.185,14.666,14.666,0,0,1-10.57,5.816,14.932,14.932,0,0,0,2.071.013,14.643,14.643,0,0,0,10.7-5.829,12.412,12.412,0,0,0,1.366-2.185,14.461,14.461,0,0,0,1.512-5.124v-.011c.015-.15.029-.294.029-.442.028-.337.042-.692.042-1.04v-7.338Z" transform="translate(-104.796 -3212.137)" fill="#e9bc8b"/>
      <path id="Trazado_1190" data-name="Trazado 1190" d="M204.556,3273.474l-5.729-.822a21.971,21.971,0,0,0-.966-2.347l3.469-4.623a1.467,1.467,0,0,0-.136-1.919l-6.227-6.227a1.43,1.43,0,0,0-.891-.414V3243a11.747,11.747,0,0,0,4.405-9.158,11.608,11.608,0,0,0-6.71-10.6,1.469,1.469,0,0,0-1.955.7,1.439,1.439,0,0,0-.14.625v8.219l-2.936.977-2.936-.977v-8.219a1.471,1.471,0,0,0-1.473-1.463,1.536,1.536,0,0,0-.62.145A11.618,11.618,0,0,0,175,3233.839a11.748,11.748,0,0,0,4.4,9.158v9.917H175a1.469,1.469,0,0,0-1.455,1.259l-.948,6.647,2.906.413.767-5.387h6.26l.771,5.387a1.457,1.457,0,0,0,1.04,1.2,17.572,17.572,0,0,1,3.522,1.452,1.469,1.469,0,0,0,1.586-.114l4.346-3.26,4.422,4.425-3.262,4.346a1.481,1.481,0,0,0-.116,1.59,17.469,17.469,0,0,1,1.453,3.519,1.457,1.457,0,0,0,1.2,1.04l5.384.767v6.265l-5.384.769a1.465,1.465,0,0,0-1.2,1.04,17.74,17.74,0,0,1-1.453,3.524,1.476,1.476,0,0,0,.116,1.587l3.257,4.343-4.424,4.428-4.343-3.271a1.474,1.474,0,0,0-1.586-.113,17.391,17.391,0,0,1-3.526,1.45,1.467,1.467,0,0,0-1.04,1.2l-.763,5.389h-6.065v-6.2a16.321,16.321,0,0,0-.66-4.582,13.379,13.379,0,1,0-9.382-10.365c-.035-.012-.068-.026-.1-.041l-11.864-4.746v-2.258a16.286,16.286,0,0,0,5.1-4.088h3.7a4.4,4.4,0,0,0,4.405-4.4v-3.206a4.4,4.4,0,0,0,2.932-4.133v-4.4a4.4,4.4,0,0,0-2.932-4.129v-1.737a20.545,20.545,0,1,0-41.09,0v1.737a4.4,4.4,0,0,0-2.936,4.129v4.4a4.408,4.408,0,0,0,4.405,4.405h2.936c.092,0,.183-.016.273-.023a16.177,16.177,0,0,0,8.528,11.446v2.258l-11.864,4.746a16.063,16.063,0,0,0-10.146,14.988v13.542a1.465,1.465,0,0,0,1.466,1.463H175a1.465,1.465,0,0,0,1.466-1.463v-4.4H183.8a1.469,1.469,0,0,0,1.455-1.259l.817-5.733a19.935,19.935,0,0,0,2.349-.966l4.625,3.47a1.475,1.475,0,0,0,1.92-.134l6.227-6.225a1.477,1.477,0,0,0,.136-1.921l-3.472-4.626a20.764,20.764,0,0,0,.966-2.345l5.733-.822a1.467,1.467,0,0,0,1.258-1.454v-8.8A1.466,1.466,0,0,0,204.556,3273.474Zm-16.1-12.6c-.068-.035-.147-.051-.216-.087v-18.139h-2.928v11.637l-.013-.107a1.471,1.471,0,0,0-1.453-1.259h-1.468v-10.654a1.46,1.46,0,0,0-.631-1.2,8.808,8.808,0,0,1-2.194-12.257,8.652,8.652,0,0,1,1.359-1.534v6.573a1.465,1.465,0,0,0,1.005,1.391l4.4,1.468a1.5,1.5,0,0,0,.926,0l4.405-1.468a1.469,1.469,0,0,0,1-1.391v-6.573a8.808,8.808,0,0,1-.835,13.8,1.464,1.464,0,0,0-.631,1.2v16.572Zm-19.286,18.459a10.344,10.344,0,1,1,4.892,8.718,16.153,16.153,0,0,0-3.828-4.224A10,10,0,0,1,169.173,3279.328Zm-5.869-11.74h-1.779a15.973,15.973,0,0,0,1.5-4.424c.094,0,.188.023.278.023h1.47v2.933A1.466,1.466,0,0,1,163.3,3267.588Zm-2.932-16.142a4.421,4.421,0,0,1-3.522-1.763l-2.644-3.52a1.465,1.465,0,0,0-2.089-.264l-4.925,3.931a7.344,7.344,0,0,1-4.575,1.616h-8.658v-1.466a13.207,13.207,0,1,1,26.413,0Zm7.337,7.336a1.471,1.471,0,0,1-1.47,1.469H163.3v-7.337h2.936a1.471,1.471,0,0,1,1.47,1.467Zm-20.544-27.88a17.629,17.629,0,0,1,17.608,17.612v1.466H163.3a16.14,16.14,0,1,0-32.281,0h-1.47v-1.466A17.631,17.631,0,0,1,147.165,3230.9Zm-19.078,29.349a1.468,1.468,0,0,1-1.466-1.469v-4.4a1.467,1.467,0,0,1,1.466-1.467h2.936v7.337Zm5.871,0v-5.871h8.658a10.331,10.331,0,0,0,6.415-2.25l3.745-3,1.724,2.311a7.378,7.378,0,0,0,5.871,2.934v5.871a13.166,13.166,0,0,1-2.233,7.337H147.165v2.934h8.28a13.193,13.193,0,0,1-21.486-10.271Zm13.207,16.141a16.006,16.006,0,0,0,4.4-.625v2.094a4.4,4.4,0,0,1-8.807,0v-2.094A16.032,16.032,0,0,0,147.165,3276.392Zm26.413,32.285h-8.805v-16.14h-2.936v16.14H132.489v-16.14h-2.936v16.14h-8.8V3296.6a13.135,13.135,0,0,1,8.3-12.264l11.1-4.441a7.291,7.291,0,0,0,14.029,0l11.1,4.441a13.144,13.144,0,0,1,8.305,12.264Z" transform="translate(-117.772 -3223.098)" fill="#2d2d2d"/>
      <rect id="Rectángulo_559" data-name="Rectángulo 559" width="2.935" height="2.935" transform="translate(60.208 35.685)" fill="#2d2d2d"/>
      <rect id="Rectángulo_560" data-name="Rectángulo 560" width="2.935" height="2.932" transform="translate(60.208 73.84)" fill="#2d2d2d"/>
      <rect id="Rectángulo_561" data-name="Rectángulo 561" width="2.936" height="2.936" transform="matrix(0.707, -0.707, 0.707, 0.707, 73.087, 69.72)" fill="#2d2d2d"/>
      <rect id="Rectángulo_562" data-name="Rectángulo 562" width="2.932" height="2.934" transform="translate(79.285 54.763)" fill="#2d2d2d"/>
      <rect id="Rectángulo_563" data-name="Rectángulo 563" width="2.934" height="2.934" transform="translate(73.089 42.738) rotate(-44.952)" fill="#2d2d2d"/>
    </g>
  </g>
</svg>
