<svg id="Capa_1" data-name="Capa 1" xmlns="http://www.w3.org/2000/svg" viewBox="0 0 24 24"><defs><style>.cls-1{fill:#fff;}</style></defs><title>Sin título-1</title><path class="cls-1" d="M13.15,5.62a4.76,4.76,0,1,0,4.76,4.75A4.76,4.76,0,0,0,13.15,5.62Zm0,9a4.22,4.22,0,1,1,0-8.44Zm.27,1.76v2.29a.24.24,0,0,1-.48,0V16.35a.24.24,0,0,1,.48,0ZM9.78,15a.24.24,0,0,1,.05.33L8.49,17.14a.23.23,0,0,1-.2.1.3.3,0,0,1-.14,0,.25.25,0,0,1-.05-.33L9.45,15A.24.24,0,0,1,9.78,15ZM7.7,12a.22.22,0,0,1-.15.29L5.38,13H5.3a.22.22,0,0,1-.22-.16.24.24,0,0,1,.15-.3l2.18-.71A.23.23,0,0,1,7.7,12Zm0-3.6a.23.23,0,0,1-.22.17H7.45L5.28,7.88a.24.24,0,0,1,.14-.45l2.18.71A.23.23,0,0,1,7.75,8.43Zm.48-4.78a.23.23,0,0,1,0-.33.25.25,0,0,1,.33.05L10,5.23a.23.23,0,1,1-.38.27Zm4.87.6V2a.23.23,0,0,1,.23-.24.24.24,0,0,1,.24.24V4.25a.24.24,0,0,1-.24.24A.23.23,0,0,1,13.1,4.25Z"/></svg>